G04*
G04 #@! TF.GenerationSoftware,Altium Limited,Altium Designer,20.0.12 (288)*
G04*
G04 Layer_Physical_Order=2*
G04 Layer_Color=16711680*
%FSLAX44Y44*%
%MOMM*%
G71*
G01*
G75*
%ADD15C,0.2540*%
%ADD57C,1.0000*%
%ADD59C,0.5000*%
%ADD61C,2.5500*%
%ADD62R,2.5500X2.5500*%
%ADD63C,1.8000*%
%ADD64C,1.5080*%
%ADD65R,1.5080X1.5080*%
%ADD66C,1.4000*%
%ADD67C,2.4000*%
%ADD68C,1.6000*%
%ADD69C,1.6500*%
%ADD70R,1.6500X1.6500*%
%ADD71C,1.1700*%
%ADD72R,1.1700X1.1700*%
%ADD73O,2.0000X2.0000*%
%ADD74C,1.5240*%
%ADD75R,1.5240X1.5240*%
%ADD76C,6.2000*%
%ADD77C,1.9500*%
%ADD78C,0.6000*%
%ADD79C,0.7000*%
%ADD80C,1.2700*%
%ADD81C,3.0000*%
G36*
X1545000Y760422D02*
X1454127D01*
Y391153D01*
X1451587Y390383D01*
X1451537Y390457D01*
X1412497Y429497D01*
X1411237Y430339D01*
X1409986Y430588D01*
X1409425Y431942D01*
X1407695Y434196D01*
X1405442Y435925D01*
X1402817Y437012D01*
X1400000Y437383D01*
X1397183Y437012D01*
X1394558Y435925D01*
X1392670Y434476D01*
X1392017Y434222D01*
X1389311Y434467D01*
X1382567Y441211D01*
X1382299Y444167D01*
X1382636Y444648D01*
X1384025Y446459D01*
X1385112Y449083D01*
X1385483Y451900D01*
X1385112Y454717D01*
X1384025Y457342D01*
X1382296Y459595D01*
X1380042Y461325D01*
X1377417Y462412D01*
X1374600Y462783D01*
X1371783Y462412D01*
X1369158Y461325D01*
X1366904Y459595D01*
X1365175Y457342D01*
X1364088Y454717D01*
X1363717Y451900D01*
X1364088Y449083D01*
X1365175Y446459D01*
X1366252Y445055D01*
X1366746Y443666D01*
X1366136Y441593D01*
X1290928Y366385D01*
X1097519D01*
X1096313Y366625D01*
X1083687D01*
X1082481Y366385D01*
X1049172D01*
X1049124Y366392D01*
X1049052Y366408D01*
X1048994Y366494D01*
X1047162Y367719D01*
X1045000Y368148D01*
X1042838Y367719D01*
X1041006Y366494D01*
X1039781Y364662D01*
X1039473Y363113D01*
X1037729Y362245D01*
X1036882Y362112D01*
X993032Y405962D01*
X992965Y406059D01*
X992868Y406243D01*
X992775Y406479D01*
X992690Y406775D01*
X992621Y407133D01*
X992572Y407556D01*
X992551Y408044D01*
X992560Y408593D01*
X992607Y409265D01*
X992587Y409426D01*
X992662Y410000D01*
X992374Y412190D01*
X991529Y414231D01*
X990184Y415984D01*
X988431Y417329D01*
X986390Y418174D01*
X985315Y418316D01*
X985482Y420855D01*
X1005845D01*
X1008327Y420716D01*
X1008327Y420716D01*
X1008327D01*
X1008485Y418316D01*
X1008248Y418284D01*
X1007410Y418174D01*
X1005369Y417329D01*
X1003616Y415984D01*
X1002271Y414231D01*
X1001426Y412190D01*
X1001138Y410000D01*
X1001426Y407810D01*
X1002271Y405769D01*
X1003616Y404016D01*
X1005369Y402671D01*
X1007410Y401826D01*
X1009600Y401538D01*
X1011790Y401826D01*
X1013831Y402671D01*
X1015584Y404016D01*
X1016929Y405769D01*
X1017774Y407810D01*
X1018062Y410000D01*
X1017774Y412190D01*
X1016929Y414231D01*
X1015584Y415984D01*
X1013831Y417329D01*
X1011790Y418174D01*
X1010952Y418284D01*
X1010715Y418316D01*
X1010873Y420716D01*
X1010873D01*
X1010873Y420716D01*
X1013355Y420855D01*
X1018651D01*
X1025881Y413625D01*
X1025952Y413523D01*
X1026064Y413318D01*
X1026177Y413052D01*
X1026284Y412721D01*
X1026381Y412324D01*
X1026454Y411894D01*
X1026553Y410705D01*
X1026559Y410164D01*
X1026538Y410000D01*
X1026826Y407810D01*
X1027671Y405769D01*
X1029016Y404016D01*
X1030769Y402671D01*
X1032810Y401826D01*
X1035000Y401538D01*
X1037190Y401826D01*
X1039231Y402671D01*
X1040984Y404016D01*
X1042329Y405769D01*
X1043174Y407810D01*
X1043462Y410000D01*
X1043174Y412190D01*
X1042329Y414231D01*
X1040984Y415984D01*
X1039231Y417329D01*
X1037190Y418174D01*
X1035000Y418462D01*
X1034836Y418441D01*
X1034263Y418447D01*
X1033671Y418481D01*
X1033141Y418540D01*
X1032677Y418619D01*
X1032279Y418716D01*
X1031948Y418823D01*
X1031683Y418936D01*
X1031478Y419048D01*
X1031375Y419119D01*
X1023007Y427487D01*
X1021747Y428329D01*
X1020260Y428625D01*
X897240D01*
X895754Y428329D01*
X894493Y427487D01*
X882253Y415247D01*
X881411Y413987D01*
X881115Y412500D01*
Y401849D01*
X869876Y390610D01*
X867649Y391975D01*
X867851Y392596D01*
X867875Y392800D01*
X867946Y392991D01*
X868684Y397655D01*
X868676Y397860D01*
X868716Y398061D01*
Y402783D01*
X868676Y402983D01*
X868684Y403188D01*
X867946Y407852D01*
X867875Y408044D01*
X867851Y408247D01*
X866392Y412738D01*
X866292Y412916D01*
X866236Y413113D01*
X864092Y417321D01*
X863966Y417481D01*
X863880Y417667D01*
X861104Y421488D01*
X860954Y421627D01*
X860840Y421797D01*
X857501Y425136D01*
X857331Y425249D01*
X857192Y425400D01*
X853372Y428175D01*
X853186Y428261D01*
X853026Y428387D01*
X848818Y430531D01*
X848621Y430587D01*
X848443Y430687D01*
X843952Y432146D01*
X843749Y432170D01*
X843557Y432241D01*
X838893Y432980D01*
X838688Y432971D01*
X838487Y433012D01*
X673765D01*
X673565Y432971D01*
X673360Y432980D01*
X668696Y432241D01*
X668504Y432170D01*
X668301Y432146D01*
X663810Y430687D01*
X663632Y430587D01*
X663435Y430531D01*
X659227Y428387D01*
X659067Y428261D01*
X658881Y428175D01*
X655061Y425400D01*
X654922Y425249D01*
X654752Y425136D01*
X651413Y421797D01*
X651299Y421627D01*
X651149Y421488D01*
X648373Y417667D01*
X648287Y417481D01*
X648161Y417321D01*
X646017Y413113D01*
X645961Y412916D01*
X645861Y412738D01*
X644402Y408247D01*
X644378Y408044D01*
X644307Y407852D01*
X643569Y403188D01*
X643577Y402983D01*
X643537Y402783D01*
Y398061D01*
X643577Y397860D01*
X643569Y397655D01*
X644307Y392991D01*
X644378Y392800D01*
X644402Y392596D01*
X645861Y388105D01*
X645961Y387927D01*
X646017Y387730D01*
X648161Y383523D01*
X648287Y383362D01*
X648373Y383176D01*
X651149Y379356D01*
X651299Y379217D01*
X651413Y379047D01*
X654752Y375708D01*
X654922Y375594D01*
X655061Y375444D01*
X658881Y372668D01*
X659067Y372583D01*
X659227Y372456D01*
X663435Y370312D01*
X663632Y370257D01*
X663810Y370157D01*
X668301Y368697D01*
X668504Y368673D01*
X668696Y368602D01*
X673360Y367864D01*
X673565Y367872D01*
X673765Y367832D01*
X838487D01*
X838688Y367872D01*
X838893Y367864D01*
X843557Y368602D01*
X843749Y368673D01*
X843952Y368697D01*
X844574Y368899D01*
X845938Y366672D01*
X825886Y346619D01*
X817445D01*
X815959Y346324D01*
X814698Y345481D01*
X757193Y287976D01*
X756351Y286716D01*
X756055Y285229D01*
Y175060D01*
X756351Y173573D01*
X757193Y172313D01*
X789873Y139633D01*
X791133Y138791D01*
X792620Y138495D01*
X950608D01*
X959178Y129925D01*
X957740Y127772D01*
X956334Y128354D01*
X953061Y128785D01*
X949787Y128354D01*
X946736Y127091D01*
X944117Y125080D01*
X942107Y122461D01*
X941735Y121564D01*
X938986D01*
X938614Y122461D01*
X936604Y125080D01*
X933985Y127091D01*
X930934Y128354D01*
X927661Y128785D01*
X924387Y128354D01*
X921336Y127091D01*
X918717Y125080D01*
X916707Y122461D01*
X916335Y121564D01*
X913586D01*
X913214Y122461D01*
X911204Y125080D01*
X908585Y127091D01*
X905534Y128354D01*
X902261Y128785D01*
X898987Y128354D01*
X895936Y127091D01*
X893317Y125080D01*
X891307Y122461D01*
X890935Y121564D01*
X888186D01*
X887814Y122461D01*
X885804Y125080D01*
X883185Y127091D01*
X880134Y128354D01*
X876861Y128785D01*
X873587Y128354D01*
X870536Y127091D01*
X867917Y125080D01*
X865907Y122461D01*
X865535Y121564D01*
X862786D01*
X862414Y122461D01*
X860404Y125080D01*
X857785Y127091D01*
X854734Y128354D01*
X853460Y128522D01*
Y116137D01*
Y103752D01*
X854734Y103920D01*
X857785Y105183D01*
X860404Y107193D01*
X862414Y109813D01*
X862786Y110710D01*
X865535D01*
X865907Y109813D01*
X867917Y107193D01*
X870536Y105183D01*
X873587Y103920D01*
X876861Y103489D01*
X880134Y103920D01*
X883185Y105183D01*
X885804Y107193D01*
X887814Y109813D01*
X888186Y110710D01*
X890935D01*
X891307Y109813D01*
X893317Y107193D01*
X895936Y105183D01*
X898987Y103920D01*
X902261Y103489D01*
X905534Y103920D01*
X908585Y105183D01*
X911204Y107193D01*
X913214Y109813D01*
X913586Y110710D01*
X916335D01*
X916707Y109813D01*
X918717Y107193D01*
X921336Y105183D01*
X924387Y103920D01*
X927661Y103489D01*
X930934Y103920D01*
X933985Y105183D01*
X936604Y107193D01*
X938614Y109813D01*
X938986Y110710D01*
X941735D01*
X942107Y109813D01*
X944117Y107193D01*
X946736Y105183D01*
X949787Y103920D01*
X953061Y103489D01*
X956334Y103920D01*
X959385Y105183D01*
X962004Y107193D01*
X964014Y109813D01*
X964386Y110710D01*
X967135D01*
X967507Y109813D01*
X969517Y107193D01*
X972136Y105183D01*
X975187Y103920D01*
X978460Y103489D01*
X981734Y103920D01*
X984785Y105183D01*
X987404Y107193D01*
X989414Y109813D01*
X989786Y110710D01*
X992535D01*
X992907Y109813D01*
X994917Y107193D01*
X997536Y105183D01*
X1000587Y103920D01*
X1003860Y103489D01*
X1007134Y103920D01*
X1010185Y105183D01*
X1012804Y107193D01*
X1014814Y109813D01*
X1015186Y110710D01*
X1017935D01*
X1018307Y109813D01*
X1020317Y107193D01*
X1022936Y105183D01*
X1025987Y103920D01*
X1029260Y103489D01*
X1032534Y103920D01*
X1035585Y105183D01*
X1038204Y107193D01*
X1040214Y109813D01*
X1040586Y110710D01*
X1043335D01*
X1043707Y109813D01*
X1045717Y107193D01*
X1048336Y105183D01*
X1051387Y103920D01*
X1054660Y103489D01*
X1057934Y103920D01*
X1060985Y105183D01*
X1063604Y107193D01*
X1065614Y109813D01*
X1065986Y110710D01*
X1068735D01*
X1069107Y109813D01*
X1071117Y107193D01*
X1073736Y105183D01*
X1076787Y103920D01*
X1080061Y103489D01*
X1083334Y103920D01*
X1086385Y105183D01*
X1089004Y107193D01*
X1091014Y109813D01*
X1091386Y110710D01*
X1094135D01*
X1094507Y109813D01*
X1096517Y107193D01*
X1099136Y105183D01*
X1102187Y103920D01*
X1105461Y103489D01*
X1108734Y103920D01*
X1111785Y105183D01*
X1114404Y107193D01*
X1116414Y109813D01*
X1116786Y110710D01*
X1119535D01*
X1119907Y109813D01*
X1121917Y107193D01*
X1124536Y105183D01*
X1127587Y103920D01*
X1130861Y103489D01*
X1134134Y103920D01*
X1137185Y105183D01*
X1139804Y107193D01*
X1141814Y109813D01*
X1142186Y110710D01*
X1144935D01*
X1145307Y109813D01*
X1147317Y107193D01*
X1149936Y105183D01*
X1152987Y103920D01*
X1156261Y103489D01*
X1159534Y103920D01*
X1162585Y105183D01*
X1165204Y107193D01*
X1167214Y109813D01*
X1167586Y110710D01*
X1170335D01*
X1170707Y109813D01*
X1172717Y107193D01*
X1175336Y105183D01*
X1178387Y103920D01*
X1181661Y103489D01*
X1184934Y103920D01*
X1187985Y105183D01*
X1190604Y107193D01*
X1192614Y109813D01*
X1192986Y110710D01*
X1195735D01*
X1196107Y109813D01*
X1198117Y107193D01*
X1200736Y105183D01*
X1203787Y103920D01*
X1207060Y103489D01*
X1210334Y103920D01*
X1213385Y105183D01*
X1216004Y107193D01*
X1218014Y109813D01*
X1218386Y110710D01*
X1221135D01*
X1221507Y109813D01*
X1223517Y107193D01*
X1226136Y105183D01*
X1229187Y103920D01*
X1232460Y103489D01*
X1235734Y103920D01*
X1238785Y105183D01*
X1241404Y107193D01*
X1243414Y109813D01*
X1243786Y110710D01*
X1246535D01*
X1246907Y109813D01*
X1248917Y107193D01*
X1251536Y105183D01*
X1254587Y103920D01*
X1257860Y103489D01*
X1261134Y103920D01*
X1264185Y105183D01*
X1266804Y107193D01*
X1268814Y109813D01*
X1269186Y110710D01*
X1271935D01*
X1272307Y109813D01*
X1274317Y107193D01*
X1276936Y105183D01*
X1279987Y103920D01*
X1283260Y103489D01*
X1286534Y103920D01*
X1289585Y105183D01*
X1292204Y107193D01*
X1294214Y109813D01*
X1294586Y110710D01*
X1297335D01*
X1297707Y109813D01*
X1299717Y107193D01*
X1302336Y105183D01*
X1305387Y103920D01*
X1308660Y103489D01*
X1311934Y103920D01*
X1314985Y105183D01*
X1317604Y107193D01*
X1319614Y109813D01*
X1320878Y112863D01*
X1321309Y116137D01*
X1320878Y119410D01*
X1319614Y122461D01*
X1317604Y125080D01*
X1314985Y127091D01*
X1311934Y128354D01*
X1308660Y128785D01*
X1305387Y128354D01*
X1302336Y127091D01*
X1299717Y125080D01*
X1297707Y122461D01*
X1297335Y121564D01*
X1294586D01*
X1294214Y122461D01*
X1292204Y125080D01*
X1289585Y127091D01*
X1286534Y128354D01*
X1283260Y128785D01*
X1279987Y128354D01*
X1276936Y127091D01*
X1274317Y125080D01*
X1272307Y122461D01*
X1271935Y121564D01*
X1269186D01*
X1268814Y122461D01*
X1266804Y125080D01*
X1264185Y127091D01*
X1261134Y128354D01*
X1257860Y128785D01*
X1254587Y128354D01*
X1251536Y127091D01*
X1248917Y125080D01*
X1246907Y122461D01*
X1246535Y121564D01*
X1243786D01*
X1243414Y122461D01*
X1241404Y125080D01*
X1238785Y127091D01*
X1235734Y128354D01*
X1232460Y128785D01*
X1229187Y128354D01*
X1226136Y127091D01*
X1223517Y125080D01*
X1221507Y122461D01*
X1221135Y121564D01*
X1218386D01*
X1218014Y122461D01*
X1216004Y125080D01*
X1213385Y127091D01*
X1210334Y128354D01*
X1207060Y128785D01*
X1203787Y128354D01*
X1201347Y127344D01*
X1145824Y182867D01*
X1144564Y183709D01*
X1143077Y184005D01*
X806778D01*
X799385Y191398D01*
Y224243D01*
X801925Y225014D01*
X802322Y224419D01*
X802502Y224239D01*
X802644Y224027D01*
X804733Y221938D01*
X804945Y221796D01*
X805126Y221615D01*
X807582Y219974D01*
X807818Y219876D01*
X808030Y219734D01*
X810760Y218604D01*
X811010Y218554D01*
X811246Y218456D01*
X814144Y217880D01*
X814399D01*
X814649Y217830D01*
X817604D01*
X817854Y217880D01*
X818109D01*
X821007Y218456D01*
X821243Y218554D01*
X821493Y218604D01*
X824223Y219734D01*
X824435Y219876D01*
X824670Y219974D01*
X827127Y221615D01*
X827308Y221796D01*
X827520Y221938D01*
X829609Y224027D01*
X829751Y224239D01*
X829931Y224419D01*
X831573Y226876D01*
X831670Y227112D01*
X831812Y227324D01*
X832943Y230054D01*
X832992Y230304D01*
X833090Y230539D01*
X833667Y233437D01*
Y233692D01*
X833716Y233943D01*
Y236897D01*
X833667Y237148D01*
Y237403D01*
X833090Y240301D01*
X832992Y240536D01*
X832943Y240786D01*
X831812Y243516D01*
X831670Y243728D01*
X831573Y243964D01*
X829931Y246421D01*
X829751Y246601D01*
X829609Y246813D01*
X827520Y248902D01*
X827308Y249044D01*
X827127Y249224D01*
X824670Y250866D01*
X824435Y250964D01*
X824223Y251105D01*
X821493Y252236D01*
X821243Y252286D01*
X821007Y252383D01*
X818109Y252960D01*
X817854D01*
X817604Y253010D01*
X814649D01*
X814399Y252960D01*
X814144D01*
X811246Y252383D01*
X811010Y252286D01*
X810760Y252236D01*
X808030Y251105D01*
X807818Y250964D01*
X807582Y250866D01*
X805126Y249224D01*
X804945Y249044D01*
X804733Y248902D01*
X802644Y246813D01*
X802502Y246601D01*
X802322Y246421D01*
X801925Y245826D01*
X799385Y246597D01*
Y268891D01*
X821529Y291035D01*
X1011949D01*
X1013002Y288495D01*
X1005604Y281098D01*
X1005369Y280747D01*
X1003969Y280931D01*
X1000695Y280500D01*
X997645Y279237D01*
X995025Y277226D01*
X993015Y274607D01*
X992644Y273710D01*
X989894D01*
X989523Y274607D01*
X987513Y277226D01*
X984893Y279237D01*
X981843Y280500D01*
X978569Y280931D01*
X975295Y280500D01*
X972245Y279237D01*
X969625Y277226D01*
X967615Y274607D01*
X967244Y273710D01*
X964494D01*
X964123Y274607D01*
X962113Y277226D01*
X959493Y279237D01*
X956443Y280500D01*
X953169Y280931D01*
X949895Y280500D01*
X946845Y279237D01*
X944225Y277226D01*
X942215Y274607D01*
X941844Y273710D01*
X939094D01*
X938723Y274607D01*
X936713Y277226D01*
X934093Y279237D01*
X931043Y280500D01*
X927769Y280931D01*
X924495Y280500D01*
X921445Y279237D01*
X918825Y277226D01*
X916815Y274607D01*
X916444Y273710D01*
X913694D01*
X913323Y274607D01*
X911313Y277226D01*
X908693Y279237D01*
X905643Y280500D01*
X902369Y280931D01*
X899095Y280500D01*
X896045Y279237D01*
X893425Y277226D01*
X891415Y274607D01*
X891044Y273710D01*
X888294D01*
X887923Y274607D01*
X885913Y277226D01*
X883293Y279237D01*
X880243Y280500D01*
X876969Y280931D01*
X873695Y280500D01*
X870645Y279237D01*
X868025Y277226D01*
X866015Y274607D01*
X865644Y273710D01*
X862894D01*
X862523Y274607D01*
X860513Y277226D01*
X857893Y279237D01*
X854843Y280500D01*
X851569Y280931D01*
X848295Y280500D01*
X845245Y279237D01*
X842625Y277226D01*
X840615Y274607D01*
X840117Y273403D01*
X837367D01*
X836869Y274607D01*
X834859Y277226D01*
X832239Y279237D01*
X829189Y280500D01*
X825915Y280931D01*
X822641Y280500D01*
X819591Y279237D01*
X816971Y277226D01*
X814961Y274607D01*
X813698Y271556D01*
X813267Y268283D01*
X813698Y265009D01*
X814961Y261959D01*
X816971Y259339D01*
X819591Y257329D01*
X822641Y256066D01*
X825915Y255635D01*
X829189Y256066D01*
X832239Y257329D01*
X834859Y259339D01*
X836869Y261959D01*
X837367Y263163D01*
X840117D01*
X840615Y261959D01*
X842625Y259339D01*
X845245Y257329D01*
X848295Y256066D01*
X851569Y255635D01*
X854843Y256066D01*
X857893Y257329D01*
X860513Y259339D01*
X862523Y261959D01*
X862894Y262856D01*
X865644D01*
X866015Y261959D01*
X868025Y259339D01*
X870645Y257329D01*
X873695Y256066D01*
X876969Y255635D01*
X880243Y256066D01*
X883293Y257329D01*
X885913Y259339D01*
X887923Y261959D01*
X888294Y262856D01*
X891044D01*
X891415Y261959D01*
X893425Y259339D01*
X896045Y257329D01*
X899095Y256066D01*
X902369Y255635D01*
X905643Y256066D01*
X908693Y257329D01*
X911313Y259339D01*
X913323Y261959D01*
X913694Y262856D01*
X916444D01*
X916815Y261959D01*
X918825Y259339D01*
X921445Y257329D01*
X924495Y256066D01*
X927769Y255635D01*
X931043Y256066D01*
X934093Y257329D01*
X936713Y259339D01*
X938723Y261959D01*
X939094Y262856D01*
X941844D01*
X942215Y261959D01*
X944225Y259339D01*
X946845Y257329D01*
X949895Y256066D01*
X953169Y255635D01*
X956443Y256066D01*
X959493Y257329D01*
X962113Y259339D01*
X964123Y261959D01*
X964494Y262856D01*
X967244D01*
X967615Y261959D01*
X969625Y259339D01*
X972245Y257329D01*
X975295Y256066D01*
X978569Y255635D01*
X981843Y256066D01*
X984893Y257329D01*
X987513Y259339D01*
X989523Y261959D01*
X989894Y262856D01*
X992644D01*
X993015Y261959D01*
X995025Y259339D01*
X997645Y257329D01*
X1000695Y256066D01*
X1003969Y255635D01*
X1007243Y256066D01*
X1010293Y257329D01*
X1012913Y259339D01*
X1014923Y261959D01*
X1015294Y262856D01*
X1018044D01*
X1018415Y261959D01*
X1020425Y259339D01*
X1023045Y257329D01*
X1026095Y256066D01*
X1029369Y255635D01*
X1032643Y256066D01*
X1035693Y257329D01*
X1038313Y259339D01*
X1040323Y261959D01*
X1040694Y262856D01*
X1043444D01*
X1043815Y261959D01*
X1045825Y259339D01*
X1048445Y257329D01*
X1051495Y256066D01*
X1054769Y255635D01*
X1058043Y256066D01*
X1061093Y257329D01*
X1063713Y259339D01*
X1065723Y261959D01*
X1066094Y262856D01*
X1068844D01*
X1069215Y261959D01*
X1071225Y259339D01*
X1073845Y257329D01*
X1076895Y256066D01*
X1080169Y255635D01*
X1083443Y256066D01*
X1086493Y257329D01*
X1089113Y259339D01*
X1091123Y261959D01*
X1091494Y262856D01*
X1094244D01*
X1094615Y261959D01*
X1096625Y259339D01*
X1099245Y257329D01*
X1102295Y256066D01*
X1105569Y255635D01*
X1108843Y256066D01*
X1111893Y257329D01*
X1114513Y259339D01*
X1116523Y261959D01*
X1116894Y262856D01*
X1119644D01*
X1120015Y261959D01*
X1122025Y259339D01*
X1124645Y257329D01*
X1127695Y256066D01*
X1130969Y255635D01*
X1134243Y256066D01*
X1137293Y257329D01*
X1139913Y259339D01*
X1141923Y261959D01*
X1142294Y262856D01*
X1145044D01*
X1145415Y261959D01*
X1147425Y259339D01*
X1150045Y257329D01*
X1153095Y256066D01*
X1156369Y255635D01*
X1159643Y256066D01*
X1162693Y257329D01*
X1165313Y259339D01*
X1167323Y261959D01*
X1167694Y262856D01*
X1170444D01*
X1170815Y261959D01*
X1172825Y259339D01*
X1175445Y257329D01*
X1178495Y256066D01*
X1181769Y255635D01*
X1185043Y256066D01*
X1188093Y257329D01*
X1190713Y259339D01*
X1192723Y261959D01*
X1193094Y262856D01*
X1195844D01*
X1196215Y261959D01*
X1198225Y259339D01*
X1200845Y257329D01*
X1203284Y256319D01*
Y255331D01*
X1203580Y253844D01*
X1204422Y252584D01*
X1209753Y247253D01*
X1211013Y246411D01*
X1212500Y246115D01*
X1317500D01*
X1318987Y246411D01*
X1320247Y247253D01*
X1329767Y256773D01*
X1330609Y258033D01*
X1330905Y259520D01*
Y285068D01*
X1333445Y286120D01*
X1386536Y233029D01*
X1365454Y211947D01*
X1365414Y211918D01*
X1365351Y211878D01*
X1365250Y211898D01*
X1363088Y211469D01*
X1361256Y210244D01*
X1360031Y208412D01*
X1359601Y206250D01*
X1360031Y204088D01*
X1361256Y202256D01*
X1363088Y201031D01*
X1365250Y200602D01*
X1367412Y201031D01*
X1369244Y202256D01*
X1370469Y204088D01*
X1370898Y206250D01*
X1370878Y206351D01*
X1370918Y206414D01*
X1370947Y206454D01*
X1392029Y227536D01*
X1405395Y214170D01*
Y187171D01*
X1405363Y185961D01*
X1405229Y184435D01*
X1405016Y183153D01*
X1404741Y182128D01*
X1404430Y181367D01*
X1404123Y180863D01*
X1403857Y180575D01*
X1403630Y180423D01*
X1403374Y180333D01*
X1402970Y180290D01*
X1398710D01*
Y149710D01*
X1425149D01*
X1426507Y147170D01*
X1426149Y146635D01*
X1392227D01*
X1383205Y155657D01*
X1381945Y156499D01*
X1380458Y156795D01*
X1372042D01*
X1370555Y156499D01*
X1369295Y155657D01*
X1360273Y146635D01*
X1251781D01*
X1249408Y147500D01*
X1248940Y149857D01*
X1247605Y151855D01*
X1245607Y153190D01*
X1243250Y153658D01*
X1240893Y153190D01*
X1238895Y151855D01*
X1237560Y149857D01*
X1237092Y147500D01*
X1237560Y145143D01*
X1238895Y143145D01*
X1240893Y141811D01*
X1243250Y141342D01*
X1243524Y141396D01*
X1243553Y141393D01*
X1243653Y141375D01*
X1243744Y141349D01*
X1243830Y141318D01*
X1243916Y141278D01*
X1244004Y141227D01*
X1244082Y141174D01*
X1245253Y140003D01*
X1246513Y139161D01*
X1248000Y138865D01*
X1361882D01*
X1363368Y139161D01*
X1364628Y140003D01*
X1367645Y143020D01*
X1368203Y142958D01*
X1370237Y142020D01*
X1370560Y140393D01*
X1371895Y138395D01*
X1373893Y137060D01*
X1374250Y136989D01*
Y142750D01*
X1378250D01*
Y136989D01*
X1378607Y137060D01*
X1380605Y138395D01*
X1381940Y140393D01*
X1382263Y142020D01*
X1384297Y142958D01*
X1384855Y143020D01*
X1387872Y140003D01*
X1389132Y139161D01*
X1390618Y138865D01*
X1429750D01*
X1431237Y139161D01*
X1432497Y140003D01*
X1442559Y150065D01*
X1444905Y149093D01*
Y82399D01*
X1395891Y33385D01*
X1381869D01*
X1381099Y35925D01*
X1382128Y36612D01*
X1382308Y36792D01*
X1382520Y36934D01*
X1384609Y39023D01*
X1384751Y39235D01*
X1384931Y39416D01*
X1386573Y41873D01*
X1386671Y42108D01*
X1386812Y42320D01*
X1387943Y45050D01*
X1387993Y45300D01*
X1388090Y45536D01*
X1388667Y48434D01*
Y48689D01*
X1388716Y48939D01*
Y51894D01*
X1388667Y52144D01*
Y52399D01*
X1388090Y55297D01*
X1387993Y55533D01*
X1387943Y55783D01*
X1386812Y58513D01*
X1386671Y58725D01*
X1386573Y58960D01*
X1384931Y61417D01*
X1384751Y61598D01*
X1384609Y61810D01*
X1382520Y63899D01*
X1382308Y64041D01*
X1382128Y64221D01*
X1379671Y65863D01*
X1379435Y65960D01*
X1379223Y66102D01*
X1376493Y67233D01*
X1376243Y67282D01*
X1376007Y67380D01*
X1373109Y67957D01*
X1372854D01*
X1372604Y68006D01*
X1369649D01*
X1369399Y67957D01*
X1369144D01*
X1366246Y67380D01*
X1366010Y67282D01*
X1365760Y67233D01*
X1363031Y66102D01*
X1362818Y65960D01*
X1362583Y65863D01*
X1360126Y64221D01*
X1359946Y64041D01*
X1359734Y63899D01*
X1357644Y61810D01*
X1357502Y61598D01*
X1357322Y61417D01*
X1355681Y58960D01*
X1355583Y58725D01*
X1355441Y58513D01*
X1354311Y55783D01*
X1354261Y55533D01*
X1354163Y55297D01*
X1353587Y52399D01*
Y52144D01*
X1353537Y51894D01*
Y48939D01*
X1353587Y48689D01*
Y48434D01*
X1354163Y45536D01*
X1354261Y45300D01*
X1354311Y45050D01*
X1355441Y42320D01*
X1355583Y42108D01*
X1355681Y41873D01*
X1357322Y39416D01*
X1357502Y39235D01*
X1357644Y39023D01*
X1359734Y36934D01*
X1359946Y36792D01*
X1360126Y36612D01*
X1361155Y35925D01*
X1360384Y33385D01*
X912109D01*
X892747Y52747D01*
X870937Y74557D01*
X869676Y75399D01*
X868190Y75694D01*
X816810D01*
X815324Y75399D01*
X814063Y74557D01*
X802253Y62747D01*
X801411Y61487D01*
X801115Y60000D01*
Y59860D01*
X783885D01*
Y75000D01*
X783589Y76487D01*
X782747Y77747D01*
X768885Y91609D01*
Y120000D01*
X768589Y121486D01*
X767747Y122747D01*
X613965Y276529D01*
Y446918D01*
X637672Y470625D01*
X1220441D01*
X1221928Y470921D01*
X1223188Y471763D01*
X1349781Y598356D01*
X1362225D01*
X1362445Y598310D01*
X1362875Y598180D01*
X1363356Y597999D01*
X1367889Y595678D01*
X1368872Y595094D01*
X1369158Y594875D01*
X1371783Y593788D01*
X1374600Y593417D01*
X1377417Y593788D01*
X1380042Y594875D01*
X1382296Y596604D01*
X1384025Y598858D01*
X1385112Y601483D01*
X1385483Y604300D01*
X1385112Y607117D01*
X1384025Y609742D01*
X1382296Y611996D01*
X1380042Y613725D01*
X1377417Y614812D01*
X1374600Y615183D01*
X1371783Y614812D01*
X1369158Y613725D01*
X1366904Y611996D01*
X1365175Y609742D01*
X1365070Y609487D01*
X1364711Y608900D01*
X1364224Y608195D01*
X1363755Y607603D01*
X1363309Y607122D01*
X1362897Y606750D01*
X1362525Y606478D01*
X1362200Y606296D01*
X1361919Y606184D01*
X1361672Y606126D01*
X1361659Y606125D01*
X1348172D01*
X1347184Y605929D01*
X1345436Y606864D01*
X1344644Y607521D01*
Y619783D01*
X1362346Y637484D01*
X1363497Y638253D01*
X1368367Y643123D01*
X1368599Y643271D01*
X1368959Y643446D01*
X1369442Y643624D01*
X1370045Y643793D01*
X1370765Y643943D01*
X1371569Y644064D01*
X1373605Y644230D01*
X1374346Y644250D01*
X1374600Y644217D01*
X1377417Y644588D01*
X1378839Y645177D01*
X1381335Y643894D01*
X1381519Y643641D01*
X1381696Y642290D01*
X1380976Y641570D01*
X1380743Y641422D01*
X1380389Y641252D01*
X1379914Y641080D01*
X1379320Y640920D01*
X1378612Y640781D01*
X1377821Y640674D01*
X1375811Y640547D01*
X1374921Y640541D01*
X1374600Y640583D01*
X1371783Y640212D01*
X1369158Y639125D01*
X1366904Y637396D01*
X1365175Y635142D01*
X1364088Y632517D01*
X1363717Y629700D01*
X1364088Y626883D01*
X1365175Y624258D01*
X1366904Y622005D01*
X1369158Y620275D01*
X1371783Y619188D01*
X1374600Y618817D01*
X1377417Y619188D01*
X1380042Y620275D01*
X1382296Y622005D01*
X1384025Y624258D01*
X1385112Y626883D01*
X1385483Y629700D01*
X1385441Y630020D01*
X1385447Y630911D01*
X1385574Y632921D01*
X1385681Y633712D01*
X1385820Y634420D01*
X1385980Y635014D01*
X1386152Y635489D01*
X1386322Y635844D01*
X1386470Y636076D01*
X1389407Y639013D01*
X1390249Y640273D01*
X1390545Y641760D01*
Y645711D01*
X1390633Y645796D01*
X1393085Y646806D01*
X1394558Y645675D01*
X1397183Y644588D01*
X1400000Y644217D01*
X1402817Y644588D01*
X1405442Y645675D01*
X1407695Y647404D01*
X1409425Y649659D01*
X1410512Y652283D01*
X1410883Y655100D01*
X1410512Y657917D01*
X1409425Y660542D01*
X1407695Y662795D01*
X1405442Y664525D01*
X1402817Y665612D01*
X1400000Y665983D01*
X1397183Y665612D01*
X1394558Y664525D01*
X1393425Y663655D01*
X1390885Y664908D01*
Y669710D01*
X1410790D01*
Y691290D01*
X1390885D01*
Y694250D01*
X1390589Y695737D01*
X1389747Y696997D01*
X1388487Y697839D01*
X1388384Y697859D01*
X1381519Y704725D01*
X1380259Y705567D01*
X1378772Y705862D01*
X1369022D01*
X1367536Y705567D01*
X1366275Y704725D01*
X1354713Y693162D01*
X1353871Y691902D01*
X1353575Y690415D01*
Y673438D01*
X1349633Y669495D01*
X1348791Y668235D01*
X1348495Y666749D01*
Y648989D01*
X1327253Y627747D01*
X1326411Y626487D01*
X1326115Y625000D01*
Y607230D01*
X1212520Y493635D01*
X854731D01*
X854225Y496175D01*
X856274Y497023D01*
X860775Y499782D01*
X864790Y503210D01*
X868218Y507225D01*
X870977Y511726D01*
X872997Y516604D01*
X874230Y521737D01*
X874644Y527000D01*
X874230Y532263D01*
X872997Y537397D01*
X870977Y542274D01*
X868218Y546775D01*
X864790Y550790D01*
X860775Y554218D01*
X856274Y556977D01*
X851396Y558997D01*
X846263Y560229D01*
X841000Y560644D01*
X835737Y560229D01*
X830603Y558997D01*
X825726Y556977D01*
X821225Y554218D01*
X817210Y550790D01*
X813782Y546775D01*
X811023Y542274D01*
X809003Y537397D01*
X807770Y532263D01*
X807356Y527000D01*
X807770Y521737D01*
X809003Y516604D01*
X811023Y511726D01*
X813782Y507225D01*
X817210Y503210D01*
X821225Y499782D01*
X825726Y497023D01*
X827775Y496175D01*
X827270Y493635D01*
X629750D01*
X628263Y493339D01*
X627003Y492497D01*
X592013Y457507D01*
X591171Y456247D01*
X590875Y454760D01*
Y268687D01*
X591171Y267201D01*
X591173Y267198D01*
X591251Y266805D01*
X592093Y265545D01*
X675875Y181763D01*
Y144369D01*
X600891Y69385D01*
X452500D01*
X451013Y69089D01*
X449753Y68247D01*
X442359Y60852D01*
X442161Y60725D01*
X441847Y60570D01*
X441428Y60413D01*
X440904Y60266D01*
X440276Y60137D01*
X439578Y60037D01*
X437780Y59917D01*
X436979Y59911D01*
X436700Y59948D01*
X434048Y59598D01*
X431576Y58575D01*
X429454Y56946D01*
X427825Y54824D01*
X426801Y52352D01*
X426452Y49700D01*
X426801Y47048D01*
X427825Y44576D01*
X429454Y42454D01*
X431576Y40825D01*
X434048Y39801D01*
X436700Y39452D01*
X439352Y39801D01*
X441824Y40825D01*
X443946Y42454D01*
X445575Y44576D01*
X446599Y47048D01*
X446948Y49700D01*
X446911Y49979D01*
X446917Y50780D01*
X447037Y52578D01*
X447137Y53276D01*
X447266Y53904D01*
X447413Y54428D01*
X447570Y54847D01*
X447724Y55161D01*
X447852Y55359D01*
X454109Y61615D01*
X457679D01*
X458185Y59075D01*
X456976Y58575D01*
X454854Y56946D01*
X453225Y54824D01*
X452201Y52352D01*
X451852Y49700D01*
X452201Y47048D01*
X453225Y44576D01*
X454854Y42454D01*
X456976Y40825D01*
X459448Y39801D01*
X462100Y39452D01*
X464752Y39801D01*
X467224Y40825D01*
X469346Y42454D01*
X470975Y44576D01*
X471998Y47048D01*
X472348Y49700D01*
X471998Y52352D01*
X470975Y54824D01*
X469346Y56946D01*
X467224Y58575D01*
X466015Y59075D01*
X466521Y61615D01*
X483079D01*
X483585Y59075D01*
X482376Y58575D01*
X480254Y56946D01*
X478625Y54824D01*
X477602Y52352D01*
X477516Y51700D01*
X487500D01*
X497484D01*
X497398Y52352D01*
X496375Y54824D01*
X494746Y56946D01*
X492624Y58575D01*
X491415Y59075D01*
X491921Y61615D01*
X508479D01*
X508985Y59075D01*
X507776Y58575D01*
X505654Y56946D01*
X504025Y54824D01*
X503002Y52352D01*
X502652Y49700D01*
X503002Y47048D01*
X504025Y44576D01*
X505654Y42454D01*
X507776Y40825D01*
X510248Y39801D01*
X512900Y39452D01*
X515552Y39801D01*
X518024Y40825D01*
X520146Y42454D01*
X521775Y44576D01*
X522799Y47048D01*
X523148Y49700D01*
X522799Y52352D01*
X521775Y54824D01*
X520146Y56946D01*
X518024Y58575D01*
X516815Y59075D01*
X517321Y61615D01*
X533880D01*
X534385Y59075D01*
X533176Y58575D01*
X531054Y56946D01*
X529425Y54824D01*
X528401Y52352D01*
X528052Y49700D01*
X528401Y47048D01*
X529425Y44576D01*
X531054Y42454D01*
X533176Y40825D01*
X535648Y39801D01*
X538300Y39452D01*
X540952Y39801D01*
X543424Y40825D01*
X545546Y42454D01*
X547175Y44576D01*
X548199Y47048D01*
X548548Y49700D01*
X548199Y52352D01*
X547175Y54824D01*
X545546Y56946D01*
X543424Y58575D01*
X542215Y59075D01*
X542721Y61615D01*
X559280D01*
X559785Y59075D01*
X558576Y58575D01*
X556454Y56946D01*
X554825Y54824D01*
X553801Y52352D01*
X553452Y49700D01*
X553801Y47048D01*
X554825Y44576D01*
X556454Y42454D01*
X558576Y40825D01*
X561048Y39801D01*
X563700Y39452D01*
X566352Y39801D01*
X568824Y40825D01*
X570946Y42454D01*
X572575Y44576D01*
X573599Y47048D01*
X573948Y49700D01*
X573599Y52352D01*
X572575Y54824D01*
X570946Y56946D01*
X568824Y58575D01*
X567615Y59075D01*
X568121Y61615D01*
X584679D01*
X585185Y59075D01*
X583976Y58575D01*
X581854Y56946D01*
X580225Y54824D01*
X579202Y52352D01*
X578852Y49700D01*
X579202Y47048D01*
X580225Y44576D01*
X581854Y42454D01*
X583976Y40825D01*
X586448Y39801D01*
X589100Y39452D01*
X591752Y39801D01*
X594224Y40825D01*
X596346Y42454D01*
X597975Y44576D01*
X598998Y47048D01*
X599348Y49700D01*
X598998Y52352D01*
X597975Y54824D01*
X596346Y56946D01*
X594224Y58575D01*
X593015Y59075D01*
X593521Y61615D01*
X602500D01*
X603987Y61911D01*
X605247Y62753D01*
X682507Y140013D01*
X683349Y141273D01*
X683645Y142760D01*
Y177859D01*
X685991Y178831D01*
X687451Y177371D01*
X688403Y176735D01*
X737616Y127522D01*
Y61587D01*
X737567Y61357D01*
X737454Y61026D01*
X737268Y60618D01*
X737002Y60143D01*
X736649Y59609D01*
X736225Y59044D01*
X735040Y57688D01*
X734477Y57118D01*
X734254Y56946D01*
X732625Y54824D01*
X731601Y52352D01*
X731252Y49700D01*
X731601Y47048D01*
X732580Y44686D01*
X731332Y42550D01*
X728942Y42352D01*
X727253Y44042D01*
X727125Y44239D01*
X726970Y44553D01*
X726813Y44972D01*
X726666Y45497D01*
X726537Y46124D01*
X726438Y46823D01*
X726317Y48620D01*
X726311Y49421D01*
X726348Y49700D01*
X725999Y52352D01*
X724975Y54824D01*
X723346Y56946D01*
X721224Y58575D01*
X718752Y59598D01*
X716100Y59948D01*
X713448Y59598D01*
X710976Y58575D01*
X708854Y56946D01*
X707225Y54824D01*
X706201Y52352D01*
X705852Y49700D01*
X706201Y47048D01*
X707225Y44576D01*
X708854Y42454D01*
X710976Y40825D01*
X713448Y39801D01*
X716100Y39452D01*
X716379Y39489D01*
X717180Y39483D01*
X718978Y39363D01*
X719676Y39263D01*
X720304Y39135D01*
X720829Y38987D01*
X721247Y38830D01*
X721562Y38676D01*
X721759Y38548D01*
X724783Y35523D01*
X726044Y34681D01*
X727530Y34385D01*
X733781D01*
X734644Y31845D01*
X734254Y31546D01*
X732625Y29424D01*
X731601Y26952D01*
X731516Y26300D01*
X741500D01*
X751484D01*
X751398Y26952D01*
X750375Y29424D01*
X748746Y31546D01*
X748356Y31845D01*
X749219Y34385D01*
X759181D01*
X760044Y31845D01*
X759654Y31546D01*
X758025Y29424D01*
X757001Y26952D01*
X756652Y24300D01*
X757001Y21648D01*
X758025Y19176D01*
X759654Y17054D01*
X761776Y15425D01*
X763588Y14675D01*
X763083Y12135D01*
X745317D01*
X744812Y14675D01*
X746624Y15425D01*
X748746Y17054D01*
X750375Y19176D01*
X751398Y21648D01*
X751484Y22300D01*
X741500D01*
X731516D01*
X731601Y21648D01*
X732625Y19176D01*
X734254Y17054D01*
X736376Y15425D01*
X738188Y14675D01*
X737683Y12135D01*
X719917D01*
X719412Y14675D01*
X721224Y15425D01*
X723346Y17054D01*
X724975Y19176D01*
X725999Y21648D01*
X726348Y24300D01*
X725999Y26952D01*
X724975Y29424D01*
X723346Y31546D01*
X721224Y33175D01*
X718752Y34199D01*
X716100Y34548D01*
X713448Y34199D01*
X710976Y33175D01*
X708854Y31546D01*
X707225Y29424D01*
X706201Y26952D01*
X705852Y24300D01*
X706201Y21648D01*
X707225Y19176D01*
X708854Y17054D01*
X710976Y15425D01*
X712788Y14675D01*
X712283Y12135D01*
X694517D01*
X694012Y14675D01*
X695824Y15425D01*
X697946Y17054D01*
X699575Y19176D01*
X700599Y21648D01*
X700948Y24300D01*
X700599Y26952D01*
X699575Y29424D01*
X697946Y31546D01*
X695824Y33175D01*
X693352Y34199D01*
X690700Y34548D01*
X688048Y34199D01*
X685576Y33175D01*
X683454Y31546D01*
X681825Y29424D01*
X680801Y26952D01*
X680452Y24300D01*
X680801Y21648D01*
X681825Y19176D01*
X683454Y17054D01*
X685576Y15425D01*
X687388Y14675D01*
X686883Y12135D01*
X669117D01*
X668612Y14675D01*
X670424Y15425D01*
X672546Y17054D01*
X674175Y19176D01*
X675199Y21648D01*
X675548Y24300D01*
X675199Y26952D01*
X674175Y29424D01*
X672546Y31546D01*
X670424Y33175D01*
X667952Y34199D01*
X665300Y34548D01*
X662648Y34199D01*
X660176Y33175D01*
X658054Y31546D01*
X656425Y29424D01*
X655402Y26952D01*
X655052Y24300D01*
X655402Y21648D01*
X656425Y19176D01*
X658054Y17054D01*
X660176Y15425D01*
X661988Y14675D01*
X661483Y12135D01*
X643717D01*
X643212Y14675D01*
X645024Y15425D01*
X647146Y17054D01*
X648775Y19176D01*
X649799Y21648D01*
X649884Y22300D01*
X639900D01*
X629916D01*
X630001Y21648D01*
X631025Y19176D01*
X632654Y17054D01*
X634776Y15425D01*
X636588Y14675D01*
X636083Y12135D01*
X618317D01*
X617812Y14675D01*
X619624Y15425D01*
X621746Y17054D01*
X623375Y19176D01*
X624398Y21648D01*
X624748Y24300D01*
X624398Y26952D01*
X623375Y29424D01*
X621746Y31546D01*
X619624Y33175D01*
X617152Y34199D01*
X614500Y34548D01*
X611848Y34199D01*
X609376Y33175D01*
X607254Y31546D01*
X605625Y29424D01*
X604602Y26952D01*
X604252Y24300D01*
X604602Y21648D01*
X605625Y19176D01*
X607254Y17054D01*
X609376Y15425D01*
X611188Y14675D01*
X610683Y12135D01*
X592917D01*
X592412Y14675D01*
X594224Y15425D01*
X596346Y17054D01*
X597975Y19176D01*
X598998Y21648D01*
X599348Y24300D01*
X598998Y26952D01*
X597975Y29424D01*
X596346Y31546D01*
X594224Y33175D01*
X591752Y34199D01*
X589100Y34548D01*
X586448Y34199D01*
X583976Y33175D01*
X581854Y31546D01*
X580225Y29424D01*
X579202Y26952D01*
X578852Y24300D01*
X579202Y21648D01*
X580225Y19176D01*
X581854Y17054D01*
X583976Y15425D01*
X585788Y14675D01*
X585283Y12135D01*
X567517D01*
X567012Y14675D01*
X568824Y15425D01*
X570946Y17054D01*
X572575Y19176D01*
X573599Y21648D01*
X573684Y22300D01*
X563700D01*
X553716D01*
X553801Y21648D01*
X554825Y19176D01*
X556454Y17054D01*
X558576Y15425D01*
X560388Y14675D01*
X559883Y12135D01*
X542117D01*
X541612Y14675D01*
X543424Y15425D01*
X545546Y17054D01*
X547175Y19176D01*
X548199Y21648D01*
X548548Y24300D01*
X548199Y26952D01*
X547175Y29424D01*
X545546Y31546D01*
X543424Y33175D01*
X540952Y34199D01*
X538300Y34548D01*
X535648Y34199D01*
X533176Y33175D01*
X531054Y31546D01*
X529425Y29424D01*
X528401Y26952D01*
X528052Y24300D01*
X528401Y21648D01*
X529425Y19176D01*
X531054Y17054D01*
X533176Y15425D01*
X534988Y14675D01*
X534483Y12135D01*
X516717D01*
X516212Y14675D01*
X518024Y15425D01*
X520146Y17054D01*
X521775Y19176D01*
X522799Y21648D01*
X523148Y24300D01*
X522799Y26952D01*
X521775Y29424D01*
X520146Y31546D01*
X518024Y33175D01*
X515552Y34199D01*
X512900Y34548D01*
X510248Y34199D01*
X507776Y33175D01*
X505654Y31546D01*
X504025Y29424D01*
X503002Y26952D01*
X502652Y24300D01*
X503002Y21648D01*
X504025Y19176D01*
X505654Y17054D01*
X507776Y15425D01*
X509588Y14675D01*
X509083Y12135D01*
X491317D01*
X490812Y14675D01*
X492624Y15425D01*
X494746Y17054D01*
X496375Y19176D01*
X497398Y21648D01*
X497748Y24300D01*
X497398Y26952D01*
X496375Y29424D01*
X494746Y31546D01*
X492624Y33175D01*
X490152Y34199D01*
X487500Y34548D01*
X484848Y34199D01*
X482376Y33175D01*
X480254Y31546D01*
X478625Y29424D01*
X477602Y26952D01*
X477252Y24300D01*
X477602Y21648D01*
X478625Y19176D01*
X480254Y17054D01*
X482376Y15425D01*
X484188Y14675D01*
X483683Y12135D01*
X479759D01*
X473252Y18642D01*
X473125Y18839D01*
X472970Y19153D01*
X472813Y19572D01*
X472666Y20097D01*
X472537Y20724D01*
X472438Y21423D01*
X472317Y23220D01*
X472311Y24021D01*
X472348Y24300D01*
X471998Y26952D01*
X470975Y29424D01*
X469346Y31546D01*
X467224Y33175D01*
X464752Y34199D01*
X462100Y34548D01*
X459448Y34199D01*
X456976Y33175D01*
X454854Y31546D01*
X453225Y29424D01*
X452201Y26952D01*
X451852Y24300D01*
X452201Y21648D01*
X453225Y19176D01*
X454854Y17054D01*
X456976Y15425D01*
X459448Y14402D01*
X462100Y14052D01*
X462379Y14089D01*
X463180Y14083D01*
X464978Y13963D01*
X465676Y13863D01*
X466304Y13735D01*
X466829Y13587D01*
X467248Y13431D01*
X467562Y13276D01*
X467759Y13148D01*
X475404Y5503D01*
X476664Y4661D01*
X478150Y4365D01*
X799481D01*
X800967Y4661D01*
X802228Y5503D01*
X807747Y11022D01*
X808589Y12283D01*
X808885Y13769D01*
Y20354D01*
X811425Y21071D01*
X813782Y17225D01*
X817210Y13210D01*
X821225Y9782D01*
X825726Y7023D01*
X830603Y5003D01*
X835737Y3771D01*
X841000Y3356D01*
X846263Y3771D01*
X851396Y5003D01*
X856274Y7023D01*
X860775Y9782D01*
X864790Y13210D01*
X868218Y17225D01*
X870977Y21726D01*
X872997Y26604D01*
X874230Y31737D01*
X874644Y37000D01*
X874230Y42263D01*
X872997Y47396D01*
X870977Y52274D01*
X868218Y56775D01*
X864790Y60790D01*
X860775Y64218D01*
X858871Y65385D01*
X859587Y67925D01*
X866581D01*
X887253Y47253D01*
X887253Y47253D01*
X907753Y26753D01*
X909014Y25911D01*
X910500Y25615D01*
X1397500D01*
X1398987Y25911D01*
X1400247Y26753D01*
X1451537Y78043D01*
X1452379Y79303D01*
X1452675Y80790D01*
Y214483D01*
X1454127Y216422D01*
X1455215Y216422D01*
X1545000D01*
Y14417D01*
X921127Y14417D01*
X918731Y14359D01*
X913962Y13901D01*
X909259Y12988D01*
X904665Y11629D01*
X900222Y9837D01*
X895971Y7627D01*
X891951Y5021D01*
X888276Y2105D01*
X888198Y2042D01*
X886433Y422D01*
D01*
X886433Y422D01*
X1126D01*
Y986422D01*
X859191D01*
X859358Y983882D01*
X857679Y983661D01*
X855516Y982765D01*
X853659Y981340D01*
X852234Y979483D01*
X851339Y977321D01*
X851296Y977000D01*
X868703D01*
X868661Y977321D01*
X867765Y979483D01*
X866340Y981340D01*
X864483Y982765D01*
X862321Y983661D01*
X860642Y983882D01*
X860809Y986422D01*
X1545000D01*
Y760422D01*
D02*
G37*
G36*
X1374977Y672259D02*
X1373729Y672184D01*
X1370535Y671767D01*
X1369653Y671564D01*
X1368863Y671330D01*
X1368165Y671063D01*
X1367558Y670765D01*
X1367043Y670435D01*
X1366619Y670073D01*
X1364721Y671767D01*
X1365107Y672218D01*
X1365443Y672751D01*
X1365731Y673366D01*
X1365969Y674062D01*
X1366158Y674840D01*
X1366298Y675700D01*
X1366389Y676642D01*
X1366431Y677666D01*
X1366368Y679958D01*
X1374977Y672259D01*
D02*
G37*
G36*
X1374694Y646851D02*
X1373465Y646817D01*
X1371270Y646638D01*
X1370306Y646493D01*
X1369430Y646310D01*
X1368643Y646089D01*
X1367944Y645832D01*
X1367334Y645536D01*
X1366813Y645204D01*
X1366380Y644834D01*
X1364545Y646591D01*
X1364924Y647034D01*
X1365259Y647562D01*
X1365550Y648176D01*
X1365797Y648874D01*
X1366000Y649656D01*
X1366159Y650524D01*
X1366274Y651476D01*
X1366371Y653634D01*
X1366354Y654841D01*
X1374694Y646851D01*
D02*
G37*
G36*
X1384762Y638066D02*
X1384388Y637628D01*
X1384053Y637103D01*
X1383760Y636491D01*
X1383508Y635793D01*
X1383296Y635007D01*
X1383125Y634136D01*
X1382995Y633177D01*
X1382857Y631001D01*
X1382850Y629782D01*
X1374682Y637950D01*
X1375901Y637957D01*
X1378077Y638095D01*
X1379036Y638225D01*
X1379907Y638396D01*
X1380692Y638608D01*
X1381391Y638860D01*
X1382003Y639154D01*
X1382528Y639487D01*
X1382966Y639862D01*
X1384762Y638066D01*
D02*
G37*
G36*
X1370337Y597237D02*
X1369141Y597946D01*
X1364403Y600373D01*
X1363704Y600634D01*
X1363087Y600821D01*
X1362553Y600933D01*
X1362102Y600970D01*
X1361438Y603510D01*
X1362071Y603559D01*
X1362697Y603707D01*
X1363316Y603952D01*
X1363928Y604296D01*
X1364533Y604738D01*
X1365131Y605278D01*
X1365722Y605917D01*
X1366306Y606653D01*
X1366883Y607488D01*
X1367453Y608421D01*
X1370337Y597237D01*
D02*
G37*
G36*
X1408043Y428407D02*
X1408112Y428326D01*
X1408212Y428254D01*
X1408341Y428192D01*
X1408501Y428140D01*
X1408690Y428097D01*
X1408910Y428063D01*
X1409160Y428039D01*
X1409750Y428020D01*
Y425480D01*
X1409455Y425475D01*
X1408952Y425436D01*
X1408745Y425402D01*
X1408566Y425358D01*
X1408417Y425304D01*
X1408297Y425240D01*
X1408205Y425167D01*
X1408143Y425083D01*
X1408111Y424990D01*
X1408004Y428498D01*
X1408043Y428407D01*
D02*
G37*
G36*
X1367485Y422324D02*
X1367410Y422416D01*
X1367298Y422499D01*
X1367149Y422572D01*
X1366963Y422635D01*
X1366741Y422688D01*
X1366482Y422732D01*
X1366187Y422766D01*
X1365486Y422805D01*
X1365080Y422810D01*
Y425350D01*
X1365332Y425356D01*
X1365556Y425375D01*
X1365753Y425406D01*
X1365923Y425449D01*
X1366065Y425504D01*
X1366181Y425572D01*
X1366268Y425652D01*
X1366329Y425745D01*
X1366362Y425849D01*
X1366367Y425967D01*
X1367485Y422324D01*
D02*
G37*
G36*
X1444905Y386101D02*
Y273901D01*
X1442559Y272929D01*
X1436885Y278603D01*
Y370250D01*
X1436589Y371737D01*
X1435747Y372997D01*
X1412703Y396040D01*
X1412567Y396250D01*
X1412364Y396640D01*
X1412135Y397173D01*
X1411917Y397774D01*
X1410900Y401783D01*
X1410669Y403016D01*
X1410669Y403016D01*
Y403016D01*
X1410612Y403158D01*
X1410512Y403917D01*
X1409425Y406542D01*
X1407695Y408796D01*
X1405442Y410525D01*
X1402817Y411612D01*
X1400000Y411983D01*
X1397183Y411612D01*
X1394558Y410525D01*
X1393925Y410039D01*
X1391385Y411291D01*
Y416309D01*
X1393925Y417561D01*
X1394558Y417075D01*
X1397183Y415988D01*
X1400000Y415617D01*
X1402817Y415988D01*
X1405442Y417075D01*
X1407695Y418805D01*
X1408092Y419322D01*
X1411452Y419555D01*
X1444905Y386101D01*
D02*
G37*
G36*
X1029723Y417113D02*
X1030115Y416841D01*
X1030554Y416602D01*
X1031040Y416395D01*
X1031573Y416222D01*
X1032153Y416082D01*
X1032780Y415974D01*
X1033453Y415900D01*
X1034174Y415858D01*
X1034942Y415850D01*
X1029150Y410059D01*
X1029142Y410826D01*
X1029026Y412221D01*
X1028919Y412848D01*
X1028778Y413427D01*
X1028605Y413960D01*
X1028399Y414446D01*
X1028159Y414885D01*
X1027887Y415277D01*
X1027582Y415622D01*
X1029378Y417418D01*
X1029723Y417113D01*
D02*
G37*
G36*
X953523D02*
X953915Y416841D01*
X954354Y416602D01*
X954840Y416395D01*
X955373Y416222D01*
X955953Y416082D01*
X956580Y415974D01*
X957253Y415900D01*
X957974Y415858D01*
X958742Y415850D01*
X952950Y410059D01*
X952942Y410826D01*
X952826Y412221D01*
X952719Y412848D01*
X952578Y413427D01*
X952405Y413960D01*
X952199Y414446D01*
X951960Y414885D01*
X951687Y415277D01*
X951382Y415622D01*
X953178Y417418D01*
X953523Y417113D01*
D02*
G37*
G36*
X1366904Y418805D02*
X1369158Y417075D01*
X1371783Y415988D01*
X1374600Y415617D01*
X1377417Y415988D01*
X1380042Y417075D01*
X1381075Y417868D01*
X1383615Y416616D01*
Y410984D01*
X1381075Y409732D01*
X1380042Y410525D01*
X1377417Y411612D01*
X1374600Y411983D01*
X1371783Y411612D01*
X1369158Y410525D01*
X1366904Y408796D01*
X1365175Y406542D01*
X1364524Y404969D01*
X1363113Y404689D01*
X1361853Y403847D01*
X1339551Y381545D01*
X1333292D01*
X1331805Y381249D01*
X1330545Y380407D01*
X1328865Y382251D01*
X1361057Y414443D01*
X1361299Y414805D01*
X1365397Y418903D01*
X1366904Y418805D01*
D02*
G37*
G36*
X989972Y408706D02*
X989960Y408008D01*
X989989Y407352D01*
X990059Y406740D01*
X990169Y406170D01*
X990320Y405644D01*
X990512Y405160D01*
X990744Y404719D01*
X991017Y404321D01*
X991330Y403966D01*
X989378Y402326D01*
X989045Y402621D01*
X988662Y402891D01*
X988228Y403136D01*
X987743Y403357D01*
X987207Y403554D01*
X986620Y403725D01*
X985982Y403872D01*
X984554Y404093D01*
X983763Y404166D01*
X990024Y409447D01*
X989972Y408706D01*
D02*
G37*
G36*
X908740Y404197D02*
X907937Y404082D01*
X906491Y403794D01*
X905848Y403621D01*
X904723Y403219D01*
X904240Y402990D01*
X903810Y402741D01*
X903434Y402473D01*
X903111Y402186D01*
X901061Y403729D01*
X901379Y404089D01*
X901652Y404490D01*
X901879Y404931D01*
X902062Y405412D01*
X902200Y405933D01*
X902292Y406495D01*
X902340Y407097D01*
X902343Y407739D01*
X902300Y408422D01*
X902213Y409144D01*
X908740Y404197D01*
D02*
G37*
G36*
X983085Y418316D02*
X982010Y418174D01*
X979969Y417329D01*
X978216Y415984D01*
X976871Y414231D01*
X976026Y412190D01*
X975738Y410000D01*
X976026Y407810D01*
X976871Y405769D01*
X978216Y404016D01*
X979969Y402671D01*
X982010Y401826D01*
X983289Y401658D01*
X983524Y401588D01*
X984236Y401521D01*
X985493Y401328D01*
X985965Y401219D01*
X986397Y401092D01*
X986759Y400960D01*
X987052Y400826D01*
X987276Y400700D01*
X987380Y400626D01*
X1030948Y357058D01*
X1030382Y355418D01*
X1029780Y354635D01*
X985109D01*
X938850Y400894D01*
X938992Y403411D01*
X939307Y403957D01*
X939384Y404016D01*
X940729Y405769D01*
X941574Y407810D01*
X941862Y410000D01*
X941574Y412190D01*
X941141Y413236D01*
X942503Y415775D01*
X947531D01*
X949681Y413625D01*
X949752Y413523D01*
X949864Y413318D01*
X949977Y413052D01*
X950085Y412721D01*
X950181Y412324D01*
X950254Y411894D01*
X950353Y410705D01*
X950359Y410164D01*
X950338Y410000D01*
X950626Y407810D01*
X951471Y405769D01*
X952816Y404016D01*
X954569Y402671D01*
X956610Y401826D01*
X958800Y401538D01*
X960990Y401826D01*
X963031Y402671D01*
X964784Y404016D01*
X966129Y405769D01*
X966974Y407810D01*
X967262Y410000D01*
X966974Y412190D01*
X966129Y414231D01*
X964784Y415984D01*
X963031Y417329D01*
X960990Y418174D01*
X959915Y418316D01*
X960082Y420855D01*
X982918D01*
X983085Y418316D01*
D02*
G37*
G36*
X936760Y405142D02*
X936321Y404684D01*
X935934Y404221D01*
X935599Y403754D01*
X935315Y403282D01*
X935083Y402805D01*
X934902Y402323D01*
X934773Y401837D01*
X934696Y401346D01*
X934670Y400850D01*
X932130D01*
X932104Y401346D01*
X932027Y401837D01*
X931898Y402323D01*
X931717Y402805D01*
X931485Y403282D01*
X931201Y403754D01*
X930866Y404221D01*
X930479Y404684D01*
X930040Y405142D01*
X929550Y405595D01*
X937250D01*
X936760Y405142D01*
D02*
G37*
G36*
X1366607Y399058D02*
X1366551Y399205D01*
X1366463Y399336D01*
X1366343Y399452D01*
X1366191Y399552D01*
X1366006Y399637D01*
X1365790Y399706D01*
X1365541Y399761D01*
X1365259Y399799D01*
X1364946Y399822D01*
X1364600Y399830D01*
Y402370D01*
X1364946Y402378D01*
X1365541Y402439D01*
X1365790Y402494D01*
X1366006Y402563D01*
X1366191Y402648D01*
X1366343Y402748D01*
X1366463Y402864D01*
X1366551Y402995D01*
X1366607Y403142D01*
Y399058D01*
D02*
G37*
G36*
X1408369Y401226D02*
X1409438Y397012D01*
X1409726Y396219D01*
X1410023Y395529D01*
X1410328Y394943D01*
X1410641Y394461D01*
X1410963Y394083D01*
X1409508Y391946D01*
X1409034Y392351D01*
X1408490Y392690D01*
X1407876Y392962D01*
X1407191Y393168D01*
X1406436Y393307D01*
X1405610Y393380D01*
X1404713Y393386D01*
X1403746Y393326D01*
X1402709Y393200D01*
X1401601Y393007D01*
X1408123Y402539D01*
X1408369Y401226D01*
D02*
G37*
G36*
X1366508Y393922D02*
X1366904Y393405D01*
X1369158Y391675D01*
X1371783Y390588D01*
X1374600Y390217D01*
X1377417Y390588D01*
X1379038Y391259D01*
X1381410Y390230D01*
X1381798Y389821D01*
X1381971Y388564D01*
X1380976Y387570D01*
X1380743Y387422D01*
X1380389Y387252D01*
X1379914Y387080D01*
X1379320Y386920D01*
X1378612Y386781D01*
X1377821Y386674D01*
X1375811Y386547D01*
X1374921Y386541D01*
X1374600Y386583D01*
X1371783Y386212D01*
X1369158Y385125D01*
X1366904Y383396D01*
X1365175Y381142D01*
X1364088Y378517D01*
X1363717Y375700D01*
X1363815Y374955D01*
X1361409Y373769D01*
X1359851Y375327D01*
X1358591Y376169D01*
X1357104Y376465D01*
X1348777D01*
X1347805Y378811D01*
X1363148Y394155D01*
X1366508Y393922D01*
D02*
G37*
G36*
X1384762Y384066D02*
X1384388Y383628D01*
X1384053Y383103D01*
X1383760Y382491D01*
X1383508Y381792D01*
X1383296Y381007D01*
X1383125Y380136D01*
X1382995Y379177D01*
X1382857Y377001D01*
X1382850Y375783D01*
X1374682Y383950D01*
X1375901Y383957D01*
X1378077Y384095D01*
X1379036Y384225D01*
X1379907Y384396D01*
X1380692Y384608D01*
X1381391Y384860D01*
X1382003Y385154D01*
X1382528Y385488D01*
X1382966Y385862D01*
X1384762Y384066D01*
D02*
G37*
G36*
X1047313Y364442D02*
X1047498Y364301D01*
X1047698Y364177D01*
X1047913Y364069D01*
X1048143Y363978D01*
X1048388Y363903D01*
X1048648Y363845D01*
X1048923Y363803D01*
X1049213Y363778D01*
X1049518Y363770D01*
Y361230D01*
X1049213Y361222D01*
X1048923Y361197D01*
X1048648Y361155D01*
X1048388Y361097D01*
X1048143Y361022D01*
X1047913Y360931D01*
X1047698Y360823D01*
X1047498Y360699D01*
X1047313Y360558D01*
X1047142Y360400D01*
Y364600D01*
X1047313Y364442D01*
D02*
G37*
G36*
X1394558Y391675D02*
X1397183Y390588D01*
X1400000Y390217D01*
X1401849Y390460D01*
X1402046Y390456D01*
X1402767Y390581D01*
X1402817Y390588D01*
X1402826Y390591D01*
X1403088Y390637D01*
X1403984Y390746D01*
X1404784Y390796D01*
X1405486Y390791D01*
X1406086Y390738D01*
X1406582Y390647D01*
X1406975Y390528D01*
X1407276Y390395D01*
X1407500Y390256D01*
X1407504Y390252D01*
X1429115Y368641D01*
Y359197D01*
X1426769Y358225D01*
X1410698Y374296D01*
X1410883Y375700D01*
X1410512Y378517D01*
X1409425Y381142D01*
X1407695Y383396D01*
X1405442Y385125D01*
X1402817Y386212D01*
X1400000Y386583D01*
X1397183Y386212D01*
X1394558Y385125D01*
X1392305Y383396D01*
X1390575Y381142D01*
X1389488Y378517D01*
X1389117Y375700D01*
X1389488Y372883D01*
X1390575Y370258D01*
X1392305Y368004D01*
X1394558Y366275D01*
X1397183Y365188D01*
X1400000Y364817D01*
X1402817Y365188D01*
X1405442Y366275D01*
X1406737Y367269D01*
X1424035Y349971D01*
Y335077D01*
X1421689Y334105D01*
X1411870Y343924D01*
X1411722Y344157D01*
X1411552Y344511D01*
X1411380Y344986D01*
X1411220Y345580D01*
X1411081Y346288D01*
X1410974Y347079D01*
X1410847Y349089D01*
X1410841Y349980D01*
X1410883Y350300D01*
X1410512Y353117D01*
X1409425Y355742D01*
X1407695Y357995D01*
X1405442Y359725D01*
X1402817Y360812D01*
X1400000Y361183D01*
X1397183Y360812D01*
X1394558Y359725D01*
X1392305Y357995D01*
X1390575Y355742D01*
X1389488Y353117D01*
X1389117Y350300D01*
X1389488Y347483D01*
X1390575Y344859D01*
X1392305Y342604D01*
X1394558Y340875D01*
X1397183Y339788D01*
X1400000Y339417D01*
X1400320Y339459D01*
X1401211Y339453D01*
X1403221Y339326D01*
X1404012Y339219D01*
X1404720Y339080D01*
X1405314Y338920D01*
X1405789Y338748D01*
X1406144Y338578D01*
X1406376Y338430D01*
X1418115Y326691D01*
Y321750D01*
X1418116Y321749D01*
Y302609D01*
X1413208Y297702D01*
X1410803Y298888D01*
X1410883Y299500D01*
X1410512Y302317D01*
X1409425Y304942D01*
X1407695Y307195D01*
X1405442Y308925D01*
X1402817Y310012D01*
X1400000Y310383D01*
X1397183Y310012D01*
X1394558Y308925D01*
X1392305Y307195D01*
X1390575Y304942D01*
X1389488Y302317D01*
X1389117Y299500D01*
X1389488Y296683D01*
X1390575Y294058D01*
X1391829Y292425D01*
X1391106Y290368D01*
X1390703Y289885D01*
X1383897D01*
X1383494Y290368D01*
X1382771Y292425D01*
X1384025Y294058D01*
X1385112Y296683D01*
X1385483Y299500D01*
X1385112Y302317D01*
X1384025Y304942D01*
X1382766Y306582D01*
X1382469Y308004D01*
X1382887Y309943D01*
X1389557Y316613D01*
X1390271Y316859D01*
X1392785Y316835D01*
X1394558Y315475D01*
X1397183Y314388D01*
X1400000Y314017D01*
X1402817Y314388D01*
X1405442Y315475D01*
X1407695Y317204D01*
X1409425Y319459D01*
X1410512Y322083D01*
X1410883Y324900D01*
X1410512Y327717D01*
X1409425Y330342D01*
X1407695Y332595D01*
X1405442Y334325D01*
X1402817Y335412D01*
X1400000Y335783D01*
X1397183Y335412D01*
X1394558Y334325D01*
X1393485Y333501D01*
X1390945Y334754D01*
Y338690D01*
X1390649Y340177D01*
X1389807Y341437D01*
X1386822Y344422D01*
X1386676Y344650D01*
X1386492Y345022D01*
X1386297Y345522D01*
X1386107Y346147D01*
X1385940Y346839D01*
X1385506Y349847D01*
X1385475Y350242D01*
X1385483Y350300D01*
X1385454Y350522D01*
X1385416Y351017D01*
X1385365Y351200D01*
X1385112Y353117D01*
X1384025Y355742D01*
X1382296Y357995D01*
X1380042Y359725D01*
X1377417Y360812D01*
X1374600Y361183D01*
X1371783Y360812D01*
X1369158Y359725D01*
X1366904Y357995D01*
X1366505Y357475D01*
X1363965Y358337D01*
Y367663D01*
X1366505Y368526D01*
X1366904Y368004D01*
X1369158Y366275D01*
X1371783Y365188D01*
X1374600Y364817D01*
X1377417Y365188D01*
X1380042Y366275D01*
X1382296Y368004D01*
X1384025Y370258D01*
X1385112Y372883D01*
X1385483Y375700D01*
X1385441Y376021D01*
X1385447Y376911D01*
X1385574Y378921D01*
X1385681Y379712D01*
X1385820Y380420D01*
X1385980Y381014D01*
X1386152Y381488D01*
X1386322Y381844D01*
X1386470Y382076D01*
X1389747Y385353D01*
X1390589Y386613D01*
X1390885Y388100D01*
Y391292D01*
X1393425Y392545D01*
X1394558Y391675D01*
D02*
G37*
G36*
X1092736Y349726D02*
X1092984Y349525D01*
X1093243Y349348D01*
X1093513Y349195D01*
X1093793Y349065D01*
X1094085Y348959D01*
X1094388Y348876D01*
X1094701Y348817D01*
X1095026Y348782D01*
X1095361Y348770D01*
Y346230D01*
X1095026Y346218D01*
X1094701Y346183D01*
X1094388Y346124D01*
X1094085Y346041D01*
X1093793Y345935D01*
X1093513Y345805D01*
X1093243Y345652D01*
X1092984Y345475D01*
X1092736Y345274D01*
X1092499Y345050D01*
Y349950D01*
X1092736Y349726D01*
D02*
G37*
G36*
X1356195Y367995D02*
Y351500D01*
X1356365Y350645D01*
Y343697D01*
X1354019Y342725D01*
X1353347Y343397D01*
X1352087Y344239D01*
X1350600Y344535D01*
X1320600D01*
X1319113Y344239D01*
X1317853Y343397D01*
X1308401Y333945D01*
X1127612D01*
X1126640Y336291D01*
X1128884Y338535D01*
X1305236D01*
X1306722Y338831D01*
X1307983Y339673D01*
X1337005Y368695D01*
X1355495D01*
X1356195Y367995D01*
D02*
G37*
G36*
X1078907Y356269D02*
X1077093Y354455D01*
X1076955Y354249D01*
X1064025Y341319D01*
X1063923Y341248D01*
X1063718Y341136D01*
X1063452Y341023D01*
X1063121Y340916D01*
X1062723Y340819D01*
X1062294Y340746D01*
X1061104Y340647D01*
X1060564Y340641D01*
X1060400Y340662D01*
X1058210Y340374D01*
X1057165Y339941D01*
X1054625Y341303D01*
Y342760D01*
X1054329Y344247D01*
X1053487Y345507D01*
X1044612Y354382D01*
X1044745Y355229D01*
X1045613Y356973D01*
X1047162Y357281D01*
X1048994Y358506D01*
X1049052Y358592D01*
X1049125Y358608D01*
X1049172Y358615D01*
X1077935D01*
X1078907Y356269D01*
D02*
G37*
G36*
X1120630Y341269D02*
X1108613Y329252D01*
X1107771Y327992D01*
X1107627Y327266D01*
X1106786Y326425D01*
X1094190D01*
Y340590D01*
X1094190D01*
X1094277Y343094D01*
X1094355Y343145D01*
X1094510Y343378D01*
X1094532Y343396D01*
X1094616Y343454D01*
X1094698Y343500D01*
X1094781Y343539D01*
X1094870Y343571D01*
X1094969Y343598D01*
X1095061Y343615D01*
X1119657D01*
X1120630Y341269D01*
D02*
G37*
G36*
X1382930Y349562D02*
X1383394Y346350D01*
X1383607Y345466D01*
X1383848Y344675D01*
X1384119Y343977D01*
X1384419Y343372D01*
X1384747Y342860D01*
X1385105Y342441D01*
X1383442Y340512D01*
X1382987Y340901D01*
X1382452Y341238D01*
X1381837Y341524D01*
X1381142Y341757D01*
X1380366Y341940D01*
X1379510Y342071D01*
X1378574Y342150D01*
X1377557Y342178D01*
X1375283Y342078D01*
X1382834Y350819D01*
X1382930Y349562D01*
D02*
G37*
G36*
X1408257Y348999D02*
X1408395Y346823D01*
X1408525Y345864D01*
X1408696Y344993D01*
X1408908Y344207D01*
X1409160Y343509D01*
X1409453Y342897D01*
X1409787Y342372D01*
X1410162Y341934D01*
X1408366Y340138D01*
X1407928Y340513D01*
X1407403Y340846D01*
X1406791Y341140D01*
X1406093Y341392D01*
X1405307Y341604D01*
X1404436Y341775D01*
X1403477Y341905D01*
X1401301Y342043D01*
X1400083Y342050D01*
X1408250Y350218D01*
X1408257Y348999D01*
D02*
G37*
G36*
X978923Y339313D02*
X979315Y339041D01*
X979754Y338802D01*
X980240Y338595D01*
X980773Y338422D01*
X981353Y338282D01*
X981980Y338174D01*
X982653Y338100D01*
X983374Y338058D01*
X984142Y338050D01*
X978350Y332259D01*
X978342Y333026D01*
X978226Y334421D01*
X978118Y335047D01*
X977978Y335627D01*
X977805Y336160D01*
X977599Y336646D01*
X977359Y337085D01*
X977087Y337477D01*
X976782Y337822D01*
X978578Y339618D01*
X978923Y339313D01*
D02*
G37*
G36*
X1067818Y337822D02*
X1067513Y337477D01*
X1067241Y337085D01*
X1067001Y336646D01*
X1066795Y336160D01*
X1066622Y335627D01*
X1066482Y335047D01*
X1066374Y334421D01*
X1066300Y333747D01*
X1066258Y333026D01*
X1066250Y332258D01*
X1060459Y338050D01*
X1061226Y338058D01*
X1062620Y338174D01*
X1063247Y338282D01*
X1063827Y338422D01*
X1064360Y338595D01*
X1064846Y338801D01*
X1065285Y339041D01*
X1065677Y339313D01*
X1066022Y339618D01*
X1067818Y337822D01*
D02*
G37*
G36*
X1036517Y326535D02*
X1036465Y326476D01*
X1036420Y326389D01*
X1036380Y326275D01*
X1036346Y326132D01*
X1036319Y325961D01*
X1036298Y325763D01*
X1036273Y325282D01*
X1036270Y325000D01*
X1033730D01*
X1033727Y325282D01*
X1033681Y325961D01*
X1033654Y326132D01*
X1033621Y326274D01*
X1033581Y326389D01*
X1033535Y326476D01*
X1033483Y326535D01*
X1033426Y326566D01*
X1036575Y326566D01*
X1036517Y326535D01*
D02*
G37*
G36*
X1366672Y334688D02*
X1367197Y334353D01*
X1367809Y334060D01*
X1368508Y333808D01*
X1369293Y333596D01*
X1370164Y333425D01*
X1371123Y333295D01*
X1373299Y333157D01*
X1374518Y333150D01*
X1366350Y324982D01*
X1366343Y326201D01*
X1366205Y328377D01*
X1366075Y329336D01*
X1365904Y330207D01*
X1365692Y330993D01*
X1365440Y331691D01*
X1365146Y332303D01*
X1364812Y332828D01*
X1364438Y333266D01*
X1366234Y335062D01*
X1366672Y334688D01*
D02*
G37*
G36*
X933342Y326350D02*
X932574Y326342D01*
X931180Y326226D01*
X930553Y326118D01*
X929973Y325978D01*
X929440Y325805D01*
X928954Y325598D01*
X928515Y325359D01*
X928123Y325087D01*
X927778Y324782D01*
X925982Y326578D01*
X926287Y326923D01*
X926559Y327315D01*
X926799Y327754D01*
X927005Y328240D01*
X927178Y328773D01*
X927318Y329352D01*
X927426Y329979D01*
X927500Y330653D01*
X927542Y331374D01*
X927550Y332141D01*
X933342Y326350D01*
D02*
G37*
G36*
X925659Y413236D02*
X925226Y412190D01*
X924938Y410000D01*
X925226Y407810D01*
X926071Y405769D01*
X927416Y404016D01*
X927692Y403805D01*
X927719Y403764D01*
X927761Y403736D01*
X927792Y403694D01*
X928224Y403294D01*
X928548Y402956D01*
X928818Y402634D01*
X929036Y402329D01*
X929207Y402045D01*
X929335Y401781D01*
X929428Y401534D01*
X929489Y401302D01*
X929515Y401137D01*
Y400850D01*
X929811Y399363D01*
X930653Y398103D01*
X980753Y348003D01*
X982013Y347161D01*
X983500Y346865D01*
X1028502D01*
X1032647Y342721D01*
X1031814Y339962D01*
X1030769Y339529D01*
X1029016Y338184D01*
X1027671Y336431D01*
X1026826Y334390D01*
X1026538Y332200D01*
X1026826Y330010D01*
X1027671Y327969D01*
X1029016Y326216D01*
X1029121Y324615D01*
X1015891Y311385D01*
X967184D01*
X966380Y311225D01*
X942537D01*
X941565Y313571D01*
X945807Y317813D01*
X946649Y319074D01*
X946945Y320560D01*
Y330205D01*
X947132Y330494D01*
X947933Y331008D01*
X950463Y330070D01*
X950712Y329802D01*
X951471Y327969D01*
X952816Y326216D01*
X954569Y324871D01*
X956610Y324026D01*
X958800Y323738D01*
X960990Y324026D01*
X963031Y324871D01*
X964784Y326216D01*
X966129Y327969D01*
X966974Y330010D01*
X967262Y332200D01*
X966974Y334390D01*
X966129Y336431D01*
X964784Y338184D01*
X964274Y338575D01*
X965136Y341115D01*
X969791D01*
X975081Y335825D01*
X975152Y335723D01*
X975264Y335518D01*
X975377Y335252D01*
X975484Y334921D01*
X975581Y334524D01*
X975654Y334094D01*
X975753Y332905D01*
X975759Y332364D01*
X975738Y332200D01*
X976026Y330010D01*
X976871Y327969D01*
X978216Y326216D01*
X979969Y324871D01*
X982010Y324026D01*
X984200Y323738D01*
X986390Y324026D01*
X988431Y324871D01*
X990184Y326216D01*
X991529Y327969D01*
X992374Y330010D01*
X992662Y332200D01*
X992374Y334390D01*
X991529Y336431D01*
X990184Y338184D01*
X988431Y339529D01*
X986390Y340374D01*
X984200Y340662D01*
X984036Y340641D01*
X983463Y340647D01*
X982870Y340681D01*
X982341Y340740D01*
X981877Y340819D01*
X981479Y340916D01*
X981148Y341023D01*
X980882Y341136D01*
X980677Y341248D01*
X980575Y341319D01*
X974147Y347747D01*
X972887Y348589D01*
X971400Y348885D01*
X955000D01*
X953513Y348589D01*
X952253Y347747D01*
X942631Y338125D01*
X939384Y338184D01*
X937631Y339529D01*
X935590Y340374D01*
X933400Y340662D01*
X931210Y340374D01*
X929169Y339529D01*
X927416Y338184D01*
X926071Y336431D01*
X925226Y334390D01*
X924938Y332200D01*
X924959Y332036D01*
X924953Y331463D01*
X924919Y330869D01*
X924860Y330340D01*
X924781Y329876D01*
X924684Y329479D01*
X924577Y329148D01*
X924464Y328882D01*
X924352Y328677D01*
X924281Y328575D01*
X917091Y321385D01*
X823813D01*
X822326Y321089D01*
X821066Y320247D01*
X819943Y319125D01*
X817016D01*
X816044Y321471D01*
X823263Y328690D01*
X831703D01*
X833190Y328986D01*
X834450Y329828D01*
X905108Y400486D01*
X905213Y400560D01*
X905446Y400696D01*
X905717Y400824D01*
X906621Y401147D01*
X907081Y401271D01*
X908374Y401528D01*
X909108Y401633D01*
X909334Y401713D01*
X910190Y401826D01*
X912231Y402671D01*
X913984Y404016D01*
X915329Y405769D01*
X916174Y407810D01*
X916462Y410000D01*
X916174Y412190D01*
X915741Y413236D01*
X917103Y415775D01*
X924297D01*
X925659Y413236D01*
D02*
G37*
G36*
X1177549Y314586D02*
X1176750Y314484D01*
X1175309Y314216D01*
X1174668Y314051D01*
X1174079Y313866D01*
X1173542Y313660D01*
X1173059Y313433D01*
X1172628Y313185D01*
X1172249Y312916D01*
X1171923Y312627D01*
X1169903Y314199D01*
X1170219Y314557D01*
X1170492Y314958D01*
X1170721Y315398D01*
X1170906Y315880D01*
X1171048Y316404D01*
X1171146Y316968D01*
X1171200Y317573D01*
X1171210Y318219D01*
X1171177Y318906D01*
X1171100Y319635D01*
X1177549Y314586D01*
D02*
G37*
G36*
X1296159Y323635D02*
X1295726Y322590D01*
X1295438Y320400D01*
X1295726Y318210D01*
X1296571Y316169D01*
X1297916Y314416D01*
X1298398Y312410D01*
X1298329Y311669D01*
X1298170Y311164D01*
X1290891Y303885D01*
X1250471D01*
X1249418Y306425D01*
X1254094Y311101D01*
X1254803Y312162D01*
X1255290Y312226D01*
X1257331Y313071D01*
X1259084Y314416D01*
X1260429Y316169D01*
X1261274Y318210D01*
X1261562Y320400D01*
X1261274Y322590D01*
X1260841Y323635D01*
X1262203Y326175D01*
X1269397D01*
X1270759Y323635D01*
X1270326Y322590D01*
X1270038Y320400D01*
X1270326Y318210D01*
X1271171Y316169D01*
X1272516Y314416D01*
X1274269Y313071D01*
X1276310Y312226D01*
X1278500Y311938D01*
X1280690Y312226D01*
X1282731Y313071D01*
X1284484Y314416D01*
X1285829Y316169D01*
X1286674Y318210D01*
X1286962Y320400D01*
X1286674Y322590D01*
X1286241Y323635D01*
X1287603Y326175D01*
X1294797D01*
X1296159Y323635D01*
D02*
G37*
G36*
X1245359D02*
X1244926Y322590D01*
X1244638Y320400D01*
X1244926Y318210D01*
X1245771Y316169D01*
X1246815Y314809D01*
X1230891Y298885D01*
X1165197D01*
X1164225Y301231D01*
X1173921Y310927D01*
X1174025Y311001D01*
X1174256Y311134D01*
X1174559Y311276D01*
X1174934Y311420D01*
X1175379Y311560D01*
X1175868Y311686D01*
X1177151Y311924D01*
X1177879Y312017D01*
X1178119Y312098D01*
X1179090Y312226D01*
X1181131Y313071D01*
X1182884Y314416D01*
X1184229Y316169D01*
X1185074Y318210D01*
X1185362Y320400D01*
X1185074Y322590D01*
X1184641Y323635D01*
X1186003Y326175D01*
X1193197D01*
X1194559Y323635D01*
X1194126Y322590D01*
X1193838Y320400D01*
X1194126Y318210D01*
X1194971Y316169D01*
X1196316Y314416D01*
X1198069Y313071D01*
X1200110Y312226D01*
X1202300Y311938D01*
X1204490Y312226D01*
X1206531Y313071D01*
X1208284Y314416D01*
X1209629Y316169D01*
X1210474Y318210D01*
X1210762Y320400D01*
X1210474Y322590D01*
X1210041Y323635D01*
X1211403Y326175D01*
X1218597D01*
X1219959Y323635D01*
X1219526Y322590D01*
X1219238Y320400D01*
X1219526Y318210D01*
X1220371Y316169D01*
X1221716Y314416D01*
X1223469Y313071D01*
X1225510Y312226D01*
X1227700Y311938D01*
X1229890Y312226D01*
X1231931Y313071D01*
X1233684Y314416D01*
X1235029Y316169D01*
X1235874Y318210D01*
X1236162Y320400D01*
X1235874Y322590D01*
X1235441Y323635D01*
X1236803Y326175D01*
X1243997D01*
X1245359Y323635D01*
D02*
G37*
G36*
X1169159D02*
X1168726Y322590D01*
X1168438Y320400D01*
X1168545Y319584D01*
X1168525Y319363D01*
X1168594Y318707D01*
X1168620Y318178D01*
X1168612Y317709D01*
X1168576Y317305D01*
X1168517Y316965D01*
X1168441Y316686D01*
X1168356Y316463D01*
X1168265Y316289D01*
X1168201Y316195D01*
X1155891Y303885D01*
X1115959D01*
X1114907Y306425D01*
X1119187Y310704D01*
X1119727Y311513D01*
X1120535Y312101D01*
X1122765Y312700D01*
X1123910Y312226D01*
X1126100Y311938D01*
X1128290Y312226D01*
X1130331Y313071D01*
X1132084Y314416D01*
X1133429Y316169D01*
X1134274Y318210D01*
X1134562Y320400D01*
X1134274Y322590D01*
X1133841Y323635D01*
X1135203Y326175D01*
X1142397D01*
X1143759Y323635D01*
X1143326Y322590D01*
X1143038Y320400D01*
X1143326Y318210D01*
X1144171Y316169D01*
X1145516Y314416D01*
X1147269Y313071D01*
X1149310Y312226D01*
X1151500Y311938D01*
X1153690Y312226D01*
X1155731Y313071D01*
X1157484Y314416D01*
X1158829Y316169D01*
X1159674Y318210D01*
X1159962Y320400D01*
X1159674Y322590D01*
X1159241Y323635D01*
X1160603Y326175D01*
X1167797D01*
X1169159Y323635D01*
D02*
G37*
G36*
X1112555Y317685D02*
Y315060D01*
X1109290Y311795D01*
X1065454D01*
X1060939Y316309D01*
X1061912Y318655D01*
X1108394D01*
X1109881Y318951D01*
X1110015Y319041D01*
X1112555Y317685D01*
D02*
G37*
G36*
X1307118Y315455D02*
X1306709Y315049D01*
X1306349Y314632D01*
X1306036Y314205D01*
X1305771Y313765D01*
X1305555Y313315D01*
X1305387Y312853D01*
X1305266Y312380D01*
X1305194Y311896D01*
X1305170Y311400D01*
X1302630D01*
X1302606Y311896D01*
X1302534Y312380D01*
X1302413Y312853D01*
X1302245Y313315D01*
X1302029Y313765D01*
X1301764Y314205D01*
X1301452Y314632D01*
X1301091Y315049D01*
X1300682Y315455D01*
X1300225Y315849D01*
X1307575D01*
X1307118Y315455D01*
D02*
G37*
G36*
X1042406Y324106D02*
X1042913Y323348D01*
X1059836Y306425D01*
X1058784Y303885D01*
X1022971D01*
X1021918Y306425D01*
X1037747Y322253D01*
X1038589Y323514D01*
X1041249Y324552D01*
X1042406Y324106D01*
D02*
G37*
G36*
X1351515Y334241D02*
Y325450D01*
X1351811Y323963D01*
X1352653Y322703D01*
X1365804Y309552D01*
X1366104Y308909D01*
X1366187Y306260D01*
X1365175Y304942D01*
X1364088Y302317D01*
X1364056Y302075D01*
X1361374Y301164D01*
X1349228Y313310D01*
X1347968Y314152D01*
X1346482Y314448D01*
X1330867D01*
X1329381Y314152D01*
X1328121Y313310D01*
X1321355Y306545D01*
X1307715D01*
X1306935Y309085D01*
X1307489Y309913D01*
X1307785Y311400D01*
Y311709D01*
X1307808Y311869D01*
X1307864Y312089D01*
X1307944Y312308D01*
X1308053Y312534D01*
X1308195Y312770D01*
X1308376Y313018D01*
X1308602Y313279D01*
X1308877Y313552D01*
X1309266Y313887D01*
X1309326Y313964D01*
X1309406Y314017D01*
X1309451Y314084D01*
X1309884Y314416D01*
X1311229Y316169D01*
X1312074Y318210D01*
X1312362Y320400D01*
X1312074Y322590D01*
X1311536Y323889D01*
X1311516Y325198D01*
X1312503Y327143D01*
X1312757Y327313D01*
X1322209Y336765D01*
X1348991D01*
X1351515Y334241D01*
D02*
G37*
G36*
X1252561Y293769D02*
X1238282Y279490D01*
X1235843Y280500D01*
X1232569Y280931D01*
X1229295Y280500D01*
X1226245Y279237D01*
X1223625Y277226D01*
X1221615Y274607D01*
X1221244Y273710D01*
X1218494D01*
X1218123Y274607D01*
X1216113Y277226D01*
X1213493Y279237D01*
X1210443Y280500D01*
X1207169Y280931D01*
X1203895Y280500D01*
X1200845Y279237D01*
X1198225Y277226D01*
X1196215Y274607D01*
X1195844Y273710D01*
X1193094D01*
X1192723Y274607D01*
X1190713Y277226D01*
X1188093Y279237D01*
X1185043Y280500D01*
X1181769Y280931D01*
X1178495Y280500D01*
X1175445Y279237D01*
X1172825Y277226D01*
X1170815Y274607D01*
X1170444Y273710D01*
X1167694D01*
X1167323Y274607D01*
X1165313Y277226D01*
X1162693Y279237D01*
X1159643Y280500D01*
X1156369Y280931D01*
X1153095Y280500D01*
X1150045Y279237D01*
X1147425Y277226D01*
X1145415Y274607D01*
X1145044Y273710D01*
X1142294D01*
X1141923Y274607D01*
X1139913Y277226D01*
X1137293Y279237D01*
X1134243Y280500D01*
X1130969Y280931D01*
X1127695Y280500D01*
X1124645Y279237D01*
X1122025Y277226D01*
X1120015Y274607D01*
X1119644Y273710D01*
X1116894D01*
X1116523Y274607D01*
X1114513Y277226D01*
X1111893Y279237D01*
X1108843Y280500D01*
X1105569Y280931D01*
X1102295Y280500D01*
X1099245Y279237D01*
X1096625Y277226D01*
X1094615Y274607D01*
X1094244Y273710D01*
X1091494D01*
X1091123Y274607D01*
X1089113Y277226D01*
X1086493Y279237D01*
X1083443Y280500D01*
X1080169Y280931D01*
X1076895Y280500D01*
X1073845Y279237D01*
X1071225Y277226D01*
X1069215Y274607D01*
X1068844Y273710D01*
X1066094D01*
X1065723Y274607D01*
X1063713Y277226D01*
X1061093Y279237D01*
X1058043Y280500D01*
X1054769Y280931D01*
X1051495Y280500D01*
X1048445Y279237D01*
X1045825Y277226D01*
X1043815Y274607D01*
X1043444Y273710D01*
X1040694D01*
X1040323Y274607D01*
X1038313Y277226D01*
X1035693Y279237D01*
X1032643Y280500D01*
X1029369Y280931D01*
X1026095Y280500D01*
X1023045Y279237D01*
X1020425Y277226D01*
X1018415Y274607D01*
X1018044Y273710D01*
X1015294D01*
X1014923Y274607D01*
X1012913Y277226D01*
X1012901Y277407D01*
X1019109Y283615D01*
X1235000D01*
X1236487Y283911D01*
X1237747Y284753D01*
X1249109Y296115D01*
X1251589D01*
X1252561Y293769D01*
D02*
G37*
G36*
X1242258Y276176D02*
X1241889Y275789D01*
X1241578Y275424D01*
X1241324Y275081D01*
X1241127Y274760D01*
X1240989Y274461D01*
X1240908Y274183D01*
X1240884Y273928D01*
X1240919Y273695D01*
X1241011Y273484D01*
X1241160Y273294D01*
X1237580Y276874D01*
X1237770Y276724D01*
X1237981Y276632D01*
X1238214Y276598D01*
X1238470Y276621D01*
X1238747Y276702D01*
X1239046Y276841D01*
X1239367Y277037D01*
X1239710Y277291D01*
X1240075Y277603D01*
X1240462Y277972D01*
X1242258Y276176D01*
D02*
G37*
G36*
X1323135Y298635D02*
Y273005D01*
X1320595Y272500D01*
X1319723Y274607D01*
X1317713Y277226D01*
X1315093Y279237D01*
X1312043Y280500D01*
X1308769Y280931D01*
X1305495Y280500D01*
X1302445Y279237D01*
X1299825Y277226D01*
X1297815Y274607D01*
X1297444Y273710D01*
X1294694D01*
X1294323Y274607D01*
X1292313Y277226D01*
X1289693Y279237D01*
X1286643Y280500D01*
X1285369Y280668D01*
Y268283D01*
X1281369D01*
Y280668D01*
X1280095Y280500D01*
X1277045Y279237D01*
X1274425Y277226D01*
X1272415Y274607D01*
X1272044Y273710D01*
X1269294D01*
X1268923Y274607D01*
X1266913Y277226D01*
X1264293Y279237D01*
X1261243Y280500D01*
X1257969Y280931D01*
X1254695Y280500D01*
X1253290Y279918D01*
X1251851Y282071D01*
X1260815Y291035D01*
X1294604D01*
X1296091Y291331D01*
X1297351Y292173D01*
X1303953Y298775D01*
X1322964D01*
X1323135Y298635D01*
D02*
G37*
G36*
X1429115Y281119D02*
Y276994D01*
X1429411Y275507D01*
X1430253Y274247D01*
X1439825Y264675D01*
Y261987D01*
X1438185Y261152D01*
X1437285Y260990D01*
X1434913Y262937D01*
X1431953Y264519D01*
X1428740Y265493D01*
X1425400Y265823D01*
X1422060Y265493D01*
X1418848Y264519D01*
X1415887Y262937D01*
X1413293Y260807D01*
X1411163Y258213D01*
X1409581Y255252D01*
X1408607Y252040D01*
X1408277Y248700D01*
X1408607Y245360D01*
X1409581Y242148D01*
X1411163Y239187D01*
X1413293Y236593D01*
X1415887Y234463D01*
X1418848Y232881D01*
X1422060Y231907D01*
X1425400Y231578D01*
X1428740Y231907D01*
X1431953Y232881D01*
X1434913Y234463D01*
X1437285Y236410D01*
X1438185Y236248D01*
X1439825Y235413D01*
Y158319D01*
X1431830Y150324D01*
X1429290Y151376D01*
Y180290D01*
X1423030D01*
X1422626Y180333D01*
X1422370Y180423D01*
X1422143Y180575D01*
X1421877Y180863D01*
X1421570Y181367D01*
X1421259Y182128D01*
X1420984Y183153D01*
X1420771Y184435D01*
X1420637Y185961D01*
X1420605Y187171D01*
Y217000D01*
X1420346Y218968D01*
X1419586Y220803D01*
X1418378Y222378D01*
X1417592Y222980D01*
X1417496Y223213D01*
X1416288Y224788D01*
X1401863Y239212D01*
X1369816Y271259D01*
X1369894Y271810D01*
X1371544Y274071D01*
X1417140D01*
X1418627Y274367D01*
X1419887Y275209D01*
X1426769Y282091D01*
X1429115Y281119D01*
D02*
G37*
G36*
X1209461Y258636D02*
X1209246Y258552D01*
X1209057Y258411D01*
X1208893Y258214D01*
X1208754Y257961D01*
X1208641Y257651D01*
X1208552Y257285D01*
X1208490Y256863D01*
X1208452Y256385D01*
X1208439Y255850D01*
X1205899D01*
X1205886Y256385D01*
X1205849Y256863D01*
X1205786Y257285D01*
X1205697Y257651D01*
X1205584Y257961D01*
X1205445Y258214D01*
X1205281Y258411D01*
X1205092Y258552D01*
X1204877Y258636D01*
X1204638Y258664D01*
X1209700D01*
X1209461Y258636D01*
D02*
G37*
G36*
X1407092Y230299D02*
X1396485Y233835D01*
X1400021Y237370D01*
X1407092Y230299D01*
D02*
G37*
G36*
X1369343Y208547D02*
X1369133Y208325D01*
X1368945Y208102D01*
X1368780Y207879D01*
X1368638Y207654D01*
X1368517Y207428D01*
X1368419Y207201D01*
X1368343Y206972D01*
X1368290Y206743D01*
X1368259Y206512D01*
X1368250Y206280D01*
X1365280Y209250D01*
X1365512Y209259D01*
X1365743Y209290D01*
X1365972Y209343D01*
X1366201Y209419D01*
X1366428Y209517D01*
X1366654Y209638D01*
X1366879Y209781D01*
X1367103Y209946D01*
X1367325Y210133D01*
X1367547Y210343D01*
X1369343Y208547D01*
D02*
G37*
G36*
X1418050Y185814D02*
X1418200Y184109D01*
X1418450Y182604D01*
X1418800Y181300D01*
X1419250Y180197D01*
X1419800Y179294D01*
X1420450Y178592D01*
X1421200Y178090D01*
X1422050Y177789D01*
X1423000Y177689D01*
X1403000D01*
X1403950Y177789D01*
X1404800Y178090D01*
X1405550Y178592D01*
X1406200Y179294D01*
X1406750Y180197D01*
X1407200Y181300D01*
X1407550Y182604D01*
X1407800Y184109D01*
X1407950Y185814D01*
X1408000Y187719D01*
X1418000D01*
X1418050Y185814D01*
D02*
G37*
G36*
X1246759Y147139D02*
X1246792Y146822D01*
X1246850Y146514D01*
X1246932Y146215D01*
X1247039Y145924D01*
X1247170Y145643D01*
X1247326Y145371D01*
X1247506Y145107D01*
X1247710Y144853D01*
X1247939Y144607D01*
X1246143Y142811D01*
X1245898Y143040D01*
X1245643Y143244D01*
X1245379Y143424D01*
X1245107Y143580D01*
X1244826Y143711D01*
X1244535Y143818D01*
X1244236Y143900D01*
X1243928Y143958D01*
X1243611Y143991D01*
X1243285Y144000D01*
X1246750Y147465D01*
X1246759Y147139D01*
D02*
G37*
G36*
X984578Y129925D02*
X983139Y127772D01*
X981734Y128354D01*
X978460Y128785D01*
X975187Y128354D01*
X972747Y127344D01*
X958862Y141229D01*
X959834Y143575D01*
X970928D01*
X984578Y129925D01*
D02*
G37*
G36*
X1187778D02*
X1186340Y127772D01*
X1184934Y128354D01*
X1181661Y128785D01*
X1178387Y128354D01*
X1175947Y127344D01*
X1129402Y173889D01*
X1130374Y176235D01*
X1141468D01*
X1187778Y129925D01*
D02*
G37*
G36*
X1162378D02*
X1160940Y127772D01*
X1159534Y128354D01*
X1156261Y128785D01*
X1152987Y128354D01*
X1150547Y127344D01*
X1109082Y168809D01*
X1110054Y171155D01*
X1121148D01*
X1162378Y129925D01*
D02*
G37*
G36*
X1136978D02*
X1135540Y127772D01*
X1134134Y128354D01*
X1130861Y128785D01*
X1127587Y128354D01*
X1125147Y127344D01*
X1088762Y163729D01*
X1089734Y166075D01*
X1100828D01*
X1136978Y129925D01*
D02*
G37*
G36*
X1009978D02*
X1008540Y127772D01*
X1007134Y128354D01*
X1003860Y128785D01*
X1000587Y128354D01*
X998147Y127344D01*
X979182Y146309D01*
X980154Y148655D01*
X991248D01*
X1009978Y129925D01*
D02*
G37*
G36*
X1035378D02*
X1033940Y127772D01*
X1032534Y128354D01*
X1029260Y128785D01*
X1025987Y128354D01*
X1023547Y127344D01*
X999502Y151389D01*
X1000474Y153735D01*
X1011568D01*
X1035378Y129925D01*
D02*
G37*
G36*
X1111578D02*
X1110140Y127772D01*
X1108734Y128354D01*
X1105461Y128785D01*
X1102187Y128354D01*
X1099136Y127091D01*
X1096517Y125080D01*
X1094507Y122461D01*
X1094135Y121564D01*
X1091386D01*
X1091014Y122461D01*
X1089004Y125080D01*
X1086385Y127091D01*
X1083334Y128354D01*
X1080061Y128785D01*
X1076787Y128354D01*
X1073736Y127091D01*
X1071117Y125080D01*
X1069107Y122461D01*
X1068735Y121564D01*
X1065986D01*
X1065614Y122461D01*
X1063604Y125080D01*
X1060985Y127091D01*
X1057934Y128354D01*
X1054660Y128785D01*
X1051387Y128354D01*
X1048947Y127344D01*
X1017836Y158455D01*
X1018888Y160995D01*
X1080508D01*
X1111578Y129925D01*
D02*
G37*
G36*
X1199554Y125457D02*
X1199919Y125145D01*
X1200262Y124891D01*
X1200584Y124695D01*
X1200883Y124557D01*
X1201160Y124475D01*
X1201415Y124452D01*
X1201648Y124486D01*
X1201860Y124578D01*
X1202049Y124728D01*
X1198469Y121148D01*
X1198619Y121338D01*
X1198711Y121549D01*
X1198745Y121782D01*
X1198722Y122037D01*
X1198641Y122315D01*
X1198502Y122614D01*
X1198306Y122935D01*
X1198052Y123278D01*
X1197740Y123643D01*
X1197371Y124030D01*
X1199167Y125826D01*
X1199554Y125457D01*
D02*
G37*
G36*
X1174154D02*
X1174519Y125145D01*
X1174862Y124891D01*
X1175184Y124695D01*
X1175483Y124557D01*
X1175760Y124475D01*
X1176015Y124452D01*
X1176248Y124486D01*
X1176460Y124578D01*
X1176649Y124728D01*
X1173070Y121148D01*
X1173219Y121338D01*
X1173311Y121549D01*
X1173345Y121782D01*
X1173322Y122037D01*
X1173241Y122315D01*
X1173102Y122614D01*
X1172906Y122935D01*
X1172652Y123278D01*
X1172340Y123643D01*
X1171971Y124030D01*
X1173767Y125826D01*
X1174154Y125457D01*
D02*
G37*
G36*
X1148754D02*
X1149119Y125145D01*
X1149462Y124891D01*
X1149784Y124695D01*
X1150083Y124557D01*
X1150360Y124475D01*
X1150615Y124452D01*
X1150848Y124486D01*
X1151060Y124578D01*
X1151249Y124728D01*
X1147670Y121148D01*
X1147819Y121338D01*
X1147911Y121549D01*
X1147945Y121782D01*
X1147922Y122037D01*
X1147841Y122315D01*
X1147702Y122614D01*
X1147506Y122935D01*
X1147252Y123278D01*
X1146940Y123643D01*
X1146571Y124030D01*
X1148367Y125826D01*
X1148754Y125457D01*
D02*
G37*
G36*
X1123354D02*
X1123719Y125145D01*
X1124062Y124891D01*
X1124384Y124695D01*
X1124683Y124557D01*
X1124960Y124475D01*
X1125215Y124452D01*
X1125448Y124486D01*
X1125660Y124578D01*
X1125849Y124728D01*
X1122270Y121148D01*
X1122419Y121338D01*
X1122511Y121549D01*
X1122545Y121782D01*
X1122522Y122037D01*
X1122441Y122315D01*
X1122302Y122614D01*
X1122106Y122935D01*
X1121852Y123278D01*
X1121540Y123643D01*
X1121171Y124030D01*
X1122967Y125826D01*
X1123354Y125457D01*
D02*
G37*
G36*
X1047154D02*
X1047519Y125145D01*
X1047862Y124891D01*
X1048184Y124695D01*
X1048483Y124557D01*
X1048760Y124475D01*
X1049015Y124452D01*
X1049248Y124486D01*
X1049460Y124578D01*
X1049649Y124728D01*
X1046069Y121148D01*
X1046219Y121338D01*
X1046311Y121549D01*
X1046345Y121782D01*
X1046322Y122037D01*
X1046241Y122315D01*
X1046102Y122614D01*
X1045906Y122935D01*
X1045652Y123278D01*
X1045340Y123643D01*
X1044971Y124030D01*
X1046767Y125826D01*
X1047154Y125457D01*
D02*
G37*
G36*
X1021754D02*
X1022119Y125145D01*
X1022462Y124891D01*
X1022784Y124695D01*
X1023083Y124557D01*
X1023360Y124475D01*
X1023615Y124452D01*
X1023848Y124486D01*
X1024060Y124578D01*
X1024249Y124728D01*
X1020669Y121148D01*
X1020819Y121338D01*
X1020911Y121549D01*
X1020945Y121782D01*
X1020922Y122037D01*
X1020841Y122315D01*
X1020702Y122614D01*
X1020506Y122935D01*
X1020252Y123278D01*
X1019940Y123643D01*
X1019571Y124030D01*
X1021367Y125826D01*
X1021754Y125457D01*
D02*
G37*
G36*
X996354D02*
X996719Y125145D01*
X997062Y124891D01*
X997384Y124695D01*
X997683Y124557D01*
X997960Y124475D01*
X998215Y124452D01*
X998448Y124486D01*
X998660Y124578D01*
X998849Y124728D01*
X995269Y121148D01*
X995419Y121338D01*
X995511Y121549D01*
X995545Y121782D01*
X995522Y122037D01*
X995441Y122315D01*
X995302Y122614D01*
X995106Y122935D01*
X994852Y123278D01*
X994540Y123643D01*
X994171Y124030D01*
X995967Y125826D01*
X996354Y125457D01*
D02*
G37*
G36*
X970954D02*
X971319Y125145D01*
X971662Y124891D01*
X971984Y124695D01*
X972283Y124557D01*
X972560Y124475D01*
X972815Y124452D01*
X973048Y124486D01*
X973260Y124578D01*
X973449Y124728D01*
X969870Y121148D01*
X970019Y121338D01*
X970111Y121549D01*
X970145Y121782D01*
X970122Y122037D01*
X970041Y122315D01*
X969902Y122614D01*
X969706Y122935D01*
X969452Y123278D01*
X969140Y123643D01*
X968771Y124030D01*
X970567Y125826D01*
X970954Y125457D01*
D02*
G37*
G36*
X776115Y73391D02*
Y58519D01*
X775493Y58022D01*
X773575Y57384D01*
X772024Y58575D01*
X769552Y59598D01*
X768054Y59796D01*
X767956Y59837D01*
X767810Y59839D01*
X767669Y59880D01*
X766864Y59955D01*
X766174Y60053D01*
X765543Y60179D01*
X764970Y60329D01*
X764454Y60501D01*
X763995Y60691D01*
X763805Y60788D01*
Y82383D01*
X766152Y83355D01*
X776115Y73391D01*
D02*
G37*
G36*
X742770Y61785D02*
X742811Y61240D01*
X742933Y60668D01*
X743136Y60070D01*
X743420Y59446D01*
X743786Y58794D01*
X744233Y58117D01*
X744762Y57413D01*
X746062Y55925D01*
X746834Y55142D01*
X736166Y55142D01*
X736938Y55925D01*
X738239Y57413D01*
X738767Y58117D01*
X739214Y58794D01*
X739580Y59446D01*
X739864Y60070D01*
X740068Y60669D01*
X740190Y61240D01*
X740230Y61785D01*
X742770Y61785D01*
D02*
G37*
G36*
X761272Y59353D02*
X761771Y58978D01*
X762317Y58639D01*
X762909Y58338D01*
X763547Y58073D01*
X764232Y57845D01*
X764962Y57654D01*
X765739Y57500D01*
X766561Y57382D01*
X767430Y57302D01*
X759714Y52235D01*
X759944Y52963D01*
X760107Y53657D01*
X760204Y54317D01*
X760234Y54942D01*
X760199Y55532D01*
X760096Y56088D01*
X759927Y56610D01*
X759692Y57098D01*
X759390Y57551D01*
X759022Y57969D01*
X760818Y59765D01*
X761272Y59353D01*
D02*
G37*
G36*
X446144Y57348D02*
X445787Y56933D01*
X445469Y56443D01*
X445190Y55876D01*
X444949Y55233D01*
X444747Y54514D01*
X444584Y53719D01*
X444460Y52848D01*
X444328Y50876D01*
X444320Y49776D01*
X436776Y57320D01*
X437876Y57328D01*
X439848Y57460D01*
X440719Y57584D01*
X441514Y57747D01*
X442233Y57949D01*
X442876Y58190D01*
X443443Y58469D01*
X443933Y58787D01*
X444348Y59144D01*
X446144Y57348D01*
D02*
G37*
G36*
X756036Y116286D02*
Y58867D01*
X756196Y58060D01*
X756331Y57381D01*
X756331Y57380D01*
X756331Y57380D01*
X757056Y56295D01*
X757077Y56259D01*
X757091Y56243D01*
X757173Y56120D01*
X757347Y55947D01*
X757437Y55811D01*
X757518Y55644D01*
X757580Y55452D01*
X757623Y55218D01*
X757641Y54926D01*
X757623Y54568D01*
X757561Y54143D01*
X757445Y53650D01*
X757244Y53014D01*
X757233Y52911D01*
X757001Y52352D01*
X756652Y49700D01*
X757001Y47048D01*
X758025Y44576D01*
X756682Y42155D01*
X751718D01*
X750375Y44576D01*
X751398Y47048D01*
X751748Y49700D01*
X751398Y52352D01*
X750375Y54824D01*
X748746Y56946D01*
X748523Y57118D01*
X747961Y57688D01*
X746775Y59044D01*
X746351Y59609D01*
X745999Y60143D01*
X745732Y60618D01*
X745546Y61026D01*
X745434Y61357D01*
X745385Y61587D01*
Y123619D01*
X747731Y124591D01*
X756036Y116286D01*
D02*
G37*
G36*
X723728Y48524D02*
X723860Y46553D01*
X723984Y45681D01*
X724147Y44886D01*
X724349Y44167D01*
X724590Y43524D01*
X724869Y42957D01*
X725187Y42467D01*
X725544Y42052D01*
X723748Y40256D01*
X723334Y40613D01*
X722843Y40931D01*
X722276Y41211D01*
X721634Y41451D01*
X720915Y41653D01*
X720119Y41816D01*
X719248Y41940D01*
X717276Y42072D01*
X716176Y42080D01*
X723720Y49624D01*
X723728Y48524D01*
D02*
G37*
G36*
X782140Y39963D02*
Y39540D01*
X801115D01*
Y33521D01*
X798576Y32291D01*
X797424Y33175D01*
X794952Y34199D01*
X792300Y34548D01*
X789648Y34199D01*
X787176Y33175D01*
X785054Y31546D01*
X783425Y29424D01*
X782402Y26952D01*
X782052Y24300D01*
X782402Y21648D01*
X783425Y19176D01*
X785054Y17054D01*
X787176Y15425D01*
X788988Y14675D01*
X788483Y12135D01*
X770717D01*
X770212Y14675D01*
X772024Y15425D01*
X774146Y17054D01*
X775775Y19176D01*
X776798Y21648D01*
X777148Y24300D01*
X776798Y26952D01*
X775775Y29424D01*
X774146Y31546D01*
X773371Y32141D01*
X773293Y32936D01*
X773716Y35078D01*
X774381Y35523D01*
X779793Y40935D01*
X782140Y39963D01*
D02*
G37*
G36*
X469728Y23124D02*
X469860Y21153D01*
X469984Y20281D01*
X470147Y19486D01*
X470349Y18767D01*
X470590Y18124D01*
X470869Y17557D01*
X471187Y17067D01*
X471544Y16652D01*
X469748Y14856D01*
X469334Y15213D01*
X468843Y15531D01*
X468276Y15811D01*
X467634Y16051D01*
X466914Y16253D01*
X466119Y16416D01*
X465248Y16540D01*
X463276Y16672D01*
X462176Y16680D01*
X469720Y24224D01*
X469728Y23124D01*
D02*
G37*
%LPC*%
G36*
X868703Y973000D02*
X862000D01*
Y966296D01*
X862321Y966339D01*
X864483Y967234D01*
X866340Y968659D01*
X867765Y970517D01*
X868661Y972679D01*
X868703Y973000D01*
D02*
G37*
G36*
X858000D02*
X851296D01*
X851339Y972679D01*
X852234Y970517D01*
X853659Y968659D01*
X855516Y967234D01*
X857679Y966339D01*
X858000Y966296D01*
Y973000D01*
D02*
G37*
G36*
X1295950Y947075D02*
X1292512Y946736D01*
X1290496Y946125D01*
X1163500D01*
X1163500Y946125D01*
X1160061Y945786D01*
X1156755Y944783D01*
X1153708Y943155D01*
X1151037Y940963D01*
X1151037Y940963D01*
X1052500Y842425D01*
X988009Y906916D01*
X986229Y908717D01*
X986229Y908717D01*
X986228Y908717D01*
X981576Y912797D01*
X976395Y916259D01*
X970805Y919016D01*
X964904Y921019D01*
X958792Y922234D01*
X952574Y922642D01*
Y922625D01*
X952573Y922625D01*
X793217D01*
X793216Y922625D01*
Y922642D01*
X786998Y922234D01*
X780886Y921019D01*
X776160Y919415D01*
X774985Y919016D01*
X773839Y918461D01*
Y918461D01*
X771208Y917055D01*
X768537Y914863D01*
X766346Y912192D01*
X764717Y909145D01*
X763714Y905838D01*
X763375Y902400D01*
X763714Y898961D01*
X764717Y895655D01*
X766346Y892608D01*
X768537Y889937D01*
X771208Y887746D01*
X774255Y886117D01*
X777561Y885114D01*
X781000Y884775D01*
X784438Y885114D01*
X787745Y886117D01*
X788192Y886268D01*
X790518Y887084D01*
X792937Y887403D01*
X793217Y887375D01*
X952574D01*
X952853Y887403D01*
X955793Y887016D01*
X958793Y885773D01*
X961137Y883974D01*
X961305Y883770D01*
X1030859Y814215D01*
X1031062Y814049D01*
X1032859Y811707D01*
X1034101Y808707D01*
X1034375Y806629D01*
Y682000D01*
X1034714Y678562D01*
X1035717Y675255D01*
X1036710Y673397D01*
Y666710D01*
X1043397D01*
X1045255Y665717D01*
X1048561Y664714D01*
X1052000Y664375D01*
X1055438Y664714D01*
X1058745Y665717D01*
X1060603Y666710D01*
X1067290D01*
Y673397D01*
X1068283Y675255D01*
X1069286Y678562D01*
X1069625Y682000D01*
Y807758D01*
X1069623Y807775D01*
X1069623Y807777D01*
X1069557Y808454D01*
X1069570Y809145D01*
X1069569Y809164D01*
X1069496Y809571D01*
X1170800Y910875D01*
X1295000D01*
X1298438Y911214D01*
X1301745Y912217D01*
X1304792Y913846D01*
X1307463Y916037D01*
X1308413Y916987D01*
X1310605Y919658D01*
X1312233Y922705D01*
X1313236Y926012D01*
X1313575Y929450D01*
X1313236Y932888D01*
X1312233Y936195D01*
X1310605Y939242D01*
X1308413Y941913D01*
X1305742Y944105D01*
X1302695Y945733D01*
X1299388Y946736D01*
X1295950Y947075D01*
D02*
G37*
G36*
X297574Y982625D02*
X294135Y982286D01*
X290829Y981283D01*
X287782Y979654D01*
X285111Y977462D01*
X285111Y977462D01*
X267537Y959889D01*
X265345Y957218D01*
X263717Y954171D01*
X262714Y950865D01*
X262375Y947426D01*
Y677301D01*
X227537Y642463D01*
X225345Y639792D01*
X223717Y636745D01*
X222714Y633439D01*
X222375Y630000D01*
X222714Y626562D01*
X223717Y623256D01*
X225345Y620208D01*
X227537Y617538D01*
X230208Y615346D01*
X233255Y613717D01*
X236562Y612714D01*
X240000Y612375D01*
X243438Y612714D01*
X246745Y613717D01*
X249792Y615346D01*
X252463Y617538D01*
X292463Y657537D01*
X292463Y657538D01*
X294655Y660208D01*
X296283Y663255D01*
X297286Y666562D01*
X297625Y670000D01*
X297625Y670000D01*
Y940126D01*
X304874Y947375D01*
X462700D01*
X468287Y941787D01*
X470958Y939595D01*
X474005Y937967D01*
X477312Y936964D01*
X480750Y936625D01*
X838150D01*
X841589Y936964D01*
X844895Y937967D01*
X847942Y939595D01*
X850613Y941787D01*
X851213Y942387D01*
X853405Y945058D01*
X855033Y948105D01*
X856036Y951412D01*
X856375Y954850D01*
X856036Y958288D01*
X855033Y961595D01*
X853405Y964642D01*
X851213Y967313D01*
X848542Y969505D01*
X845495Y971133D01*
X842188Y972136D01*
X838750Y972475D01*
X835312Y972136D01*
X834450Y971875D01*
X488050D01*
X482463Y977462D01*
X479792Y979654D01*
X476745Y981283D01*
X473438Y982286D01*
X470000Y982625D01*
X297574D01*
X297574Y982625D01*
D02*
G37*
G36*
X1372604Y968006D02*
X1369649D01*
X1369399Y967956D01*
X1369144D01*
X1366246Y967380D01*
X1366010Y967282D01*
X1365760Y967233D01*
X1363031Y966102D01*
X1362818Y965960D01*
X1362583Y965863D01*
X1360126Y964221D01*
X1359946Y964041D01*
X1359734Y963899D01*
X1357644Y961810D01*
X1357502Y961598D01*
X1357322Y961417D01*
X1355681Y958960D01*
X1355583Y958725D01*
X1355441Y958513D01*
X1354311Y955783D01*
X1354261Y955533D01*
X1354163Y955297D01*
X1353587Y952399D01*
Y952144D01*
X1353537Y951894D01*
Y948939D01*
X1353587Y948689D01*
Y948434D01*
X1354163Y945536D01*
X1354261Y945300D01*
X1354311Y945050D01*
X1355441Y942320D01*
X1355583Y942108D01*
X1355681Y941873D01*
X1357322Y939416D01*
X1357502Y939235D01*
X1357644Y939023D01*
X1359734Y936934D01*
X1359946Y936792D01*
X1360126Y936612D01*
X1362583Y934970D01*
X1362818Y934873D01*
X1363031Y934731D01*
X1365760Y933600D01*
X1366010Y933551D01*
X1366246Y933453D01*
X1369144Y932877D01*
X1369399D01*
X1369649Y932827D01*
X1372604D01*
X1372854Y932877D01*
X1373109D01*
X1376007Y933453D01*
X1376243Y933551D01*
X1376493Y933600D01*
X1379223Y934731D01*
X1379435Y934873D01*
X1379671Y934970D01*
X1382128Y936612D01*
X1382308Y936792D01*
X1382520Y936934D01*
X1384609Y939023D01*
X1384751Y939235D01*
X1384931Y939416D01*
X1386573Y941873D01*
X1386671Y942108D01*
X1386812Y942320D01*
X1387943Y945050D01*
X1387993Y945300D01*
X1388090Y945536D01*
X1388667Y948434D01*
Y948689D01*
X1388716Y948939D01*
Y951894D01*
X1388667Y952144D01*
Y952399D01*
X1388090Y955297D01*
X1387993Y955533D01*
X1387943Y955783D01*
X1386812Y958513D01*
X1386671Y958725D01*
X1386573Y958960D01*
X1384931Y961417D01*
X1384751Y961598D01*
X1384609Y961810D01*
X1382520Y963899D01*
X1382308Y964041D01*
X1382128Y964221D01*
X1379671Y965863D01*
X1379435Y965960D01*
X1379223Y966102D01*
X1376493Y967233D01*
X1376243Y967282D01*
X1376007Y967380D01*
X1373109Y967956D01*
X1372854D01*
X1372604Y968006D01*
D02*
G37*
G36*
X37604D02*
X34649D01*
X34399Y967956D01*
X34144D01*
X31246Y967380D01*
X31010Y967282D01*
X30760Y967233D01*
X28030Y966102D01*
X27818Y965960D01*
X27582Y965863D01*
X25126Y964221D01*
X24945Y964041D01*
X24733Y963899D01*
X22644Y961810D01*
X22502Y961598D01*
X22322Y961417D01*
X20680Y958960D01*
X20583Y958725D01*
X20441Y958513D01*
X19310Y955783D01*
X19260Y955533D01*
X19163Y955297D01*
X18586Y952399D01*
Y952144D01*
X18537Y951894D01*
Y948939D01*
X18586Y948689D01*
Y948434D01*
X19163Y945536D01*
X19260Y945300D01*
X19310Y945050D01*
X20441Y942320D01*
X20583Y942108D01*
X20680Y941873D01*
X22322Y939416D01*
X22502Y939235D01*
X22644Y939023D01*
X24733Y936934D01*
X24945Y936792D01*
X25126Y936612D01*
X27582Y934970D01*
X27818Y934873D01*
X28030Y934731D01*
X30760Y933600D01*
X31010Y933551D01*
X31246Y933453D01*
X34144Y932877D01*
X34399D01*
X34649Y932827D01*
X37604D01*
X37854Y932877D01*
X38109D01*
X41007Y933453D01*
X41243Y933551D01*
X41493Y933600D01*
X44223Y934731D01*
X44435Y934873D01*
X44670Y934970D01*
X47127Y936612D01*
X47308Y936792D01*
X47520Y936934D01*
X49609Y939023D01*
X49751Y939235D01*
X49931Y939416D01*
X51573Y941873D01*
X51670Y942108D01*
X51812Y942320D01*
X52943Y945050D01*
X52992Y945300D01*
X53090Y945536D01*
X53667Y948434D01*
Y948689D01*
X53716Y948939D01*
Y951894D01*
X53667Y952144D01*
Y952399D01*
X53090Y955297D01*
X52992Y955533D01*
X52943Y955783D01*
X51812Y958513D01*
X51670Y958725D01*
X51573Y958960D01*
X49931Y961417D01*
X49751Y961598D01*
X49609Y961810D01*
X47520Y963899D01*
X47308Y964041D01*
X47127Y964221D01*
X44670Y965863D01*
X44435Y965960D01*
X44223Y966102D01*
X41493Y967233D01*
X41243Y967282D01*
X41007Y967380D01*
X38109Y967956D01*
X37854D01*
X37604Y968006D01*
D02*
G37*
G36*
X323800Y939440D02*
X320788Y939043D01*
X317980Y937880D01*
X315570Y936030D01*
X313720Y933620D01*
X312557Y930813D01*
X312161Y927800D01*
X312557Y924788D01*
X313720Y921980D01*
X315570Y919570D01*
X317980Y917720D01*
X320788Y916557D01*
X323800Y916161D01*
X326813Y916557D01*
X329620Y917720D01*
X332031Y919570D01*
X333880Y921980D01*
X335043Y924788D01*
X335440Y927800D01*
X335043Y930813D01*
X333880Y933620D01*
X332031Y936030D01*
X329620Y937880D01*
X326813Y939043D01*
X323800Y939440D01*
D02*
G37*
G36*
X1516000Y904904D02*
Y897000D01*
X1523904D01*
X1523820Y897631D01*
X1522805Y900083D01*
X1521189Y902189D01*
X1519084Y903805D01*
X1516631Y904820D01*
X1516000Y904904D01*
D02*
G37*
G36*
X1512000Y904904D02*
X1511369Y904820D01*
X1508916Y903805D01*
X1506811Y902189D01*
X1505195Y900083D01*
X1504180Y897631D01*
X1504096Y897000D01*
X1512000D01*
Y904904D01*
D02*
G37*
G36*
Y893000D02*
X1504096D01*
X1504180Y892369D01*
X1505195Y889917D01*
X1506811Y887811D01*
X1508916Y886195D01*
X1511369Y885180D01*
X1512000Y885096D01*
Y893000D01*
D02*
G37*
G36*
X1523904D02*
X1516000D01*
Y885096D01*
X1516631Y885180D01*
X1519084Y886195D01*
X1521189Y887811D01*
X1522805Y889917D01*
X1523820Y892369D01*
X1523904Y893000D01*
D02*
G37*
G36*
X1297950Y890783D02*
Y880650D01*
X1308083D01*
X1307924Y881858D01*
X1306685Y884848D01*
X1304715Y887415D01*
X1302148Y889385D01*
X1299158Y890624D01*
X1297950Y890783D01*
D02*
G37*
G36*
X1293950Y890783D02*
X1292742Y890624D01*
X1289752Y889385D01*
X1287185Y887415D01*
X1285215Y884848D01*
X1283976Y881858D01*
X1283817Y880650D01*
X1293950D01*
Y890783D01*
D02*
G37*
G36*
X1308083Y876650D02*
X1297950D01*
Y866517D01*
X1299158Y866676D01*
X1302148Y867915D01*
X1304715Y869885D01*
X1306685Y872452D01*
X1307924Y875442D01*
X1308083Y876650D01*
D02*
G37*
G36*
X1293950D02*
X1283817D01*
X1283976Y875442D01*
X1285215Y872452D01*
X1287185Y869885D01*
X1289752Y867915D01*
X1292742Y866676D01*
X1293950Y866517D01*
Y876650D01*
D02*
G37*
G36*
X840750Y865383D02*
Y855250D01*
X850883D01*
X850724Y856458D01*
X849485Y859448D01*
X847515Y862015D01*
X844948Y863985D01*
X841958Y865224D01*
X840750Y865383D01*
D02*
G37*
G36*
X836750Y865383D02*
X835542Y865224D01*
X832552Y863985D01*
X829985Y862015D01*
X828015Y859448D01*
X826776Y856458D01*
X826617Y855250D01*
X836750D01*
Y865383D01*
D02*
G37*
G36*
X783000Y862976D02*
Y853600D01*
X792376D01*
X792243Y854613D01*
X791080Y857420D01*
X789231Y859830D01*
X786820Y861680D01*
X784013Y862843D01*
X783000Y862976D01*
D02*
G37*
G36*
X779000D02*
X777988Y862843D01*
X775180Y861680D01*
X772770Y859830D01*
X770920Y857420D01*
X769757Y854613D01*
X769624Y853600D01*
X779000D01*
Y862976D01*
D02*
G37*
G36*
X850883Y851250D02*
X840750D01*
Y841117D01*
X841958Y841276D01*
X844948Y842515D01*
X847515Y844485D01*
X849485Y847052D01*
X850724Y850042D01*
X850883Y851250D01*
D02*
G37*
G36*
X836750D02*
X826617D01*
X826776Y850042D01*
X828015Y847052D01*
X829985Y844485D01*
X832552Y842515D01*
X835542Y841276D01*
X836750Y841117D01*
Y851250D01*
D02*
G37*
G36*
X792376Y849600D02*
X783000D01*
Y840224D01*
X784013Y840357D01*
X786820Y841520D01*
X789231Y843370D01*
X791080Y845780D01*
X792243Y848587D01*
X792376Y849600D01*
D02*
G37*
G36*
X779000D02*
X769624D01*
X769757Y848587D01*
X770920Y845780D01*
X772770Y843370D01*
X775180Y841520D01*
X777988Y840357D01*
X779000Y840224D01*
Y849600D01*
D02*
G37*
G36*
X325800Y837576D02*
Y828200D01*
X335177D01*
X335043Y829213D01*
X333880Y832020D01*
X332031Y834430D01*
X329620Y836280D01*
X326813Y837443D01*
X325800Y837576D01*
D02*
G37*
G36*
X321800D02*
X320788Y837443D01*
X317980Y836280D01*
X315570Y834430D01*
X313720Y832020D01*
X312557Y829213D01*
X312424Y828200D01*
X321800D01*
Y837576D01*
D02*
G37*
G36*
X1416000Y830167D02*
Y817000D01*
X1429167D01*
X1429069Y817997D01*
X1428194Y820880D01*
X1426775Y823536D01*
X1424864Y825864D01*
X1422536Y827775D01*
X1419879Y829194D01*
X1416997Y830069D01*
X1416000Y830167D01*
D02*
G37*
G36*
X1412000Y830167D02*
X1411003Y830069D01*
X1408121Y829194D01*
X1405464Y827775D01*
X1403136Y825864D01*
X1401225Y823536D01*
X1399805Y820880D01*
X1398931Y817997D01*
X1398833Y817000D01*
X1412000D01*
Y830167D01*
D02*
G37*
G36*
X335177Y824200D02*
X325800D01*
Y814824D01*
X326813Y814957D01*
X329620Y816120D01*
X332031Y817970D01*
X333880Y820380D01*
X335043Y823187D01*
X335177Y824200D01*
D02*
G37*
G36*
X321800D02*
X312424D01*
X312557Y823187D01*
X313720Y820380D01*
X315570Y817970D01*
X317980Y816120D01*
X320788Y814957D01*
X321800Y814824D01*
Y824200D01*
D02*
G37*
G36*
X1412000Y813000D02*
X1398833D01*
X1398931Y812003D01*
X1399805Y809120D01*
X1401225Y806464D01*
X1403136Y804136D01*
X1405464Y802225D01*
X1408121Y800806D01*
X1411003Y799931D01*
X1412000Y799833D01*
Y813000D01*
D02*
G37*
G36*
X1429167D02*
X1416000D01*
Y799833D01*
X1416997Y799931D01*
X1419879Y800806D01*
X1422536Y802225D01*
X1424864Y804136D01*
X1426775Y806464D01*
X1428194Y809120D01*
X1429069Y812003D01*
X1429167Y813000D01*
D02*
G37*
G36*
X1516000Y794904D02*
Y787000D01*
X1523904D01*
X1523820Y787631D01*
X1522805Y790083D01*
X1521189Y792189D01*
X1519084Y793805D01*
X1516631Y794820D01*
X1516000Y794904D01*
D02*
G37*
G36*
X1512000Y794904D02*
X1511369Y794820D01*
X1508916Y793805D01*
X1506811Y792189D01*
X1505195Y790083D01*
X1504180Y787631D01*
X1504096Y787000D01*
X1512000D01*
Y794904D01*
D02*
G37*
G36*
Y783000D02*
X1504096D01*
X1504180Y782369D01*
X1505195Y779917D01*
X1506811Y777811D01*
X1508916Y776195D01*
X1511369Y775180D01*
X1512000Y775096D01*
Y783000D01*
D02*
G37*
G36*
X1523904D02*
X1516000D01*
Y775096D01*
X1516631Y775180D01*
X1519084Y776195D01*
X1521189Y777811D01*
X1522805Y779917D01*
X1523820Y782369D01*
X1523904Y783000D01*
D02*
G37*
G36*
X1295950Y789446D02*
X1292742Y789024D01*
X1289752Y787785D01*
X1287185Y785815D01*
X1285215Y783248D01*
X1283976Y780258D01*
X1283554Y777050D01*
X1283976Y773842D01*
X1285215Y770852D01*
X1287185Y768285D01*
X1289752Y766315D01*
X1292742Y765076D01*
X1295950Y764654D01*
X1299158Y765076D01*
X1302148Y766315D01*
X1304715Y768285D01*
X1306685Y770852D01*
X1307924Y773842D01*
X1308346Y777050D01*
X1307924Y780258D01*
X1306685Y783248D01*
X1304715Y785815D01*
X1302148Y787785D01*
X1299158Y789024D01*
X1295950Y789446D01*
D02*
G37*
G36*
X838750Y764046D02*
X835542Y763624D01*
X832552Y762385D01*
X829985Y760415D01*
X828015Y757848D01*
X826776Y754858D01*
X826354Y751650D01*
X826776Y748442D01*
X828015Y745452D01*
X829985Y742885D01*
X832552Y740915D01*
X835542Y739676D01*
X838750Y739254D01*
X841958Y739676D01*
X844948Y740915D01*
X847515Y742885D01*
X849485Y745452D01*
X850724Y748442D01*
X851146Y751650D01*
X850724Y754858D01*
X849485Y757848D01*
X847515Y760415D01*
X844948Y762385D01*
X841958Y763624D01*
X838750Y764046D01*
D02*
G37*
G36*
X242000Y728704D02*
Y722000D01*
X248703D01*
X248661Y722321D01*
X247765Y724483D01*
X246341Y726340D01*
X244483Y727766D01*
X242321Y728661D01*
X242000Y728704D01*
D02*
G37*
G36*
X238000D02*
X237679Y728661D01*
X235517Y727766D01*
X233660Y726340D01*
X232235Y724483D01*
X231339Y722321D01*
X231297Y722000D01*
X238000D01*
Y728704D01*
D02*
G37*
G36*
X107000Y723703D02*
Y717000D01*
X113703D01*
X113661Y717321D01*
X112765Y719483D01*
X111341Y721340D01*
X109483Y722765D01*
X107321Y723661D01*
X107000Y723703D01*
D02*
G37*
G36*
X103000D02*
X102679Y723661D01*
X100517Y722765D01*
X98660Y721340D01*
X97235Y719483D01*
X96339Y717321D01*
X96297Y717000D01*
X103000D01*
Y723703D01*
D02*
G37*
G36*
X1425400Y748422D02*
X1422060Y748093D01*
X1418848Y747119D01*
X1415887Y745537D01*
X1413293Y743407D01*
X1411163Y740813D01*
X1409581Y737852D01*
X1408607Y734640D01*
X1408277Y731300D01*
X1408607Y727960D01*
X1409581Y724747D01*
X1411163Y721787D01*
X1413293Y719193D01*
X1415887Y717063D01*
X1418848Y715481D01*
X1422060Y714507D01*
X1425400Y714178D01*
X1428740Y714507D01*
X1431953Y715481D01*
X1434913Y717063D01*
X1437507Y719193D01*
X1439637Y721787D01*
X1441219Y724747D01*
X1442193Y727960D01*
X1442522Y731300D01*
X1442193Y734640D01*
X1441219Y737852D01*
X1439637Y740813D01*
X1437507Y743407D01*
X1434913Y745537D01*
X1431953Y747119D01*
X1428740Y748093D01*
X1425400Y748422D01*
D02*
G37*
G36*
X323800Y736240D02*
X320788Y735843D01*
X317980Y734680D01*
X315570Y732830D01*
X313720Y730420D01*
X312557Y727613D01*
X312161Y724600D01*
X312557Y721588D01*
X313720Y718780D01*
X315570Y716370D01*
X317980Y714520D01*
X320788Y713357D01*
X323800Y712961D01*
X326813Y713357D01*
X329620Y714520D01*
X332031Y716370D01*
X333880Y718780D01*
X335043Y721588D01*
X335440Y724600D01*
X335043Y727613D01*
X333880Y730420D01*
X332031Y732830D01*
X329620Y734680D01*
X326813Y735843D01*
X323800Y736240D01*
D02*
G37*
G36*
X248703Y718000D02*
X242000D01*
Y711297D01*
X242321Y711339D01*
X244483Y712235D01*
X246341Y713660D01*
X247765Y715517D01*
X248661Y717679D01*
X248703Y718000D01*
D02*
G37*
G36*
X238000D02*
X231297D01*
X231339Y717679D01*
X232235Y715517D01*
X233660Y713660D01*
X235517Y712235D01*
X237679Y711339D01*
X238000Y711297D01*
Y718000D01*
D02*
G37*
G36*
X961500Y737316D02*
X957704Y736816D01*
X954167Y735351D01*
X951130Y733020D01*
X948799Y729983D01*
X947334Y726446D01*
X946834Y722650D01*
X947334Y718854D01*
X948799Y715317D01*
X951130Y712280D01*
X954167Y709949D01*
X957704Y708484D01*
X961500Y707984D01*
X965296Y708484D01*
X968833Y709949D01*
X971870Y712280D01*
X974201Y715317D01*
X975666Y718854D01*
X976165Y722650D01*
X975666Y726446D01*
X974201Y729983D01*
X971870Y733020D01*
X968833Y735351D01*
X965296Y736816D01*
X961500Y737316D01*
D02*
G37*
G36*
X113703Y713000D02*
X107000D01*
Y706296D01*
X107321Y706339D01*
X109483Y707234D01*
X111341Y708659D01*
X112765Y710517D01*
X113661Y712679D01*
X113703Y713000D01*
D02*
G37*
G36*
X103000D02*
X96297D01*
X96339Y712679D01*
X97235Y710517D01*
X98660Y708659D01*
X100517Y707234D01*
X102679Y706339D01*
X103000Y706296D01*
Y713000D01*
D02*
G37*
G36*
X1412750Y882625D02*
X1403000D01*
X1399561Y882286D01*
X1396255Y881283D01*
X1393208Y879654D01*
X1390537Y877463D01*
X1390537Y877462D01*
X1334374Y821300D01*
X1332182Y818629D01*
X1330554Y815582D01*
X1329551Y812275D01*
X1329212Y808837D01*
Y786519D01*
X1327537Y784844D01*
X1325345Y782173D01*
X1323717Y779126D01*
X1322714Y775820D01*
X1322375Y772382D01*
Y733521D01*
X1322386Y733413D01*
X1322134Y731502D01*
X1321504Y729981D01*
X1320098Y728023D01*
X1320098Y728023D01*
X1318302Y726228D01*
X1302210Y710136D01*
X1290079Y698552D01*
X1288950Y697590D01*
X1288552Y697290D01*
X1286710D01*
Y694816D01*
X1286691Y694719D01*
X1286704Y694652D01*
X1286700Y694625D01*
X1286537Y694463D01*
X1284346Y691792D01*
X1282717Y688745D01*
X1281714Y685439D01*
X1281375Y682000D01*
X1281714Y678562D01*
X1282717Y675255D01*
X1284346Y672208D01*
X1286537Y669538D01*
X1286710Y669396D01*
Y666710D01*
X1290397D01*
X1292256Y665717D01*
X1295562Y664714D01*
X1299000Y664375D01*
X1302439Y664714D01*
X1305745Y665717D01*
X1307603Y666710D01*
X1314623D01*
X1314720Y666691D01*
X1314816Y666710D01*
X1317290D01*
Y668964D01*
X1317465Y670270D01*
X1317964Y671734D01*
X1318898Y673622D01*
X1320278Y675874D01*
X1322062Y678401D01*
X1333803Y691857D01*
X1335002Y693077D01*
X1345023Y703098D01*
X1345028Y703093D01*
X1348740Y707325D01*
X1351867Y712005D01*
X1354357Y717053D01*
X1356166Y722383D01*
X1357264Y727904D01*
X1357632Y733521D01*
X1357625D01*
X1357625Y733523D01*
Y765081D01*
X1359300Y766756D01*
X1361492Y769427D01*
X1363120Y772474D01*
X1364123Y775780D01*
X1364462Y779219D01*
Y801537D01*
X1392749Y829823D01*
X1400221Y836744D01*
X1404041Y839827D01*
X1407742Y842496D01*
X1411297Y844736D01*
X1414702Y846549D01*
X1417949Y847941D01*
X1421034Y848919D01*
X1423955Y849496D01*
X1426896Y849697D01*
X1426945Y849710D01*
X1429290D01*
Y852184D01*
X1429309Y852281D01*
X1429292Y852368D01*
X1429303Y852457D01*
X1429290Y852506D01*
Y859102D01*
X1430036Y861562D01*
X1430375Y865000D01*
X1430036Y868438D01*
X1429290Y870898D01*
Y880290D01*
X1421353D01*
X1419495Y881283D01*
X1416189Y882286D01*
X1412750Y882625D01*
D02*
G37*
G36*
X881900Y716522D02*
X879410Y716195D01*
X877089Y715233D01*
X875096Y713704D01*
X873567Y711711D01*
X872606Y709390D01*
X872278Y706900D01*
X872606Y704410D01*
X873567Y702089D01*
X875096Y700096D01*
X877089Y698567D01*
X879410Y697606D01*
X881900Y697278D01*
X884390Y697606D01*
X886711Y698567D01*
X888704Y700096D01*
X890233Y702089D01*
X891195Y704410D01*
X891522Y706900D01*
X891195Y709390D01*
X890233Y711711D01*
X888704Y713704D01*
X886711Y715233D01*
X884390Y716195D01*
X881900Y716522D01*
D02*
G37*
G36*
X923000Y719680D02*
X919365Y719322D01*
X915871Y718262D01*
X912650Y716540D01*
X909827Y714223D01*
X907510Y711400D01*
X905788Y708179D01*
X904728Y704685D01*
X904370Y701050D01*
X904728Y697415D01*
X905788Y693921D01*
X907510Y690700D01*
X909827Y687877D01*
X912650Y685560D01*
X915871Y683838D01*
X919365Y682778D01*
X923000Y682420D01*
X926635Y682778D01*
X930129Y683838D01*
X933350Y685560D01*
X936173Y687877D01*
X938490Y690700D01*
X940212Y693921D01*
X941272Y697415D01*
X941630Y701050D01*
X941272Y704685D01*
X940212Y708179D01*
X938490Y711400D01*
X936173Y714223D01*
X933350Y716540D01*
X930129Y718262D01*
X926635Y719322D01*
X923000Y719680D01*
D02*
G37*
G36*
X986500Y697972D02*
X984010Y697645D01*
X981689Y696683D01*
X979696Y695154D01*
X978167Y693161D01*
X977206Y690841D01*
X976878Y688350D01*
X977206Y685860D01*
X978167Y683539D01*
X979696Y681546D01*
X981689Y680017D01*
X984010Y679056D01*
X986500Y678728D01*
X988990Y679056D01*
X991311Y680017D01*
X993304Y681546D01*
X994833Y683539D01*
X995795Y685860D01*
X996122Y688350D01*
X995795Y690841D01*
X994833Y693161D01*
X993304Y695154D01*
X991311Y696683D01*
X988990Y697645D01*
X986500Y697972D01*
D02*
G37*
G36*
X881900Y691622D02*
X879410Y691294D01*
X877089Y690333D01*
X875096Y688804D01*
X873567Y686811D01*
X872606Y684491D01*
X872278Y682000D01*
X872606Y679510D01*
X873567Y677189D01*
X875096Y675196D01*
X877089Y673667D01*
X879410Y672706D01*
X881900Y672378D01*
X884390Y672706D01*
X886711Y673667D01*
X888704Y675196D01*
X890233Y677189D01*
X891195Y679510D01*
X891522Y682000D01*
X891195Y684491D01*
X890233Y686811D01*
X888704Y688804D01*
X886711Y690333D01*
X884390Y691294D01*
X881900Y691622D01*
D02*
G37*
G36*
X1011900Y685272D02*
X1009410Y684945D01*
X1007089Y683983D01*
X1005096Y682454D01*
X1003567Y680461D01*
X1002606Y678140D01*
X1002278Y675650D01*
X1002606Y673160D01*
X1003567Y670839D01*
X1005096Y668846D01*
X1007089Y667317D01*
X1009410Y666356D01*
X1011900Y666028D01*
X1014390Y666356D01*
X1016711Y667317D01*
X1018704Y668846D01*
X1020233Y670839D01*
X1021195Y673160D01*
X1021522Y675650D01*
X1021195Y678140D01*
X1020233Y680461D01*
X1018704Y682454D01*
X1016711Y683983D01*
X1014390Y684945D01*
X1011900Y685272D01*
D02*
G37*
G36*
X692000Y665154D02*
Y657250D01*
X699904D01*
X699820Y657881D01*
X698805Y660333D01*
X697189Y662439D01*
X695083Y664055D01*
X692631Y665070D01*
X692000Y665154D01*
D02*
G37*
G36*
X688000Y665154D02*
X687369Y665070D01*
X684917Y664055D01*
X682811Y662439D01*
X681195Y660333D01*
X680180Y657881D01*
X680096Y657250D01*
X688000D01*
Y665154D01*
D02*
G37*
G36*
X986500Y672572D02*
X984010Y672244D01*
X981689Y671283D01*
X979696Y669754D01*
X978167Y667761D01*
X977206Y665441D01*
X976878Y662950D01*
X977206Y660460D01*
X978167Y658139D01*
X979696Y656146D01*
X981689Y654617D01*
X984010Y653656D01*
X986500Y653328D01*
X988990Y653656D01*
X991311Y654617D01*
X993304Y656146D01*
X994833Y658139D01*
X995795Y660460D01*
X996122Y662950D01*
X995795Y665441D01*
X994833Y667761D01*
X993304Y669754D01*
X991311Y671283D01*
X988990Y672244D01*
X986500Y672572D01*
D02*
G37*
G36*
X318000Y654203D02*
Y647500D01*
X324703D01*
X324661Y647821D01*
X323765Y649983D01*
X322340Y651840D01*
X320483Y653265D01*
X318321Y654161D01*
X318000Y654203D01*
D02*
G37*
G36*
X314000D02*
X313679Y654161D01*
X311517Y653265D01*
X309660Y651840D01*
X308235Y649983D01*
X307339Y647821D01*
X307297Y647500D01*
X314000D01*
Y654203D01*
D02*
G37*
G36*
X688000Y653250D02*
X680096D01*
X680180Y652619D01*
X681195Y650166D01*
X682811Y648061D01*
X684917Y646445D01*
X687369Y645430D01*
X688000Y645346D01*
Y653250D01*
D02*
G37*
G36*
X699904D02*
X692000D01*
Y645346D01*
X692631Y645430D01*
X695083Y646445D01*
X697189Y648061D01*
X698805Y650166D01*
X699820Y652619D01*
X699904Y653250D01*
D02*
G37*
G36*
X625080Y665330D02*
X604920D01*
Y645170D01*
X625080D01*
Y665330D01*
D02*
G37*
G36*
X715000Y665417D02*
X712369Y665070D01*
X709917Y664055D01*
X707811Y662439D01*
X706195Y660333D01*
X705180Y657881D01*
X704833Y655250D01*
X705180Y652619D01*
X706195Y650166D01*
X707811Y648061D01*
X709917Y646445D01*
X712369Y645430D01*
X715000Y645083D01*
X717631Y645430D01*
X720083Y646445D01*
X722189Y648061D01*
X723805Y650166D01*
X724820Y652619D01*
X725167Y655250D01*
X724820Y657881D01*
X723805Y660333D01*
X722189Y662439D01*
X720083Y664055D01*
X717631Y665070D01*
X715000Y665417D01*
D02*
G37*
G36*
X665000D02*
X662369Y665070D01*
X659917Y664055D01*
X657811Y662439D01*
X656195Y660333D01*
X655180Y657881D01*
X654833Y655250D01*
X655180Y652619D01*
X656195Y650166D01*
X657811Y648061D01*
X659917Y646445D01*
X662369Y645430D01*
X665000Y645083D01*
X667631Y645430D01*
X670083Y646445D01*
X672189Y648061D01*
X673805Y650166D01*
X674820Y652619D01*
X675167Y655250D01*
X674820Y657881D01*
X673805Y660333D01*
X672189Y662439D01*
X670083Y664055D01*
X667631Y665070D01*
X665000Y665417D01*
D02*
G37*
G36*
X640000D02*
X637369Y665070D01*
X634916Y664055D01*
X632811Y662439D01*
X631195Y660333D01*
X630179Y657881D01*
X629833Y655250D01*
X630179Y652619D01*
X631195Y650166D01*
X632811Y648061D01*
X634916Y646445D01*
X637369Y645430D01*
X640000Y645083D01*
X642631Y645430D01*
X645083Y646445D01*
X647189Y648061D01*
X648805Y650166D01*
X649820Y652619D01*
X650167Y655250D01*
X649820Y657881D01*
X648805Y660333D01*
X647189Y662439D01*
X645083Y664055D01*
X642631Y665070D01*
X640000Y665417D01*
D02*
G37*
G36*
X1011900Y659872D02*
X1009410Y659545D01*
X1007089Y658583D01*
X1005096Y657054D01*
X1003567Y655061D01*
X1002606Y652740D01*
X1002278Y650250D01*
X1002606Y647760D01*
X1003567Y645439D01*
X1005096Y643446D01*
X1007089Y641917D01*
X1009410Y640956D01*
X1011900Y640628D01*
X1014390Y640956D01*
X1016711Y641917D01*
X1018704Y643446D01*
X1020233Y645439D01*
X1021195Y647760D01*
X1021522Y650250D01*
X1021195Y652740D01*
X1020233Y655061D01*
X1018704Y657054D01*
X1016711Y658583D01*
X1014390Y659545D01*
X1011900Y659872D01*
D02*
G37*
G36*
X324703Y643500D02*
X318000D01*
Y636797D01*
X318321Y636839D01*
X320483Y637735D01*
X322340Y639160D01*
X323765Y641017D01*
X324661Y643179D01*
X324703Y643500D01*
D02*
G37*
G36*
X314000D02*
X307297D01*
X307339Y643179D01*
X308235Y641017D01*
X309660Y639160D01*
X311517Y637735D01*
X313679Y636839D01*
X314000Y636797D01*
Y643500D01*
D02*
G37*
G36*
X1304000Y647167D02*
Y634000D01*
X1317167D01*
X1317069Y634997D01*
X1316194Y637879D01*
X1314775Y640536D01*
X1312864Y642864D01*
X1310536Y644775D01*
X1307880Y646195D01*
X1304997Y647069D01*
X1304000Y647167D01*
D02*
G37*
G36*
X1054000D02*
Y634000D01*
X1067167D01*
X1067069Y634997D01*
X1066195Y637879D01*
X1064775Y640536D01*
X1062864Y642864D01*
X1060536Y644775D01*
X1057879Y646195D01*
X1054997Y647069D01*
X1054000Y647167D01*
D02*
G37*
G36*
X1300000Y647167D02*
X1299003Y647069D01*
X1296120Y646195D01*
X1293464Y644775D01*
X1291136Y642864D01*
X1289225Y640536D01*
X1287806Y637879D01*
X1286931Y634997D01*
X1286833Y634000D01*
X1300000D01*
Y647167D01*
D02*
G37*
G36*
X1050000D02*
X1049003Y647069D01*
X1046121Y646195D01*
X1043464Y644775D01*
X1041136Y642864D01*
X1039225Y640536D01*
X1037805Y637879D01*
X1036931Y634997D01*
X1036833Y634000D01*
X1050000D01*
Y647167D01*
D02*
G37*
G36*
X986500Y647172D02*
X984010Y646844D01*
X981689Y645883D01*
X979696Y644354D01*
X978167Y642361D01*
X977206Y640041D01*
X976878Y637550D01*
X977206Y635060D01*
X978167Y632739D01*
X979696Y630746D01*
X981689Y629217D01*
X984010Y628256D01*
X986500Y627928D01*
X988990Y628256D01*
X991311Y629217D01*
X993304Y630746D01*
X994833Y632739D01*
X995795Y635060D01*
X996122Y637550D01*
X995795Y640041D01*
X994833Y642361D01*
X993304Y644354D01*
X991311Y645883D01*
X988990Y646844D01*
X986500Y647172D01*
D02*
G37*
G36*
X1400000Y640583D02*
X1397183Y640212D01*
X1394558Y639125D01*
X1392305Y637396D01*
X1390575Y635142D01*
X1389488Y632517D01*
X1389117Y629700D01*
X1389488Y626883D01*
X1390575Y624258D01*
X1392305Y622005D01*
X1394558Y620275D01*
X1397183Y619188D01*
X1400000Y618817D01*
X1402817Y619188D01*
X1405442Y620275D01*
X1407695Y622005D01*
X1409425Y624258D01*
X1410512Y626883D01*
X1410883Y629700D01*
X1410512Y632517D01*
X1409425Y635142D01*
X1407695Y637396D01*
X1405442Y639125D01*
X1402817Y640212D01*
X1400000Y640583D01*
D02*
G37*
G36*
X1317167Y630000D02*
X1304000D01*
Y616833D01*
X1304997Y616931D01*
X1307880Y617805D01*
X1310536Y619225D01*
X1312864Y621136D01*
X1314775Y623464D01*
X1316194Y626120D01*
X1317069Y629003D01*
X1317167Y630000D01*
D02*
G37*
G36*
X1067167D02*
X1054000D01*
Y616833D01*
X1054997Y616931D01*
X1057879Y617805D01*
X1060536Y619225D01*
X1062864Y621136D01*
X1064775Y623464D01*
X1066195Y626120D01*
X1067069Y629003D01*
X1067167Y630000D01*
D02*
G37*
G36*
X1300000D02*
X1286833D01*
X1286931Y629003D01*
X1287806Y626120D01*
X1289225Y623464D01*
X1291136Y621136D01*
X1293464Y619225D01*
X1296120Y617805D01*
X1299003Y616931D01*
X1300000Y616833D01*
Y630000D01*
D02*
G37*
G36*
X1050000D02*
X1036833D01*
X1036931Y629003D01*
X1037805Y626120D01*
X1039225Y623464D01*
X1041136Y621136D01*
X1043464Y619225D01*
X1046121Y617805D01*
X1049003Y616931D01*
X1050000Y616833D01*
Y630000D01*
D02*
G37*
G36*
X1011900Y634472D02*
X1009410Y634145D01*
X1007089Y633183D01*
X1005096Y631654D01*
X1003567Y629661D01*
X1002606Y627341D01*
X1002278Y624850D01*
X1002606Y622360D01*
X1003567Y620039D01*
X1005096Y618046D01*
X1007089Y616517D01*
X1009410Y615556D01*
X1011900Y615228D01*
X1014390Y615556D01*
X1016711Y616517D01*
X1018704Y618046D01*
X1020233Y620039D01*
X1021195Y622360D01*
X1021522Y624850D01*
X1021195Y627341D01*
X1020233Y629661D01*
X1018704Y631654D01*
X1016711Y633183D01*
X1014390Y634145D01*
X1011900Y634472D01*
D02*
G37*
G36*
X781000Y761640D02*
X777988Y761243D01*
X775180Y760080D01*
X772770Y758230D01*
X770920Y755820D01*
X769757Y753013D01*
X769361Y750000D01*
X769757Y746988D01*
X770920Y744180D01*
X772770Y741770D01*
X775180Y739920D01*
X777988Y738757D01*
X781000Y738361D01*
X783555Y738697D01*
X783559Y738697D01*
X783566Y738698D01*
X784013Y738757D01*
X784177Y738825D01*
X784704Y738934D01*
X785693Y739087D01*
X786580Y739170D01*
X787358Y739188D01*
X788026Y739148D01*
X788578Y739061D01*
X789018Y738939D01*
X789355Y738796D01*
X789608Y738642D01*
X789650Y738606D01*
X917753Y610503D01*
X919014Y609661D01*
X920500Y609365D01*
X927198D01*
X929869Y606695D01*
X928522Y604449D01*
X926635Y605022D01*
X923000Y605380D01*
X919365Y605022D01*
X915871Y603962D01*
X912650Y602240D01*
X909827Y599923D01*
X907510Y597100D01*
X905788Y593879D01*
X904728Y590384D01*
X904370Y586750D01*
X904728Y583116D01*
X905788Y579621D01*
X907510Y576400D01*
X909827Y573577D01*
X912650Y571260D01*
X915871Y569538D01*
X919365Y568478D01*
X923000Y568120D01*
X926635Y568478D01*
X930129Y569538D01*
X933350Y571260D01*
X936173Y573577D01*
X938490Y576400D01*
X940212Y579621D01*
X941272Y583116D01*
X941630Y586750D01*
X941290Y590203D01*
X941324Y590435D01*
X943318Y592389D01*
X943557Y592342D01*
X945914Y592810D01*
X947912Y594145D01*
X949247Y596143D01*
X949716Y598500D01*
X949247Y600857D01*
X947912Y602855D01*
X945914Y604189D01*
X943557Y604658D01*
X943283Y604604D01*
X943254Y604607D01*
X943154Y604626D01*
X943063Y604650D01*
X942977Y604682D01*
X942892Y604722D01*
X942803Y604773D01*
X942725Y604826D01*
X931554Y615997D01*
X930294Y616839D01*
X928807Y617135D01*
X922109D01*
X794794Y744449D01*
X794646Y744682D01*
X794420Y745124D01*
X794196Y745646D01*
X792644Y751006D01*
X792336Y752411D01*
X792335Y752413D01*
X792335Y752416D01*
X792316Y752460D01*
X792243Y753013D01*
X791080Y755820D01*
X789231Y758230D01*
X786820Y760080D01*
X784013Y761243D01*
X781000Y761640D01*
D02*
G37*
G36*
X986500Y621772D02*
X984010Y621445D01*
X981689Y620483D01*
X979696Y618954D01*
X978167Y616961D01*
X977206Y614641D01*
X976878Y612150D01*
X977206Y609660D01*
X978167Y607339D01*
X979696Y605346D01*
X981689Y603817D01*
X984010Y602856D01*
X986500Y602528D01*
X988990Y602856D01*
X991311Y603817D01*
X993304Y605346D01*
X994833Y607339D01*
X995795Y609660D01*
X996122Y612150D01*
X995795Y614641D01*
X994833Y616961D01*
X993304Y618954D01*
X991311Y620483D01*
X988990Y621445D01*
X986500Y621772D01*
D02*
G37*
G36*
X881900Y615422D02*
X879410Y615094D01*
X877089Y614133D01*
X875096Y612604D01*
X873567Y610611D01*
X872606Y608290D01*
X872278Y605800D01*
X872606Y603310D01*
X873567Y600989D01*
X875096Y598996D01*
X877089Y597467D01*
X879410Y596506D01*
X881900Y596178D01*
X884390Y596506D01*
X886711Y597467D01*
X888704Y598996D01*
X890233Y600989D01*
X891195Y603310D01*
X891522Y605800D01*
X891195Y608290D01*
X890233Y610611D01*
X888704Y612604D01*
X886711Y614133D01*
X884390Y615094D01*
X881900Y615422D01*
D02*
G37*
G36*
X1400000Y615183D02*
X1397183Y614812D01*
X1394558Y613725D01*
X1392305Y611996D01*
X1390575Y609742D01*
X1389488Y607117D01*
X1389117Y604300D01*
X1389488Y601483D01*
X1390575Y598858D01*
X1392305Y596604D01*
X1394558Y594875D01*
X1397183Y593788D01*
X1400000Y593417D01*
X1402817Y593788D01*
X1405442Y594875D01*
X1407695Y596604D01*
X1409425Y598858D01*
X1410512Y601483D01*
X1410883Y604300D01*
X1410512Y607117D01*
X1409425Y609742D01*
X1407695Y611996D01*
X1405442Y613725D01*
X1402817Y614812D01*
X1400000Y615183D01*
D02*
G37*
G36*
X1011900Y609072D02*
X1009410Y608745D01*
X1007089Y607783D01*
X1005096Y606254D01*
X1003567Y604261D01*
X1002606Y601940D01*
X1002278Y599450D01*
X1002606Y596960D01*
X1003567Y594639D01*
X1005096Y592646D01*
X1007089Y591117D01*
X1009410Y590156D01*
X1011900Y589828D01*
X1014390Y590156D01*
X1016711Y591117D01*
X1018704Y592646D01*
X1020233Y594639D01*
X1021195Y596960D01*
X1021522Y599450D01*
X1021195Y601940D01*
X1020233Y604261D01*
X1018704Y606254D01*
X1016711Y607783D01*
X1014390Y608745D01*
X1011900Y609072D01*
D02*
G37*
G36*
X881900Y590522D02*
X879410Y590195D01*
X877089Y589233D01*
X875096Y587704D01*
X873567Y585711D01*
X872606Y583391D01*
X872278Y580900D01*
X872606Y578410D01*
X873567Y576089D01*
X875096Y574096D01*
X877089Y572567D01*
X879410Y571606D01*
X881900Y571278D01*
X884390Y571606D01*
X886711Y572567D01*
X888704Y574096D01*
X890233Y576089D01*
X891195Y578410D01*
X891522Y580900D01*
X891195Y583391D01*
X890233Y585711D01*
X888704Y587704D01*
X886711Y589233D01*
X884390Y590195D01*
X881900Y590522D01*
D02*
G37*
G36*
X1400000Y589783D02*
X1397183Y589412D01*
X1394558Y588325D01*
X1392305Y586595D01*
X1390575Y584342D01*
X1389488Y581717D01*
X1389117Y578900D01*
X1389488Y576083D01*
X1390575Y573459D01*
X1392305Y571204D01*
X1394558Y569475D01*
X1397183Y568388D01*
X1400000Y568017D01*
X1402817Y568388D01*
X1405442Y569475D01*
X1407695Y571204D01*
X1409425Y573459D01*
X1410512Y576083D01*
X1410883Y578900D01*
X1410512Y581717D01*
X1409425Y584342D01*
X1407695Y586595D01*
X1405442Y588325D01*
X1402817Y589412D01*
X1400000Y589783D01*
D02*
G37*
G36*
X1374600D02*
X1371783Y589412D01*
X1369158Y588325D01*
X1366904Y586595D01*
X1366730Y586368D01*
X1366151Y585810D01*
X1364614Y584483D01*
X1363967Y584000D01*
X1363359Y583597D01*
X1362819Y583290D01*
X1362356Y583075D01*
X1361981Y582944D01*
X1361712Y582885D01*
X1351806D01*
X1350319Y582589D01*
X1349059Y581747D01*
X1322096Y554784D01*
X1321254Y553523D01*
X1320958Y552037D01*
Y483452D01*
X1319803Y482498D01*
X1317202Y483644D01*
X1317069Y484997D01*
X1316194Y487879D01*
X1314775Y490536D01*
X1312864Y492864D01*
X1310536Y494775D01*
X1307880Y496194D01*
X1304997Y497069D01*
X1304000Y497167D01*
Y482000D01*
X1302000D01*
Y480000D01*
X1286833D01*
X1286931Y479003D01*
X1287806Y476120D01*
X1289225Y473464D01*
X1291136Y471136D01*
X1293464Y469225D01*
X1296120Y467805D01*
X1299003Y466931D01*
X1301591Y466676D01*
X1302269Y465614D01*
X1302655Y464148D01*
X1292951Y454445D01*
X1203860D01*
X1202373Y454149D01*
X1201113Y453307D01*
X1155125Y407319D01*
X1155023Y407248D01*
X1154818Y407136D01*
X1154552Y407023D01*
X1154221Y406916D01*
X1153823Y406819D01*
X1153394Y406746D01*
X1152204Y406647D01*
X1151664Y406641D01*
X1151500Y406662D01*
X1149310Y406374D01*
X1147269Y405529D01*
X1145516Y404184D01*
X1144171Y402431D01*
X1143326Y400390D01*
X1143038Y398200D01*
X1143326Y396010D01*
X1144171Y393969D01*
X1145516Y392216D01*
X1147269Y390871D01*
X1149310Y390026D01*
X1151500Y389738D01*
X1153690Y390026D01*
X1155731Y390871D01*
X1157484Y392216D01*
X1158829Y393969D01*
X1159674Y396010D01*
X1159962Y398200D01*
X1159941Y398364D01*
X1159947Y398938D01*
X1159981Y399530D01*
X1160040Y400059D01*
X1160119Y400523D01*
X1160216Y400921D01*
X1160323Y401252D01*
X1160436Y401518D01*
X1160548Y401723D01*
X1160619Y401825D01*
X1205469Y446675D01*
X1286710D01*
Y419135D01*
X1219850D01*
X1218363Y418839D01*
X1217103Y417997D01*
X1206223Y407117D01*
X1206124Y407049D01*
X1205934Y406948D01*
X1205689Y406849D01*
X1205383Y406758D01*
X1205013Y406681D01*
X1204616Y406630D01*
X1203479Y406592D01*
X1202833Y406622D01*
X1202726Y406606D01*
X1202300Y406662D01*
X1200110Y406374D01*
X1198069Y405529D01*
X1196316Y404184D01*
X1194971Y402431D01*
X1194126Y400390D01*
X1193838Y398200D01*
X1194126Y396010D01*
X1194971Y393969D01*
X1196316Y392216D01*
X1198069Y390871D01*
X1200110Y390026D01*
X1202300Y389738D01*
X1204490Y390026D01*
X1206531Y390871D01*
X1208284Y392216D01*
X1209629Y393969D01*
X1210474Y396010D01*
X1210670Y397496D01*
X1210722Y397674D01*
X1210850Y399105D01*
X1210934Y399635D01*
X1211039Y400126D01*
X1211156Y400549D01*
X1211282Y400903D01*
X1211409Y401188D01*
X1211531Y401406D01*
X1211604Y401511D01*
X1221459Y411365D01*
X1257453D01*
X1258425Y409019D01*
X1256725Y407319D01*
X1256623Y407248D01*
X1256418Y407136D01*
X1256152Y407023D01*
X1255821Y406916D01*
X1255424Y406819D01*
X1254994Y406746D01*
X1253804Y406647D01*
X1253264Y406641D01*
X1253100Y406662D01*
X1250910Y406374D01*
X1248869Y405529D01*
X1247116Y404184D01*
X1245771Y402431D01*
X1244926Y400390D01*
X1244638Y398200D01*
X1244926Y396010D01*
X1245771Y393969D01*
X1247116Y392216D01*
X1248869Y390871D01*
X1250910Y390026D01*
X1253100Y389738D01*
X1255290Y390026D01*
X1257331Y390871D01*
X1259084Y392216D01*
X1260429Y393969D01*
X1261274Y396010D01*
X1261562Y398200D01*
X1261541Y398364D01*
X1261547Y398938D01*
X1261581Y399530D01*
X1261640Y400060D01*
X1261719Y400524D01*
X1261816Y400921D01*
X1261923Y401252D01*
X1262036Y401518D01*
X1262148Y401723D01*
X1262219Y401825D01*
X1266679Y406285D01*
X1271083D01*
X1271731Y405335D01*
X1272180Y403745D01*
X1271171Y402431D01*
X1270326Y400390D01*
X1270038Y398200D01*
X1270326Y396010D01*
X1271171Y393969D01*
X1272516Y392216D01*
X1274269Y390871D01*
X1276310Y390026D01*
X1278500Y389738D01*
X1280690Y390026D01*
X1282731Y390871D01*
X1284484Y392216D01*
X1285829Y393969D01*
X1286674Y396010D01*
X1286962Y398200D01*
X1286674Y400390D01*
X1285829Y402431D01*
X1284820Y403745D01*
X1285269Y405335D01*
X1285918Y406285D01*
X1298721D01*
X1299420Y404548D01*
X1299430Y403745D01*
X1297916Y402584D01*
X1296571Y400831D01*
X1295726Y398790D01*
X1295701Y398600D01*
X1303900D01*
X1312099D01*
X1312074Y398790D01*
X1311229Y400831D01*
X1309884Y402584D01*
X1308370Y403745D01*
X1308380Y404548D01*
X1309079Y406285D01*
X1321354D01*
X1322841Y406581D01*
X1324101Y407423D01*
X1347263Y430585D01*
X1348105Y431846D01*
X1348401Y433332D01*
Y506407D01*
X1363529Y521535D01*
X1364689Y521129D01*
X1365329Y520849D01*
X1367938Y519463D01*
X1368858Y518906D01*
X1369158Y518675D01*
X1371783Y517588D01*
X1374600Y517217D01*
X1377417Y517588D01*
X1380042Y518675D01*
X1382296Y520405D01*
X1384025Y522659D01*
X1385112Y525283D01*
X1385483Y528100D01*
X1385112Y530917D01*
X1384025Y533542D01*
X1382296Y535796D01*
X1380042Y537525D01*
X1377417Y538612D01*
X1374600Y538983D01*
X1371783Y538612D01*
X1369158Y537525D01*
X1366904Y535796D01*
X1365175Y533542D01*
X1364807Y532653D01*
X1364719Y532544D01*
X1364702Y532485D01*
X1364666Y532435D01*
X1364310Y531667D01*
X1363986Y531074D01*
X1363669Y530588D01*
X1363370Y530209D01*
X1363098Y529930D01*
X1362859Y529739D01*
X1362657Y529618D01*
X1362482Y529546D01*
X1362326Y529510D01*
X1362125D01*
X1361983Y529481D01*
X1361929Y529477D01*
X1361846Y529454D01*
X1360638Y529214D01*
X1359378Y528372D01*
X1344303Y513297D01*
X1341956Y514268D01*
Y536147D01*
X1355424Y549615D01*
X1361698D01*
X1361967Y549556D01*
X1362338Y549425D01*
X1362796Y549210D01*
X1363328Y548904D01*
X1363928Y548501D01*
X1364563Y548018D01*
X1366074Y546686D01*
X1366708Y546061D01*
X1366904Y545804D01*
X1369158Y544075D01*
X1371783Y542988D01*
X1374600Y542617D01*
X1377417Y542988D01*
X1380042Y544075D01*
X1382296Y545804D01*
X1384025Y548059D01*
X1385112Y550683D01*
X1385483Y553500D01*
X1385112Y556317D01*
X1384025Y558942D01*
X1382296Y561195D01*
X1380042Y562925D01*
X1377417Y564012D01*
X1374600Y564383D01*
X1371783Y564012D01*
X1369158Y562925D01*
X1366904Y561195D01*
X1366708Y560939D01*
X1366074Y560314D01*
X1364563Y558982D01*
X1363927Y558499D01*
X1363328Y558096D01*
X1362796Y557790D01*
X1362339Y557575D01*
X1361967Y557444D01*
X1361698Y557385D01*
X1353815D01*
X1352329Y557089D01*
X1351068Y556247D01*
X1335325Y540503D01*
X1334483Y539243D01*
X1334187Y537757D01*
Y435681D01*
X1319830Y421324D01*
X1317290Y422376D01*
Y447290D01*
X1300376D01*
X1299324Y449830D01*
X1327590Y478096D01*
X1328432Y479356D01*
X1328727Y480843D01*
Y550428D01*
X1353415Y575115D01*
X1361685D01*
X1361954Y575055D01*
X1362322Y574925D01*
X1362773Y574711D01*
X1363298Y574406D01*
X1363888Y574003D01*
X1364512Y573520D01*
X1365999Y572183D01*
X1366689Y571485D01*
X1366904Y571204D01*
X1369158Y569475D01*
X1371783Y568388D01*
X1374600Y568017D01*
X1377417Y568388D01*
X1380042Y569475D01*
X1382296Y571204D01*
X1384025Y573459D01*
X1385112Y576083D01*
X1385483Y578900D01*
X1385112Y581717D01*
X1384025Y584342D01*
X1382296Y586595D01*
X1380042Y588325D01*
X1377417Y589412D01*
X1374600Y589783D01*
D02*
G37*
G36*
X52000Y558703D02*
Y552000D01*
X58703D01*
X58661Y552321D01*
X57765Y554483D01*
X56340Y556340D01*
X54483Y557765D01*
X52321Y558661D01*
X52000Y558703D01*
D02*
G37*
G36*
X48000D02*
X47679Y558661D01*
X45517Y557765D01*
X43660Y556340D01*
X42235Y554483D01*
X41339Y552321D01*
X41297Y552000D01*
X48000D01*
Y558703D01*
D02*
G37*
G36*
X961500Y579815D02*
X957704Y579316D01*
X954167Y577851D01*
X951130Y575520D01*
X948799Y572483D01*
X947334Y568946D01*
X946834Y565150D01*
X947334Y561354D01*
X948799Y557817D01*
X951130Y554780D01*
X954167Y552449D01*
X957704Y550984D01*
X961500Y550485D01*
X965296Y550984D01*
X968833Y552449D01*
X971870Y554780D01*
X974201Y557817D01*
X975666Y561354D01*
X976165Y565150D01*
X975666Y568946D01*
X974201Y572483D01*
X971870Y575520D01*
X968833Y577851D01*
X965296Y579316D01*
X961500Y579815D01*
D02*
G37*
G36*
X1400000Y564383D02*
X1397183Y564012D01*
X1394558Y562925D01*
X1392305Y561195D01*
X1390575Y558942D01*
X1389488Y556317D01*
X1389117Y553500D01*
X1389488Y550683D01*
X1390575Y548059D01*
X1392305Y545804D01*
X1394558Y544075D01*
X1397183Y542988D01*
X1400000Y542617D01*
X1402817Y542988D01*
X1405442Y544075D01*
X1407695Y545804D01*
X1409425Y548059D01*
X1410512Y550683D01*
X1410883Y553500D01*
X1410512Y556317D01*
X1409425Y558942D01*
X1407695Y561195D01*
X1405442Y562925D01*
X1402817Y564012D01*
X1400000Y564383D01*
D02*
G37*
G36*
X58703Y548000D02*
X52000D01*
Y541297D01*
X52321Y541339D01*
X54483Y542234D01*
X56340Y543660D01*
X57765Y545517D01*
X58661Y547679D01*
X58703Y548000D01*
D02*
G37*
G36*
X48000D02*
X41297D01*
X41339Y547679D01*
X42235Y545517D01*
X43660Y543660D01*
X45517Y542234D01*
X47679Y541339D01*
X48000Y541297D01*
Y548000D01*
D02*
G37*
G36*
X1400000Y538983D02*
X1397183Y538612D01*
X1394558Y537525D01*
X1392305Y535796D01*
X1390575Y533542D01*
X1389488Y530917D01*
X1389117Y528100D01*
X1389488Y525283D01*
X1390575Y522659D01*
X1392305Y520405D01*
X1394558Y518675D01*
X1397183Y517588D01*
X1400000Y517217D01*
X1402817Y517588D01*
X1405442Y518675D01*
X1407695Y520405D01*
X1409425Y522659D01*
X1410512Y525283D01*
X1410883Y528100D01*
X1410512Y530917D01*
X1409425Y533542D01*
X1407695Y535796D01*
X1405442Y537525D01*
X1402817Y538612D01*
X1400000Y538983D01*
D02*
G37*
G36*
X261000Y560644D02*
X255737Y560229D01*
X250604Y558997D01*
X245726Y556977D01*
X241225Y554218D01*
X237210Y550790D01*
X233782Y546775D01*
X231023Y542274D01*
X229003Y537397D01*
X227771Y532263D01*
X227356Y527000D01*
X227771Y521737D01*
X229003Y516604D01*
X231023Y511726D01*
X233782Y507225D01*
X237210Y503210D01*
X241225Y499782D01*
X245726Y497023D01*
X250604Y495003D01*
X255737Y493770D01*
X261000Y493356D01*
X266263Y493770D01*
X271397Y495003D01*
X276274Y497023D01*
X280775Y499782D01*
X284790Y503210D01*
X288218Y507225D01*
X290977Y511726D01*
X292997Y516604D01*
X294230Y521737D01*
X294644Y527000D01*
X294230Y532263D01*
X292997Y537397D01*
X290977Y542274D01*
X288218Y546775D01*
X284790Y550790D01*
X280775Y554218D01*
X276274Y556977D01*
X271397Y558997D01*
X266263Y560229D01*
X261000Y560644D01*
D02*
G37*
G36*
X1400000Y513583D02*
X1397183Y513212D01*
X1394558Y512125D01*
X1392305Y510396D01*
X1390575Y508142D01*
X1389488Y505517D01*
X1389117Y502700D01*
X1389488Y499883D01*
X1390575Y497258D01*
X1392305Y495005D01*
X1394558Y493275D01*
X1397183Y492188D01*
X1400000Y491817D01*
X1402817Y492188D01*
X1405442Y493275D01*
X1407695Y495005D01*
X1409425Y497258D01*
X1410512Y499883D01*
X1410883Y502700D01*
X1410512Y505517D01*
X1409425Y508142D01*
X1407695Y510396D01*
X1405442Y512125D01*
X1402817Y513212D01*
X1400000Y513583D01*
D02*
G37*
G36*
X1374600D02*
X1371783Y513212D01*
X1369158Y512125D01*
X1366904Y510396D01*
X1365175Y508142D01*
X1364088Y505517D01*
X1363717Y502700D01*
X1364088Y499883D01*
X1365175Y497258D01*
X1366904Y495005D01*
X1369158Y493275D01*
X1371783Y492188D01*
X1374600Y491817D01*
X1377417Y492188D01*
X1380042Y493275D01*
X1382296Y495005D01*
X1384025Y497258D01*
X1385112Y499883D01*
X1385483Y502700D01*
X1385112Y505517D01*
X1384025Y508142D01*
X1382296Y510396D01*
X1380042Y512125D01*
X1377417Y513212D01*
X1374600Y513583D01*
D02*
G37*
G36*
X1300000Y497167D02*
X1299003Y497069D01*
X1296120Y496194D01*
X1293464Y494775D01*
X1291136Y492864D01*
X1289225Y490536D01*
X1287806Y487879D01*
X1286931Y484997D01*
X1286833Y484000D01*
X1300000D01*
Y497167D01*
D02*
G37*
G36*
X1374600Y488183D02*
X1371783Y487812D01*
X1369158Y486725D01*
X1366904Y484995D01*
X1365175Y482742D01*
X1364088Y480117D01*
X1363717Y477300D01*
X1364088Y474483D01*
X1365175Y471858D01*
X1366904Y469604D01*
X1369158Y467875D01*
X1371783Y466788D01*
X1374600Y466417D01*
X1377417Y466788D01*
X1380042Y467875D01*
X1382296Y469604D01*
X1384025Y471858D01*
X1385112Y474483D01*
X1385483Y477300D01*
X1385112Y480117D01*
X1384025Y482742D01*
X1382296Y484995D01*
X1380042Y486725D01*
X1377417Y487812D01*
X1374600Y488183D01*
D02*
G37*
G36*
X1400000D02*
X1397183Y487812D01*
X1394558Y486725D01*
X1392305Y484995D01*
X1390575Y482742D01*
X1389488Y480117D01*
X1389117Y477300D01*
X1389488Y474483D01*
X1390575Y471858D01*
X1392305Y469604D01*
X1394558Y467875D01*
X1397183Y466788D01*
X1400000Y466417D01*
X1402817Y466788D01*
X1405442Y467875D01*
X1407695Y469604D01*
X1408092Y470122D01*
X1411452Y470355D01*
X1425760Y456046D01*
X1425804Y455982D01*
X1425844Y455908D01*
X1425873Y455842D01*
X1425895Y455777D01*
X1425911Y455709D01*
X1425922Y455631D01*
X1425927Y455539D01*
X1425923Y455407D01*
X1425842Y455000D01*
X1426311Y452643D01*
X1427646Y450645D01*
X1429644Y449310D01*
X1432000Y448842D01*
X1434357Y449310D01*
X1436355Y450645D01*
X1437690Y452643D01*
X1438159Y455000D01*
X1437690Y457356D01*
X1436355Y459355D01*
X1434357Y460689D01*
X1432000Y461158D01*
X1431921Y461142D01*
X1431909Y461145D01*
X1431798Y461180D01*
X1431693Y461223D01*
X1431590Y461274D01*
X1431486Y461335D01*
X1431396Y461398D01*
X1412797Y479997D01*
X1411537Y480839D01*
X1410094Y481126D01*
X1409425Y482742D01*
X1407695Y484995D01*
X1405442Y486725D01*
X1402817Y487812D01*
X1400000Y488183D01*
D02*
G37*
G36*
Y462783D02*
X1397183Y462412D01*
X1394558Y461325D01*
X1392305Y459595D01*
X1390575Y457342D01*
X1389488Y454717D01*
X1389117Y451900D01*
X1389488Y449083D01*
X1390575Y446459D01*
X1392305Y444204D01*
X1394558Y442475D01*
X1397183Y441388D01*
X1400000Y441017D01*
X1402817Y441388D01*
X1405442Y442475D01*
X1407695Y444204D01*
X1407892Y444461D01*
X1408526Y445086D01*
X1410037Y446418D01*
X1410673Y446901D01*
X1411272Y447304D01*
X1411804Y447610D01*
X1412262Y447825D01*
X1412633Y447956D01*
X1412902Y448015D01*
X1413491D01*
X1415253Y446253D01*
X1415253Y446253D01*
X1435495Y426012D01*
X1435578Y425900D01*
X1435666Y425765D01*
X1435746Y425626D01*
X1435816Y425483D01*
X1435879Y425333D01*
X1435935Y425175D01*
X1435983Y425007D01*
X1436039Y424758D01*
X1436129Y424555D01*
X1436311Y423643D01*
X1437646Y421646D01*
X1439644Y420311D01*
X1442000Y419842D01*
X1444357Y420311D01*
X1446355Y421646D01*
X1447690Y423643D01*
X1448159Y426000D01*
X1447690Y428357D01*
X1446355Y430355D01*
X1444357Y431690D01*
X1442000Y432159D01*
X1441044Y431968D01*
X1440831Y431975D01*
X1440652Y431945D01*
X1440618Y431943D01*
X1440602Y431943D01*
X1440595Y431944D01*
X1440588Y431946D01*
X1440570Y431953D01*
X1440535Y431971D01*
X1440501Y431993D01*
X1420747Y451747D01*
X1420747Y451747D01*
X1417847Y454647D01*
X1416587Y455489D01*
X1415100Y455785D01*
X1412902D01*
X1412633Y455844D01*
X1412262Y455975D01*
X1411804Y456190D01*
X1411272Y456496D01*
X1410672Y456899D01*
X1410037Y457382D01*
X1408526Y458714D01*
X1407892Y459339D01*
X1407695Y459595D01*
X1405442Y461325D01*
X1402817Y462412D01*
X1400000Y462783D01*
D02*
G37*
G36*
X1085800Y418462D02*
X1083610Y418174D01*
X1081569Y417329D01*
X1079816Y415984D01*
X1078471Y414231D01*
X1077626Y412190D01*
X1077338Y410000D01*
X1077626Y407810D01*
X1078471Y405769D01*
X1079816Y404016D01*
X1081569Y402671D01*
X1083610Y401826D01*
X1085800Y401538D01*
X1087990Y401826D01*
X1090031Y402671D01*
X1091784Y404016D01*
X1093129Y405769D01*
X1093974Y407810D01*
X1094262Y410000D01*
X1093974Y412190D01*
X1093129Y414231D01*
X1091784Y415984D01*
X1090031Y417329D01*
X1087990Y418174D01*
X1085800Y418462D01*
D02*
G37*
G36*
X1060400D02*
X1058210Y418174D01*
X1056169Y417329D01*
X1054416Y415984D01*
X1053071Y414231D01*
X1052226Y412190D01*
X1051938Y410000D01*
X1052226Y407810D01*
X1053071Y405769D01*
X1054416Y404016D01*
X1056169Y402671D01*
X1058210Y401826D01*
X1060400Y401538D01*
X1062590Y401826D01*
X1064631Y402671D01*
X1066384Y404016D01*
X1067729Y405769D01*
X1068574Y407810D01*
X1068862Y410000D01*
X1068574Y412190D01*
X1067729Y414231D01*
X1066384Y415984D01*
X1064631Y417329D01*
X1062590Y418174D01*
X1060400Y418462D01*
D02*
G37*
G36*
X1134490Y406590D02*
X1117710D01*
Y389810D01*
X1134490D01*
Y406590D01*
D02*
G37*
G36*
X1227700Y406662D02*
X1225510Y406374D01*
X1223469Y405529D01*
X1221716Y404184D01*
X1220371Y402431D01*
X1219526Y400390D01*
X1219238Y398200D01*
X1219526Y396010D01*
X1220371Y393969D01*
X1221716Y392216D01*
X1223469Y390871D01*
X1225510Y390026D01*
X1227700Y389738D01*
X1229890Y390026D01*
X1231931Y390871D01*
X1233684Y392216D01*
X1235029Y393969D01*
X1235874Y396010D01*
X1236162Y398200D01*
X1235874Y400390D01*
X1235029Y402431D01*
X1233684Y404184D01*
X1231931Y405529D01*
X1229890Y406374D01*
X1227700Y406662D01*
D02*
G37*
G36*
X1176900D02*
X1174710Y406374D01*
X1172669Y405529D01*
X1170916Y404184D01*
X1169571Y402431D01*
X1168726Y400390D01*
X1168438Y398200D01*
X1168726Y396010D01*
X1169571Y393969D01*
X1170916Y392216D01*
X1172669Y390871D01*
X1174710Y390026D01*
X1176900Y389738D01*
X1179090Y390026D01*
X1181131Y390871D01*
X1182884Y392216D01*
X1184229Y393969D01*
X1185074Y396010D01*
X1185362Y398200D01*
X1185074Y400390D01*
X1184229Y402431D01*
X1182884Y404184D01*
X1181131Y405529D01*
X1179090Y406374D01*
X1176900Y406662D01*
D02*
G37*
G36*
X1312099Y394600D02*
X1305900D01*
Y388401D01*
X1306090Y388426D01*
X1308131Y389271D01*
X1309884Y390616D01*
X1311229Y392369D01*
X1312074Y394410D01*
X1312099Y394600D01*
D02*
G37*
G36*
X1301900D02*
X1295701D01*
X1295726Y394410D01*
X1296571Y392369D01*
X1297916Y390616D01*
X1299669Y389271D01*
X1301710Y388426D01*
X1301900Y388401D01*
Y394600D01*
D02*
G37*
G36*
X767000Y333703D02*
Y327000D01*
X773703D01*
X773661Y327321D01*
X772765Y329483D01*
X771340Y331340D01*
X769483Y332765D01*
X767321Y333661D01*
X767000Y333703D01*
D02*
G37*
G36*
X763000D02*
X762679Y333661D01*
X760517Y332765D01*
X758660Y331340D01*
X757235Y329483D01*
X756339Y327321D01*
X756297Y327000D01*
X763000D01*
Y333703D01*
D02*
G37*
G36*
X773703Y323000D02*
X767000D01*
Y316297D01*
X767321Y316339D01*
X769483Y317235D01*
X771340Y318660D01*
X772765Y320517D01*
X773661Y322679D01*
X773703Y323000D01*
D02*
G37*
G36*
X763000D02*
X756297D01*
X756339Y322679D01*
X757235Y320517D01*
X758660Y318660D01*
X760517Y317235D01*
X762679Y316339D01*
X763000Y316297D01*
Y323000D01*
D02*
G37*
G36*
X1282000Y233703D02*
Y227000D01*
X1288703D01*
X1288661Y227321D01*
X1287765Y229483D01*
X1286340Y231340D01*
X1284483Y232765D01*
X1282321Y233661D01*
X1282000Y233703D01*
D02*
G37*
G36*
X1278000D02*
X1277679Y233661D01*
X1275517Y232765D01*
X1273660Y231340D01*
X1272235Y229483D01*
X1271339Y227321D01*
X1271297Y227000D01*
X1278000D01*
Y233703D01*
D02*
G37*
G36*
X697604Y253010D02*
X694649D01*
X694399Y252960D01*
X694144D01*
X691246Y252383D01*
X691010Y252286D01*
X690760Y252236D01*
X688030Y251105D01*
X687818Y250964D01*
X687582Y250866D01*
X685126Y249224D01*
X684945Y249044D01*
X684733Y248902D01*
X682644Y246813D01*
X682502Y246601D01*
X682322Y246421D01*
X680680Y243964D01*
X680583Y243728D01*
X680441Y243516D01*
X679310Y240786D01*
X679260Y240536D01*
X679163Y240301D01*
X678587Y237403D01*
Y237148D01*
X678537Y236897D01*
Y233943D01*
X678587Y233692D01*
Y233437D01*
X679163Y230539D01*
X679260Y230304D01*
X679310Y230054D01*
X680441Y227324D01*
X680583Y227112D01*
X680680Y226876D01*
X682322Y224419D01*
X682502Y224239D01*
X682644Y224027D01*
X684733Y221938D01*
X684945Y221796D01*
X685126Y221615D01*
X687582Y219974D01*
X687818Y219876D01*
X688030Y219734D01*
X690760Y218604D01*
X691010Y218554D01*
X691246Y218456D01*
X694144Y217880D01*
X694399D01*
X694649Y217830D01*
X697604D01*
X697854Y217880D01*
X698109D01*
X701007Y218456D01*
X701243Y218554D01*
X701493Y218604D01*
X704223Y219734D01*
X704435Y219876D01*
X704670Y219974D01*
X707127Y221615D01*
X707308Y221796D01*
X707520Y221938D01*
X709609Y224027D01*
X709751Y224239D01*
X709931Y224419D01*
X711573Y226876D01*
X711670Y227112D01*
X711812Y227324D01*
X712943Y230054D01*
X712992Y230304D01*
X713090Y230539D01*
X713667Y233437D01*
Y233692D01*
X713716Y233943D01*
Y236897D01*
X713667Y237148D01*
Y237403D01*
X713090Y240301D01*
X712992Y240536D01*
X712943Y240786D01*
X711812Y243516D01*
X711670Y243728D01*
X711573Y243964D01*
X709931Y246421D01*
X709751Y246601D01*
X709609Y246813D01*
X707520Y248902D01*
X707308Y249044D01*
X707127Y249224D01*
X704670Y250866D01*
X704435Y250964D01*
X704223Y251105D01*
X701493Y252236D01*
X701243Y252286D01*
X701007Y252383D01*
X698109Y252960D01*
X697854D01*
X697604Y253010D01*
D02*
G37*
G36*
X1288703Y223000D02*
X1282000D01*
Y216297D01*
X1282321Y216339D01*
X1284483Y217235D01*
X1286340Y218660D01*
X1287765Y220517D01*
X1288661Y222679D01*
X1288703Y223000D01*
D02*
G37*
G36*
X1278000D02*
X1271297D01*
X1271339Y222679D01*
X1272235Y220517D01*
X1273660Y218660D01*
X1275517Y217235D01*
X1277679Y216339D01*
X1278000Y216297D01*
Y223000D01*
D02*
G37*
G36*
X1516000Y204904D02*
Y197000D01*
X1523904D01*
X1523820Y197631D01*
X1522805Y200084D01*
X1521189Y202189D01*
X1519084Y203805D01*
X1516631Y204820D01*
X1516000Y204904D01*
D02*
G37*
G36*
X1512000Y204904D02*
X1511369Y204820D01*
X1508916Y203805D01*
X1506811Y202189D01*
X1505195Y200084D01*
X1504180Y197631D01*
X1504096Y197000D01*
X1512000D01*
Y204904D01*
D02*
G37*
G36*
Y193000D02*
X1504096D01*
X1504180Y192369D01*
X1505195Y189916D01*
X1506811Y187811D01*
X1508916Y186195D01*
X1511369Y185180D01*
X1512000Y185096D01*
Y193000D01*
D02*
G37*
G36*
X1523904D02*
X1516000D01*
Y185096D01*
X1516631Y185180D01*
X1519084Y186195D01*
X1521189Y187811D01*
X1522805Y189916D01*
X1523820Y192369D01*
X1523904Y193000D01*
D02*
G37*
G36*
X625000Y200648D02*
X622838Y200218D01*
X621006Y198994D01*
X619781Y197162D01*
X619753Y197021D01*
X616366Y193634D01*
X615252Y191967D01*
X614861Y190000D01*
Y157091D01*
X614781Y156972D01*
X614351Y154810D01*
X614781Y152649D01*
X616006Y150816D01*
X617838Y149592D01*
X620000Y149162D01*
X622161Y149592D01*
X623994Y150816D01*
X625218Y152649D01*
X625648Y154810D01*
X625218Y156972D01*
X625139Y157091D01*
Y187872D01*
X627020Y189753D01*
X627162Y189781D01*
X628994Y191006D01*
X630219Y192838D01*
X630648Y195000D01*
X630219Y197162D01*
X628994Y198994D01*
X627162Y200218D01*
X625000Y200648D01*
D02*
G37*
G36*
X849461Y128522D02*
X848187Y128354D01*
X845136Y127091D01*
X842517Y125080D01*
X840507Y122461D01*
X840135Y121564D01*
X837386D01*
X837014Y122461D01*
X835004Y125080D01*
X832385Y127091D01*
X829334Y128354D01*
X828061Y128522D01*
Y116137D01*
Y103752D01*
X829334Y103920D01*
X832385Y105183D01*
X835004Y107193D01*
X837014Y109813D01*
X837386Y110710D01*
X840135D01*
X840507Y109813D01*
X842517Y107193D01*
X845136Y105183D01*
X848187Y103920D01*
X849461Y103752D01*
Y116137D01*
Y128522D01*
D02*
G37*
G36*
X824061D02*
X822787Y128354D01*
X819736Y127091D01*
X817117Y125080D01*
X815107Y122461D01*
X813843Y119410D01*
X813676Y118137D01*
X824061D01*
Y128522D01*
D02*
G37*
G36*
X1416000Y130167D02*
Y117000D01*
X1429167D01*
X1429069Y117997D01*
X1428194Y120879D01*
X1426775Y123536D01*
X1424864Y125864D01*
X1422536Y127775D01*
X1419879Y129194D01*
X1416997Y130069D01*
X1416000Y130167D01*
D02*
G37*
G36*
X1412000Y130167D02*
X1411003Y130069D01*
X1408121Y129194D01*
X1405464Y127775D01*
X1403136Y125864D01*
X1401225Y123536D01*
X1399805Y120879D01*
X1398931Y117997D01*
X1398833Y117000D01*
X1412000D01*
Y130167D01*
D02*
G37*
G36*
X824061Y114137D02*
X813676D01*
X813843Y112863D01*
X815107Y109813D01*
X817117Y107193D01*
X819736Y105183D01*
X822787Y103920D01*
X824061Y103752D01*
Y114137D01*
D02*
G37*
G36*
X274100Y121178D02*
X271448Y120829D01*
X268976Y119805D01*
X266854Y118176D01*
X265225Y116054D01*
X264202Y113582D01*
X263852Y110930D01*
X264202Y108278D01*
X265225Y105806D01*
X266854Y103684D01*
X268976Y102055D01*
X271448Y101032D01*
X274100Y100682D01*
X276752Y101032D01*
X279224Y102055D01*
X281346Y103684D01*
X282975Y105806D01*
X283999Y108278D01*
X284348Y110930D01*
X283999Y113582D01*
X282975Y116054D01*
X281346Y118176D01*
X279224Y119805D01*
X276752Y120829D01*
X274100Y121178D01*
D02*
G37*
G36*
X248700D02*
X246048Y120829D01*
X243576Y119805D01*
X241454Y118176D01*
X239825Y116054D01*
X238801Y113582D01*
X238452Y110930D01*
X238801Y108278D01*
X239825Y105806D01*
X241454Y103684D01*
X243576Y102055D01*
X246048Y101032D01*
X248700Y100682D01*
X251352Y101032D01*
X253824Y102055D01*
X255946Y103684D01*
X257575Y105806D01*
X258598Y108278D01*
X258948Y110930D01*
X258598Y113582D01*
X257575Y116054D01*
X255946Y118176D01*
X253824Y119805D01*
X251352Y120829D01*
X248700Y121178D01*
D02*
G37*
G36*
X1429167Y113000D02*
X1416000D01*
Y99833D01*
X1416997Y99931D01*
X1419879Y100806D01*
X1422536Y102225D01*
X1424864Y104136D01*
X1426775Y106464D01*
X1428194Y109121D01*
X1429069Y112003D01*
X1429167Y113000D01*
D02*
G37*
G36*
X1412000D02*
X1398833D01*
X1398931Y112003D01*
X1399805Y109121D01*
X1401225Y106464D01*
X1403136Y104136D01*
X1405464Y102225D01*
X1408121Y100806D01*
X1411003Y99931D01*
X1412000Y99833D01*
Y113000D01*
D02*
G37*
G36*
X1516000Y94904D02*
Y87000D01*
X1523904D01*
X1523820Y87631D01*
X1522805Y90084D01*
X1521189Y92189D01*
X1519084Y93805D01*
X1516631Y94820D01*
X1516000Y94904D01*
D02*
G37*
G36*
X1512000Y94904D02*
X1511369Y94820D01*
X1508916Y93805D01*
X1506811Y92189D01*
X1505195Y90084D01*
X1504180Y87631D01*
X1504096Y87000D01*
X1512000D01*
Y94904D01*
D02*
G37*
G36*
X274100Y95778D02*
X271448Y95428D01*
X268976Y94405D01*
X266854Y92776D01*
X265225Y90654D01*
X264202Y88182D01*
X263852Y85530D01*
X264202Y82878D01*
X265225Y80406D01*
X266854Y78284D01*
X268976Y76655D01*
X271448Y75631D01*
X274100Y75282D01*
X276752Y75631D01*
X279224Y76655D01*
X281346Y78284D01*
X282975Y80406D01*
X283999Y82878D01*
X284348Y85530D01*
X283999Y88182D01*
X282975Y90654D01*
X281346Y92776D01*
X279224Y94405D01*
X276752Y95428D01*
X274100Y95778D01*
D02*
G37*
G36*
X248700D02*
X246048Y95428D01*
X243576Y94405D01*
X241454Y92776D01*
X239825Y90654D01*
X238801Y88182D01*
X238452Y85530D01*
X238801Y82878D01*
X239825Y80406D01*
X241454Y78284D01*
X243576Y76655D01*
X246048Y75631D01*
X248700Y75282D01*
X251352Y75631D01*
X253824Y76655D01*
X255946Y78284D01*
X257575Y80406D01*
X258598Y82878D01*
X258948Y85530D01*
X258598Y88182D01*
X257575Y90654D01*
X255946Y92776D01*
X253824Y94405D01*
X251352Y95428D01*
X248700Y95778D01*
D02*
G37*
G36*
X1512000Y83000D02*
X1504096D01*
X1504180Y82369D01*
X1505195Y79917D01*
X1506811Y77811D01*
X1508916Y76195D01*
X1511369Y75180D01*
X1512000Y75096D01*
Y83000D01*
D02*
G37*
G36*
X1523904D02*
X1516000D01*
Y75096D01*
X1516631Y75180D01*
X1519084Y76195D01*
X1521189Y77811D01*
X1522805Y79917D01*
X1523820Y82369D01*
X1523904Y83000D01*
D02*
G37*
G36*
X311700Y59684D02*
Y51700D01*
X319684D01*
X319599Y52352D01*
X318575Y54824D01*
X316946Y56946D01*
X314824Y58575D01*
X312352Y59598D01*
X311700Y59684D01*
D02*
G37*
G36*
X692700D02*
Y51700D01*
X700684D01*
X700599Y52352D01*
X699575Y54824D01*
X697946Y56946D01*
X695824Y58575D01*
X693352Y59598D01*
X692700Y59684D01*
D02*
G37*
G36*
X688700Y59684D02*
X688048Y59598D01*
X685576Y58575D01*
X683454Y56946D01*
X681825Y54824D01*
X680801Y52352D01*
X680716Y51700D01*
X688700D01*
Y59684D01*
D02*
G37*
G36*
X307700Y59684D02*
X307048Y59598D01*
X304576Y58575D01*
X302454Y56946D01*
X300825Y54824D01*
X299802Y52352D01*
X299716Y51700D01*
X307700D01*
Y59684D01*
D02*
G37*
G36*
X688700Y47700D02*
X680716D01*
X680801Y47048D01*
X681825Y44576D01*
X683454Y42454D01*
X685576Y40825D01*
X688048Y39801D01*
X688700Y39716D01*
Y47700D01*
D02*
G37*
G36*
X497484D02*
X489500D01*
Y39716D01*
X490152Y39801D01*
X492624Y40825D01*
X494746Y42454D01*
X496375Y44576D01*
X497398Y47048D01*
X497484Y47700D01*
D02*
G37*
G36*
X319684D02*
X311700D01*
Y39716D01*
X312352Y39801D01*
X314824Y40825D01*
X316946Y42454D01*
X318575Y44576D01*
X319599Y47048D01*
X319684Y47700D01*
D02*
G37*
G36*
X485500D02*
X477516D01*
X477602Y47048D01*
X478625Y44576D01*
X480254Y42454D01*
X482376Y40825D01*
X484848Y39801D01*
X485500Y39716D01*
Y47700D01*
D02*
G37*
G36*
X307700D02*
X299716D01*
X299802Y47048D01*
X300825Y44576D01*
X302454Y42454D01*
X304576Y40825D01*
X307048Y39801D01*
X307700Y39716D01*
Y47700D01*
D02*
G37*
G36*
X700684D02*
X692700D01*
Y39716D01*
X693352Y39801D01*
X695824Y40825D01*
X697946Y42454D01*
X699575Y44576D01*
X700599Y47048D01*
X700684Y47700D01*
D02*
G37*
G36*
X665300Y59948D02*
X662648Y59598D01*
X660176Y58575D01*
X658054Y56946D01*
X656425Y54824D01*
X655402Y52352D01*
X655052Y49700D01*
X655402Y47048D01*
X656425Y44576D01*
X658054Y42454D01*
X660176Y40825D01*
X662648Y39801D01*
X665300Y39452D01*
X667952Y39801D01*
X670424Y40825D01*
X672546Y42454D01*
X674175Y44576D01*
X675199Y47048D01*
X675548Y49700D01*
X675199Y52352D01*
X674175Y54824D01*
X672546Y56946D01*
X670424Y58575D01*
X667952Y59598D01*
X665300Y59948D01*
D02*
G37*
G36*
X639900D02*
X637248Y59598D01*
X634776Y58575D01*
X632654Y56946D01*
X631025Y54824D01*
X630001Y52352D01*
X629652Y49700D01*
X630001Y47048D01*
X631025Y44576D01*
X632654Y42454D01*
X634776Y40825D01*
X637248Y39801D01*
X639900Y39452D01*
X642552Y39801D01*
X645024Y40825D01*
X647146Y42454D01*
X648775Y44576D01*
X649799Y47048D01*
X650148Y49700D01*
X649799Y52352D01*
X648775Y54824D01*
X647146Y56946D01*
X645024Y58575D01*
X642552Y59598D01*
X639900Y59948D01*
D02*
G37*
G36*
X614500D02*
X611848Y59598D01*
X609376Y58575D01*
X607254Y56946D01*
X605625Y54824D01*
X604602Y52352D01*
X604252Y49700D01*
X604602Y47048D01*
X605625Y44576D01*
X607254Y42454D01*
X609376Y40825D01*
X611848Y39801D01*
X614500Y39452D01*
X617152Y39801D01*
X619624Y40825D01*
X621746Y42454D01*
X623375Y44576D01*
X624398Y47048D01*
X624748Y49700D01*
X624398Y52352D01*
X623375Y54824D01*
X621746Y56946D01*
X619624Y58575D01*
X617152Y59598D01*
X614500Y59948D01*
D02*
G37*
G36*
X411300D02*
X408648Y59598D01*
X406176Y58575D01*
X404054Y56946D01*
X402425Y54824D01*
X401401Y52352D01*
X401052Y49700D01*
X401401Y47048D01*
X402425Y44576D01*
X404054Y42454D01*
X406176Y40825D01*
X408648Y39801D01*
X411300Y39452D01*
X413952Y39801D01*
X416424Y40825D01*
X418546Y42454D01*
X420175Y44576D01*
X421199Y47048D01*
X421548Y49700D01*
X421199Y52352D01*
X420175Y54824D01*
X418546Y56946D01*
X416424Y58575D01*
X413952Y59598D01*
X411300Y59948D01*
D02*
G37*
G36*
X385900D02*
X383248Y59598D01*
X380776Y58575D01*
X378654Y56946D01*
X377025Y54824D01*
X376002Y52352D01*
X375652Y49700D01*
X376002Y47048D01*
X377025Y44576D01*
X378654Y42454D01*
X380776Y40825D01*
X383248Y39801D01*
X385900Y39452D01*
X388552Y39801D01*
X391024Y40825D01*
X393146Y42454D01*
X394775Y44576D01*
X395798Y47048D01*
X396148Y49700D01*
X395798Y52352D01*
X394775Y54824D01*
X393146Y56946D01*
X391024Y58575D01*
X388552Y59598D01*
X385900Y59948D01*
D02*
G37*
G36*
X360500D02*
X357848Y59598D01*
X355376Y58575D01*
X353254Y56946D01*
X351625Y54824D01*
X350602Y52352D01*
X350252Y49700D01*
X350602Y47048D01*
X351625Y44576D01*
X353254Y42454D01*
X355376Y40825D01*
X357848Y39801D01*
X360500Y39452D01*
X363152Y39801D01*
X365624Y40825D01*
X367746Y42454D01*
X369375Y44576D01*
X370398Y47048D01*
X370748Y49700D01*
X370398Y52352D01*
X369375Y54824D01*
X367746Y56946D01*
X365624Y58575D01*
X363152Y59598D01*
X360500Y59948D01*
D02*
G37*
G36*
X335100D02*
X332448Y59598D01*
X329976Y58575D01*
X327854Y56946D01*
X326225Y54824D01*
X325201Y52352D01*
X324852Y49700D01*
X325201Y47048D01*
X326225Y44576D01*
X327854Y42454D01*
X329976Y40825D01*
X332448Y39801D01*
X335100Y39452D01*
X337752Y39801D01*
X340224Y40825D01*
X342346Y42454D01*
X343975Y44576D01*
X344999Y47048D01*
X345348Y49700D01*
X344999Y52352D01*
X343975Y54824D01*
X342346Y56946D01*
X340224Y58575D01*
X337752Y59598D01*
X335100Y59948D01*
D02*
G37*
G36*
X37604Y68006D02*
X34649D01*
X34399Y67957D01*
X34144D01*
X31246Y67380D01*
X31010Y67282D01*
X30760Y67233D01*
X28030Y66102D01*
X27818Y65960D01*
X27582Y65863D01*
X25126Y64221D01*
X24945Y64041D01*
X24733Y63899D01*
X22644Y61810D01*
X22502Y61598D01*
X22322Y61417D01*
X20680Y58960D01*
X20583Y58725D01*
X20441Y58513D01*
X19310Y55783D01*
X19260Y55533D01*
X19163Y55297D01*
X18586Y52399D01*
Y52144D01*
X18537Y51894D01*
Y48939D01*
X18586Y48689D01*
Y48434D01*
X19163Y45536D01*
X19260Y45300D01*
X19310Y45050D01*
X20441Y42320D01*
X20583Y42108D01*
X20680Y41873D01*
X22322Y39416D01*
X22502Y39235D01*
X22644Y39023D01*
X24733Y36934D01*
X24945Y36792D01*
X25126Y36612D01*
X27582Y34970D01*
X27818Y34873D01*
X28030Y34731D01*
X30760Y33600D01*
X31010Y33551D01*
X31246Y33453D01*
X34144Y32877D01*
X34399D01*
X34649Y32827D01*
X37604D01*
X37854Y32877D01*
X38109D01*
X41007Y33453D01*
X41243Y33551D01*
X41493Y33600D01*
X44223Y34731D01*
X44435Y34873D01*
X44670Y34970D01*
X47127Y36612D01*
X47308Y36792D01*
X47520Y36934D01*
X49609Y39023D01*
X49751Y39235D01*
X49931Y39416D01*
X51573Y41873D01*
X51670Y42108D01*
X51812Y42320D01*
X52943Y45050D01*
X52992Y45300D01*
X53090Y45536D01*
X53667Y48434D01*
Y48689D01*
X53716Y48939D01*
Y51894D01*
X53667Y52144D01*
Y52399D01*
X53090Y55297D01*
X52992Y55533D01*
X52943Y55783D01*
X51812Y58513D01*
X51670Y58725D01*
X51573Y58960D01*
X49931Y61417D01*
X49751Y61598D01*
X49609Y61810D01*
X47520Y63899D01*
X47308Y64041D01*
X47127Y64221D01*
X44670Y65863D01*
X44435Y65960D01*
X44223Y66102D01*
X41493Y67233D01*
X41243Y67282D01*
X41007Y67380D01*
X38109Y67957D01*
X37854D01*
X37604Y68006D01*
D02*
G37*
G36*
X565700Y34284D02*
Y26300D01*
X573684D01*
X573599Y26952D01*
X572575Y29424D01*
X570946Y31546D01*
X568824Y33175D01*
X566352Y34199D01*
X565700Y34284D01*
D02*
G37*
G36*
X438700D02*
Y26300D01*
X446684D01*
X446599Y26952D01*
X445575Y29424D01*
X443946Y31546D01*
X441824Y33175D01*
X439352Y34199D01*
X438700Y34284D01*
D02*
G37*
G36*
X387900D02*
Y26300D01*
X395884D01*
X395798Y26952D01*
X394775Y29424D01*
X393146Y31546D01*
X391024Y33175D01*
X388552Y34199D01*
X387900Y34284D01*
D02*
G37*
G36*
X641900D02*
Y26300D01*
X649884D01*
X649799Y26952D01*
X648775Y29424D01*
X647146Y31546D01*
X645024Y33175D01*
X642552Y34199D01*
X641900Y34284D01*
D02*
G37*
G36*
X637900Y34284D02*
X637248Y34199D01*
X634776Y33175D01*
X632654Y31546D01*
X631025Y29424D01*
X630001Y26952D01*
X629916Y26300D01*
X637900D01*
Y34284D01*
D02*
G37*
G36*
X561700Y34284D02*
X561048Y34199D01*
X558576Y33175D01*
X556454Y31546D01*
X554825Y29424D01*
X553801Y26952D01*
X553716Y26300D01*
X561700D01*
Y34284D01*
D02*
G37*
G36*
X434700D02*
X434048Y34199D01*
X431576Y33175D01*
X429454Y31546D01*
X427825Y29424D01*
X426801Y26952D01*
X426716Y26300D01*
X434700D01*
Y34284D01*
D02*
G37*
G36*
X383900D02*
X383248Y34199D01*
X380776Y33175D01*
X378654Y31546D01*
X377025Y29424D01*
X376002Y26952D01*
X375916Y26300D01*
X383900D01*
Y34284D01*
D02*
G37*
G36*
X446684Y22300D02*
X438700D01*
Y14316D01*
X439352Y14402D01*
X441824Y15425D01*
X443946Y17054D01*
X445575Y19176D01*
X446599Y21648D01*
X446684Y22300D01*
D02*
G37*
G36*
X395884D02*
X387900D01*
Y14316D01*
X388552Y14402D01*
X391024Y15425D01*
X393146Y17054D01*
X394775Y19176D01*
X395798Y21648D01*
X395884Y22300D01*
D02*
G37*
G36*
X434700D02*
X426716D01*
X426801Y21648D01*
X427825Y19176D01*
X429454Y17054D01*
X431576Y15425D01*
X434048Y14402D01*
X434700Y14316D01*
Y22300D01*
D02*
G37*
G36*
X383900D02*
X375916D01*
X376002Y21648D01*
X377025Y19176D01*
X378654Y17054D01*
X380776Y15425D01*
X383248Y14402D01*
X383900Y14316D01*
Y22300D01*
D02*
G37*
G36*
X411300Y34548D02*
X408648Y34199D01*
X406176Y33175D01*
X404054Y31546D01*
X402425Y29424D01*
X401401Y26952D01*
X401052Y24300D01*
X401401Y21648D01*
X402425Y19176D01*
X404054Y17054D01*
X406176Y15425D01*
X408648Y14402D01*
X411300Y14052D01*
X413952Y14402D01*
X416424Y15425D01*
X418546Y17054D01*
X420175Y19176D01*
X421199Y21648D01*
X421548Y24300D01*
X421199Y26952D01*
X420175Y29424D01*
X418546Y31546D01*
X416424Y33175D01*
X413952Y34199D01*
X411300Y34548D01*
D02*
G37*
G36*
X360500D02*
X357848Y34199D01*
X355376Y33175D01*
X353254Y31546D01*
X351625Y29424D01*
X350602Y26952D01*
X350252Y24300D01*
X350602Y21648D01*
X351625Y19176D01*
X353254Y17054D01*
X355376Y15425D01*
X357848Y14402D01*
X360500Y14052D01*
X363152Y14402D01*
X365624Y15425D01*
X367746Y17054D01*
X369375Y19176D01*
X370398Y21648D01*
X370748Y24300D01*
X370398Y26952D01*
X369375Y29424D01*
X367746Y31546D01*
X365624Y33175D01*
X363152Y34199D01*
X360500Y34548D01*
D02*
G37*
G36*
X335100D02*
X332448Y34199D01*
X329976Y33175D01*
X327854Y31546D01*
X326225Y29424D01*
X325201Y26952D01*
X324852Y24300D01*
X325201Y21648D01*
X326225Y19176D01*
X327854Y17054D01*
X329976Y15425D01*
X332448Y14402D01*
X335100Y14052D01*
X337752Y14402D01*
X340224Y15425D01*
X342346Y17054D01*
X343975Y19176D01*
X344999Y21648D01*
X345348Y24300D01*
X344999Y26952D01*
X343975Y29424D01*
X342346Y31546D01*
X340224Y33175D01*
X337752Y34199D01*
X335100Y34548D01*
D02*
G37*
G36*
X309700D02*
X307048Y34199D01*
X304576Y33175D01*
X302454Y31546D01*
X300825Y29424D01*
X299802Y26952D01*
X299452Y24300D01*
X299802Y21648D01*
X300825Y19176D01*
X302454Y17054D01*
X304576Y15425D01*
X307048Y14402D01*
X309700Y14052D01*
X312352Y14402D01*
X314824Y15425D01*
X316946Y17054D01*
X318575Y19176D01*
X319599Y21648D01*
X319948Y24300D01*
X319599Y26952D01*
X318575Y29424D01*
X316946Y31546D01*
X314824Y33175D01*
X312352Y34199D01*
X309700Y34548D01*
D02*
G37*
G36*
X261000Y70644D02*
X255737Y70230D01*
X250604Y68997D01*
X245726Y66977D01*
X241225Y64218D01*
X237210Y60790D01*
X233782Y56775D01*
X231023Y52274D01*
X229003Y47396D01*
X227771Y42263D01*
X227356Y37000D01*
X227771Y31737D01*
X229003Y26604D01*
X231023Y21726D01*
X233782Y17225D01*
X237210Y13210D01*
X241225Y9782D01*
X245726Y7023D01*
X250604Y5003D01*
X255737Y3771D01*
X261000Y3356D01*
X266263Y3771D01*
X271397Y5003D01*
X276274Y7023D01*
X280775Y9782D01*
X284790Y13210D01*
X288218Y17225D01*
X290977Y21726D01*
X292997Y26604D01*
X294230Y31737D01*
X294644Y37000D01*
X294230Y42263D01*
X292997Y47396D01*
X290977Y52274D01*
X288218Y56775D01*
X284790Y60790D01*
X280775Y64218D01*
X276274Y66977D01*
X271397Y68997D01*
X266263Y70230D01*
X261000Y70644D01*
D02*
G37*
%LPD*%
G36*
X1400962Y878688D02*
X1401281Y877719D01*
X1426720Y852281D01*
X1423615Y852068D01*
X1420390Y851432D01*
X1417045Y850371D01*
X1413581Y848886D01*
X1409997Y846977D01*
X1406293Y844644D01*
X1402469Y841886D01*
X1398526Y838704D01*
X1390280Y831067D01*
X1369461Y852674D01*
X1375506Y858652D01*
X1396189Y876964D01*
X1398417Y878311D01*
X1400008Y878885D01*
X1400962Y878688D01*
D02*
G37*
G36*
X1335933Y697719D02*
X1331902Y693617D01*
X1320023Y680003D01*
X1318114Y677299D01*
X1316629Y674875D01*
X1315568Y672730D01*
X1314932Y670865D01*
X1314720Y669280D01*
X1289281Y694719D01*
X1289725Y694932D01*
X1290570Y695568D01*
X1291815Y696629D01*
X1304034Y708296D01*
X1311720Y715933D01*
X1335933Y697719D01*
D02*
G37*
G36*
X790133Y750368D02*
X791753Y744771D01*
X792075Y744022D01*
X792396Y743395D01*
X792716Y742891D01*
X793036Y742510D01*
X791642Y740312D01*
X791129Y740748D01*
X790540Y741107D01*
X789873Y741389D01*
X789128Y741596D01*
X788306Y741726D01*
X787406Y741780D01*
X786429Y741757D01*
X785374Y741659D01*
X784242Y741484D01*
X783032Y741233D01*
X789807Y751857D01*
X790133Y750368D01*
D02*
G37*
G36*
X940910Y602960D02*
X941164Y602756D01*
X941428Y602576D01*
X941700Y602420D01*
X941982Y602289D01*
X942272Y602182D01*
X942571Y602100D01*
X942879Y602042D01*
X943196Y602009D01*
X943522Y602000D01*
X940058Y598535D01*
X940049Y598861D01*
X940015Y599178D01*
X939957Y599486D01*
X939875Y599785D01*
X939769Y600076D01*
X939637Y600357D01*
X939482Y600629D01*
X939302Y600893D01*
X939097Y601147D01*
X938868Y601393D01*
X940664Y603189D01*
X940910Y602960D01*
D02*
G37*
G36*
X1368639Y573197D02*
X1367787Y574058D01*
X1366173Y575509D01*
X1365412Y576098D01*
X1364681Y576597D01*
X1363981Y577005D01*
X1363311Y577322D01*
X1362672Y577549D01*
X1362062Y577685D01*
X1361483Y577730D01*
X1361514Y580270D01*
X1362086Y580315D01*
X1362691Y580449D01*
X1363331Y580673D01*
X1364006Y580986D01*
X1364715Y581389D01*
X1365459Y581881D01*
X1366237Y582463D01*
X1367897Y583896D01*
X1368779Y584746D01*
X1368639Y573197D01*
D02*
G37*
G36*
X1368708Y547725D02*
X1367841Y548581D01*
X1366205Y550023D01*
X1365435Y550608D01*
X1364698Y551104D01*
X1363993Y551509D01*
X1363321Y551825D01*
X1362681Y552050D01*
X1362073Y552185D01*
X1361498Y552230D01*
Y554770D01*
X1362073Y554815D01*
X1362681Y554950D01*
X1363321Y555176D01*
X1363993Y555491D01*
X1364698Y555896D01*
X1365435Y556392D01*
X1366205Y556977D01*
X1367841Y558419D01*
X1368708Y559275D01*
Y547725D01*
D02*
G37*
G36*
X1370239Y521097D02*
X1369218Y521716D01*
X1366457Y523182D01*
X1365638Y523540D01*
X1364151Y524062D01*
X1363483Y524225D01*
X1362866Y524322D01*
X1362299Y524355D01*
X1362125Y526895D01*
X1362711Y526939D01*
X1363276Y527073D01*
X1363819Y527295D01*
X1364340Y527607D01*
X1364840Y528008D01*
X1365318Y528498D01*
X1365775Y529076D01*
X1366210Y529744D01*
X1366624Y530501D01*
X1367016Y531347D01*
X1370239Y521097D01*
D02*
G37*
G36*
X1209904Y403508D02*
X1209606Y403172D01*
X1209335Y402786D01*
X1209091Y402350D01*
X1208875Y401864D01*
X1208685Y401329D01*
X1208522Y400743D01*
X1208387Y400108D01*
X1208278Y399424D01*
X1208143Y397905D01*
X1202712Y404035D01*
X1203461Y404000D01*
X1204827Y404045D01*
X1205444Y404126D01*
X1206016Y404244D01*
X1206545Y404402D01*
X1207030Y404597D01*
X1207470Y404832D01*
X1207867Y405104D01*
X1208220Y405415D01*
X1209904Y403508D01*
D02*
G37*
G36*
X1260518Y403822D02*
X1260213Y403477D01*
X1259941Y403085D01*
X1259702Y402646D01*
X1259495Y402160D01*
X1259322Y401627D01*
X1259182Y401047D01*
X1259074Y400421D01*
X1259000Y399747D01*
X1258958Y399026D01*
X1258950Y398259D01*
X1253158Y404050D01*
X1253926Y404058D01*
X1255321Y404174D01*
X1255947Y404282D01*
X1256527Y404422D01*
X1257060Y404595D01*
X1257546Y404802D01*
X1257985Y405041D01*
X1258377Y405313D01*
X1258722Y405618D01*
X1260518Y403822D01*
D02*
G37*
G36*
X1158918D02*
X1158613Y403477D01*
X1158341Y403085D01*
X1158102Y402646D01*
X1157895Y402160D01*
X1157722Y401627D01*
X1157582Y401047D01*
X1157474Y400421D01*
X1157400Y399747D01*
X1157358Y399026D01*
X1157350Y398259D01*
X1151559Y404050D01*
X1152326Y404058D01*
X1153721Y404174D01*
X1154347Y404282D01*
X1154927Y404422D01*
X1155460Y404595D01*
X1155946Y404801D01*
X1156385Y405041D01*
X1156777Y405313D01*
X1157122Y405618D01*
X1158918Y403822D01*
D02*
G37*
G36*
X1408050Y479194D02*
X1408141Y479053D01*
X1408266Y478928D01*
X1408423Y478820D01*
X1408612Y478728D01*
X1408835Y478653D01*
X1409090Y478595D01*
X1409377Y478553D01*
X1409697Y478528D01*
X1410050Y478520D01*
Y475980D01*
X1409694Y475972D01*
X1409371Y475947D01*
X1409081Y475905D01*
X1408823Y475847D01*
X1408598Y475773D01*
X1408406Y475682D01*
X1408247Y475574D01*
X1408120Y475450D01*
X1408026Y475309D01*
X1407965Y475151D01*
X1407991Y479352D01*
X1408050Y479194D01*
D02*
G37*
G36*
X1429565Y459547D02*
X1429818Y459341D01*
X1430081Y459158D01*
X1430352Y458996D01*
X1430633Y458857D01*
X1430923Y458741D01*
X1431223Y458646D01*
X1431532Y458573D01*
X1431850Y458523D01*
X1432177Y458495D01*
X1428509Y455247D01*
X1428519Y455569D01*
X1428502Y455883D01*
X1428458Y456189D01*
X1428388Y456487D01*
X1428291Y456776D01*
X1428168Y457056D01*
X1428018Y457329D01*
X1427841Y457593D01*
X1427638Y457849D01*
X1427408Y458096D01*
X1429321Y459775D01*
X1429565Y459547D01*
D02*
G37*
G36*
X1406759Y456819D02*
X1408395Y455377D01*
X1409165Y454792D01*
X1409902Y454296D01*
X1410607Y453891D01*
X1411279Y453576D01*
X1411919Y453350D01*
X1412527Y453215D01*
X1413102Y453170D01*
Y450630D01*
X1412527Y450585D01*
X1411919Y450450D01*
X1411279Y450225D01*
X1410607Y449909D01*
X1409902Y449504D01*
X1409165Y449008D01*
X1408395Y448423D01*
X1406759Y446981D01*
X1405892Y446125D01*
Y457675D01*
X1406759Y456819D01*
D02*
G37*
G36*
X1438722Y430093D02*
X1438979Y429893D01*
X1439242Y429723D01*
X1439512Y429585D01*
X1439788Y429479D01*
X1440070Y429404D01*
X1440358Y429361D01*
X1440652Y429350D01*
X1440952Y429369D01*
X1441259Y429421D01*
X1438566Y425327D01*
X1438493Y425649D01*
X1438404Y425961D01*
X1438297Y426264D01*
X1438174Y426558D01*
X1438033Y426843D01*
X1437876Y427119D01*
X1437701Y427385D01*
X1437509Y427642D01*
X1437301Y427890D01*
X1437075Y428129D01*
X1438470Y430326D01*
X1438722Y430093D01*
D02*
G37*
%LPC*%
G36*
X910000Y341999D02*
Y335800D01*
X916199D01*
X916174Y335990D01*
X915329Y338031D01*
X913984Y339784D01*
X912231Y341129D01*
X910190Y341974D01*
X910000Y341999D01*
D02*
G37*
G36*
X906000D02*
X905810Y341974D01*
X903769Y341129D01*
X902016Y339784D01*
X900671Y338031D01*
X899826Y335990D01*
X899801Y335800D01*
X906000D01*
Y341999D01*
D02*
G37*
G36*
X916199Y331800D02*
X910000D01*
Y325601D01*
X910190Y325626D01*
X912231Y326471D01*
X913984Y327816D01*
X915329Y329569D01*
X916174Y331610D01*
X916199Y331800D01*
D02*
G37*
G36*
X906000D02*
X899801D01*
X899826Y331610D01*
X900671Y329569D01*
X902016Y327816D01*
X903769Y326471D01*
X905810Y325626D01*
X906000Y325601D01*
Y331800D01*
D02*
G37*
G36*
X1009600Y340662D02*
X1007410Y340374D01*
X1005369Y339529D01*
X1003616Y338184D01*
X1002271Y336431D01*
X1001426Y334390D01*
X1001138Y332200D01*
X1001426Y330010D01*
X1002271Y327969D01*
X1003616Y326216D01*
X1005369Y324871D01*
X1007410Y324026D01*
X1009600Y323738D01*
X1011790Y324026D01*
X1013831Y324871D01*
X1015584Y326216D01*
X1016929Y327969D01*
X1017774Y330010D01*
X1018062Y332200D01*
X1017774Y334390D01*
X1016929Y336431D01*
X1015584Y338184D01*
X1013831Y339529D01*
X1011790Y340374D01*
X1009600Y340662D01*
D02*
G37*
%LPD*%
D15*
X765000Y91052D02*
G03*
X765744Y89256I2540J0D01*
G01*
X478150Y8250D02*
X799481D01*
X462100Y24300D02*
X478150Y8250D01*
X799481D02*
X805000Y13769D01*
X1400000Y426750D02*
X1409750D01*
X805000Y13769D02*
Y60000D01*
X716100Y49700D02*
X727530Y38270D01*
X771635D01*
X780000Y46635D01*
Y75000D01*
X1127274Y342420D02*
X1305236D01*
X1090000Y347500D02*
X1303132D01*
X1333292Y377660D01*
X1305236Y342420D02*
X1335396Y372580D01*
X984200Y409300D02*
Y410000D01*
X1050740Y328199D02*
Y342760D01*
X984200Y409300D02*
X1050740Y342760D01*
X1045000Y362500D02*
X1083447D01*
X1083687Y362740D01*
X1151500Y398200D02*
X1151500D01*
X1203860Y450560D01*
X1294560D01*
X783750Y750000D02*
X920500Y613250D01*
X928807D02*
X943557Y598500D01*
X920500Y613250D02*
X928807D01*
X781000Y750000D02*
X783750D01*
X1340760Y602013D02*
Y621392D01*
X1218337Y479590D02*
X1340760Y602013D01*
X1220441Y474510D02*
X1348172Y602240D01*
X1216233Y484670D02*
X1335680Y604117D01*
X1348172Y602240D02*
X1372540D01*
X631854Y484670D02*
X1216233D01*
X1330000Y605621D02*
Y625000D01*
X1335680Y604117D02*
Y623496D01*
X1214129Y489750D02*
X1330000Y605621D01*
X633958Y479590D02*
X1218337D01*
X636063Y474510D02*
X1220441D01*
X629750Y489750D02*
X1214129D01*
X605000Y450632D02*
X633958Y479590D01*
X599920Y452736D02*
X631854Y484670D01*
X610080Y448527D02*
X636063Y474510D01*
X594760Y454760D02*
X629750Y489750D01*
X1372540Y602240D02*
X1374600Y604300D01*
X594760Y268687D02*
Y454760D01*
X610080Y274920D02*
Y448527D01*
X1357460Y662710D02*
X1374600Y679850D01*
X599920Y270396D02*
Y452736D01*
X1374600Y679850D02*
Y680500D01*
X605000Y272500D02*
Y450632D01*
X765744Y89256D02*
X780000Y75000D01*
X1324843Y480843D02*
Y552037D01*
X1294560Y450560D02*
X1324843Y480843D01*
X1319250Y415250D02*
X1338072Y434072D01*
Y537757D01*
X1219850Y415250D02*
X1319250D01*
X1344516Y433332D02*
Y508016D01*
X1265070Y410170D02*
X1321354D01*
X1344516Y433332D01*
X1202800Y398200D02*
X1219850Y415250D01*
X1253100Y398200D02*
X1265070Y410170D01*
X1365250Y206250D02*
X1392835Y233835D01*
X1396485D01*
X1433000Y276994D02*
Y370250D01*
X1400000Y401100D02*
X1402150D01*
X1433000Y370250D01*
X1410050Y477250D02*
X1432000Y455300D01*
X1399750Y477250D02*
X1410050D01*
X1418000Y449000D02*
X1441000Y426000D01*
X1400000Y451900D02*
X1415100D01*
X1418000Y449000D01*
X1369877Y439840D02*
X1378444D01*
X1387500Y430784D01*
X1292537Y362500D02*
X1369877Y439840D01*
X1374125Y525625D02*
X1376000Y527500D01*
X1362125Y525625D02*
X1374125D01*
X1338072Y537757D02*
X1353815Y553500D01*
X1379013D01*
X1324843Y552037D02*
X1351806Y579000D01*
X1374000D01*
X992857Y152540D02*
X1029260Y116137D01*
X1013177Y157620D02*
X1054660Y116137D01*
X1122757Y175040D02*
X1181660Y116137D01*
X1102437Y169960D02*
X1156260Y116137D01*
X972537Y147460D02*
X1003860Y116137D01*
X1207169Y255331D02*
Y268283D01*
X1143077Y180120D02*
X1207060Y116137D01*
X1003969Y273008D02*
X1008351Y277390D01*
X1003969Y268283D02*
Y273008D01*
X952217Y142380D02*
X978460Y116137D01*
X1082117Y164880D02*
X1130860Y116137D01*
X1232569Y268283D02*
X1259206Y294920D01*
X1400000Y350300D02*
X1422000Y328300D01*
Y321750D02*
Y328300D01*
X1422000Y301000D02*
Y321750D01*
X1407000Y286000D02*
X1422000Y301000D01*
X1371045Y286000D02*
X1407000D01*
X1361772Y295272D02*
X1371045Y286000D01*
X1346482Y310563D02*
X1361772Y295272D01*
X1330867Y310563D02*
X1346482D01*
X1322964Y302660D02*
X1330867Y310563D01*
X1302344Y302660D02*
X1322964D01*
X1294604Y294920D02*
X1302344Y302660D01*
X1259206Y294920D02*
X1294604D01*
X971400Y345000D02*
X984200Y332200D01*
X955000Y345000D02*
X971400D01*
X943060Y333060D02*
X955000Y345000D01*
X943060Y320560D02*
Y333060D01*
X935000Y312500D02*
X943060Y320560D01*
X920884Y312500D02*
X935000D01*
X920804Y312420D02*
X920884Y312500D01*
X825917Y312420D02*
X920804D01*
X823657Y310160D02*
X825917Y312420D01*
X813607Y310160D02*
X823657D01*
X780260Y276813D02*
X813607Y310160D01*
X780260Y183477D02*
Y276813D01*
Y183477D02*
X798857Y164880D01*
X1082117D01*
X1020260Y424740D02*
X1035000Y410000D01*
X897240Y424740D02*
X1020260D01*
X885000Y412500D02*
X897240Y424740D01*
X885000Y400240D02*
Y412500D01*
X827495Y342735D02*
X885000Y400240D01*
X817445Y342735D02*
X827495D01*
X759940Y285229D02*
X817445Y342735D01*
X759940Y175060D02*
Y285229D01*
Y175060D02*
X792620Y142380D01*
X952217D01*
X1303900Y311400D02*
Y320400D01*
X1292500Y300000D02*
X1303900Y311400D01*
X1247500Y300000D02*
X1292500D01*
X1235000Y287500D02*
X1247500Y300000D01*
X1017500Y287500D02*
X1235000D01*
X1008351Y278351D02*
X1017500Y287500D01*
X1008351Y277390D02*
Y278351D01*
X1251347Y318647D02*
X1253100Y320400D01*
X1251347Y313847D02*
Y318647D01*
X1232500Y295000D02*
X1251347Y313847D01*
X1159684Y295000D02*
X1232500D01*
X1159604Y294920D02*
X1159684Y295000D01*
X819920Y294920D02*
X1159604D01*
X795500Y270500D02*
X819920Y294920D01*
X795500Y189789D02*
Y270500D01*
Y189789D02*
X805169Y180120D01*
X1143077D01*
X1207169Y255331D02*
X1212500Y250000D01*
X1317500D01*
X1327020Y259520D01*
Y299531D01*
X1332972Y305483D01*
X1344377D01*
X1363430Y286430D01*
X1363250Y286250D02*
X1371544Y277956D01*
X1417140D01*
X1427920Y288736D01*
Y352000D01*
X1407888Y371612D02*
X1427500Y352000D01*
X1407865Y371612D02*
X1407888D01*
X1403777Y375700D02*
X1407865Y371612D01*
X1400000Y375700D02*
X1403777D01*
X949140Y419660D02*
X958800Y410000D01*
X899660Y419660D02*
X949140D01*
X890080Y410080D02*
X899660Y419660D01*
X890080Y398136D02*
Y410080D01*
X829599Y337655D02*
X890080Y398136D01*
X819550Y337655D02*
X829599D01*
X765020Y283125D02*
X819550Y337655D01*
X765020Y177164D02*
Y283125D01*
Y177164D02*
X794724Y147460D01*
X972537D01*
X1035000Y325000D02*
Y332200D01*
X1017500Y307500D02*
X1035000Y325000D01*
X967184Y307500D02*
X1017500D01*
X967024Y307340D02*
X967184Y307500D01*
X829840Y307340D02*
X967024D01*
X827580Y305080D02*
X829840Y307340D01*
X815712Y305080D02*
X827580D01*
X785340Y274708D02*
X815712Y305080D01*
X785340Y185581D02*
Y274708D01*
Y185581D02*
X800961Y169960D01*
X1102437D01*
X1176900Y319400D02*
Y320400D01*
X1157500Y300000D02*
X1176900Y319400D01*
X829684Y300000D02*
X1157500D01*
X817816D02*
X829684D01*
X790420Y272604D02*
X817816Y300000D01*
X790420Y260736D02*
Y272604D01*
Y187685D02*
Y260736D01*
Y187685D02*
X797420Y180685D01*
X803065Y175040D01*
X1122757D01*
X918700Y317500D02*
X933400Y332200D01*
X823813Y317500D02*
X918700D01*
X821553Y315240D02*
X823813Y317500D01*
X811503Y315240D02*
X821553D01*
X775180Y278917D02*
X811503Y315240D01*
X775180Y181373D02*
Y278917D01*
Y181373D02*
X798933Y157620D01*
X1013177D01*
X908000Y408872D02*
Y410000D01*
X831703Y332575D02*
X908000Y408872D01*
X821654Y332575D02*
X831703D01*
X770100Y281021D02*
X821654Y332575D01*
X770100Y179268D02*
Y281021D01*
Y179268D02*
X796828Y152540D01*
X992857D01*
X1310010Y330060D02*
X1320600Y340650D01*
X1387000Y652750D02*
Y694250D01*
X1096553Y362500D02*
X1292537D01*
X1330000Y625000D02*
X1352380Y647380D01*
X1341160Y377660D02*
X1364600Y401100D01*
X1350600Y340650D02*
X1355250Y336000D01*
X1355400Y325450D02*
X1368840Y312010D01*
X1320600Y340650D02*
X1350600D01*
X1364600Y401100D02*
X1373350D01*
X759920Y58867D02*
Y117896D01*
X1372042Y152910D02*
X1380458D01*
X1094448Y357420D02*
X1298540D01*
X1108394Y322540D02*
X1111360Y325505D01*
X1060400Y332200D02*
X1079840Y351640D01*
X1340760Y621392D02*
X1360559Y641191D01*
X1085792Y357660D02*
X1094208D01*
X1360750Y641000D02*
X1374600Y654850D01*
X1079840Y351708D02*
X1085792Y357660D01*
X1374600Y654850D02*
Y655100D01*
X1079840Y351640D02*
Y351708D01*
X1056399Y322540D02*
X1108394D01*
X692302Y185198D02*
X692618D01*
X1360250Y339250D02*
X1374600Y324900D01*
X692618Y185198D02*
X759920Y117896D01*
X1433000Y276994D02*
X1443710Y266285D01*
X759920Y58867D02*
X766535Y52251D01*
X1373350Y401100D02*
X1373500Y401250D01*
X1357460Y645276D02*
Y662710D01*
X1360250Y339250D02*
Y351500D01*
X1443710Y156710D02*
Y266285D01*
X1352380Y647380D02*
Y666749D01*
X1374600Y375700D02*
X1387000Y388100D01*
X1361882Y142750D02*
X1372042Y152910D01*
X1369022Y701978D02*
X1378772D01*
X1387500Y399500D02*
Y430784D01*
X1243250Y147500D02*
X1248000Y142750D01*
X1390618D02*
X1429750D01*
X1357104Y372580D02*
X1360080Y369604D01*
X1298540Y357420D02*
X1358310Y417190D01*
X1357460Y671829D02*
Y690415D01*
X1380458Y152910D02*
X1390618Y142750D01*
X1335396Y372580D02*
X1357104D01*
X1365080Y424080D02*
X1372180D01*
X1378772Y701978D02*
X1386500Y694250D01*
X1335680Y623496D02*
X1357460Y645276D01*
Y690415D02*
X1369022Y701978D01*
X1111360Y326506D02*
X1127274Y342420D01*
X1387060Y319610D02*
Y338690D01*
X1374600Y629700D02*
X1386660Y641760D01*
X1050740Y328199D02*
X1056399Y322540D01*
X605000Y272500D02*
X692302Y185198D01*
X1358250Y417250D02*
X1365080Y424080D01*
X1352380Y666749D02*
X1357460Y671829D01*
X1248000Y142750D02*
X1361882D01*
X1375000Y350750D02*
X1387060Y338690D01*
X1094208Y357660D02*
X1094448Y357420D01*
X1386660Y641760D02*
Y652750D01*
X1387000Y388100D02*
Y399500D01*
X1360080Y351500D02*
Y369604D01*
X1379460Y312010D02*
X1387060Y319610D01*
X1111360Y325505D02*
Y326506D01*
X1368840Y312010D02*
X1379460D01*
X1355400Y325450D02*
Y336000D01*
X1429750Y142750D02*
X1443710Y156710D01*
X1372180Y424080D02*
X1374600Y426500D01*
X1096313Y362740D02*
X1096553Y362500D01*
X1083687Y362740D02*
X1096313D01*
X1333292Y377660D02*
X1341160D01*
X599920Y270396D02*
X690198Y180118D01*
X690514D01*
X741500Y129131D01*
Y49700D02*
Y129131D01*
X594760Y268687D02*
X594840Y268607D01*
Y268292D02*
Y268607D01*
Y268292D02*
X679760Y183372D01*
Y142760D02*
Y183372D01*
X602500Y65500D02*
X679760Y142760D01*
X452500Y65500D02*
X602500D01*
X436700Y49700D02*
X452500Y65500D01*
X933400Y400850D02*
Y410000D01*
Y400850D02*
X983500Y350750D01*
X1030111D01*
X1045660Y335201D01*
Y326095D02*
Y335201D01*
Y326095D02*
X1063845Y307910D01*
X1110899D01*
X1116440Y313451D01*
Y324401D01*
X1122099Y330060D01*
X1310010D01*
X1448790Y80790D02*
Y387710D01*
X1397500Y29500D02*
X1448790Y80790D01*
X1409750Y426750D02*
X1448790Y387710D01*
X890000Y50000D02*
X910500Y29500D01*
X1397500D01*
X1202300Y398200D02*
X1202800D01*
X1344516Y508016D02*
X1362125Y525625D01*
X610080Y274920D02*
X765000Y120000D01*
Y91052D02*
Y120000D01*
X868190Y71810D02*
X890000Y50000D01*
X816810Y71810D02*
X868190D01*
X805000Y60000D02*
X816810Y71810D01*
X1432000Y455000D02*
Y455300D01*
X1441000Y426000D02*
X1442000D01*
D57*
X1396485Y233835D02*
X1410910Y219410D01*
X1337697Y292623D02*
X1396485Y233835D01*
X1413000Y167000D02*
Y217000D01*
X1337180Y295323D02*
X1337697Y294806D01*
Y292623D02*
Y294806D01*
D59*
X1411250Y165250D02*
X1413000Y167000D01*
X620000Y154810D02*
Y190000D01*
X625000Y195000D02*
X625000D01*
X620000Y190000D02*
X625000Y195000D01*
X1413000Y165000D02*
Y165250D01*
X1410750Y219250D02*
X1413000Y217000D01*
D61*
X1302000Y482000D02*
D03*
X1414000Y815000D02*
D03*
Y115000D02*
D03*
X1052000Y632000D02*
D03*
X1302000D02*
D03*
D62*
Y432000D02*
D03*
X1414000Y865000D02*
D03*
Y165000D02*
D03*
X1052000Y682000D02*
D03*
X1302000D02*
D03*
D63*
X781000Y750000D02*
D03*
Y902400D02*
D03*
Y851600D02*
D03*
X323800Y927800D02*
D03*
Y826200D02*
D03*
Y724600D02*
D03*
D64*
X665000Y655250D02*
D03*
X690000D02*
D03*
X640000D02*
D03*
X715000D02*
D03*
X1514000Y895000D02*
D03*
Y785000D02*
D03*
Y195000D02*
D03*
Y85000D02*
D03*
D65*
X615000Y655250D02*
D03*
D66*
X986500Y688350D02*
D03*
X1011900Y675650D02*
D03*
X986500Y662950D02*
D03*
X1011900Y650250D02*
D03*
X986500Y637550D02*
D03*
X1011900Y624850D02*
D03*
X986500Y612150D02*
D03*
X1011900Y599450D02*
D03*
X881900Y580900D02*
D03*
Y605800D02*
D03*
Y682000D02*
D03*
Y706900D02*
D03*
D67*
X961500Y722650D02*
D03*
Y565150D02*
D03*
D68*
X923000Y701050D02*
D03*
Y586750D02*
D03*
D69*
X1374600Y324900D02*
D03*
X1400000D02*
D03*
X1374600Y375700D02*
D03*
X1400000D02*
D03*
X1374600Y426500D02*
D03*
X1400000D02*
D03*
X1374600Y477300D02*
D03*
X1400000D02*
D03*
X1374600Y528100D02*
D03*
X1400000D02*
D03*
X1374600Y578900D02*
D03*
X1400000D02*
D03*
X1374600Y629700D02*
D03*
X1400000D02*
D03*
X1374600Y680500D02*
D03*
Y299500D02*
D03*
Y350300D02*
D03*
Y401100D02*
D03*
Y451900D02*
D03*
Y502700D02*
D03*
Y553500D02*
D03*
Y604300D02*
D03*
Y655100D02*
D03*
X1400000Y299500D02*
D03*
Y350300D02*
D03*
Y401100D02*
D03*
Y451900D02*
D03*
Y502700D02*
D03*
Y553500D02*
D03*
Y604300D02*
D03*
Y655100D02*
D03*
D70*
Y680500D02*
D03*
D71*
X1085800Y410000D02*
D03*
X1060400D02*
D03*
Y332200D02*
D03*
X1035000D02*
D03*
X1009600D02*
D03*
X984200D02*
D03*
X958800D02*
D03*
X933400D02*
D03*
X908000Y333800D02*
D03*
Y410000D02*
D03*
X933400D02*
D03*
X958800D02*
D03*
X984200D02*
D03*
X1009600D02*
D03*
X1035000D02*
D03*
X1126100Y320400D02*
D03*
X1151500D02*
D03*
Y398200D02*
D03*
X1176900D02*
D03*
X1202300D02*
D03*
X1227700D02*
D03*
X1253100D02*
D03*
X1278500D02*
D03*
X1303900Y396600D02*
D03*
Y320400D02*
D03*
X1278500D02*
D03*
X1253100D02*
D03*
X1227700D02*
D03*
X1202300D02*
D03*
X1176900D02*
D03*
D72*
X1085800Y332200D02*
D03*
X1126100Y398200D02*
D03*
D73*
X1232569Y268283D02*
D03*
X1257969D02*
D03*
X1308769D02*
D03*
X1207169D02*
D03*
X1283369D02*
D03*
X1181769D02*
D03*
X927661Y116137D02*
D03*
X826060D02*
D03*
X902261D02*
D03*
X876861D02*
D03*
X851460D02*
D03*
X953061D02*
D03*
X978460D02*
D03*
X1029260D02*
D03*
X1054660D02*
D03*
X1080061D02*
D03*
X1003860D02*
D03*
X1105461D02*
D03*
X1156261D02*
D03*
X1308660D02*
D03*
X1283260D02*
D03*
X1257860D02*
D03*
X1232460D02*
D03*
X1130861D02*
D03*
X1207060D02*
D03*
X1181661D02*
D03*
X927769Y268283D02*
D03*
X825915D02*
D03*
X902369D02*
D03*
X876969D02*
D03*
X851569D02*
D03*
X953169D02*
D03*
X1080169D02*
D03*
X1156369D02*
D03*
X1130969D02*
D03*
X1105569D02*
D03*
X1054769D02*
D03*
X1029369D02*
D03*
X1003969D02*
D03*
X978569D02*
D03*
D74*
X248700Y85530D02*
D03*
X274100D02*
D03*
X248700Y110930D02*
D03*
X274100D02*
D03*
X309700Y24300D02*
D03*
X335100D02*
D03*
X360500D02*
D03*
X385900D02*
D03*
X411300D02*
D03*
X436700D02*
D03*
X309700Y49700D02*
D03*
X335100D02*
D03*
X360500D02*
D03*
X385900D02*
D03*
X411300D02*
D03*
X436700D02*
D03*
X462100Y24300D02*
D03*
Y49700D02*
D03*
X487500Y24300D02*
D03*
X512900D02*
D03*
X538300D02*
D03*
X563700D02*
D03*
X589100D02*
D03*
X614500D02*
D03*
X487500Y49700D02*
D03*
X512900D02*
D03*
X538300D02*
D03*
X563700D02*
D03*
X589100D02*
D03*
X614500D02*
D03*
X639900Y24300D02*
D03*
Y49700D02*
D03*
X665300Y24300D02*
D03*
X690700D02*
D03*
X716100D02*
D03*
X741500D02*
D03*
X766900D02*
D03*
X665300Y49700D02*
D03*
X690700D02*
D03*
X716100D02*
D03*
X741500D02*
D03*
X766900D02*
D03*
X792300Y24300D02*
D03*
D75*
Y49700D02*
D03*
D76*
X841000Y37000D02*
D03*
X261000D02*
D03*
Y527000D02*
D03*
X841000D02*
D03*
D77*
X838750Y751650D02*
D03*
Y853250D02*
D03*
Y954850D02*
D03*
X1295950Y878650D02*
D03*
Y929450D02*
D03*
Y777050D02*
D03*
D78*
X1045000Y362500D02*
D03*
X1365250Y206250D02*
D03*
X620000Y154810D02*
D03*
X625000Y195000D02*
D03*
D79*
X943557Y598500D02*
D03*
X1243250Y147500D02*
D03*
X1376250Y142750D02*
D03*
X1090000Y347500D02*
D03*
X1432000Y455000D02*
D03*
X1442000Y426000D02*
D03*
D80*
X316000Y645500D02*
D03*
X1337180Y295323D02*
D03*
X1280000Y225000D02*
D03*
X765000Y325000D02*
D03*
X240000Y630000D02*
D03*
X860000Y975000D02*
D03*
X50000Y550000D02*
D03*
X105000Y715000D02*
D03*
X240000Y720000D02*
D03*
D81*
X973767Y896233D02*
G03*
X952574Y905000I-21194J-21233D01*
G01*
X1332560Y715561D02*
G03*
X1340000Y733521I-17960J17960D01*
G01*
X1332561Y715561D02*
G03*
X1340000Y733521I-17961J17960D01*
G01*
X793216Y905000D02*
G03*
X781000Y902400I0J-30000D01*
G01*
X1051999Y807777D02*
G03*
X1043322Y826678I-29913J-2289D01*
G01*
X1052500Y817500D02*
X1163500Y928500D01*
X1295000D01*
X1295950Y929450D01*
X470000Y965000D02*
X480750Y954250D01*
X838150D02*
X838750Y954850D01*
X480750Y954250D02*
X838150D01*
X280000Y670000D02*
Y947426D01*
X240000Y630000D02*
X280000Y670000D01*
X297574Y965000D02*
X470000D01*
X280000Y947426D02*
X297574Y965000D01*
X1346837Y808837D02*
X1403000Y865000D01*
X1412750D01*
X1346837Y779219D02*
Y808837D01*
X1340000Y772382D02*
X1346837Y779219D01*
X1340000Y733521D02*
Y772382D01*
X973767Y896233D02*
X1043322Y826678D01*
X1051998Y807777D02*
X1052000Y807758D01*
X1299000Y682000D02*
X1332561Y715561D01*
X793217Y905000D02*
X952574D01*
X1052000Y682000D02*
Y807758D01*
M02*
