M48
;Layer_Color=9474304
;FILE_FORMAT=4:4
METRIC,LZ
;TYPE=PLATED
T1F00S00C0.3000
T2F00S00C0.7112
T3F00S00C0.7700
T4F00S00C0.9000
T5F00S00C1.0000
T6F00S00C1.0160
T7F00S00C1.1000
T8F00S00C1.2000
T9F00S00C1.3000
T10F00S00C1.6000
T11F00S00C1.7000
T12F00S00C2.7500
;TYPE=NON_PLATED
T13F00S00C2.9000
T14F00S00C3.2000
%
T01
X0137625Y0014275
X0136525Y0020625
X01442Y00426
X01432Y00455
X0109Y003475
X01045Y003625
X0124325Y001475
X0062Y0015481
X00625Y00195
X00943557Y005985
T02
X0133718Y00295323
X0128Y00225
X00765Y00325
X0005Y0055
X00105Y00715
X0024Y0072
Y0063
X00316Y006455
X0086Y00975
T03
X009588Y003322
X009842
X010096
X01035
X010604
X010858
X011261Y003204
X011515
X011769
X012023
X012277
X012531
X012785
X013039
Y003966
X012785Y003982
X012531
X012277
X012023
X011769
X011515
X011261
X010858Y0041
X010604
X01035
X010096
X009842
X009588
X009334
X00908
Y003338
X009334Y003322
T04
X008819Y005809
Y006058
Y00682
Y007069
X009865Y0068835
Y0066295
Y0063755
Y0061215
X010119Y0062485
Y0065025
Y0067565
Y0059945
T05
X0082606Y00116137
X0085146
X00876861
X00902261
X00927661
X00953061
X0097846
X0100386
X0102926
X0105466
X01080061
X01105461
X01130861
X01156261
X01181661
X0120706
X0123246
X0125786
X0128326
X0130866
X01514Y00085
Y00195
X01308769Y00268283
X01283369
X01257969
X01232569
X01207169
X01181769
X01156369
X01130969
X01105569
X01080169
X01054769
X01029369
X01003969
X00978569
X00953169
X00927769
X00902369
X00876969
X00851569
X00825915
X00715Y0065525
X0069
X00665
X0064
X00615
X01514Y00785
Y00895
T06
X003097Y000243
X003351
X003605
X003859
X004113
X004367
Y000497
X004113
X003859
X003605
X003351
X003097
X002741Y0008553
X002487
Y0011093
X002741
X004621Y000497
Y000243
X004875
X005129
X005383
Y000497
X005129
X004875
X005637
Y000243
X005891
X006145
Y000497
X005891
X006399
Y000243
X006653
X006907
X007161
X007415
X007669
Y000497
X007415
X007161
X006907
X006653
X007923
Y000243
T07
X013746Y002995
Y003249
X014
Y002995
Y003503
Y003757
X013746
Y003503
Y004011
Y004265
X014
Y004011
Y004519
Y004773
X013746
Y004519
Y005027
Y005281
X014
Y005027
Y005535
Y005789
X013746
Y005535
Y006043
Y006297
X014
Y006043
Y006551
Y006805
X013746
Y006551
T08
X003238Y007246
Y008262
Y009278
X00781Y009024
Y008516
Y0075
T09
X0083875Y0075165
Y0085325
X0129595Y0087865
Y0092945
Y0077705
X0083875Y0095485
T10
X009615Y0056515
Y0072265
T11
X01414Y00115
Y00165
X01302Y00432
Y00482
Y00632
Y00682
X01052
Y00632
X01414Y00815
Y00865
T12
X00261Y00037
X00841
Y00527
X00261
T13
X014254Y002487
Y007313
T14
X00923Y0058675
Y0070105
M30
