G04*
G04 #@! TF.GenerationSoftware,Altium Limited,Altium Designer,20.0.12 (288)*
G04*
G04 Layer_Color=65535*
%FSLAX44Y44*%
%MOMM*%
G71*
G01*
G75*
%ADD10C,0.1000*%
%ADD11C,0.2000*%
%ADD12C,0.2500*%
%ADD13C,0.1270*%
%ADD14C,0.4000*%
%ADD15C,0.2540*%
%ADD16C,0.1500*%
D10*
X814000Y902400D02*
G03*
X813000Y902400I-500J0D01*
G01*
D02*
G03*
X814000Y902400I500J0D01*
G01*
X754500Y974500D02*
G03*
X754500Y974500I-500J0D01*
G01*
X270750Y775000D02*
G03*
X270750Y775000I-500J0D01*
G01*
D11*
X583500Y655250D02*
G03*
X583500Y655250I-1000J0D01*
G01*
X985500Y729900D02*
G03*
X987500Y729900I1000J0D01*
G01*
D02*
G03*
X985500Y729900I-1000J0D01*
G01*
X1401000Y767500D02*
G03*
X1401000Y767500I-1000J0D01*
G01*
X1330950Y931450D02*
G03*
X1330950Y929450I0J-1000D01*
G01*
D02*
G03*
X1330950Y931450I0J1000D01*
G01*
X1026000Y423000D02*
Y708000D01*
X1099750Y406000D02*
X1328000D01*
Y708000D01*
X1026000D02*
X1328000D01*
X298400Y953200D02*
X806400D01*
X298400Y699200D02*
Y953200D01*
Y699200D02*
X806400D01*
Y953200D01*
X982500Y724650D02*
X1024500D01*
Y563150D02*
Y724650D01*
X982500Y563150D02*
X1024500D01*
X857500Y724650D02*
X942500D01*
X857500Y563150D02*
Y724650D01*
Y563150D02*
X942500D01*
X1351500Y149000D02*
Y153500D01*
X1303500Y149000D02*
Y153500D01*
X1351500Y182500D02*
Y187000D01*
X1303500Y182500D02*
Y187000D01*
Y149000D02*
X1351500D01*
X1303500Y187000D02*
X1351500D01*
X1303264Y190000D02*
Y216000D01*
X1318264Y190000D02*
Y216000D01*
X1303264Y190000D02*
X1318264D01*
X1303264Y216000D02*
X1318264D01*
X1320500Y188500D02*
X1346500D01*
X1320500Y203500D02*
X1346500D01*
Y188500D02*
Y203500D01*
X1320500Y188500D02*
Y203500D01*
X3000Y539500D02*
X25000D01*
Y581500D01*
X3000D02*
X25000D01*
X3000Y539500D02*
Y581500D01*
X7500Y560500D02*
X20500D01*
X278000Y655000D02*
X300000D01*
X278000Y613000D02*
Y655000D01*
Y613000D02*
X300000D01*
Y655000D01*
X282500Y634000D02*
X295500D01*
X27250Y587000D02*
Y608500D01*
X26750Y609000D02*
X27250Y608500D01*
X20750Y609000D02*
X26750D01*
X49000Y591500D02*
Y604500D01*
X292750Y586500D02*
Y608000D01*
Y586500D02*
X293250Y586000D01*
X299250D01*
X271000Y590500D02*
Y603500D01*
X772460Y974652D02*
X792018D01*
X772460Y955348D02*
Y974652D01*
Y955348D02*
X792018D01*
X758236Y974652D02*
X772460D01*
X757982Y955348D02*
X772460D01*
X270098Y793460D02*
Y813018D01*
Y793460D02*
X289402D01*
Y813018D01*
X270098Y779236D02*
Y793460D01*
X289402Y778982D02*
Y793460D01*
D12*
X1298250Y184000D02*
G03*
X1298250Y184000I-1250J0D01*
G01*
X1321350Y726250D02*
Y980250D01*
X813350Y726250D02*
X1321350D01*
X813350D02*
Y980250D01*
X1321350D01*
D13*
X846000Y2000D02*
G03*
X876000Y32000I0J30000D01*
G01*
X26000D02*
G03*
X56000Y2000I30000J0D01*
G01*
Y562000D02*
G03*
X26000Y532000I0J-30000D01*
G01*
X876000D02*
G03*
X846000Y562000I-30000J0D01*
G01*
X1338500Y476000D02*
Y486000D01*
X1333500Y431000D02*
X1343500D01*
X1338500Y426000D02*
Y436000D01*
X49440Y704290D02*
X75450D01*
X49440Y681450D02*
Y704290D01*
Y630630D02*
Y658550D01*
Y630630D02*
X75450D01*
X94550D02*
X120560D01*
Y658550D01*
Y681450D02*
Y704290D01*
X94550D02*
X120560D01*
X80460Y646830D02*
X88460D01*
X80460D02*
X84460Y639830D01*
X88460Y646830D01*
X590500Y621250D02*
X739500D01*
X590500D02*
Y678750D01*
X739500D01*
Y621250D02*
Y678750D01*
X184440Y704290D02*
X210450D01*
X184440Y681450D02*
Y704290D01*
Y630630D02*
Y658550D01*
Y630630D02*
X210450D01*
X229550D02*
X255560D01*
Y658550D01*
Y681450D02*
Y704290D01*
X229550D02*
X255560D01*
X215460Y646830D02*
X223460D01*
X215460D02*
X219460Y639830D01*
X223460Y646830D01*
X1015500Y628000D02*
Y638000D01*
X1010500Y683000D02*
X1020500D01*
X1015500Y678000D02*
Y688000D01*
X1265500Y628000D02*
Y638000D01*
X1260500Y683000D02*
X1270500D01*
X1265500Y678000D02*
Y688000D01*
X56000Y2000D02*
X846000D01*
X26000Y32000D02*
Y532000D01*
X56000Y562000D02*
X846000D01*
X876000Y32000D02*
Y532000D01*
D14*
X887000Y52000D02*
G03*
X887000Y52000I-2000J0D01*
G01*
D15*
X1276000Y406000D02*
Y508000D01*
X1328000D01*
Y406000D02*
Y508000D01*
X1276000Y406000D02*
X1328000D01*
X1325406Y406402D02*
X1326000Y407000D01*
X1078000Y606000D02*
Y708000D01*
X1026000Y606000D02*
X1078000D01*
X1026000D02*
Y708000D01*
X1078000D01*
X1328000Y606000D02*
Y708000D01*
X1276000Y606000D02*
X1328000D01*
X1276000D02*
Y708000D01*
X1328000D01*
X20750Y587000D02*
X70000D01*
X20750D02*
Y609000D01*
X70000D01*
Y587000D02*
Y609000D01*
X250000Y608000D02*
X299250D01*
Y586000D02*
Y608000D01*
X250000Y586000D02*
X299250D01*
X250000D02*
Y608000D01*
X1270968Y535627D02*
X1281125Y520392D01*
Y535627D02*
X1270968Y520392D01*
X1286203D02*
X1291281D01*
X1288742D01*
Y535627D01*
X1286203Y533087D01*
X290726Y961633D02*
Y976868D01*
X298343D01*
X300882Y974328D01*
Y969250D01*
X298343Y966711D01*
X290726D01*
X316118Y974328D02*
X313578Y976868D01*
X308500D01*
X305961Y974328D01*
Y971789D01*
X308500Y969250D01*
X313578D01*
X316118Y966711D01*
Y964172D01*
X313578Y961633D01*
X308500D01*
X305961Y964172D01*
X321196Y961633D02*
X326274D01*
X323735D01*
Y976868D01*
X321196Y974328D01*
X1392953Y284960D02*
X1382956D01*
Y279962D01*
X1384622Y278295D01*
X1391287D01*
X1392953Y279962D01*
Y284960D01*
X1391287Y268299D02*
X1392953Y269965D01*
Y273297D01*
X1391287Y274963D01*
X1384622D01*
X1382956Y273297D01*
Y269965D01*
X1384622Y268299D01*
X1392953Y264967D02*
X1382956D01*
Y259968D01*
X1384622Y258302D01*
X1391287D01*
X1392953Y259968D01*
Y264967D01*
X1391287Y248305D02*
X1392953Y249971D01*
Y253304D01*
X1391287Y254970D01*
X1384622D01*
X1382956Y253304D01*
Y249971D01*
X1384622Y248305D01*
X1381290Y244973D02*
Y238308D01*
X1382956Y229978D02*
Y233310D01*
X1384622Y234976D01*
X1387955D01*
X1389621Y233310D01*
Y229978D01*
X1387955Y228312D01*
X1386288D01*
Y234976D01*
X1382956Y224979D02*
X1389621D01*
Y219981D01*
X1387955Y218315D01*
X1382956D01*
X1362040Y284460D02*
X1372037D01*
Y279462D01*
X1370371Y277796D01*
X1367038D01*
X1365372Y279462D01*
Y284460D01*
X1372037Y274463D02*
X1362040D01*
X1365372Y271131D01*
X1362040Y267799D01*
X1372037D01*
X1362040Y264466D02*
X1372037D01*
X1368705Y261134D01*
X1372037Y257802D01*
X1362040D01*
Y254470D02*
Y251137D01*
Y252803D01*
X1372037D01*
X1370371Y254470D01*
X1362040Y239475D02*
Y246139D01*
X1368705Y239475D01*
X1370371D01*
X1372037Y241141D01*
Y244473D01*
X1370371Y246139D01*
X1353305Y662572D02*
Y660216D01*
X1355661Y657859D01*
X1358017D01*
X1359195Y659037D01*
X1359195Y661394D01*
X1356839Y663750D01*
X1356839Y666106D01*
X1358017Y667284D01*
X1360374D01*
X1362730Y664928D01*
Y662572D01*
X1349770Y663750D02*
X1356839Y670819D01*
X1353305Y674353D01*
X1350948D01*
X1346236Y669641D01*
X1346236Y667284D01*
X1349770Y663750D01*
Y677887D02*
X1345058Y673175D01*
X1340345Y673175D01*
X1340345Y677887D01*
X1345058Y682600D01*
X1341523Y679066D01*
X1346236Y674353D01*
X1358305Y692072D02*
Y689716D01*
X1360661Y687359D01*
X1363017D01*
X1364195Y688538D01*
X1364195Y690894D01*
X1361839Y693250D01*
X1361839Y695606D01*
X1363017Y696784D01*
X1365374D01*
X1367730Y694428D01*
Y692072D01*
X1351236Y699141D02*
X1351236Y696784D01*
X1353592Y694428D01*
X1355948D01*
X1360661Y699141D01*
Y701497D01*
X1358305Y703853D01*
X1355948D01*
X1347702Y700319D02*
X1354770Y707388D01*
X1350058Y712100D01*
X464347Y868030D02*
Y852795D01*
X471964D01*
X474504Y855334D01*
Y865491D01*
X471964Y868030D01*
X464347D01*
X489739Y865491D02*
X487200Y868030D01*
X482121D01*
X479582Y865491D01*
Y855334D01*
X482121Y852795D01*
X487200D01*
X489739Y855334D01*
X494817Y860412D02*
X504974D01*
X510052Y868030D02*
Y852795D01*
X517670D01*
X520209Y855334D01*
Y865491D01*
X517670Y868030D01*
X510052D01*
X535444Y865491D02*
X532905Y868030D01*
X527826D01*
X525287Y865491D01*
Y855334D01*
X527826Y852795D01*
X532905D01*
X535444Y855334D01*
X565914Y868030D02*
X555757D01*
Y860412D01*
X560836Y862951D01*
X563375D01*
X565914Y860412D01*
Y855334D01*
X563375Y852795D01*
X558297D01*
X555757Y855334D01*
X570992Y868030D02*
Y857873D01*
X576071Y852795D01*
X581149Y857873D01*
Y868030D01*
X982540Y887775D02*
Y872540D01*
X990157D01*
X992697Y875079D01*
Y885236D01*
X990157Y887775D01*
X982540D01*
X1007932Y885236D02*
X1005393Y887775D01*
X1000314D01*
X997775Y885236D01*
Y875079D01*
X1000314Y872540D01*
X1005393D01*
X1007932Y875079D01*
X1013010Y880157D02*
X1023167D01*
X1028245Y887775D02*
Y872540D01*
X1035863D01*
X1038402Y875079D01*
Y885236D01*
X1035863Y887775D01*
X1028245D01*
X1053637Y885236D02*
X1051098Y887775D01*
X1046020D01*
X1043480Y885236D01*
Y875079D01*
X1046020Y872540D01*
X1051098D01*
X1053637Y875079D01*
X1073950Y872540D02*
X1079029D01*
X1076490D01*
Y887775D01*
X1073950Y885236D01*
X1096803Y872540D02*
X1086646D01*
X1096803Y882697D01*
Y885236D01*
X1094264Y887775D01*
X1089185D01*
X1086646Y885236D01*
X1101881Y887775D02*
Y877618D01*
X1106960Y872540D01*
X1112038Y877618D01*
Y887775D01*
X1249686Y422540D02*
X1259842D01*
X1264921Y427618D01*
X1259842Y432697D01*
X1249686D01*
X1267460Y437775D02*
Y447932D01*
X1249686Y453010D02*
X1264921D01*
Y460628D01*
X1262382Y463167D01*
X1259842D01*
X1257303Y460628D01*
Y453010D01*
Y460628D01*
X1254764Y463167D01*
X1252225D01*
X1249686Y460628D01*
Y453010D01*
X1264921Y468245D02*
X1254764D01*
X1249686Y473324D01*
X1254764Y478402D01*
X1264921D01*
X1257303D01*
Y468245D01*
X1249686Y483480D02*
Y493637D01*
Y488559D01*
X1264921D01*
X1234686Y612540D02*
X1244842D01*
X1249921Y617618D01*
X1244842Y622697D01*
X1234686D01*
X1252460Y627775D02*
Y637932D01*
X1249921Y643010D02*
X1234686D01*
Y650628D01*
X1237225Y653167D01*
X1242303D01*
X1244842Y650628D01*
Y643010D01*
Y648089D02*
X1249921Y653167D01*
X1234686Y668402D02*
Y658245D01*
X1249921D01*
Y668402D01*
X1242303Y658245D02*
Y663324D01*
X1237225Y683637D02*
X1234686Y681098D01*
Y676020D01*
X1237225Y673480D01*
X1239764D01*
X1242303Y676020D01*
Y681098D01*
X1244842Y683637D01*
X1247382D01*
X1249921Y681098D01*
Y676020D01*
X1247382Y673480D01*
X1104686Y617540D02*
X1114843D01*
X1119921Y622618D01*
X1114843Y627697D01*
X1104686D01*
X1122460Y632775D02*
Y642932D01*
X1104686Y655628D02*
Y650549D01*
X1107225Y648010D01*
X1117382D01*
X1119921Y650549D01*
Y655628D01*
X1117382Y658167D01*
X1107225D01*
X1104686Y655628D01*
Y663245D02*
X1117382D01*
X1119921Y665784D01*
Y670863D01*
X1117382Y673402D01*
X1104686D01*
Y678480D02*
Y688637D01*
Y683559D01*
X1119921D01*
X592540Y587537D02*
Y580872D01*
X595872Y577540D01*
X599204Y580872D01*
Y587537D01*
X607535Y577540D02*
X604203D01*
X602537Y579206D01*
Y582538D01*
X604203Y584204D01*
X607535D01*
X609201Y582538D01*
Y580872D01*
X602537D01*
X619198Y584204D02*
X614200D01*
X612533Y582538D01*
Y579206D01*
X614200Y577540D01*
X619198D01*
X624197Y585871D02*
Y584204D01*
X622530D01*
X625863D01*
X624197D01*
Y579206D01*
X625863Y577540D01*
X632527D02*
X635859D01*
X637525Y579206D01*
Y582538D01*
X635859Y584204D01*
X632527D01*
X630861Y582538D01*
Y579206D01*
X632527Y577540D01*
X640858Y584204D02*
Y577540D01*
Y580872D01*
X642524Y582538D01*
X644190Y584204D01*
X645856D01*
X650854Y577540D02*
Y584204D01*
X655853D01*
X657519Y582538D01*
Y577540D01*
X662517Y584204D02*
X665850D01*
X667516Y582538D01*
Y577540D01*
X662517D01*
X660851Y579206D01*
X662517Y580872D01*
X667516D01*
X670848Y584204D02*
X674180Y577540D01*
X677513Y584204D01*
X690842Y587537D02*
Y580872D01*
X694174Y577540D01*
X697506Y580872D01*
Y587537D01*
X700838Y577540D02*
Y587537D01*
X707503Y577540D01*
Y587537D01*
X710835Y577540D02*
X714167D01*
X712501D01*
Y587537D01*
X710835Y585871D01*
X719166D02*
X720832Y587537D01*
X724164D01*
X725830Y585871D01*
Y579206D01*
X724164Y577540D01*
X720832D01*
X719166Y579206D01*
Y585871D01*
X729163D02*
X730829Y587537D01*
X734161D01*
X735827Y585871D01*
Y579206D01*
X734161Y577540D01*
X730829D01*
X729163Y579206D01*
Y585871D01*
X713592Y610000D02*
X720661Y617069D01*
X718305Y605288D01*
X725373Y612356D01*
X720661Y602931D02*
X721839Y604109D01*
X723017Y602931D01*
X721839Y601753D01*
X720661Y602931D01*
X737155Y598219D02*
X737155Y600575D01*
X734799Y602931D01*
X732442D01*
X727730Y598219D01*
Y595862D01*
X730086Y593506D01*
X732442Y593506D01*
X733620Y589972D02*
X734799Y591150D01*
X735977Y589972D01*
X734799Y588794D01*
X733620Y589972D01*
X694195Y611178D02*
Y613534D01*
X691839Y615891D01*
X689483D01*
X684770Y611178D01*
Y608822D01*
X687126Y606466D01*
X689483D01*
X691839Y608822D01*
X689483Y611178D01*
X690661Y602931D02*
X697730Y610000D01*
X695373Y598219D01*
X702442Y605288D01*
X704799Y602931D02*
X697730Y595862D01*
X701264Y592328D01*
X703620Y592328D01*
X708333Y597041D01*
X708333Y599397D01*
X704799Y602931D01*
X670373Y612356D02*
X665661Y617069D01*
X662126Y613534D01*
X665661Y612356D01*
X666839Y611178D01*
Y608822D01*
X664483Y606466D01*
X662126D01*
X659770Y608822D01*
Y611178D01*
X672730Y610000D02*
X668017Y605288D01*
Y600575D01*
X672730D01*
X677442Y605288D01*
X640661Y617069D02*
X645373Y612356D01*
X643017Y614712D01*
X635948Y607644D01*
X647730Y610000D02*
X645373Y598219D01*
X652442Y605288D02*
X640661Y602931D01*
X608592Y610000D02*
X615661Y617069D01*
X619195Y613534D01*
Y611178D01*
X616839Y608822D01*
X614483D01*
X610948Y612356D01*
X613305Y610000D02*
Y605288D01*
X622730Y610000D02*
X620373Y598219D01*
X627442Y605288D02*
X615661Y602931D01*
X202540Y572540D02*
X207618D01*
X205079D01*
Y587775D01*
X202540Y585236D01*
X225393Y572540D02*
X215236D01*
X225393Y582697D01*
Y585236D01*
X222853Y587775D01*
X217775D01*
X215236Y585236D01*
X230471Y587775D02*
Y577618D01*
X235549Y572540D01*
X240628Y577618D01*
Y587775D01*
X82697D02*
X72540D01*
Y580158D01*
X77618Y582697D01*
X80157D01*
X82697Y580158D01*
Y575079D01*
X80157Y572540D01*
X75079D01*
X72540Y575079D01*
X87775Y587775D02*
Y577618D01*
X92853Y572540D01*
X97932Y577618D01*
Y587775D01*
X82697Y750236D02*
X80157Y752775D01*
X75079D01*
X72540Y750236D01*
Y740079D01*
X75079Y737540D01*
X80157D01*
X82697Y740079D01*
Y745157D01*
X77618D01*
X87775Y737540D02*
Y752775D01*
X97932Y737540D01*
Y752775D01*
X103010D02*
Y737540D01*
X110628D01*
X113167Y740079D01*
Y750236D01*
X110628Y752775D01*
X103010D01*
X222697Y750236D02*
X220158Y752775D01*
X215079D01*
X212540Y750236D01*
Y740079D01*
X215079Y737540D01*
X220158D01*
X222697Y740079D01*
Y745157D01*
X217618D01*
X227775Y737540D02*
Y752775D01*
X237932Y737540D01*
Y752775D01*
X243010D02*
Y737540D01*
X250628D01*
X253167Y740079D01*
Y750236D01*
X250628Y752775D01*
X243010D01*
X1327087Y142498D02*
Y135834D01*
X1330419Y132502D01*
X1333752Y135834D01*
Y142498D01*
X1337084D02*
Y132502D01*
X1342082D01*
X1343748Y134168D01*
Y140832D01*
X1342082Y142498D01*
X1337084D01*
X1347081Y132502D02*
X1350413D01*
X1348747D01*
Y142498D01*
X1347081Y140832D01*
X1298367Y191554D02*
X1283132D01*
Y199172D01*
X1285672Y201711D01*
X1290750D01*
X1293289Y199172D01*
Y191554D01*
Y196632D02*
X1298367Y201711D01*
Y214407D02*
X1283132D01*
X1290750Y206789D01*
Y216946D01*
X1324554Y208132D02*
Y223368D01*
X1332172D01*
X1334711Y220828D01*
Y215750D01*
X1332172Y213211D01*
X1324554D01*
X1329633D02*
X1334711Y208132D01*
X1339789Y220828D02*
X1342328Y223368D01*
X1347407D01*
X1349946Y220828D01*
Y218289D01*
X1347407Y215750D01*
X1344868D01*
X1347407D01*
X1349946Y213211D01*
Y210672D01*
X1347407Y208132D01*
X1342328D01*
X1339789Y210672D01*
X897687Y555868D02*
X907843Y540633D01*
Y555868D02*
X897687Y540633D01*
X912922D02*
Y555868D01*
X920539D01*
X923078Y553328D01*
Y548250D01*
X920539Y545711D01*
X912922D01*
X938313Y540633D02*
X928157D01*
X938313Y550789D01*
Y553328D01*
X935774Y555868D01*
X930696D01*
X928157Y553328D01*
X21336Y761835D02*
X31493Y746600D01*
Y761835D02*
X21336Y746600D01*
X36571D02*
Y761835D01*
X44189D01*
X46728Y759296D01*
Y754218D01*
X44189Y751678D01*
X36571D01*
X51806Y761835D02*
X61963D01*
Y759296D01*
X51806Y749139D01*
Y746600D01*
X568882Y609687D02*
X584118Y619843D01*
X568882D02*
X584118Y609687D01*
Y624922D02*
X568882D01*
Y632539D01*
X571422Y635078D01*
X576500D01*
X579039Y632539D01*
Y624922D01*
X568882Y650313D02*
X571422Y645235D01*
X576500Y640157D01*
X581578D01*
X584118Y642696D01*
Y647774D01*
X581578Y650313D01*
X579039D01*
X576500Y647774D01*
Y640157D01*
X156464Y761741D02*
X166621Y746506D01*
Y761741D02*
X156464Y746506D01*
X171699D02*
Y761741D01*
X179317D01*
X181856Y759202D01*
Y754124D01*
X179317Y751584D01*
X171699D01*
X197091Y761741D02*
X186934D01*
Y754124D01*
X192013Y756663D01*
X194552D01*
X197091Y754124D01*
Y749045D01*
X194552Y746506D01*
X189473D01*
X186934Y749045D01*
X870636Y946032D02*
Y961267D01*
X878254D01*
X880793Y958728D01*
Y953650D01*
X878254Y951111D01*
X870636D01*
X896028Y958728D02*
X893489Y961267D01*
X888411D01*
X885872Y958728D01*
Y956189D01*
X888411Y953650D01*
X893489D01*
X896028Y951111D01*
Y948572D01*
X893489Y946032D01*
X888411D01*
X885872Y948572D01*
X911263Y946032D02*
X901106D01*
X911263Y956189D01*
Y958728D01*
X908724Y961267D01*
X903646D01*
X901106Y958728D01*
X762461Y945078D02*
X759922Y947617D01*
X754843D01*
X752304Y945078D01*
Y934922D01*
X754843Y932383D01*
X759922D01*
X762461Y934922D01*
X777696Y932383D02*
X767539D01*
X777696Y942539D01*
Y945078D01*
X775157Y947617D01*
X770078D01*
X767539Y945078D01*
X251672Y791500D02*
X249132Y788961D01*
Y783883D01*
X251672Y781343D01*
X261828D01*
X264368Y783883D01*
Y788961D01*
X261828Y791500D01*
X264368Y796578D02*
Y801657D01*
Y799118D01*
X249132D01*
X251672Y796578D01*
X32383Y497226D02*
X47618D01*
Y504843D01*
X45078Y507383D01*
X34922D01*
X32383Y504843D01*
Y497226D01*
Y512461D02*
X47618D01*
Y520078D01*
X45078Y522618D01*
X34922D01*
X32383Y520078D01*
Y512461D01*
X47618Y527696D02*
Y532774D01*
Y530235D01*
X32383D01*
X34922Y527696D01*
X1082382Y642304D02*
X1097617Y652461D01*
X1082382D02*
X1097617Y642304D01*
X1084922Y657539D02*
X1082382Y660078D01*
Y665157D01*
X1084922Y667696D01*
X1087461D01*
X1090000Y665157D01*
Y662617D01*
Y665157D01*
X1092539Y667696D01*
X1095078D01*
X1097617Y665157D01*
Y660078D01*
X1095078Y657539D01*
X1290304Y597617D02*
X1300461Y582383D01*
Y597617D02*
X1290304Y582383D01*
X1315696D02*
X1305539D01*
X1315696Y592539D01*
Y595078D01*
X1313157Y597617D01*
X1308078D01*
X1305539Y595078D01*
X1388364Y932175D02*
X1398521Y916940D01*
Y932175D02*
X1388364Y916940D01*
X1403599D02*
Y932175D01*
X1411217D01*
X1413756Y929636D01*
Y924557D01*
X1411217Y922018D01*
X1403599D01*
X1426452Y916940D02*
Y932175D01*
X1418834Y924557D01*
X1428991D01*
X1450687Y82618D02*
X1460843Y67382D01*
Y82618D02*
X1450687Y67382D01*
X1465922D02*
Y82618D01*
X1473539D01*
X1476078Y80078D01*
Y75000D01*
X1473539Y72461D01*
X1465922D01*
X1481157Y80078D02*
X1483696Y82618D01*
X1488774D01*
X1491313Y80078D01*
Y77539D01*
X1488774Y75000D01*
X1486235D01*
X1488774D01*
X1491313Y72461D01*
Y69922D01*
X1488774Y67382D01*
X1483696D01*
X1481157Y69922D01*
X1407226Y777617D02*
X1417383Y762383D01*
Y777617D02*
X1407226Y762383D01*
X1422461D02*
Y777617D01*
X1430078D01*
X1432618Y775078D01*
Y770000D01*
X1430078Y767461D01*
X1422461D01*
X1437696Y762383D02*
X1442774D01*
X1440235D01*
Y777617D01*
X1437696Y775078D01*
X19368Y509304D02*
X4132D01*
Y516922D01*
X6672Y519461D01*
X11750D01*
X14289Y516922D01*
Y509304D01*
Y514382D02*
X19368Y519461D01*
Y534696D02*
Y524539D01*
X9211Y534696D01*
X6672D01*
X4132Y532157D01*
Y527078D01*
X6672Y524539D01*
X304843Y612383D02*
Y627617D01*
X312461D01*
X315000Y625078D01*
Y620000D01*
X312461Y617461D01*
X304843D01*
X309922D02*
X315000Y612383D01*
X320078D02*
X325157D01*
X322618D01*
Y627617D01*
X320078Y625078D01*
X8633Y618437D02*
X23867D01*
X16250D01*
Y628593D01*
X8633D01*
X23867D01*
X8633Y633672D02*
X23867D01*
Y643828D01*
Y659063D02*
Y648907D01*
X13711Y659063D01*
X11172D01*
X8633Y656524D01*
Y651446D01*
X11172Y648907D01*
X307226Y602617D02*
Y587383D01*
Y595000D01*
X317383D01*
Y602617D01*
Y587383D01*
X322461Y602617D02*
Y587383D01*
X332618D01*
X337696D02*
X342774D01*
X340235D01*
Y602617D01*
X337696Y600078D01*
D16*
X1453500Y790500D02*
X1501500D01*
Y773500D02*
Y790500D01*
Y773500D02*
X1526500D01*
Y790500D01*
X1543500D01*
Y889500D01*
X1526500D02*
X1543500D01*
X1526500D02*
Y906500D01*
X1501500D02*
X1526500D01*
X1501500Y889500D02*
Y906500D01*
X1453500Y889500D02*
X1501500D01*
X1453500Y790500D02*
Y889500D01*
X1391500Y810000D02*
Y820000D01*
X1386500Y865000D02*
X1396500D01*
X1391500Y860000D02*
Y870000D01*
X1453500Y90500D02*
X1501500D01*
Y73500D02*
Y90500D01*
Y73500D02*
X1526500D01*
Y90500D01*
X1543500D01*
Y189500D01*
X1526500D02*
X1543500D01*
X1526500D02*
Y206500D01*
X1501500D02*
X1526500D01*
X1501500Y189500D02*
Y206500D01*
X1453500Y189500D02*
X1501500D01*
X1453500Y90500D02*
Y189500D01*
X1391500Y110000D02*
Y120000D01*
X1386500Y165000D02*
X1396500D01*
X1391500Y160000D02*
Y170000D01*
X1400400Y273700D02*
X1412900D01*
X1400400Y225000D02*
X1453000D01*
X1400400D02*
Y273700D01*
X1412900D02*
Y706300D01*
X1400400Y755000D02*
X1453000D01*
X1400400Y706300D02*
X1412900D01*
X1400400D02*
Y755000D01*
M02*
