G04*
G04 #@! TF.GenerationSoftware,Altium Limited,Altium Designer,20.0.12 (288)*
G04*
G04 Layer_Physical_Order=1*
G04 Layer_Color=255*
%FSLAX44Y44*%
%MOMM*%
G71*
G01*
G75*
%ADD10C,0.2000*%
%ADD11C,0.2500*%
%ADD31R,1.4000X1.5000*%
%ADD32R,0.9000X1.0500*%
%ADD33R,0.9700X0.6700*%
G04:AMPARAMS|DCode=34|XSize=0.86mm|YSize=0.27mm|CornerRadius=0.0338mm|HoleSize=0mm|Usage=FLASHONLY|Rotation=0.000|XOffset=0mm|YOffset=0mm|HoleType=Round|Shape=RoundedRectangle|*
%AMROUNDEDRECTD34*
21,1,0.8600,0.2025,0,0,0.0*
21,1,0.7925,0.2700,0,0,0.0*
1,1,0.0675,0.3963,-0.1013*
1,1,0.0675,-0.3963,-0.1013*
1,1,0.0675,-0.3963,0.1013*
1,1,0.0675,0.3963,0.1013*
%
%ADD34ROUNDEDRECTD34*%
%ADD35R,2.4500X2.4500*%
G04:AMPARAMS|DCode=36|XSize=0.86mm|YSize=0.27mm|CornerRadius=0.0338mm|HoleSize=0mm|Usage=FLASHONLY|Rotation=90.000|XOffset=0mm|YOffset=0mm|HoleType=Round|Shape=RoundedRectangle|*
%AMROUNDEDRECTD36*
21,1,0.8600,0.2025,0,0,90.0*
21,1,0.7925,0.2700,0,0,90.0*
1,1,0.0675,0.1013,0.3963*
1,1,0.0675,0.1013,-0.3963*
1,1,0.0675,-0.1013,-0.3963*
1,1,0.0675,-0.1013,0.3963*
%
%ADD36ROUNDEDRECTD36*%
%ADD37R,1.4500X0.6000*%
%ADD38O,1.4500X0.6000*%
%ADD39R,0.8000X0.9500*%
%ADD40R,2.2500X2.1000*%
%ADD41R,1.7500X1.2500*%
%ADD42C,0.8000*%
%ADD43C,1.0000*%
%ADD44C,0.3000*%
%ADD45C,2.0000*%
%ADD46C,0.5000*%
%ADD47R,2.7000X2.7000*%
%ADD48C,2.7000*%
%ADD49C,0.7500*%
%ADD50C,0.6000*%
G36*
X207451Y291581D02*
X207524Y291214D01*
X207561Y290841D01*
X207620Y290730D01*
X207645Y290606D01*
X207853Y290295D01*
X208030Y289964D01*
X208127Y289884D01*
X208198Y289779D01*
X208215Y289767D01*
X208985Y288589D01*
X209216Y287666D01*
X209075Y287454D01*
X208587Y285000D01*
X209075Y282546D01*
X209216Y282334D01*
X208985Y281411D01*
X208215Y280233D01*
X208198Y280221D01*
X208127Y280116D01*
X208030Y280036D01*
X207853Y279705D01*
X207645Y279394D01*
X207620Y279270D01*
X207561Y279158D01*
X207524Y278786D01*
X207451Y278419D01*
Y202794D01*
X205451Y201850D01*
X205114Y202075D01*
X203846Y202327D01*
X159859D01*
X158064Y204123D01*
Y225950D01*
X164000D01*
X164000Y225950D01*
Y225950D01*
X165962Y225859D01*
X166149Y225734D01*
X168295Y225307D01*
X176795D01*
X178941Y225734D01*
X180730Y226929D01*
X181091Y226389D01*
X182910Y225173D01*
X185056Y224747D01*
X187202Y225173D01*
X189022Y226389D01*
X190237Y228208D01*
X190664Y230354D01*
X190237Y232500D01*
X189022Y234320D01*
X187202Y235535D01*
X186025Y235770D01*
X185326Y237900D01*
X185749Y238322D01*
X186578Y239563D01*
X186869Y241026D01*
Y273361D01*
X186578Y274824D01*
X185749Y276064D01*
X183845Y277968D01*
X182605Y278797D01*
X181141Y279088D01*
X160260D01*
X158797Y278797D01*
X157557Y277968D01*
X156092Y276504D01*
X155263Y275263D01*
X155143Y274658D01*
X150500D01*
X148354Y274231D01*
X146535Y273015D01*
X145319Y271196D01*
X144892Y269050D01*
X145319Y266904D01*
X146535Y265085D01*
X148354Y263869D01*
X150500Y263442D01*
Y261448D01*
X148549Y261060D01*
X146895Y259955D01*
X145790Y258301D01*
X145402Y256350D01*
X145752Y254593D01*
Y245407D01*
X145402Y243650D01*
X145752Y241893D01*
Y235950D01*
X145500D01*
Y225950D01*
X151436D01*
Y202750D01*
X151689Y201482D01*
X152407Y200407D01*
X154812Y198002D01*
X154500Y197250D01*
X154500D01*
Y193823D01*
X149000D01*
Y197250D01*
X123000D01*
Y193823D01*
X118928D01*
X117408Y195823D01*
X117456Y195998D01*
X117482Y196342D01*
X117549Y196680D01*
Y283875D01*
X117524Y283999D01*
X117537Y284125D01*
X117428Y284483D01*
X117355Y284850D01*
X117285Y284956D01*
X117248Y285077D01*
X117010Y285366D01*
X116802Y285677D01*
X116697Y285748D01*
X116617Y285845D01*
X116287Y286022D01*
X115975Y286230D01*
X115851Y286255D01*
X115740Y286314D01*
X115531Y286378D01*
Y291794D01*
X148150D01*
X149219Y289794D01*
X148825Y289204D01*
X148735Y288750D01*
X160765D01*
X160675Y289204D01*
X160281Y289794D01*
X161350Y291794D01*
X207451D01*
Y291581D01*
D02*
G37*
G36*
X99520Y290933D02*
X99670Y290677D01*
X99920Y290451D01*
X100270Y290255D01*
X100720Y290090D01*
X101270Y289954D01*
X101920Y289849D01*
X102670Y289773D01*
X103227Y289755D01*
X104479Y289841D01*
X104575Y289874D01*
X104629Y289912D01*
X105031Y284678D01*
X105001Y284684D01*
X104926Y284690D01*
X104223Y284706D01*
X103520Y284688D01*
X102670Y284613D01*
X101920Y284488D01*
X101270Y284313D01*
X100720Y284088D01*
X100270Y283813D01*
X99920Y283488D01*
X99670Y283113D01*
X99520Y282688D01*
X99470Y282213D01*
Y291220D01*
X99520Y290933D01*
D02*
G37*
G36*
X93578Y285022D02*
X93268Y284976D01*
X92469Y284803D01*
X92246Y284733D01*
X92044Y284657D01*
X91865Y284575D01*
X91707Y284487D01*
X91571Y284393D01*
X91457Y284293D01*
X90043Y285707D01*
X90143Y285821D01*
X90237Y285957D01*
X90325Y286115D01*
X90407Y286294D01*
X90483Y286495D01*
X90553Y286719D01*
X90674Y287230D01*
X90726Y287518D01*
X90772Y287828D01*
X93578Y285022D01*
D02*
G37*
G36*
X219561Y287502D02*
X219617Y287501D01*
X220045Y287500D01*
Y282500D01*
X219561Y282474D01*
Y280469D01*
X219515Y280855D01*
X219379Y281201D01*
X219151Y281505D01*
X218831Y281769D01*
X218421Y281992D01*
X217919Y282175D01*
X217326Y282317D01*
X216642Y282419D01*
X215867Y282480D01*
X215000Y282500D01*
Y287500D01*
X215867Y287520D01*
X216642Y287581D01*
X217326Y287683D01*
X217919Y287825D01*
X218421Y288008D01*
X218831Y288231D01*
X219151Y288495D01*
X219379Y288799D01*
X219515Y289145D01*
X219561Y289531D01*
Y287502D01*
D02*
G37*
G36*
X295000Y188181D02*
X294350Y186450D01*
X292027D01*
X291030Y187215D01*
X289328Y187920D01*
X287500Y188160D01*
X240374D01*
X239131Y189114D01*
X237428Y189820D01*
X235600Y190060D01*
X224935D01*
X224931Y190064D01*
X224049Y192060D01*
X224710Y193049D01*
X225098Y195000D01*
X224710Y196951D01*
X223605Y198605D01*
X221951Y199710D01*
X220000Y200098D01*
X218049Y199710D01*
X216395Y198605D01*
X216287Y198443D01*
X216285Y198442D01*
X216230Y198413D01*
X216158Y198384D01*
X216068Y198356D01*
X215955Y198330D01*
X215846Y198314D01*
X210000D01*
Y278419D01*
X212000Y279488D01*
X212561Y279113D01*
X215000Y278627D01*
X215454Y278718D01*
X217000Y277449D01*
Y277250D01*
X231000D01*
Y292750D01*
X217000D01*
Y292551D01*
X215454Y291282D01*
X215000Y291372D01*
X212561Y290887D01*
X212000Y290512D01*
X210000Y291581D01*
Y295000D01*
X295000D01*
Y188181D01*
D02*
G37*
G36*
X160051Y273389D02*
X160124Y272408D01*
X160167Y272165D01*
X160221Y271963D01*
X160284Y271804D01*
X160357Y271687D01*
X160440Y271612D01*
X160532Y271579D01*
X157041Y272015D01*
X157137Y272021D01*
X157222Y272066D01*
X157298Y272149D01*
X157364Y272270D01*
X157420Y272430D01*
X157465Y272627D01*
X157500Y272863D01*
X157526Y273137D01*
X157546Y273800D01*
X160046D01*
X160051Y273389D01*
D02*
G37*
G36*
X178373Y233409D02*
X175884Y233879D01*
X175888Y235118D01*
X178388D01*
X178373Y233409D01*
D02*
G37*
G36*
X178422Y233166D02*
X178531Y232956D01*
X178712Y232768D01*
X178965Y232604D01*
X179290Y232463D01*
X179687Y232345D01*
X180157Y232250D01*
X180698Y232179D01*
X181222Y232137D01*
X181682Y232174D01*
X181949Y232218D01*
X182203Y232276D01*
X182445Y232349D01*
X182675Y232435D01*
X182893Y232536D01*
X183099Y232652D01*
X183293Y232781D01*
X182595Y228639D01*
X182451Y228823D01*
X182290Y228989D01*
X182110Y229135D01*
X181913Y229263D01*
X181698Y229372D01*
X181465Y229462D01*
X181213Y229534D01*
X180963Y229583D01*
X180159Y229529D01*
X179693Y229452D01*
X179299Y229349D01*
X178977Y229221D01*
X178727Y229066D01*
X178549Y228886D01*
X178442Y228679D01*
X178407Y228447D01*
X178384Y233400D01*
X178422Y233166D01*
D02*
G37*
G36*
X177697Y270911D02*
X178914Y269694D01*
X179573Y268104D01*
Y267243D01*
Y244038D01*
Y243368D01*
X179060Y242129D01*
X178112Y241182D01*
X176873Y240669D01*
X170919D01*
X170014Y240624D01*
X168240Y240271D01*
X166569Y239579D01*
X165065Y238574D01*
X163785Y237295D01*
X162780Y235790D01*
X162088Y234119D01*
X161735Y232345D01*
X161691Y231440D01*
Y230839D01*
X161230Y229727D01*
X160379Y228876D01*
X159267Y228415D01*
X149171D01*
X148538Y228678D01*
X148053Y229162D01*
X147791Y229796D01*
Y230138D01*
Y256636D01*
Y257078D01*
X148129Y257894D01*
X148754Y258519D01*
X149570Y258857D01*
X159240D01*
X160480Y258979D01*
X162771Y259928D01*
X164525Y261682D01*
X165474Y263973D01*
X165596Y265214D01*
Y270077D01*
X165635Y271570D01*
X176107D01*
X177697Y270911D01*
D02*
G37*
G36*
X157013Y227986D02*
X156800Y227910D01*
X156613Y227783D01*
X156450Y227606D01*
X156313Y227378D01*
X156200Y227100D01*
X156112Y226771D01*
X156050Y226392D01*
X156012Y225961D01*
X156000Y225480D01*
X153500D01*
X153488Y225961D01*
X153450Y226392D01*
X153387Y226771D01*
X153300Y227100D01*
X153188Y227378D01*
X153050Y227606D01*
X152887Y227783D01*
X152700Y227910D01*
X152487Y227986D01*
X152250Y228011D01*
X157250D01*
X157013Y227986D01*
D02*
G37*
G36*
X79500Y293750D02*
X79500Y293000D01*
Y276250D01*
X102000D01*
Y281858D01*
X102087Y281893D01*
X102462Y281994D01*
X102992Y282083D01*
X103360Y282115D01*
X104309D01*
X105061Y281613D01*
X107500Y281128D01*
X109939Y281613D01*
X112006Y282994D01*
X113000Y284482D01*
X115000Y283875D01*
Y196680D01*
X114469Y194769D01*
X114376Y194750D01*
X91000D01*
Y194750D01*
X89749Y193723D01*
X89000Y193873D01*
X86561Y193387D01*
X84494Y192006D01*
X83112Y189939D01*
X82627Y187500D01*
X83112Y185061D01*
X84494Y182994D01*
X86561Y181613D01*
X89000Y181128D01*
X89749Y181277D01*
X91000Y180250D01*
Y180250D01*
X105360D01*
Y152540D01*
X105148Y152344D01*
X104778Y152093D01*
X102774Y152045D01*
X102146Y152465D01*
X100000Y152892D01*
X97854Y152465D01*
X96034Y151250D01*
X94819Y149430D01*
X94392Y147284D01*
X94819Y145138D01*
X96034Y143319D01*
X97854Y142103D01*
X99895Y141698D01*
X99898Y141696D01*
X99959Y141662D01*
X100036Y141612D01*
X100086Y141575D01*
X103477Y138184D01*
X104718Y137355D01*
X106181Y137065D01*
X112187D01*
X113000Y137226D01*
X114647Y136246D01*
X115000Y135852D01*
Y132547D01*
X106022Y123569D01*
X83571D01*
X81490Y123619D01*
X78801Y123852D01*
X77730Y124016D01*
X76809Y124212D01*
X76066Y124429D01*
X75513Y124650D01*
X75157Y124847D01*
X75016Y124961D01*
X74992Y124992D01*
X73530Y126115D01*
X71827Y126820D01*
X70000Y127060D01*
X68173Y126820D01*
X66470Y126115D01*
X65008Y124992D01*
X63885Y123530D01*
X63180Y121827D01*
X62940Y120000D01*
Y119369D01*
X62883Y117590D01*
X62793Y116654D01*
X62672Y115874D01*
X62532Y115280D01*
X62434Y115000D01*
X51250D01*
Y90000D01*
X77750D01*
Y94666D01*
X79598Y95431D01*
X80233Y94796D01*
X81473Y93968D01*
X82936Y93677D01*
X91423D01*
X92484Y92968D01*
X93947Y92677D01*
X115000D01*
Y87107D01*
X106151D01*
Y87108D01*
X104406Y86493D01*
X103268Y86266D01*
X101449Y85051D01*
X100233Y83231D01*
X99806Y81086D01*
X100233Y78939D01*
X101449Y77120D01*
X103268Y75905D01*
X105414Y75478D01*
X106151Y74873D01*
Y72608D01*
X108931D01*
Y55000D01*
X109203Y53635D01*
X109976Y52477D01*
X115000Y47453D01*
Y5000D01*
X85035D01*
X83350Y6634D01*
X83352Y7176D01*
X85000Y8627D01*
X87439Y9113D01*
X89506Y10494D01*
X90887Y12561D01*
X91372Y15000D01*
X90887Y17439D01*
X89506Y19506D01*
X87439Y20887D01*
X85000Y21372D01*
X84296Y21233D01*
X82750Y22501D01*
Y23750D01*
X60250D01*
Y7000D01*
X60250Y6250D01*
X58768Y5000D01*
X5000D01*
Y295000D01*
X78018D01*
X79500Y293750D01*
D02*
G37*
G36*
X217858Y192900D02*
X217684Y193062D01*
X217496Y193206D01*
X217293Y193333D01*
X217076Y193444D01*
X216845Y193538D01*
X216599Y193614D01*
X216339Y193673D01*
X216065Y193716D01*
X215776Y193741D01*
X215473Y193750D01*
Y196250D01*
X215776Y196259D01*
X216065Y196284D01*
X216339Y196327D01*
X216599Y196386D01*
X216845Y196462D01*
X217076Y196556D01*
X217293Y196667D01*
X217496Y196794D01*
X217684Y196938D01*
X217858Y197100D01*
Y192900D01*
D02*
G37*
G36*
X157061Y187500D02*
X157036Y187738D01*
X156960Y187950D01*
X156833Y188137D01*
X156656Y188300D01*
X156428Y188438D01*
X156150Y188550D01*
X155821Y188638D01*
X155441Y188700D01*
X155011Y188738D01*
X154530Y188750D01*
Y191250D01*
X155011Y191262D01*
X155441Y191300D01*
X155821Y191362D01*
X156150Y191450D01*
X156428Y191562D01*
X156656Y191700D01*
X156833Y191863D01*
X156960Y192050D01*
X157036Y192262D01*
X157061Y192500D01*
Y187500D01*
D02*
G37*
G36*
X146495Y192262D02*
X146569Y192050D01*
X146694Y191863D01*
X146869Y191700D01*
X147094Y191562D01*
X147369Y191450D01*
X147695Y191362D01*
X148069Y191300D01*
X148495Y191262D01*
X148969Y191250D01*
Y188750D01*
X148495Y188738D01*
X148069Y188700D01*
X147695Y188638D01*
X147369Y188550D01*
X147094Y188438D01*
X146869Y188300D01*
X146694Y188137D01*
X146569Y187950D01*
X146495Y187738D01*
X146469Y187500D01*
Y192500D01*
X146495Y192262D01*
D02*
G37*
G36*
X125561Y187500D02*
X125536Y187738D01*
X125460Y187950D01*
X125333Y188137D01*
X125156Y188300D01*
X124929Y188438D01*
X124650Y188550D01*
X124321Y188638D01*
X123942Y188700D01*
X123512Y188738D01*
X123031Y188750D01*
Y191250D01*
X123512Y191262D01*
X123942Y191300D01*
X124321Y191362D01*
X124650Y191450D01*
X124929Y191562D01*
X125156Y191700D01*
X125333Y191863D01*
X125460Y192050D01*
X125536Y192262D01*
X125561Y192500D01*
Y187500D01*
D02*
G37*
G36*
X114494Y192035D02*
X114569Y191870D01*
X114694Y191725D01*
X114869Y191599D01*
X115094Y191492D01*
X115369Y191405D01*
X115694Y191337D01*
X116069Y191289D01*
X116494Y191260D01*
X116969Y191250D01*
Y188750D01*
X116494Y188738D01*
X116069Y188700D01*
X115694Y188638D01*
X115369Y188550D01*
X115094Y188438D01*
X114869Y188300D01*
X114694Y188137D01*
X114569Y187950D01*
X114494Y187738D01*
X114469Y187500D01*
Y192220D01*
X114494Y192035D01*
D02*
G37*
G36*
X91996Y189816D02*
X92315Y189540D01*
X92634Y189296D01*
X92952Y189085D01*
X93271Y188906D01*
X93281Y188901D01*
X93378Y188990D01*
X93480Y189140D01*
X93541Y189310D01*
X93561Y189500D01*
Y188773D01*
X93589Y188760D01*
X93908Y188646D01*
X94227Y188565D01*
X94545Y188516D01*
X94864Y188500D01*
Y186500D01*
X94545Y186484D01*
X94227Y186435D01*
X93908Y186354D01*
X93589Y186240D01*
X93561Y186227D01*
Y185500D01*
X93541Y185690D01*
X93480Y185860D01*
X93378Y186010D01*
X93281Y186099D01*
X93271Y186094D01*
X92952Y185915D01*
X92634Y185704D01*
X92315Y185460D01*
X91996Y185184D01*
X91678Y184875D01*
Y186496D01*
X91531Y186500D01*
Y188500D01*
X91678Y188504D01*
Y190125D01*
X91996Y189816D01*
D02*
G37*
G36*
X142013Y185284D02*
X141800Y185207D01*
X141613Y185079D01*
X141450Y184901D01*
X141313Y184673D01*
X141200Y184395D01*
X141112Y184067D01*
X141050Y183688D01*
X141012Y183259D01*
X141000Y182780D01*
X138500D01*
X138531Y185280D01*
X142250Y185311D01*
X142013Y185284D01*
D02*
G37*
G36*
X111446Y182786D02*
X111234Y182710D01*
X111046Y182583D01*
X110884Y182406D01*
X110746Y182178D01*
X110634Y181900D01*
X110546Y181571D01*
X110484Y181192D01*
X110446Y180761D01*
X110434Y180280D01*
X107934D01*
X107921Y180761D01*
X107884Y181192D01*
X107821Y181571D01*
X107734Y181900D01*
X107621Y182178D01*
X107484Y182406D01*
X107321Y182583D01*
X107134Y182710D01*
X106921Y182786D01*
X106684Y182811D01*
X111684D01*
X111446Y182786D01*
D02*
G37*
G36*
X153813Y177710D02*
X154001Y177652D01*
X154204Y177601D01*
X154655Y177520D01*
X154904Y177490D01*
X155741Y177439D01*
X156051Y177435D01*
X157299Y174935D01*
X156990Y174925D01*
X156705Y174895D01*
X156444Y174844D01*
X156207Y174772D01*
X155995Y174681D01*
X155807Y174569D01*
X155643Y174437D01*
X155504Y174284D01*
X155389Y174111D01*
X155298Y173917D01*
X153641Y177774D01*
X153813Y177710D01*
D02*
G37*
G36*
X197381Y173883D02*
X197080Y173924D01*
X196782Y173932D01*
X196487Y173907D01*
X196194Y173849D01*
X195905Y173757D01*
X195618Y173633D01*
X195334Y173475D01*
X195052Y173284D01*
X194774Y173059D01*
X194498Y172801D01*
X192800Y175346D01*
X193055Y175614D01*
X193502Y176162D01*
X193694Y176441D01*
X193864Y176725D01*
X194012Y177012D01*
X194139Y177303D01*
X194245Y177597D01*
X194329Y177896D01*
X194392Y178198D01*
X197381Y173883D01*
D02*
G37*
G36*
X228794Y174803D02*
X228979Y174655D01*
X229179Y174525D01*
X229394Y174412D01*
X229623Y174317D01*
X229867Y174239D01*
X230127Y174178D01*
X230400Y174135D01*
X230689Y174109D01*
X230992Y174100D01*
X230935Y171600D01*
X230632Y171592D01*
X230343Y171567D01*
X230068Y171525D01*
X229807Y171467D01*
X229561Y171392D01*
X229328Y171301D01*
X229109Y171193D01*
X228904Y171068D01*
X228713Y170926D01*
X228536Y170768D01*
X228623Y174967D01*
X228794Y174803D01*
D02*
G37*
G36*
X220514Y171915D02*
X220573Y171686D01*
X220650Y171458D01*
X220746Y171232D01*
X220861Y171007D01*
X220995Y170783D01*
X221147Y170561D01*
X221318Y170340D01*
X221508Y170120D01*
X221717Y169901D01*
X220228Y167854D01*
X220006Y168063D01*
X219783Y168246D01*
X219558Y168403D01*
X219332Y168535D01*
X219105Y168641D01*
X218877Y168721D01*
X218648Y168776D01*
X218418Y168804D01*
X218186Y168807D01*
X217954Y168785D01*
X220474Y172145D01*
X220514Y171915D01*
D02*
G37*
G36*
X166185Y166424D02*
X166164Y166661D01*
X166091Y166874D01*
X165967Y167061D01*
X165791Y167224D01*
X165563Y167361D01*
X165285Y167474D01*
X164954Y167561D01*
X164573Y167624D01*
X164140Y167661D01*
X163655Y167674D01*
X163660Y170174D01*
X164136Y170176D01*
X165980Y170283D01*
X166119Y170317D01*
X166210Y170355D01*
X166252Y170397D01*
X166185Y166424D01*
D02*
G37*
G36*
X177500Y162500D02*
X172500D01*
Y170000D01*
X177500D01*
Y162500D01*
D02*
G37*
G36*
X144283Y160158D02*
X144465Y160007D01*
X144662Y159875D01*
X144875Y159760D01*
X145103Y159663D01*
X145346Y159583D01*
X145604Y159521D01*
X145877Y159477D01*
X146165Y159450D01*
X146469Y159441D01*
X146354Y156942D01*
X146052Y156933D01*
X145763Y156909D01*
X145487Y156868D01*
X145225Y156812D01*
X144977Y156738D01*
X144743Y156649D01*
X144522Y156543D01*
X144315Y156422D01*
X144121Y156283D01*
X143941Y156129D01*
X144116Y160325D01*
X144283Y160158D01*
D02*
G37*
G36*
X123000Y182750D02*
X135618D01*
X135799Y180750D01*
X134796Y179748D01*
X133968Y178507D01*
X133677Y177044D01*
Y171422D01*
X117379Y155124D01*
X115531Y155889D01*
Y180250D01*
X117000D01*
Y186177D01*
X123000D01*
Y182750D01*
D02*
G37*
G36*
X201087Y153050D02*
X201164Y153008D01*
X201279Y152971D01*
X201432Y152939D01*
X201623Y152912D01*
X202118Y152872D01*
X203145Y152850D01*
Y150850D01*
X202765Y150847D01*
X201432Y150761D01*
X201279Y150729D01*
X201164Y150691D01*
X201087Y150649D01*
X201047Y150602D01*
Y153097D01*
X201087Y153050D01*
D02*
G37*
G36*
X110442Y152362D02*
X110468Y152073D01*
X110510Y151799D01*
X110570Y151539D01*
X110646Y151293D01*
X110740Y151062D01*
X110850Y150845D01*
X110978Y150642D01*
X111122Y150454D01*
X111284Y150280D01*
X107084D01*
X107245Y150454D01*
X107390Y150642D01*
X107517Y150845D01*
X107628Y151062D01*
X107721Y151293D01*
X107798Y151539D01*
X107857Y151799D01*
X107900Y152073D01*
X107925Y152362D01*
X107934Y152665D01*
X110434D01*
X110442Y152362D01*
D02*
G37*
G36*
X239802Y145907D02*
X239581Y146115D01*
X239353Y146301D01*
X239120Y146465D01*
X238880Y146607D01*
X238633Y146727D01*
X238381Y146825D01*
X238122Y146902D01*
X237856Y146956D01*
X237585Y146989D01*
X237307Y147000D01*
X237288Y149000D01*
X237567Y149011D01*
X237839Y149044D01*
X238104Y149100D01*
X238362Y149177D01*
X238613Y149277D01*
X238857Y149399D01*
X239094Y149543D01*
X239325Y149709D01*
X239549Y149897D01*
X239765Y150107D01*
X239802Y145907D01*
D02*
G37*
G36*
X102992Y146865D02*
X103012Y146630D01*
X103056Y146397D01*
X103124Y146166D01*
X103215Y145936D01*
X103330Y145708D01*
X103468Y145482D01*
X103630Y145257D01*
X103814Y145035D01*
X104023Y144813D01*
X102156Y143145D01*
X101937Y143353D01*
X101715Y143540D01*
X101492Y143707D01*
X101267Y143852D01*
X101040Y143977D01*
X100811Y144081D01*
X100580Y144164D01*
X100348Y144226D01*
X100113Y144267D01*
X99877Y144287D01*
X102994Y147102D01*
X102992Y146865D01*
D02*
G37*
G36*
X179449Y144543D02*
X179305Y144354D01*
X179179Y144151D01*
X179069Y143933D01*
X178977Y143701D01*
X178902Y143455D01*
X178843Y143195D01*
X178802Y142921D01*
X178778Y142632D01*
X178771Y142329D01*
X176271Y142317D01*
X176261Y142620D01*
X176234Y142909D01*
X176190Y143183D01*
X176129Y143443D01*
X176052Y143688D01*
X175957Y143919D01*
X175846Y144136D01*
X175717Y144337D01*
X175572Y144525D01*
X175410Y144698D01*
X179610Y144717D01*
X179449Y144543D01*
D02*
G37*
G36*
X150782Y139469D02*
X150573Y139246D01*
X150391Y139023D01*
X150234Y138798D01*
X150104Y138573D01*
X150001Y138346D01*
X149924Y138119D01*
X149873Y137891D01*
X149848Y137662D01*
X149850Y137433D01*
X149878Y137202D01*
X146455Y139635D01*
X146682Y139681D01*
X146909Y139744D01*
X147134Y139826D01*
X147359Y139925D01*
X147582Y140043D01*
X147804Y140180D01*
X148026Y140334D01*
X148246Y140506D01*
X148684Y140906D01*
X150782Y139469D01*
D02*
G37*
G36*
X293031Y174000D02*
Y120761D01*
X291850Y119250D01*
X289527D01*
X288530Y120014D01*
X286827Y120720D01*
X285000Y120960D01*
X267634D01*
X267028Y122960D01*
X267035Y122965D01*
X268425Y125046D01*
X268515Y125500D01*
X259887D01*
X259911Y124787D01*
X259627Y125041D01*
X259336Y125269D01*
X259039Y125470D01*
X258985Y125500D01*
X256485D01*
X256575Y125046D01*
X257965Y122965D01*
X257973Y122960D01*
X257366Y120960D01*
X225508D01*
X224979Y121915D01*
X224699Y122960D01*
X225925Y124796D01*
X226015Y125250D01*
X223336D01*
X223300Y125223D01*
X223027Y124984D01*
X222764Y124716D01*
X222746Y125250D01*
X213985D01*
X214075Y124796D01*
X215301Y122960D01*
X215021Y121915D01*
X214492Y120960D01*
X197245D01*
X195418Y120720D01*
X193715Y120014D01*
X192253Y118892D01*
X191131Y117430D01*
X190910Y116896D01*
X190069Y116543D01*
X189954Y116551D01*
X187933Y117814D01*
X187767Y118644D01*
X187881Y119237D01*
X188881Y120718D01*
X189620Y120864D01*
X190558Y121492D01*
X191186Y122430D01*
X191270Y122853D01*
X191692Y123135D01*
X193838Y123562D01*
X195657Y124777D01*
X196872Y126597D01*
X197299Y128743D01*
X196872Y130889D01*
X196835Y130944D01*
X197904Y132944D01*
X200812D01*
X201225Y133027D01*
X201363D01*
X202844Y131546D01*
X204084Y130718D01*
X205547Y130427D01*
X212335D01*
X213209Y129250D01*
X222613D01*
X222589Y129963D01*
X222873Y129709D01*
X223164Y129481D01*
X223461Y129281D01*
X223515Y129250D01*
X226015D01*
X225980Y129426D01*
X226475Y130733D01*
X226846Y131427D01*
X246488D01*
X247952Y131718D01*
X249192Y132546D01*
X265954Y149308D01*
X266782Y150548D01*
X267073Y152012D01*
Y162988D01*
X266782Y164452D01*
X265954Y165692D01*
X259454Y172192D01*
X260219Y174040D01*
X287500D01*
X289328Y174280D01*
X291030Y174986D01*
X291031Y174986D01*
X293031Y174000D01*
D02*
G37*
G36*
X146042Y130628D02*
X146238Y130560D01*
X146449Y130500D01*
X146910Y130403D01*
X147162Y130367D01*
X147706Y130319D01*
X148306Y130303D01*
X149410Y127803D01*
X149102Y127793D01*
X148816Y127763D01*
X148554Y127712D01*
X148315Y127640D01*
X148100Y127549D01*
X147907Y127437D01*
X147738Y127304D01*
X147592Y127152D01*
X147469Y126979D01*
X147370Y126785D01*
X145859Y130704D01*
X146042Y130628D01*
D02*
G37*
G36*
X188840Y131005D02*
X188916Y130793D01*
X189042Y130605D01*
X189219Y130443D01*
X189447Y130305D01*
X189726Y130193D01*
X190054Y130105D01*
X190434Y130043D01*
X190864Y130005D01*
X191345Y129993D01*
Y127493D01*
X190864Y127480D01*
X190434Y127443D01*
X190054Y127380D01*
X189726Y127293D01*
X189447Y127180D01*
X189219Y127043D01*
X189042Y126880D01*
X188916Y126693D01*
X188840Y126480D01*
X188815Y126243D01*
Y127482D01*
X188750Y127485D01*
X187600Y127493D01*
Y129993D01*
X188815Y130013D01*
Y131243D01*
X188840Y131005D01*
D02*
G37*
G36*
X162169Y132888D02*
X162710Y132347D01*
Y132060D01*
X162997D01*
X163538Y131518D01*
X163594Y131432D01*
Y123537D01*
X163814Y122430D01*
X164442Y121492D01*
X165380Y120864D01*
X166487Y120644D01*
X166822D01*
X167719Y118644D01*
X166848Y117341D01*
X166383Y115000D01*
Y112250D01*
X155500D01*
Y108823D01*
X151500D01*
Y112250D01*
X143962D01*
X142893Y114250D01*
X143425Y115046D01*
X143515Y115500D01*
X140917D01*
X140734Y115370D01*
X140452Y115136D01*
X140178Y114875D01*
Y115500D01*
X137500D01*
Y119500D01*
X140178D01*
Y120125D01*
X140452Y119864D01*
X140734Y119630D01*
X140917Y119500D01*
X143515D01*
X143425Y119954D01*
X142955Y120657D01*
X144158Y122457D01*
X144615Y122366D01*
X146761Y122793D01*
X148581Y124009D01*
X149396Y125230D01*
X149559D01*
X151023Y125521D01*
X152263Y126350D01*
X157804Y131890D01*
X158508Y132944D01*
X162082D01*
X162169Y132888D01*
D02*
G37*
G36*
X74013Y123151D02*
X74636Y122804D01*
X75402Y122499D01*
X76311Y122234D01*
X77363Y122009D01*
X78558Y121826D01*
X81377Y121581D01*
X84770Y121500D01*
Y118500D01*
X83002Y118480D01*
X78558Y118174D01*
X77363Y117991D01*
X76311Y117766D01*
X75402Y117501D01*
X75095Y117379D01*
X75353Y113603D01*
X75461Y113251D01*
X75583Y113040D01*
X75720Y112970D01*
X62970Y112939D01*
X63355Y113011D01*
X63701Y113223D01*
X64005Y113577D01*
X64269Y114071D01*
X64493Y114707D01*
X64675Y115484D01*
X64817Y116401D01*
X64919Y117460D01*
X65000Y120000D01*
X72678D01*
Y122625D01*
X72907Y122411D01*
X73151Y122220D01*
X73412Y122051D01*
X73533Y121987D01*
Y123538D01*
X74013Y123151D01*
D02*
G37*
G36*
X180148Y120474D02*
X180363Y120305D01*
X180590Y120157D01*
X180827Y120028D01*
X181075Y119920D01*
X181334Y119832D01*
X181604Y119765D01*
X181885Y119717D01*
X182176Y119690D01*
X182479Y119683D01*
X179509Y116713D01*
X179502Y117016D01*
X179475Y117307D01*
X179427Y117588D01*
X179360Y117858D01*
X179272Y118117D01*
X179164Y118365D01*
X179035Y118602D01*
X178887Y118829D01*
X178718Y119044D01*
X178529Y119249D01*
X179943Y120663D01*
X180148Y120474D01*
D02*
G37*
G36*
X116921Y111488D02*
X116835Y111389D01*
X116758Y111272D01*
X116691Y111139D01*
X116632Y110988D01*
X116582Y110820D01*
X116542Y110634D01*
X116510Y110431D01*
X116487Y110211D01*
X116469Y109720D01*
X109850Y109689D01*
X110208Y109718D01*
X110585Y109799D01*
X110981Y109934D01*
X111395Y110122D01*
X111828Y110364D01*
X112279Y110659D01*
X112749Y111007D01*
X113744Y111863D01*
X114270Y112371D01*
X116921Y111488D01*
D02*
G37*
G36*
X128061Y102500D02*
X128036Y102738D01*
X127960Y102950D01*
X127833Y103138D01*
X127656Y103300D01*
X127428Y103438D01*
X127150Y103550D01*
X126821Y103638D01*
X126441Y103700D01*
X126011Y103738D01*
X125530Y103750D01*
Y106250D01*
X126011Y106263D01*
X126441Y106300D01*
X126821Y106363D01*
X127150Y106450D01*
X127428Y106563D01*
X127656Y106700D01*
X127833Y106863D01*
X127960Y107050D01*
X128036Y107263D01*
X128061Y107500D01*
Y102500D01*
D02*
G37*
G36*
X116494Y107263D02*
X116569Y107050D01*
X116694Y106863D01*
X116869Y106700D01*
X117094Y106563D01*
X117369Y106450D01*
X117694Y106363D01*
X118069Y106300D01*
X118494Y106263D01*
X118969Y106250D01*
Y103750D01*
X118494Y103738D01*
X118069Y103700D01*
X117694Y103638D01*
X117369Y103550D01*
X117094Y103438D01*
X116869Y103300D01*
X116694Y103138D01*
X116569Y102950D01*
X116494Y102738D01*
X116469Y102500D01*
Y107500D01*
X116494Y107263D01*
D02*
G37*
G36*
X158061Y102500D02*
X158036Y102738D01*
X157960Y102950D01*
X157833Y103138D01*
X157656Y103300D01*
X157429Y103438D01*
X157150Y103550D01*
X156821Y103638D01*
X156442Y103700D01*
X156012Y103737D01*
X155531Y103750D01*
Y106250D01*
X156012Y106263D01*
X156442Y106300D01*
X156821Y106362D01*
X157150Y106450D01*
X157429Y106562D01*
X157656Y106700D01*
X157833Y106862D01*
X157960Y107050D01*
X158036Y107262D01*
X158061Y107500D01*
Y102500D01*
D02*
G37*
G36*
X148995Y107262D02*
X149070Y107050D01*
X149195Y106862D01*
X149370Y106700D01*
X149595Y106562D01*
X149870Y106450D01*
X150195Y106362D01*
X150570Y106300D01*
X150995Y106263D01*
X151470Y106250D01*
Y103750D01*
X150995Y103737D01*
X150570Y103700D01*
X150195Y103638D01*
X149870Y103550D01*
X149595Y103438D01*
X149370Y103300D01*
X149195Y103138D01*
X149070Y102950D01*
X148995Y102738D01*
X148970Y102500D01*
Y107500D01*
X148995Y107262D01*
D02*
G37*
G36*
X179050Y109583D02*
X179289Y109460D01*
X179690Y109353D01*
X180250Y109259D01*
X180970Y109180D01*
X184090Y109029D01*
X186970Y109000D01*
Y101000D01*
X185450Y100993D01*
X179690Y100647D01*
X179289Y100540D01*
X179050Y100417D01*
X178969Y100281D01*
Y109719D01*
X179050Y109583D01*
D02*
G37*
G36*
X175078Y84514D02*
X174782Y84532D01*
X174496Y84526D01*
X174220Y84498D01*
X173954Y84446D01*
X173697Y84371D01*
X173451Y84273D01*
X173214Y84151D01*
X172987Y84007D01*
X172770Y83839D01*
X172563Y83648D01*
X171279Y85194D01*
X171466Y85395D01*
X171636Y85608D01*
X171789Y85833D01*
X171924Y86069D01*
X172043Y86317D01*
X172144Y86576D01*
X172228Y86847D01*
X172295Y87130D01*
X172345Y87425D01*
X172377Y87731D01*
X175078Y84514D01*
D02*
G37*
G36*
X199951Y91716D02*
Y18625D01*
X199976Y18501D01*
X199963Y18375D01*
X200072Y18017D01*
X200145Y17650D01*
X200215Y17544D01*
X200252Y17423D01*
X200490Y17134D01*
X200698Y16823D01*
X200803Y16753D01*
X200883Y16655D01*
X201213Y16478D01*
X201525Y16270D01*
X201649Y16245D01*
X201760Y16186D01*
X202225Y16045D01*
Y13955D01*
X201760Y13814D01*
X201649Y13755D01*
X201525Y13730D01*
X201213Y13522D01*
X200883Y13345D01*
X200803Y13247D01*
X200698Y13177D01*
X200490Y12866D01*
X200252Y12577D01*
X200215Y12456D01*
X200145Y12350D01*
X200072Y11983D01*
X199963Y11625D01*
X199976Y11499D01*
X199951Y11375D01*
Y6859D01*
X117549D01*
Y42291D01*
X119397Y43057D01*
X130483Y31970D01*
X130543Y31896D01*
X130641Y31751D01*
X130723Y31608D01*
X130790Y31463D01*
X130844Y31314D01*
X130888Y31154D01*
X130921Y30982D01*
X130931Y30888D01*
Y23258D01*
X131203Y21892D01*
X131977Y20734D01*
X133734Y18977D01*
X134892Y18203D01*
X136257Y17931D01*
X153243D01*
X154608Y18203D01*
X155766Y18977D01*
X158572Y21783D01*
X158689Y21885D01*
X158698Y21892D01*
X167000D01*
X169146Y22319D01*
X170965Y23535D01*
X172181Y25354D01*
X172608Y27500D01*
X172181Y29646D01*
X170965Y31465D01*
X169146Y32681D01*
X167000Y33108D01*
Y35102D01*
X168951Y35490D01*
X170605Y36595D01*
X171710Y38249D01*
X172098Y40200D01*
X171836Y41517D01*
Y51584D01*
X172098Y52900D01*
X171836Y54217D01*
Y60600D01*
X172000D01*
Y70600D01*
X167559D01*
Y75733D01*
X174165Y82340D01*
X174229Y82380D01*
X174295Y82414D01*
X174362Y82441D01*
X174436Y82462D01*
X174521Y82479D01*
X174622Y82489D01*
X174741Y82491D01*
X174956Y82479D01*
X174973Y82481D01*
X175368Y82402D01*
X177319Y82790D01*
X178973Y83895D01*
X180078Y85549D01*
X180466Y87500D01*
X180382Y87927D01*
X181983Y89927D01*
X193750D01*
X195213Y90218D01*
X196453Y91046D01*
X197951Y92544D01*
X199951Y91716D01*
D02*
G37*
G36*
X108682Y82128D02*
X108685Y82128D01*
X109047Y82096D01*
X109499Y82086D01*
Y80085D01*
X109262Y80083D01*
X108685Y80043D01*
X108682Y80042D01*
Y79085D01*
X108662Y79275D01*
X108602Y79446D01*
X108502Y79595D01*
X108362Y79725D01*
X108182Y79836D01*
X108153Y79847D01*
X108134Y79819D01*
Y79855D01*
X107962Y79925D01*
X107702Y79995D01*
X107402Y80045D01*
X107062Y80076D01*
X106682Y80085D01*
Y82086D01*
X107062Y82095D01*
X107402Y82126D01*
X107702Y82176D01*
X107962Y82246D01*
X108134Y82316D01*
Y82352D01*
X108153Y82324D01*
X108182Y82336D01*
X108362Y82445D01*
X108502Y82576D01*
X108602Y82725D01*
X108662Y82895D01*
X108682Y83085D01*
Y82128D01*
D02*
G37*
G36*
X170359Y88053D02*
X170347Y87927D01*
X170338Y87841D01*
X170271Y87500D01*
X170278Y87462D01*
X170260Y87385D01*
X170218Y87249D01*
X170170Y87128D01*
X170117Y87017D01*
X170059Y86915D01*
X169995Y86820D01*
X162337Y79163D01*
X161674Y78170D01*
X161441Y77000D01*
X161441Y77000D01*
Y70600D01*
X153500D01*
X153500Y70600D01*
Y70600D01*
X151500Y70544D01*
X151146Y70781D01*
X149000Y71208D01*
X140500D01*
X138354Y70781D01*
X136535Y69565D01*
X135319Y67746D01*
X134892Y65600D01*
X134989Y65112D01*
X134934Y65045D01*
X133665Y63776D01*
X133558Y63705D01*
X131977Y62123D01*
X131203Y60966D01*
X131146Y60680D01*
X130753Y60401D01*
X128988Y59900D01*
X127454Y60925D01*
X127000Y61015D01*
Y55000D01*
X123000D01*
Y61015D01*
X122546Y60925D01*
X120465Y59535D01*
X119239Y57700D01*
X118630Y57360D01*
X116946Y57005D01*
X116068Y57694D01*
Y71193D01*
X117482Y72608D01*
X119151Y72607D01*
Y72607D01*
X119152D01*
Y72608D01*
X132152D01*
Y79606D01*
X132734Y80024D01*
X134151Y80492D01*
X135588Y79532D01*
X135750Y79500D01*
Y84750D01*
X137750D01*
Y86750D01*
X144001D01*
X144680Y87677D01*
X160875D01*
X162338Y87968D01*
X163579Y88797D01*
X164709Y89927D01*
X168754D01*
X170359Y88053D01*
D02*
G37*
G36*
X114310Y75148D02*
X114140Y75087D01*
X113990Y74986D01*
X113860Y74844D01*
X113750Y74661D01*
X113660Y74437D01*
X113590Y74174D01*
X113540Y73869D01*
X113510Y73524D01*
X113500Y73138D01*
X111500D01*
X111490Y73524D01*
X111460Y73869D01*
X111410Y74174D01*
X111340Y74437D01*
X111250Y74661D01*
X111140Y74844D01*
X111010Y74986D01*
X110860Y75087D01*
X110690Y75148D01*
X110500Y75168D01*
X114500D01*
X114310Y75148D01*
D02*
G37*
G36*
X165510Y70184D02*
X165540Y69839D01*
X165590Y69534D01*
X165660Y69270D01*
X165750Y69047D01*
X165860Y68864D01*
X165990Y68722D01*
X166140Y68620D01*
X166310Y68559D01*
X166500Y68539D01*
X162500D01*
X162690Y68559D01*
X162860Y68620D01*
X163010Y68722D01*
X163140Y68864D01*
X163250Y69047D01*
X163340Y69270D01*
X163410Y69534D01*
X163460Y69839D01*
X163490Y70184D01*
X163500Y70570D01*
X165500D01*
X165510Y70184D01*
D02*
G37*
G36*
X140388Y62650D02*
X140236Y62762D01*
X140062Y62824D01*
X139864Y62835D01*
X139643Y62794D01*
X139400Y62704D01*
X139134Y62562D01*
X138844Y62370D01*
X138532Y62127D01*
X138196Y61833D01*
X137838Y61488D01*
X136409Y62888D01*
X136754Y63247D01*
X137290Y63894D01*
X137481Y64182D01*
X137622Y64448D01*
X137711Y64690D01*
X137749Y64908D01*
X137737Y65104D01*
X137673Y65276D01*
X137559Y65426D01*
X140388Y62650D01*
D02*
G37*
G36*
X135500Y33000D02*
X133500Y30586D01*
X133486Y30980D01*
X133443Y31362D01*
X133373Y31733D01*
X133274Y32092D01*
X133146Y32439D01*
X132991Y32775D01*
X132807Y33099D01*
X132595Y33411D01*
X132354Y33711D01*
X132086Y34000D01*
Y36828D01*
X132354Y36580D01*
X132595Y36399D01*
X132807Y36287D01*
X132991Y36243D01*
X133146Y36268D01*
X133274Y36360D01*
X133373Y36521D01*
X133443Y36751D01*
X133486Y37048D01*
X133500Y37414D01*
X135500Y33000D01*
D02*
G37*
G36*
X168022Y67450D02*
X169174Y66299D01*
X169797Y64795D01*
Y63980D01*
Y40301D01*
Y39763D01*
X169385Y38769D01*
X168624Y38009D01*
X167631Y37597D01*
X156788D01*
X155818Y37502D01*
X154027Y36760D01*
X152656Y35388D01*
X151914Y33597D01*
X151818Y32627D01*
Y27767D01*
Y27222D01*
X151401Y26215D01*
X150630Y25444D01*
X149623Y25027D01*
X149078D01*
X137500Y25000D01*
Y52500D01*
Y52997D01*
X137881Y53916D01*
X138584Y54619D01*
X139503Y55000D01*
X149269D01*
X150522Y55123D01*
X152837Y56082D01*
X154609Y57854D01*
X155568Y60170D01*
X155692Y61423D01*
Y67891D01*
Y67927D01*
X155719Y67994D01*
X155771Y68045D01*
X155838Y68073D01*
X166518D01*
X168022Y67450D01*
D02*
G37*
G36*
X159076Y24535D02*
X158896Y24619D01*
X158696Y24653D01*
X158475Y24640D01*
X158233Y24578D01*
X157970Y24467D01*
X157687Y24308D01*
X157382Y24101D01*
X157057Y23845D01*
X156712Y23541D01*
X156345Y23188D01*
X154676Y24348D01*
X155014Y24700D01*
X155529Y25327D01*
X155706Y25602D01*
X155830Y25851D01*
X155900Y26075D01*
X155916Y26273D01*
X155879Y26446D01*
X155789Y26593D01*
X155645Y26714D01*
X159076Y24535D01*
D02*
G37*
G36*
X214561Y17503D02*
X214617Y17501D01*
X215045Y17500D01*
Y12500D01*
X214561Y12474D01*
Y10469D01*
X214515Y10855D01*
X214379Y11200D01*
X214151Y11505D01*
X213831Y11769D01*
X213421Y11992D01*
X212919Y12175D01*
X212326Y12317D01*
X211642Y12419D01*
X210867Y12480D01*
X210000Y12500D01*
Y17500D01*
X210867Y17520D01*
X211642Y17581D01*
X212326Y17683D01*
X212919Y17825D01*
X213421Y18008D01*
X213831Y18231D01*
X214151Y18495D01*
X214379Y18800D01*
X214515Y19145D01*
X214561Y19531D01*
Y17503D01*
D02*
G37*
G36*
X80268Y19347D02*
X80411Y18959D01*
X80650Y18617D01*
X80985Y18321D01*
X81415Y18070D01*
X81941Y17865D01*
X82562Y17705D01*
X83279Y17591D01*
X84092Y17523D01*
X85000Y17500D01*
Y12500D01*
X84092Y12477D01*
X83279Y12409D01*
X82562Y12295D01*
X81941Y12135D01*
X81415Y11930D01*
X80985Y11679D01*
X80650Y11383D01*
X80411Y11041D01*
X80268Y10653D01*
X80220Y10220D01*
Y12499D01*
X79955Y12500D01*
Y17500D01*
X80220Y17514D01*
Y19780D01*
X80268Y19347D01*
D02*
G37*
G36*
X295000Y5000D02*
X202500D01*
Y11375D01*
X204500Y11982D01*
X205494Y10494D01*
X207561Y9113D01*
X210000Y8627D01*
X210454Y8718D01*
X212000Y7449D01*
Y7250D01*
X226000D01*
Y22750D01*
X212000D01*
Y22551D01*
X210454Y21282D01*
X210000Y21372D01*
X207561Y20887D01*
X205494Y19506D01*
X204500Y18018D01*
X202500Y18625D01*
Y95056D01*
X203965Y96034D01*
X205180Y97854D01*
X205607Y100000D01*
X205180Y102146D01*
X203965Y103965D01*
X202500Y104944D01*
Y106840D01*
X285000D01*
X286827Y107080D01*
X288530Y107785D01*
X289527Y108550D01*
X291850D01*
Y112302D01*
X292061Y113900D01*
X293025Y115000D01*
X295000D01*
Y5000D01*
D02*
G37*
%LPC*%
G36*
X160765Y284750D02*
X156750D01*
Y280735D01*
X157204Y280825D01*
X159285Y282215D01*
X160675Y284296D01*
X160765Y284750D01*
D02*
G37*
G36*
X152750D02*
X148735D01*
X148825Y284296D01*
X150215Y282215D01*
X152296Y280825D01*
X152750Y280735D01*
Y284750D01*
D02*
G37*
G36*
X134500Y233515D02*
Y229500D01*
X138515D01*
X138425Y229954D01*
X137035Y232035D01*
X134954Y233425D01*
X134500Y233515D01*
D02*
G37*
G36*
X130500D02*
X130046Y233425D01*
X127965Y232035D01*
X126575Y229954D01*
X126485Y229500D01*
X130500D01*
Y233515D01*
D02*
G37*
G36*
X138515Y225500D02*
X134500D01*
Y221485D01*
X134954Y221575D01*
X137035Y222965D01*
X138425Y225046D01*
X138515Y225500D01*
D02*
G37*
G36*
X130500D02*
X126485D01*
X126575Y225046D01*
X127965Y222965D01*
X130046Y221575D01*
X130500Y221485D01*
Y225500D01*
D02*
G37*
G36*
X182000Y218515D02*
Y214500D01*
X186015D01*
X185925Y214954D01*
X184535Y217035D01*
X182454Y218425D01*
X182000Y218515D01*
D02*
G37*
G36*
X178000D02*
X177546Y218425D01*
X175465Y217035D01*
X174075Y214954D01*
X173985Y214500D01*
X178000D01*
Y218515D01*
D02*
G37*
G36*
X186015Y210500D02*
X182000D01*
Y206485D01*
X182454Y206575D01*
X184535Y207965D01*
X185925Y210046D01*
X186015Y210500D01*
D02*
G37*
G36*
X178000D02*
X173985D01*
X174075Y210046D01*
X175465Y207965D01*
X177546Y206575D01*
X178000Y206485D01*
Y210500D01*
D02*
G37*
G36*
X275000Y241077D02*
X271863Y240769D01*
X268847Y239854D01*
X266068Y238368D01*
X263632Y236369D01*
X261632Y233932D01*
X260146Y231153D01*
X259231Y228137D01*
X258923Y225000D01*
X259231Y221863D01*
X260146Y218847D01*
X261632Y216068D01*
X263632Y213632D01*
X266068Y211632D01*
X268847Y210146D01*
X271863Y209231D01*
X275000Y208923D01*
X278137Y209231D01*
X281153Y210146D01*
X283932Y211632D01*
X286369Y213632D01*
X288368Y216068D01*
X289854Y218847D01*
X290769Y221863D01*
X291077Y225000D01*
X290769Y228137D01*
X289854Y231153D01*
X288368Y233932D01*
X286369Y236369D01*
X283932Y238368D01*
X281153Y239854D01*
X278137Y240769D01*
X275000Y241077D01*
D02*
G37*
G36*
X25000D02*
X21864Y240769D01*
X18847Y239854D01*
X16068Y238368D01*
X13632Y236369D01*
X11632Y233932D01*
X10146Y231153D01*
X9232Y228137D01*
X8923Y225000D01*
X9232Y221863D01*
X10146Y218847D01*
X11632Y216068D01*
X13632Y213632D01*
X16068Y211632D01*
X18847Y210146D01*
X21864Y209231D01*
X25000Y208923D01*
X28136Y209231D01*
X31153Y210146D01*
X33932Y211632D01*
X36369Y213632D01*
X38368Y216068D01*
X39854Y218847D01*
X40768Y221863D01*
X41077Y225000D01*
X40768Y228137D01*
X39854Y231153D01*
X38368Y233932D01*
X36369Y236369D01*
X33932Y238368D01*
X31153Y239854D01*
X28136Y240769D01*
X25000Y241077D01*
D02*
G37*
G36*
X85250Y229108D02*
X83104Y228681D01*
X81285Y227465D01*
X80069Y225646D01*
X79642Y223500D01*
X80069Y221354D01*
X81285Y219535D01*
X82927Y218438D01*
Y216250D01*
X83000Y215881D01*
Y200000D01*
X102000D01*
Y220000D01*
X92176D01*
X90689Y221653D01*
X90598Y222000D01*
X90604Y222104D01*
X90613Y222180D01*
X90608Y222245D01*
X90858Y223500D01*
X90431Y225646D01*
X89215Y227465D01*
X87396Y228681D01*
X85250Y229108D01*
D02*
G37*
G36*
X75000Y182060D02*
X73173Y181820D01*
X71470Y181114D01*
X70008Y179992D01*
X65758Y175743D01*
X64636Y174280D01*
X63931Y172578D01*
X63690Y170750D01*
Y168489D01*
X63686Y168095D01*
X63660Y167500D01*
X51250D01*
Y142500D01*
X77750D01*
Y160041D01*
X77811Y160500D01*
Y167826D01*
X79992Y170007D01*
X81114Y171470D01*
X81820Y173172D01*
X82060Y175000D01*
X81820Y176827D01*
X81114Y178530D01*
X79992Y179992D01*
X78530Y181114D01*
X76827Y181820D01*
X75000Y182060D01*
D02*
G37*
G36*
X43750Y168000D02*
X16250D01*
Y144623D01*
X16231Y144530D01*
X16250Y144438D01*
Y142000D01*
X16798D01*
X17392Y133354D01*
Y126733D01*
X17257Y119215D01*
X17024Y115954D01*
X16964Y115500D01*
X16250D01*
Y113063D01*
X16231Y112970D01*
X16250Y112877D01*
Y89500D01*
X43750D01*
Y112877D01*
X43769Y112970D01*
X43750Y113063D01*
Y115500D01*
X43225D01*
X42608Y126041D01*
Y135398D01*
X42848Y140710D01*
X42968Y141879D01*
X42987Y142000D01*
X43750D01*
Y144438D01*
X43769Y144530D01*
X43750Y144623D01*
Y168000D01*
D02*
G37*
%LPD*%
G36*
X88082Y222475D02*
X88064Y222328D01*
X88036Y221864D01*
X88008Y219679D01*
X88013Y219491D01*
X88050Y219062D01*
X88112Y218683D01*
X88200Y218355D01*
X88313Y218077D01*
X88450Y217849D01*
X88612Y217671D01*
X88800Y217544D01*
X89012Y217466D01*
X89250Y217439D01*
X85531Y217470D01*
X85525Y217495D01*
X85520Y217570D01*
X85503Y218694D01*
X85503Y218711D01*
X85500Y218710D01*
X85490Y219022D01*
X85460Y219307D01*
X85410Y219564D01*
X85340Y219793D01*
X85251Y219995D01*
X85141Y220170D01*
X85011Y220317D01*
X84862Y220437D01*
X84692Y220530D01*
X84502Y220595D01*
X88101Y222565D01*
X88082Y222475D01*
D02*
G37*
G36*
X75720Y165469D02*
X65470Y165439D01*
X65523Y165492D01*
X65571Y165652D01*
X65613Y165917D01*
X65649Y166289D01*
X65725Y168042D01*
X65750Y170750D01*
X75750D01*
X75720Y165469D01*
D02*
G37*
G36*
X40988Y144385D02*
X40781Y143949D01*
X40598Y143223D01*
X40439Y142206D01*
X40305Y140898D01*
X40049Y135231D01*
X40000Y130000D01*
X40012Y126764D01*
X40781Y113651D01*
X40988Y113140D01*
X41220Y112970D01*
X18780D01*
X19012Y113140D01*
X19219Y113651D01*
X19402Y114502D01*
X19561Y115695D01*
X19805Y119101D01*
X20000Y130000D01*
X19988Y132761D01*
X19219Y143949D01*
X19012Y144385D01*
X18780Y144530D01*
X41220D01*
X40988Y144385D01*
D02*
G37*
%LPC*%
G36*
X264500Y133515D02*
Y129500D01*
X268515D01*
X268425Y129954D01*
X267035Y132035D01*
X264954Y133425D01*
X264500Y133515D01*
D02*
G37*
G36*
X260500D02*
X260046Y133425D01*
X257965Y132035D01*
X256575Y129954D01*
X256485Y129500D01*
X259164D01*
X259200Y129527D01*
X259473Y129767D01*
X259736Y130034D01*
X259754Y129500D01*
X260500D01*
Y133515D01*
D02*
G37*
G36*
X143001Y82750D02*
X139750D01*
Y79500D01*
X139912Y79532D01*
X141744Y80756D01*
X142969Y82589D01*
X143001Y82750D01*
D02*
G37*
G36*
X275500Y91077D02*
X272363Y90768D01*
X269347Y89854D01*
X266568Y88368D01*
X264132Y86369D01*
X262132Y83932D01*
X260646Y81153D01*
X259732Y78137D01*
X259423Y75000D01*
X259732Y71863D01*
X260646Y68847D01*
X262132Y66068D01*
X264132Y63632D01*
X266568Y61632D01*
X269347Y60146D01*
X272363Y59232D01*
X275500Y58923D01*
X278637Y59232D01*
X281653Y60146D01*
X284432Y61632D01*
X286868Y63632D01*
X288868Y66068D01*
X290354Y68847D01*
X291269Y71863D01*
X291577Y75000D01*
X291269Y78137D01*
X290354Y81153D01*
X288868Y83932D01*
X286868Y86369D01*
X284432Y88368D01*
X281653Y89854D01*
X278637Y90768D01*
X275500Y91077D01*
D02*
G37*
%LPD*%
D10*
X87000Y105000D02*
X99500D01*
X99500Y105000D01*
X164500Y77000D02*
X175000Y87500D01*
X175368D01*
X162750Y65600D02*
X164500Y67350D01*
Y77000D01*
X177590Y127410D02*
X177650Y127350D01*
X177500Y127500D02*
X177590Y127410D01*
X177650Y121542D02*
Y127350D01*
Y121542D02*
X182509Y116683D01*
X105414Y81086D02*
X109499D01*
X217000Y148000D02*
X239828D01*
X213150Y151850D02*
X217000Y148000D01*
X239828D02*
X239855Y148026D01*
X241926D01*
X196850Y151850D02*
X213150D01*
X112499Y77500D02*
Y78085D01*
X109499Y81086D02*
X112499Y78085D01*
X112500Y55000D02*
X134500Y33000D01*
X112500Y55000D02*
Y77499D01*
X134500Y23258D02*
Y33000D01*
Y59400D01*
X140535Y65600D02*
X144750D01*
X134500Y59600D02*
X136082Y61182D01*
X136117D02*
X140535Y65600D01*
X136082Y61182D02*
X136117D01*
X90750Y285000D02*
X93250Y287500D01*
X89000Y187500D02*
X97500D01*
X134500Y23258D02*
X136257Y21500D01*
X153243D01*
X159243Y27500D01*
X162750D01*
D11*
X92947Y97500D02*
X93947Y96500D01*
X118053D02*
X118122Y96569D01*
X126378D02*
X126447Y96500D01*
X137553D02*
X139750Y98697D01*
Y99000D01*
X145000Y104250D01*
X93947Y96500D02*
X118053D01*
X79000Y101436D02*
X82936Y97500D01*
X126447Y96500D02*
X137553D01*
X118122Y96569D02*
X126378D01*
X82936Y97500D02*
X92947D01*
X130250Y91500D02*
X160875D01*
X163125Y93750D01*
X125643Y86893D02*
X130250Y91500D01*
X177500Y146850D02*
X177589Y127500D01*
X193750Y93750D02*
X200000Y100000D01*
X163125Y93750D02*
X193750D01*
X187600Y128743D02*
X191691D01*
X187500Y128643D02*
X187600Y128743D01*
X177589Y127500D02*
X177590Y127410D01*
X182509Y116683D02*
Y117159D01*
X183000Y117650D01*
X163394Y168935D02*
X163405Y168924D01*
X153685Y176185D02*
X168717D01*
X172500Y172402D01*
X152500Y175000D02*
X153685Y176185D01*
X172500Y166200D02*
Y172402D01*
X163405Y168924D02*
X167400D01*
X135111Y132008D02*
X140176Y137072D01*
X147557Y146850D02*
X150100D01*
X140176Y139468D02*
X147557Y146850D01*
X140176Y137072D02*
Y139468D01*
X135111Y128132D02*
Y132008D01*
X130111Y138611D02*
X134046Y142546D01*
Y142546D01*
X142888Y151388D01*
X130111Y130203D02*
Y138611D01*
X142888Y151388D02*
X145388D01*
X145850Y151850D01*
X112500Y105000D02*
X112719Y105220D01*
X121390Y114410D02*
X135111Y128132D01*
X112719Y105220D02*
Y109053D01*
X118076Y114410D01*
X150100Y146850D02*
X158150D01*
X150100Y146850D02*
X150100Y146850D01*
X118076Y114410D02*
X121390D01*
X109184Y148138D02*
Y187684D01*
X111500Y190000D01*
X125643Y79866D02*
Y86893D01*
X137500Y117500D02*
X148150D01*
X109447Y114750D02*
X114107Y119410D01*
X119319D01*
X130111Y130203D01*
X220000Y127250D02*
X220125Y127375D01*
X216686Y135250D02*
X246488D01*
X215686Y134250D02*
X216686Y135250D01*
X205547Y134250D02*
X215686D01*
X213589Y139750D02*
X244624D01*
X212589Y138750D02*
X213589Y139750D01*
X207411Y138750D02*
X212589D01*
X209324Y145000D02*
X210000D01*
X220125Y127375D02*
X262375D01*
X89000Y214000D02*
X89500D01*
X86750Y216250D02*
X89000Y214000D01*
X86750Y216250D02*
Y221053D01*
X85250Y222553D02*
X86750Y221053D01*
X85250Y222553D02*
Y223500D01*
X217500Y171750D02*
X218100D01*
X223188Y166663D01*
X229788D01*
X79000Y101436D02*
Y108064D01*
X85687Y114750D02*
X109447D01*
X79000Y108064D02*
X85687Y114750D01*
X125643Y79866D02*
X125652Y79858D01*
X203846Y199014D02*
X207860Y195000D01*
X158486Y199014D02*
X203846D01*
X207860Y195000D02*
X220000D01*
X142013Y158192D02*
X147693D01*
X141888Y158316D02*
X142013Y158192D01*
X226500Y172850D02*
X253388D01*
X226437Y172913D02*
X226500Y172850D01*
X229788Y166663D02*
X229975Y166850D01*
X184606Y230805D02*
X185056Y230354D01*
X145850Y151850D02*
X158150D01*
X149559Y129053D02*
X155100Y134594D01*
X146925Y137380D02*
X151396Y141850D01*
X146925Y136672D02*
Y137380D01*
X145695Y129053D02*
X149559D01*
X144615Y127974D02*
X145695Y129053D01*
X155100Y134594D02*
Y136750D01*
X100000Y147069D02*
X106181Y140888D01*
X100000Y147069D02*
Y147284D01*
X106181Y140888D02*
X112187D01*
X116434Y145135D01*
Y148772D01*
X137500Y169838D01*
X229975Y166850D02*
X253024D01*
X253388Y172850D02*
X263250Y162988D01*
Y152012D02*
Y162988D01*
X246488Y135250D02*
X263250Y152012D01*
X253024Y166850D02*
X258750Y161124D01*
Y153876D02*
Y161124D01*
X244624Y139750D02*
X258750Y153876D01*
X202947Y136850D02*
X205547Y134250D01*
X196850Y136850D02*
X202947D01*
X204311Y141850D02*
X207411Y138750D01*
X196850Y141850D02*
X204311D01*
X207473Y146850D02*
X209324Y145000D01*
X147693Y158192D02*
X149035Y156850D01*
X167500Y166200D02*
Y168824D01*
X167400Y168924D02*
X167500Y168824D01*
X137500Y169838D02*
Y177044D01*
X139750Y179294D01*
Y187250D01*
X149035Y156850D02*
X158150D01*
X139750Y187250D02*
X142500Y190000D01*
X187500Y127500D02*
Y128643D01*
X111500Y190000D02*
X129500D01*
X262375Y127375D02*
X262500Y127500D01*
X196850Y146850D02*
X207473D01*
X196850D02*
X196950Y146750D01*
X154750Y202750D02*
X158486Y199014D01*
X154750Y202750D02*
Y230950D01*
X155200Y136850D02*
X158150D01*
X155100Y136750D02*
X155200Y136850D01*
X151396Y141850D02*
X158150D01*
X145000Y104250D02*
Y105000D01*
X112500D02*
X132000D01*
X145000D02*
X145000Y105000D01*
X162000D01*
X178867Y230915D02*
X184606Y230805D01*
X172545Y230915D02*
X175326D01*
X177138Y232531D02*
Y235118D01*
X176255Y231649D02*
X177138Y232531D01*
X175326Y230915D02*
X176795D01*
X177138Y235118D02*
X183045Y241026D01*
Y273361D01*
X142500Y190000D02*
X161000D01*
X176795Y230915D02*
X178867D01*
X157179Y269050D02*
X158796Y270667D01*
Y273800D01*
X160260Y275265D01*
X154750Y269050D02*
X157179D01*
X160260Y275265D02*
X181141D01*
X183045Y273361D01*
D31*
X72500Y210000D02*
D03*
X92500D02*
D03*
D32*
X235000Y15000D02*
D03*
X219000D02*
D03*
X240000Y285000D02*
D03*
X224000D02*
D03*
D33*
X270000Y195000D02*
D03*
Y181100D02*
D03*
X235000Y195000D02*
D03*
Y181100D02*
D03*
X232500Y113900D02*
D03*
Y100000D02*
D03*
X250000Y113900D02*
D03*
Y100000D02*
D03*
X252500Y181100D02*
D03*
Y195000D02*
D03*
X267500Y113900D02*
D03*
Y100000D02*
D03*
X285000Y113900D02*
D03*
Y100000D02*
D03*
X287500Y181100D02*
D03*
Y195000D02*
D03*
D34*
X158150Y156850D02*
D03*
Y151850D02*
D03*
Y146850D02*
D03*
Y141850D02*
D03*
Y136850D02*
D03*
X196850D02*
D03*
Y141850D02*
D03*
Y146850D02*
D03*
Y151850D02*
D03*
Y156850D02*
D03*
D35*
X177500Y146850D02*
D03*
D36*
X167500Y127500D02*
D03*
X172500D02*
D03*
X177500D02*
D03*
X182500D02*
D03*
X187500D02*
D03*
Y166200D02*
D03*
X182500D02*
D03*
X177500D02*
D03*
X172500D02*
D03*
X167500D02*
D03*
D37*
X172545Y269015D02*
D03*
X154750Y230950D02*
D03*
X162750Y65600D02*
D03*
X144750Y27500D02*
D03*
D38*
X172545Y256315D02*
D03*
Y243615D02*
D03*
Y230915D02*
D03*
X227046Y269015D02*
D03*
Y256315D02*
D03*
Y243615D02*
D03*
Y230915D02*
D03*
X154750Y243650D02*
D03*
Y256350D02*
D03*
Y269050D02*
D03*
X100250Y230950D02*
D03*
Y243650D02*
D03*
Y256350D02*
D03*
Y269050D02*
D03*
X162750Y52900D02*
D03*
Y40200D02*
D03*
Y27500D02*
D03*
X217250Y65600D02*
D03*
Y52900D02*
D03*
Y40200D02*
D03*
Y27500D02*
D03*
X90250Y65600D02*
D03*
Y52900D02*
D03*
Y40200D02*
D03*
Y27500D02*
D03*
X144750Y65600D02*
D03*
Y52900D02*
D03*
Y40200D02*
D03*
D39*
X175000Y105000D02*
D03*
X162000D02*
D03*
X125652Y79858D02*
D03*
X112651D02*
D03*
X132000Y105000D02*
D03*
X145000D02*
D03*
X161000Y190000D02*
D03*
X174000D02*
D03*
X129500D02*
D03*
X142500D02*
D03*
X97500Y187500D02*
D03*
X110500D02*
D03*
X112500Y105000D02*
D03*
X99500D02*
D03*
D40*
X64500Y102500D02*
D03*
X30000D02*
D03*
X64500Y155000D02*
D03*
X30000D02*
D03*
D41*
X64250Y285000D02*
D03*
X90750D02*
D03*
X71500Y15000D02*
D03*
X45000D02*
D03*
D42*
X175000Y105000D02*
X188346D01*
X197245Y113900D01*
X172500Y110436D02*
X175000Y107936D01*
Y105000D02*
Y107936D01*
X172500Y110436D02*
Y115000D01*
D43*
X197245Y113900D02*
X232500D01*
X267500D02*
X285000D01*
X250000D02*
X267500D01*
X232500D02*
X250000D01*
X198088Y177565D02*
X205065D01*
X210500Y183000D01*
X235600D02*
X237500Y181100D01*
X210500Y183000D02*
X235600D01*
X185653Y190000D02*
X198088Y177565D01*
X174000Y190000D02*
X185653D01*
X70000Y108000D02*
Y120000D01*
X234307Y158100D02*
X249400D01*
X233807Y157600D02*
X234307Y158100D01*
X218714Y157600D02*
X233807D01*
X216114Y160200D02*
X218714Y157600D01*
X197500Y160200D02*
X216114D01*
X237500Y181100D02*
X252500D01*
X249400Y158100D02*
X250000Y157500D01*
X270000Y181100D02*
X287500D01*
X252500D02*
X270000D01*
X64500Y102500D02*
X70000Y108000D01*
X65250Y155000D02*
X70750Y160500D01*
X64500Y155000D02*
X65250D01*
X70750Y160500D02*
Y170750D01*
X75000Y175000D01*
D44*
X149807Y181500D02*
X174774D01*
X143440Y175132D02*
X149807Y181500D01*
X187528Y166227D02*
Y170896D01*
X189285Y172653D01*
X192229D01*
X197141Y177565D01*
X198088D01*
X187500Y166200D02*
X187528Y166227D01*
X70000Y120000D02*
X107500D01*
X182500Y166200D02*
Y173773D01*
X174774Y181500D02*
X182500Y173773D01*
X143440Y169060D02*
Y175132D01*
X125000Y150621D02*
X143440Y169060D01*
X125000Y137500D02*
Y150621D01*
X107500Y120000D02*
X125000Y137500D01*
D45*
X30000Y130000D02*
Y155000D01*
Y102500D02*
Y130000D01*
D46*
X93250Y287500D02*
X93537Y287213D01*
X107213D01*
X107500Y287500D01*
X210000Y15000D02*
X219000D01*
X215000Y285000D02*
X224000D01*
X71500Y15000D02*
X85000D01*
D47*
X275000Y275000D02*
D03*
X275500Y25000D02*
D03*
X25000Y275000D02*
D03*
D48*
X275000Y225000D02*
D03*
X275500Y75000D02*
D03*
X25000Y225000D02*
D03*
D49*
X87000Y105000D02*
D03*
X172500Y115000D02*
D03*
X137500Y117500D02*
D03*
X220000Y127250D02*
D03*
X30000Y130000D02*
D03*
X70000Y120000D02*
D03*
X198088Y177565D02*
D03*
X250000Y157500D02*
D03*
X107500Y287500D02*
D03*
X180000Y212500D02*
D03*
X132500Y227500D02*
D03*
X125000Y55000D02*
D03*
X154750Y286750D02*
D03*
X210000Y15000D02*
D03*
X215000Y285000D02*
D03*
X85000Y15000D02*
D03*
X89000Y187500D02*
D03*
X262500Y127500D02*
D03*
X75000Y175000D02*
D03*
D50*
X137750Y84750D02*
D03*
X175368Y87500D02*
D03*
X191691Y128743D02*
D03*
X182509Y116683D02*
D03*
X177500Y146850D02*
D03*
X163394Y168935D02*
D03*
X109184Y148138D02*
D03*
X200000Y100000D02*
D03*
X210000Y145000D02*
D03*
X85250Y223500D02*
D03*
X217500Y171750D02*
D03*
X141888Y158316D02*
D03*
X226437Y172913D02*
D03*
X185056Y230354D02*
D03*
X146925Y136672D02*
D03*
X144615Y127974D02*
D03*
X107500Y200000D02*
D03*
X220000Y195000D02*
D03*
X79500Y84000D02*
D03*
X105414Y81086D02*
D03*
X100000Y147284D02*
D03*
X152500Y175000D02*
D03*
X241926Y148026D02*
D03*
M02*
