M48
;Layer_Color=9474304
;FILE_FORMAT=4:4
METRIC,LZ
;TYPE=PLATED
T1F00S00C0.3000
T2F00S00C0.4500
T3F00S00C1.8000
%
T01
X000795Y00084
X00105414Y00081086
X00118953Y0009025
X00135382Y0008675
X00144615Y00127974
X00146925Y00136672
X00191691Y00128743
X00183009Y00117006
X002Y001
X0021Y00145
X002175Y0017175
X00226437Y00172913
X0022Y00195
X00241926Y00148026
X00163394Y00168935
X001525Y00175
X00185056Y00230354
X0008525Y002235
X001075Y002
X00109184Y00148138
X001Y00147284
X00141888Y00158316
T02
X00085Y00015
X00125Y00055
X001375Y001175
X00087Y0010475
X0007Y0012
X0003Y0013
X001725Y00115
X001825Y00085
Y00055
X0021Y00015
X0022Y0012725
X002625Y001275
X0025Y001575
X00198088Y00177565
X0018Y002125
X0015475Y0028675
X00215Y00285
X001075Y002875
X001325Y002275
X00089Y001875
X00075Y00175
T03
X002755Y00025
Y00075
X00275Y00225
Y00275
X00025
Y00225
M30
