G04*
G04 #@! TF.GenerationSoftware,Altium Limited,Altium Designer,20.0.12 (288)*
G04*
G04 Layer_Color=16776960*
%FSLAX44Y44*%
%MOMM*%
G71*
G01*
G75*
%ADD10C,0.2000*%
%ADD14C,0.2540*%
%ADD15C,0.1500*%
%ADD57C,0.1270*%
%ADD58C,0.1524*%
D10*
X86750Y218500D02*
Y244500D01*
X71750Y218500D02*
Y244500D01*
Y218500D02*
X86750D01*
X71750Y244500D02*
X86750D01*
X101500Y78000D02*
Y92000D01*
X73500Y78000D02*
Y92000D01*
X101500D01*
X73500Y78000D02*
X101500D01*
X33500Y168000D02*
Y182000D01*
X61500Y168000D02*
Y182000D01*
X33500Y168000D02*
X61500D01*
X33500Y182000D02*
X61500D01*
X131000Y202500D02*
X157000D01*
X131000Y217500D02*
X157000D01*
X131000Y202500D02*
Y217500D01*
X157000Y202500D02*
Y217500D01*
X160000Y138000D02*
Y164000D01*
X175000Y138000D02*
Y164000D01*
X160000D02*
X175000D01*
X160000Y138000D02*
X175000D01*
X218500Y75500D02*
X246500D01*
X218500Y89500D02*
X246500D01*
X218500Y75500D02*
Y89500D01*
X246500Y75500D02*
Y89500D01*
X141750Y93750D02*
X169750D01*
X141750Y79750D02*
X169750D01*
Y93750D01*
X141750Y79750D02*
Y93750D01*
X118500Y157000D02*
X146500D01*
X118500Y143000D02*
X146500D01*
Y157000D01*
X118500Y143000D02*
Y157000D01*
X33500Y127000D02*
X61500D01*
X33500Y113000D02*
X61500D01*
Y127000D01*
X33500Y113000D02*
Y127000D01*
X101000Y203000D02*
X129000D01*
X101000Y217000D02*
X129000D01*
X101000Y203000D02*
Y217000D01*
X129000Y203000D02*
Y217000D01*
X180500Y136000D02*
Y164000D01*
X194500Y136000D02*
Y164000D01*
X180500D02*
X194500D01*
X180500Y136000D02*
X194500D01*
X118500Y163000D02*
Y177000D01*
X146500Y163000D02*
Y177000D01*
X118500Y163000D02*
X146500D01*
X118500Y177000D02*
X146500D01*
D14*
X89852Y253174D02*
Y263171D01*
X84854D01*
X83188Y261505D01*
Y258172D01*
X84854Y256506D01*
X89852D01*
X86520D02*
X83188Y253174D01*
X79855Y261505D02*
X78189Y263171D01*
X74857D01*
X73191Y261505D01*
Y259839D01*
X74857Y258172D01*
X73191Y256506D01*
Y254840D01*
X74857Y253174D01*
X78189D01*
X79855Y254840D01*
Y256506D01*
X78189Y258172D01*
X79855Y259839D01*
Y261505D01*
X78189Y258172D02*
X74857D01*
X223637Y221140D02*
Y211143D01*
X218639D01*
X216972Y212809D01*
Y219474D01*
X218639Y221140D01*
X223637D01*
X206976Y211143D02*
X213640D01*
X206976Y217808D01*
Y219474D01*
X208642Y221140D01*
X211974D01*
X213640Y219474D01*
X209165Y127498D02*
Y117502D01*
X204166D01*
X202500Y119168D01*
Y125832D01*
X204166Y127498D01*
X209165D01*
X199168Y117502D02*
X195835D01*
X197502D01*
Y127498D01*
X199168Y125832D01*
X23831Y189748D02*
X17166Y179752D01*
Y189748D02*
X23831Y179752D01*
X13834Y188082D02*
X12168Y189748D01*
X8835D01*
X7169Y188082D01*
Y186416D01*
X8835Y184750D01*
X10502D01*
X8835D01*
X7169Y183084D01*
Y181418D01*
X8835Y179752D01*
X12168D01*
X13834Y181418D01*
X275831Y184248D02*
X269166Y174252D01*
Y184248D02*
X275831Y174252D01*
X259169D02*
X265834D01*
X259169Y180916D01*
Y182582D01*
X260835Y184248D01*
X264168D01*
X265834Y182582D01*
X242915Y59498D02*
X236250Y49502D01*
Y59498D02*
X242915Y49502D01*
X232918D02*
X229585D01*
X231252D01*
Y59498D01*
X232918Y57832D01*
X173331Y122502D02*
Y132498D01*
X168332D01*
X166666Y130832D01*
Y127500D01*
X168332Y125834D01*
X173331D01*
X169998D02*
X166666Y122502D01*
X163334Y132498D02*
X156669D01*
Y130832D01*
X163334Y124168D01*
Y122502D01*
X155831Y225002D02*
Y234998D01*
X150832D01*
X149166Y233332D01*
Y230000D01*
X150832Y228334D01*
X155831D01*
X152498D02*
X149166Y225002D01*
X139169D02*
X145834D01*
X139169Y231666D01*
Y233332D01*
X140836Y234998D01*
X144168D01*
X145834Y233332D01*
X138605Y189433D02*
X140271Y191099D01*
X143603D01*
X145269Y189433D01*
Y182768D01*
X143603Y181102D01*
X140271D01*
X138605Y182768D01*
X135273Y181102D02*
X131940D01*
X133606D01*
Y191099D01*
X135273Y189433D01*
X126942D02*
X125276Y191099D01*
X121944D01*
X120277Y189433D01*
Y187767D01*
X121944Y186101D01*
X123610D01*
X121944D01*
X120277Y184435D01*
Y182768D01*
X121944Y181102D01*
X125276D01*
X126942Y182768D01*
X128331Y135832D02*
X129998Y137498D01*
X133330D01*
X134996Y135832D01*
Y129168D01*
X133330Y127502D01*
X129998D01*
X128331Y129168D01*
X124999Y127502D02*
X121667D01*
X123333D01*
Y137498D01*
X124999Y135832D01*
X110004Y127502D02*
X116669D01*
X110004Y134166D01*
Y135832D01*
X111670Y137498D01*
X115002D01*
X116669Y135832D01*
X59165Y195832D02*
X60831Y197498D01*
X64164D01*
X65830Y195832D01*
Y189168D01*
X64164Y187502D01*
X60831D01*
X59165Y189168D01*
X55833Y187502D02*
X52501D01*
X54167D01*
Y197498D01*
X55833Y195832D01*
X47502Y187502D02*
X44170D01*
X45836D01*
Y197498D01*
X47502Y195832D01*
X218332Y160832D02*
X219998Y162498D01*
X223330D01*
X224996Y160832D01*
Y154168D01*
X223330Y152502D01*
X219998D01*
X218332Y154168D01*
X214999Y152502D02*
X211667D01*
X213333D01*
Y162498D01*
X214999Y160832D01*
X206668D02*
X205002Y162498D01*
X201670D01*
X200004Y160832D01*
Y154168D01*
X201670Y152502D01*
X205002D01*
X206668Y154168D01*
Y160832D01*
X154084Y65918D02*
X152418Y64252D01*
X149086D01*
X147419Y65918D01*
Y72582D01*
X149086Y74248D01*
X152418D01*
X154084Y72582D01*
X164081Y64252D02*
X160748Y65918D01*
X157416Y69250D01*
Y72582D01*
X159082Y74248D01*
X162414D01*
X164081Y72582D01*
Y70916D01*
X162414Y69250D01*
X157416D01*
X89166Y105832D02*
X90832Y107498D01*
X94164D01*
X95831Y105832D01*
Y99168D01*
X94164Y97502D01*
X90832D01*
X89166Y99168D01*
X79169Y107498D02*
X85834D01*
Y102500D01*
X82502Y104166D01*
X80836D01*
X79169Y102500D01*
Y99168D01*
X80836Y97502D01*
X84168D01*
X85834Y99168D01*
X116666Y230832D02*
X118332Y232498D01*
X121664D01*
X123331Y230832D01*
Y224168D01*
X121664Y222502D01*
X118332D01*
X116666Y224168D01*
X108336Y222502D02*
Y232498D01*
X113334Y227500D01*
X106669D01*
X51666Y140832D02*
X53332Y142498D01*
X56665D01*
X58331Y140832D01*
Y134168D01*
X56665Y132502D01*
X53332D01*
X51666Y134168D01*
X48334Y140832D02*
X46668Y142498D01*
X43335D01*
X41669Y140832D01*
Y139166D01*
X43335Y137500D01*
X45002D01*
X43335D01*
X41669Y135834D01*
Y134168D01*
X43335Y132502D01*
X46668D01*
X48334Y134168D01*
X234166Y103332D02*
X235832Y104998D01*
X239165D01*
X240831Y103332D01*
Y96668D01*
X239165Y95002D01*
X235832D01*
X234166Y96668D01*
X224169Y95002D02*
X230834D01*
X224169Y101666D01*
Y103332D01*
X225835Y104998D01*
X229168D01*
X230834Y103332D01*
D15*
X275000Y203010D02*
Y209360D01*
Y291000D02*
Y298000D01*
X271500Y294450D02*
X278500D01*
X249000Y211900D02*
Y301000D01*
Y211900D02*
X262300Y199000D01*
X287700D01*
X301000Y211900D01*
Y301000D01*
X249000D02*
X301000D01*
X275500Y90640D02*
Y96990D01*
Y2000D02*
Y9000D01*
X272000Y5550D02*
X279000D01*
X301500Y-1000D02*
Y88100D01*
X288200Y101000D02*
X301500Y88100D01*
X262800Y101000D02*
X288200D01*
X249500Y88100D02*
X262800Y101000D01*
X249500Y-1000D02*
Y88100D01*
Y-1000D02*
X301500D01*
X25000Y203010D02*
Y209360D01*
Y291000D02*
Y298000D01*
X21500Y294450D02*
X28500D01*
X-1000Y211900D02*
Y301000D01*
Y211900D02*
X12300Y199000D01*
X37700D01*
X51000Y211900D01*
Y301000D01*
X-1000D02*
X51000D01*
D57*
X184220Y106700D02*
G03*
X184220Y106700I-1270J0D01*
G01*
X218320Y188300D02*
G03*
X218320Y188300I-1270J0D01*
G01*
D58*
X210636Y87396D02*
X216224D01*
Y95524D01*
X187776Y87396D02*
X193364D01*
X187776D02*
Y95524D01*
X183776Y207604D02*
X189364D01*
X183776Y199476D02*
Y207604D01*
X206636D02*
X212224D01*
Y199476D02*
Y207604D01*
M02*
