G04*
G04 #@! TF.GenerationSoftware,Altium Limited,Altium Designer,20.0.12 (288)*
G04*
G04 Layer_Color=65535*
%FSLAX44Y44*%
%MOMM*%
G71*
G01*
G75*
%ADD10C,0.2000*%
%ADD11C,0.2500*%
%ADD12C,0.6000*%
%ADD13C,0.1000*%
%ADD14C,0.2540*%
%ADD15C,0.1500*%
D10*
X148600Y158350D02*
G03*
X148600Y158350I-1000J0D01*
G01*
X104250Y199500D02*
Y221000D01*
Y199500D02*
X104750Y199000D01*
X110750D01*
X82500Y203500D02*
Y216500D01*
X213000Y8000D02*
X241000D01*
X213000Y22000D02*
X241000D01*
Y8000D02*
Y22000D01*
X213000Y8000D02*
Y22000D01*
X183796Y224964D02*
Y274965D01*
X215795Y224964D02*
Y274965D01*
X183796D02*
X215795D01*
X183796Y224964D02*
X215795D01*
X143500Y225000D02*
Y275000D01*
X111500Y225000D02*
Y275000D01*
Y225000D02*
X143500D01*
X111500Y275000D02*
X143500D01*
X174000Y21550D02*
Y71550D01*
X206000Y21550D02*
Y71550D01*
X174000D02*
X206000D01*
X174000Y21550D02*
X206000D01*
X155500Y97500D02*
X181500D01*
X155500Y112500D02*
X181500D01*
Y97500D02*
Y112500D01*
X155500Y97500D02*
Y112500D01*
X101500Y71550D02*
X133500D01*
X101500Y21550D02*
X133500D01*
X101500D02*
Y71550D01*
X133500Y21550D02*
Y71550D01*
X132151Y72357D02*
Y87357D01*
X106152Y72357D02*
Y87357D01*
Y72357D02*
X132151D01*
X106152Y87357D02*
X132151D01*
X125500Y97500D02*
Y112500D01*
X151500Y97500D02*
Y112500D01*
X125500D02*
X151500D01*
X125500Y97500D02*
X151500D01*
X23250Y83500D02*
X71250D01*
X23250Y121500D02*
X71250D01*
Y83500D02*
Y88000D01*
X23250Y83500D02*
Y88000D01*
X71250Y117000D02*
Y121500D01*
X23250Y117000D02*
Y121500D01*
Y136000D02*
X71250D01*
X23250Y174000D02*
X71250D01*
Y136000D02*
Y140500D01*
X23250Y136000D02*
Y140500D01*
X71250Y169500D02*
Y174000D01*
X23250Y169500D02*
Y174000D01*
X154500Y182500D02*
Y197500D01*
X180500Y182500D02*
Y197500D01*
X154500D02*
X180500D01*
X154500Y182500D02*
X180500D01*
X123000D02*
Y197500D01*
X149000Y182500D02*
Y197500D01*
X123000D02*
X149000D01*
X123000Y182500D02*
X149000D01*
X91000Y180000D02*
Y195000D01*
X117000Y180000D02*
Y195000D01*
X91000D02*
X117000D01*
X91000Y180000D02*
X117000D01*
X60482Y275348D02*
X74960D01*
X60736Y294652D02*
X74960D01*
Y275348D02*
X94518D01*
X74960D02*
Y294652D01*
X94518D01*
X218000Y278000D02*
X246000D01*
X218000Y292000D02*
X246000D01*
Y278000D02*
Y292000D01*
X218000Y278000D02*
Y292000D01*
X93000Y97500D02*
X119000D01*
X93000Y112500D02*
X119000D01*
Y97500D02*
Y112500D01*
X93000Y97500D02*
Y112500D01*
X55710Y24652D02*
X75268D01*
X55710Y5348D02*
Y24652D01*
Y5348D02*
X75268D01*
X41486Y24652D02*
X55710D01*
X41232Y5348D02*
X55710D01*
D11*
X173795Y277515D02*
G03*
X173795Y277515I-1250J0D01*
G01*
X156000Y222450D02*
G03*
X156000Y222450I-1250J0D01*
G01*
X164000Y74100D02*
G03*
X164000Y74100I-1250J0D01*
G01*
X146000Y19000D02*
G03*
X146000Y19000I-1250J0D01*
G01*
X79000Y86500D02*
G03*
X79000Y86500I-1250J0D01*
G01*
Y139000D02*
G03*
X79000Y139000I-1250J0D01*
G01*
D12*
X196795Y264965D02*
G03*
X196795Y264965I-3000J0D01*
G01*
X136500Y235000D02*
G03*
X136500Y235000I-3000J0D01*
G01*
X187000Y61550D02*
G03*
X187000Y61550I-3000J0D01*
G01*
X126500Y31550D02*
G03*
X126500Y31550I-3000J0D01*
G01*
D13*
X57000Y294500D02*
G03*
X57000Y294500I-500J0D01*
G01*
X37750Y24500D02*
G03*
X37750Y24500I-500J0D01*
G01*
D14*
X61500Y221000D02*
X110750D01*
Y199000D02*
Y221000D01*
X61500Y199000D02*
X110750D01*
X61500D02*
Y221000D01*
X61837Y239998D02*
Y230002D01*
Y235000D01*
X68502D01*
Y239998D01*
Y230002D01*
X71834Y239998D02*
Y230002D01*
X78498D01*
X81831D02*
X85163D01*
X83497D01*
Y239998D01*
X81831Y238332D01*
X181671Y289998D02*
Y283334D01*
X185003Y280002D01*
X188335Y283334D01*
Y289998D01*
X191668D02*
X198332D01*
X195000D01*
Y280002D01*
X206663D02*
Y289998D01*
X201665Y285000D01*
X208329D01*
X114171Y289998D02*
Y283334D01*
X117503Y280002D01*
X120836Y283334D01*
Y289998D01*
X124168D02*
X130832D01*
X127500D01*
Y280002D01*
X134164Y288332D02*
X135831Y289998D01*
X139163D01*
X140829Y288332D01*
Y286666D01*
X139163Y285000D01*
X137497D01*
X139163D01*
X140829Y283334D01*
Y281668D01*
X139163Y280002D01*
X135831D01*
X134164Y281668D01*
X104171Y17498D02*
Y10834D01*
X107503Y7502D01*
X110836Y10834D01*
Y17498D01*
X114168D02*
X120832D01*
X117500D01*
Y7502D01*
X130829D02*
X124164D01*
X130829Y14166D01*
Y15832D01*
X129163Y17498D01*
X125831D01*
X124164Y15832D01*
X178337Y17498D02*
Y10834D01*
X181669Y7502D01*
X185002Y10834D01*
Y17498D01*
X188334D02*
X194998D01*
X191666D01*
Y7502D01*
X198331D02*
X201663D01*
X199997D01*
Y17498D01*
X198331Y15832D01*
X22421Y189498D02*
Y182834D01*
X25753Y179502D01*
X29086Y182834D01*
Y189498D01*
X32418D02*
Y179502D01*
X37416D01*
X39082Y181168D01*
Y187832D01*
X37416Y189498D01*
X32418D01*
X49079Y179502D02*
X42414D01*
X49079Y186166D01*
Y187832D01*
X47413Y189498D01*
X44081D01*
X42414Y187832D01*
X28337Y77498D02*
Y70834D01*
X31669Y67502D01*
X35002Y70834D01*
Y77498D01*
X38334D02*
Y67502D01*
X43332D01*
X44998Y69168D01*
Y75832D01*
X43332Y77498D01*
X38334D01*
X48331Y67502D02*
X51663D01*
X49997D01*
Y77498D01*
X48331Y75832D01*
X205835Y164248D02*
Y155918D01*
X207502Y154252D01*
X210834D01*
X212500Y155918D01*
Y164248D01*
X215832Y154252D02*
X219165D01*
X217498D01*
Y164248D01*
X215832Y162582D01*
X58504Y182752D02*
Y192748D01*
X63502D01*
X65169Y191082D01*
Y187750D01*
X63502Y186084D01*
X58504D01*
X61836D02*
X65169Y182752D01*
X68501D02*
X71833D01*
X70167D01*
Y192748D01*
X68501Y191082D01*
X76831D02*
X78498Y192748D01*
X81830D01*
X83496Y191082D01*
Y184418D01*
X81830Y182752D01*
X78498D01*
X76831Y184418D01*
Y191082D01*
X126669Y202502D02*
Y212498D01*
X131668D01*
X133334Y210832D01*
Y207500D01*
X131668Y205834D01*
X126669D01*
X130002D02*
X133334Y202502D01*
X136666Y204168D02*
X138332Y202502D01*
X141664D01*
X143331Y204168D01*
Y210832D01*
X141664Y212498D01*
X138332D01*
X136666Y210832D01*
Y209166D01*
X138332Y207500D01*
X143331D01*
X156669Y202502D02*
Y212498D01*
X161668D01*
X163334Y210832D01*
Y207500D01*
X161668Y205834D01*
X156669D01*
X160002D02*
X163334Y202502D01*
X173331Y212498D02*
X169998Y210832D01*
X166666Y207500D01*
Y204168D01*
X168332Y202502D01*
X171665D01*
X173331Y204168D01*
Y205834D01*
X171665Y207500D01*
X166666D01*
X91669Y117502D02*
Y127498D01*
X96668D01*
X98334Y125832D01*
Y122500D01*
X96668Y120834D01*
X91669D01*
X95002D02*
X98334Y117502D01*
X108331Y127498D02*
X101666D01*
Y122500D01*
X104998Y124166D01*
X106664D01*
X108331Y122500D01*
Y119168D01*
X106664Y117502D01*
X103332D01*
X101666Y119168D01*
X84321Y84860D02*
Y94856D01*
X89320D01*
X90986Y93190D01*
Y89858D01*
X89320Y88192D01*
X84321D01*
X87654D02*
X90986Y84860D01*
X99316D02*
Y94856D01*
X94318Y89858D01*
X100983D01*
X141669Y82502D02*
Y92498D01*
X146668D01*
X148334Y90832D01*
Y87500D01*
X146668Y85834D01*
X141669D01*
X145002D02*
X148334Y82502D01*
X151666Y90832D02*
X153332Y92498D01*
X156664D01*
X158331Y90832D01*
Y89166D01*
X156664Y87500D01*
X154998D01*
X156664D01*
X158331Y85834D01*
Y84168D01*
X156664Y82502D01*
X153332D01*
X151666Y84168D01*
X188335Y105002D02*
Y114998D01*
X193334D01*
X195000Y113332D01*
Y110000D01*
X193334Y108334D01*
X188335D01*
X191668D02*
X195000Y105002D01*
X198332D02*
X201665D01*
X199998D01*
Y114998D01*
X198332Y113332D01*
X292498Y168331D02*
X282502D01*
Y161666D01*
X290832Y158334D02*
X292498Y156668D01*
Y153335D01*
X290832Y151669D01*
X289166D01*
X287500Y153335D01*
X285834Y151669D01*
X284168D01*
X282502Y153335D01*
Y156668D01*
X284168Y158334D01*
X285834D01*
X287500Y156668D01*
X289166Y158334D01*
X290832D01*
X287500Y156668D02*
Y153335D01*
X274998Y168331D02*
X265002D01*
Y161666D01*
X274998Y158334D02*
Y151669D01*
X273332D01*
X266668Y158334D01*
X265002D01*
X257499Y221381D02*
X247502D01*
Y214716D01*
X257499Y204719D02*
X255833Y208051D01*
X252500Y211384D01*
X249168D01*
X247502Y209718D01*
Y206385D01*
X249168Y204719D01*
X250834D01*
X252500Y206385D01*
Y211384D01*
X239999Y221381D02*
X230002D01*
Y214716D01*
X239999Y204719D02*
Y211384D01*
X235000D01*
X236666Y208051D01*
Y206385D01*
X235000Y204719D01*
X231668D01*
X230002Y206385D01*
Y209718D01*
X231668Y211384D01*
X227502Y123619D02*
X237498D01*
Y130284D01*
Y138615D02*
X227502D01*
X232500Y133616D01*
Y140281D01*
X245002Y123619D02*
X254998D01*
Y130284D01*
X246668Y133616D02*
X245002Y135282D01*
Y138615D01*
X246668Y140281D01*
X248334D01*
X250000Y138615D01*
Y136948D01*
Y138615D01*
X251666Y140281D01*
X253332D01*
X254998Y138615D01*
Y135282D01*
X253332Y133616D01*
X265002Y124169D02*
X274998D01*
Y130834D01*
Y140831D02*
Y134166D01*
X268334Y140831D01*
X266668D01*
X265002Y139164D01*
Y135832D01*
X266668Y134166D01*
X279562Y123776D02*
X289559D01*
Y130440D01*
Y133772D02*
Y137105D01*
Y135439D01*
X279562D01*
X281228Y133772D01*
X246084Y271332D02*
X244418Y272998D01*
X241085D01*
X239419Y271332D01*
Y264668D01*
X241085Y263002D01*
X244418D01*
X246084Y264668D01*
X249416D02*
X251082Y263002D01*
X254415D01*
X256081Y264668D01*
Y271332D01*
X254415Y272998D01*
X251082D01*
X249416Y271332D01*
Y269666D01*
X251082Y268000D01*
X256081D01*
X73334Y268332D02*
X71668Y269998D01*
X68335D01*
X66669Y268332D01*
Y261668D01*
X68335Y260002D01*
X71668D01*
X73334Y261668D01*
X76666Y268332D02*
X78332Y269998D01*
X81664D01*
X83331Y268332D01*
Y266666D01*
X81664Y265000D01*
X83331Y263334D01*
Y261668D01*
X81664Y260002D01*
X78332D01*
X76666Y261668D01*
Y263334D01*
X78332Y265000D01*
X76666Y266666D01*
Y268332D01*
X78332Y265000D02*
X81664D01*
X44447Y41541D02*
X42780Y43207D01*
X39448D01*
X37782Y41541D01*
Y34876D01*
X39448Y33210D01*
X42780D01*
X44447Y34876D01*
X47779Y43207D02*
X54443D01*
Y41541D01*
X47779Y34876D01*
Y33210D01*
X238750Y34832D02*
X237084Y36498D01*
X233752D01*
X232085Y34832D01*
Y28168D01*
X233752Y26502D01*
X237084D01*
X238750Y28168D01*
X242082Y26502D02*
X245415D01*
X243748D01*
Y36498D01*
X242082Y34832D01*
D15*
X262500Y175050D02*
X277500D01*
Y201050D01*
X262500D02*
X277500D01*
X262500Y175050D02*
Y201050D01*
X157000Y167350D02*
X163500D01*
X157000Y160850D02*
Y167350D01*
X191500D02*
X198000D01*
Y160850D02*
Y167350D01*
Y126350D02*
Y132850D01*
X191500Y126350D02*
X198000D01*
X157000D02*
Y132850D01*
Y126350D02*
X163500D01*
X227500Y175050D02*
X242500D01*
Y201050D01*
X227500D02*
X242500D01*
X227500Y175050D02*
Y201050D01*
X240000Y93950D02*
Y119950D01*
X225000Y93950D02*
X240000D01*
X225000D02*
Y119950D01*
X240000D01*
X257500Y93950D02*
Y119950D01*
X242500Y93950D02*
X257500D01*
X242500D02*
Y119950D01*
X257500D01*
X245000Y175050D02*
Y201050D01*
X260000D01*
Y175050D02*
Y201050D01*
X245000Y175050D02*
X260000D01*
X275000Y93950D02*
Y119950D01*
X260000Y93950D02*
X275000D01*
X260000D02*
Y119950D01*
X275000D01*
X292500Y93950D02*
Y119950D01*
X277500Y93950D02*
X292500D01*
X277500D02*
Y119950D01*
X292500D01*
X280000Y175050D02*
Y201050D01*
X295000D01*
Y175050D02*
Y201050D01*
X280000Y175050D02*
X295000D01*
M02*
