G04*
G04 #@! TF.GenerationSoftware,Altium Limited,Altium Designer,20.0.12 (288)*
G04*
G04 Layer_Physical_Order=2*
G04 Layer_Color=16711680*
%FSLAX44Y44*%
%MOMM*%
G71*
G01*
G75*
%ADD10C,0.2000*%
%ADD11C,0.2500*%
%ADD32R,0.9000X1.0500*%
%ADD39R,0.8000X0.9500*%
%ADD43C,1.0000*%
%ADD44C,0.3000*%
%ADD47R,2.7000X2.7000*%
%ADD48C,2.7000*%
%ADD49C,0.7500*%
%ADD50C,0.6000*%
%ADD51R,0.9500X0.8000*%
%ADD52R,1.0000X1.4000*%
%ADD53R,1.0500X0.9000*%
G36*
X295000Y5000D02*
X5000D01*
Y295000D01*
X103803D01*
X104410Y293000D01*
X102965Y292035D01*
X101575Y289954D01*
X101485Y289500D01*
X113515D01*
X113425Y289954D01*
X112035Y292035D01*
X110590Y293000D01*
X111197Y295000D01*
X153732D01*
X153929Y293000D01*
X152296Y292675D01*
X150215Y291285D01*
X148825Y289204D01*
X148735Y288750D01*
X160765D01*
X160675Y289204D01*
X159285Y291285D01*
X157204Y292675D01*
X155571Y293000D01*
X155768Y295000D01*
X295000D01*
Y5000D01*
D02*
G37*
%LPC*%
G36*
X217000Y291015D02*
Y287000D01*
X221015D01*
X220925Y287454D01*
X219535Y289535D01*
X217454Y290925D01*
X217000Y291015D01*
D02*
G37*
G36*
X213000D02*
X212546Y290925D01*
X210465Y289535D01*
X209075Y287454D01*
X208985Y287000D01*
X213000D01*
Y291015D01*
D02*
G37*
G36*
X221015Y283000D02*
X217000D01*
Y278985D01*
X217454Y279075D01*
X219535Y280465D01*
X220925Y282546D01*
X221015Y283000D01*
D02*
G37*
G36*
X213000D02*
X208985D01*
X209075Y282546D01*
X210465Y280465D01*
X212546Y279075D01*
X213000Y278985D01*
Y283000D01*
D02*
G37*
G36*
X291000Y291000D02*
X259000D01*
Y259000D01*
X291000D01*
Y291000D01*
D02*
G37*
G36*
X86540Y244540D02*
X81250D01*
Y240000D01*
X86540D01*
Y244540D01*
D02*
G37*
G36*
X77250D02*
X71960D01*
Y240000D01*
X77250D01*
Y244540D01*
D02*
G37*
G36*
X134500Y233515D02*
Y229500D01*
X138515D01*
X138425Y229954D01*
X137035Y232035D01*
X134954Y233425D01*
X134500Y233515D01*
D02*
G37*
G36*
X130500D02*
X130046Y233425D01*
X127965Y232035D01*
X126575Y229954D01*
X126485Y229500D01*
X130500D01*
Y233515D01*
D02*
G37*
G36*
X27000Y240921D02*
Y227000D01*
X40921D01*
X40808Y228144D01*
X39891Y231168D01*
X38401Y233955D01*
X36397Y236397D01*
X33955Y238401D01*
X31168Y239891D01*
X28144Y240808D01*
X27000Y240921D01*
D02*
G37*
G36*
X277000D02*
Y227000D01*
X290921D01*
X290808Y228144D01*
X289891Y231168D01*
X288401Y233955D01*
X286397Y236397D01*
X283955Y238401D01*
X281168Y239891D01*
X278144Y240808D01*
X277000Y240921D01*
D02*
G37*
G36*
X23000D02*
X21856Y240808D01*
X18832Y239891D01*
X16046Y238401D01*
X13603Y236397D01*
X11599Y233955D01*
X10109Y231168D01*
X9192Y228144D01*
X9079Y227000D01*
X23000D01*
Y240921D01*
D02*
G37*
G36*
X138515Y225500D02*
X134500D01*
Y221485D01*
X134954Y221575D01*
X137035Y222965D01*
X138425Y225046D01*
X138515Y225500D01*
D02*
G37*
G36*
X130500D02*
X126485D01*
X126575Y225046D01*
X127965Y222965D01*
X130046Y221575D01*
X130500Y221485D01*
Y225500D01*
D02*
G37*
G36*
X41000Y291000D02*
X9000D01*
Y259000D01*
X41000D01*
Y264979D01*
X41043Y265383D01*
X41137Y265648D01*
X41294Y265884D01*
X41588Y266156D01*
X42098Y266467D01*
X42865Y266779D01*
X43895Y267056D01*
X45180Y267269D01*
X46709Y267404D01*
X47902Y267435D01*
X194367D01*
X242435Y219367D01*
Y212878D01*
X240435Y212050D01*
X202493Y249992D01*
X201030Y251115D01*
X199327Y251820D01*
X197500Y252060D01*
X122351D01*
X120523Y251820D01*
X118820Y251115D01*
X117358Y249992D01*
X92560Y225194D01*
X90561Y225618D01*
X90332Y225795D01*
X89215Y227465D01*
X87396Y228681D01*
X86500Y228859D01*
Y231460D01*
X86540D01*
Y236000D01*
X79250D01*
X71960D01*
Y231460D01*
X72000D01*
Y218500D01*
X82833D01*
X82956Y218418D01*
X83132Y218189D01*
X83556Y216190D01*
X70008Y202642D01*
X68885Y201180D01*
X68180Y199477D01*
X67940Y197649D01*
Y183486D01*
X66517Y182080D01*
X62000Y182133D01*
Y182250D01*
X60018D01*
X59974Y182259D01*
X59972Y182258D01*
X59970Y182259D01*
X59926Y182250D01*
X49000D01*
Y177599D01*
X48680Y176827D01*
X48594Y176170D01*
X48540Y175763D01*
X46540Y175894D01*
Y182790D01*
X41500D01*
Y175000D01*
Y167210D01*
X46540D01*
Y174106D01*
X48540Y174237D01*
X48594Y173829D01*
X48680Y173173D01*
X49000Y172400D01*
Y167750D01*
X59926D01*
X59970Y167741D01*
X59992Y167746D01*
X60014Y167742D01*
X60389Y167750D01*
X62000D01*
Y167785D01*
X69026Y167939D01*
X75000D01*
X76827Y168180D01*
X78530Y168885D01*
X79992Y170007D01*
X81115Y171470D01*
X81820Y173173D01*
X82060Y175000D01*
Y182964D01*
X84060Y183571D01*
X84465Y182965D01*
X86546Y181575D01*
X87000Y181485D01*
Y187500D01*
Y193515D01*
X86546Y193425D01*
X84465Y192035D01*
X84060Y191429D01*
X82060Y192036D01*
Y194725D01*
X98152Y210817D01*
X100000Y210051D01*
Y202250D01*
X100301D01*
X101942Y200250D01*
X101892Y200000D01*
X102319Y197854D01*
X103535Y196035D01*
X105354Y194819D01*
X107500Y194392D01*
X109646Y194819D01*
X111465Y196035D01*
X112681Y197854D01*
X113108Y200000D01*
X113058Y200250D01*
X114000Y202250D01*
X114000D01*
Y217750D01*
X107698D01*
X106933Y219598D01*
X125275Y237940D01*
X194576D01*
X228158Y204357D01*
X228085Y203990D01*
X225915Y203331D01*
X225292Y203954D01*
X224052Y204782D01*
X222589Y205073D01*
X216750D01*
X215287Y204782D01*
X214046Y203954D01*
X212598Y202505D01*
X210204Y202489D01*
X208739Y203954D01*
X207499Y204782D01*
X206035Y205073D01*
X205500D01*
Y221500D01*
X198759D01*
X198511Y222745D01*
X197682Y223986D01*
X190851Y230817D01*
X190751Y230937D01*
X190692Y231020D01*
X190631Y231116D01*
X190585Y231199D01*
X190552Y231269D01*
X190529Y231327D01*
X190514Y231374D01*
X190484Y231506D01*
X190397Y231696D01*
X190237Y232500D01*
X189022Y234320D01*
X187202Y235535D01*
X185056Y235962D01*
X182910Y235535D01*
X181091Y234320D01*
X180293Y233125D01*
X154301D01*
X152838Y232834D01*
X151598Y232005D01*
X137546Y217954D01*
X137076Y217250D01*
X131000D01*
X130000Y217750D01*
Y217750D01*
X116000D01*
Y202250D01*
X130000D01*
Y202250D01*
X131000Y202750D01*
X157000D01*
Y217250D01*
X157000D01*
X156927Y217426D01*
X158263Y219427D01*
X175445D01*
X176051Y217427D01*
X175465Y217035D01*
X174075Y214954D01*
X173985Y214500D01*
X180000D01*
Y212500D01*
X182000D01*
Y206485D01*
X182454Y206575D01*
X183426Y207225D01*
X185427Y206156D01*
Y203447D01*
X185718Y201984D01*
X186041Y201500D01*
X185081Y199500D01*
X181000D01*
Y180500D01*
X189774D01*
X191151Y178500D01*
X191028Y177565D01*
Y171762D01*
X188858Y169593D01*
X186562Y167474D01*
X184587Y165860D01*
X183801Y165302D01*
X183133Y164890D01*
X182625Y164636D01*
X182327Y164534D01*
X182078Y164500D01*
X180250D01*
Y162334D01*
X180247Y162312D01*
X180250Y162302D01*
Y153898D01*
X179500Y153317D01*
Y146850D01*
X175500D01*
Y153317D01*
X174750Y153898D01*
Y164000D01*
X171323D01*
Y165000D01*
X171032Y166463D01*
X170204Y167704D01*
X169095Y168812D01*
X169059Y168861D01*
X169011Y168935D01*
X168996Y168963D01*
X168575Y171081D01*
X167359Y172901D01*
X165540Y174116D01*
X163394Y174543D01*
X161248Y174116D01*
X159775Y173132D01*
X158464Y173690D01*
X157933Y174124D01*
X158107Y175000D01*
X157681Y177146D01*
X156465Y178965D01*
X154646Y180180D01*
X152500Y180607D01*
X150354Y180180D01*
X148534Y178965D01*
X148532Y178961D01*
X148239Y178528D01*
X147500Y177750D01*
X133523D01*
X131540Y177790D01*
X131517Y177790D01*
X126500D01*
Y170000D01*
Y162210D01*
X131517D01*
X131540Y162210D01*
X133523Y162250D01*
X135780D01*
X136535Y160838D01*
X136665Y160250D01*
X136280Y158316D01*
X135816Y157750D01*
X133500D01*
Y157750D01*
X131540Y157790D01*
Y157790D01*
X131517Y157790D01*
X126500D01*
Y150000D01*
X122500D01*
Y157790D01*
X117460D01*
Y157790D01*
X115856Y157126D01*
X114890Y158091D01*
X113650Y158920D01*
X112187Y159211D01*
X106181D01*
X104718Y158920D01*
X103477Y158091D01*
X98013Y152627D01*
X97821Y152460D01*
X97676Y152346D01*
X96034Y151250D01*
X94819Y149430D01*
X94392Y147284D01*
X94819Y145138D01*
X96034Y143319D01*
X97854Y142103D01*
X100000Y141677D01*
X102146Y142103D01*
X103965Y143319D01*
X103970Y143326D01*
X104080Y143401D01*
X106030Y142809D01*
Y142522D01*
X106321Y141059D01*
X107150Y139819D01*
X113922Y133046D01*
X115163Y132218D01*
X116626Y131927D01*
X135620D01*
X139036Y128511D01*
X139057Y128482D01*
X139085Y128435D01*
X139085Y128434D01*
X139083Y128376D01*
X139085Y128363D01*
X139008Y127974D01*
X139434Y125828D01*
X139635Y125528D01*
X139500Y125326D01*
Y119500D01*
X143515D01*
X143425Y119954D01*
X142955Y120657D01*
X144158Y122457D01*
X144615Y122366D01*
X146761Y122793D01*
X148581Y124009D01*
X149796Y125828D01*
X150223Y127974D01*
X149796Y130120D01*
X150602Y132514D01*
X150891Y132707D01*
X152106Y134526D01*
X152533Y136672D01*
X152183Y138431D01*
X153337Y139382D01*
X153833Y139610D01*
X155345Y138097D01*
X155468Y137483D01*
X156296Y136243D01*
X158493Y134046D01*
X159733Y133217D01*
X160347Y133095D01*
X168646Y124796D01*
X169887Y123968D01*
X170595Y123827D01*
X170673Y121820D01*
X168970Y121115D01*
X167508Y119992D01*
X166385Y118530D01*
X166167Y118002D01*
X160225Y112060D01*
X143836D01*
X142767Y114060D01*
X143425Y115046D01*
X143515Y115500D01*
X137500D01*
Y117500D01*
X135500D01*
Y123515D01*
X135046Y123425D01*
X132965Y122035D01*
X131575Y119954D01*
X131373Y118940D01*
X129203Y118282D01*
X122493Y124992D01*
X121030Y126115D01*
X119327Y126820D01*
X117500Y127060D01*
X68186D01*
X62000Y127133D01*
Y127250D01*
X60017D01*
X59974Y127259D01*
X59971Y127258D01*
X59970Y127259D01*
X59926Y127250D01*
X49000D01*
Y122599D01*
X48680Y121827D01*
X48594Y121170D01*
X48540Y120762D01*
X46540Y120893D01*
Y127790D01*
X41500D01*
Y120000D01*
Y112210D01*
X46540D01*
Y119106D01*
X48540Y119237D01*
X48594Y118829D01*
X48680Y118172D01*
X49000Y117400D01*
Y112750D01*
X59926D01*
X59970Y112741D01*
X60280Y112234D01*
X60940Y110973D01*
Y76851D01*
X61180Y75023D01*
X61886Y73320D01*
X63008Y71858D01*
X70858Y64008D01*
X72321Y62885D01*
X74024Y62180D01*
X75851Y61940D01*
X120464D01*
X121071Y59940D01*
X120465Y59535D01*
X119075Y57454D01*
X118985Y57000D01*
X131015D01*
X130925Y57454D01*
X129535Y59535D01*
X128929Y59940D01*
X129536Y61940D01*
X210750D01*
X212577Y62180D01*
X214280Y62885D01*
X215742Y64008D01*
X221152Y69417D01*
X223058Y71241D01*
X225289Y73142D01*
X226231Y73849D01*
X227076Y74414D01*
X227797Y74825D01*
X228372Y75085D01*
X228769Y75205D01*
X228853Y75215D01*
X230839Y75250D01*
D01*
X231000Y75250D01*
X231003Y77123D01*
X231000Y77145D01*
X231000Y77250D01*
Y79901D01*
X231320Y80673D01*
X231406Y81330D01*
X231460Y81737D01*
X233460Y81606D01*
Y74710D01*
X238500D01*
Y82500D01*
Y90290D01*
X233460D01*
Y83394D01*
X231460Y83263D01*
X231406Y83671D01*
X231320Y84328D01*
X231000Y85100D01*
Y89750D01*
X220197D01*
X220188Y89753D01*
X220166Y89750D01*
X219647D01*
X218819Y91750D01*
X244089Y117020D01*
X244752Y118013D01*
X244985Y119183D01*
X244985Y119184D01*
Y143621D01*
X245004Y143714D01*
X245032Y143806D01*
X245068Y143898D01*
X245114Y143992D01*
X245173Y144091D01*
X245248Y144196D01*
X245316Y144278D01*
X245531Y144421D01*
X246636Y146075D01*
X247024Y148026D01*
X246932Y148488D01*
X247302Y149056D01*
X248648Y150113D01*
X250000Y149935D01*
X251958Y150193D01*
X253782Y150949D01*
X255349Y152151D01*
X256551Y153718D01*
X257307Y155542D01*
X257565Y157500D01*
Y220331D01*
X259565Y220627D01*
X260109Y218832D01*
X261599Y216045D01*
X263603Y213603D01*
X266045Y211599D01*
X268832Y210109D01*
X271856Y209192D01*
X273000Y209079D01*
Y225000D01*
Y240921D01*
X271856Y240808D01*
X268832Y239891D01*
X266045Y238401D01*
X263603Y236397D01*
X261599Y233955D01*
X260109Y231168D01*
X259192Y228144D01*
X258953Y225711D01*
X256913Y225409D01*
X256551Y226282D01*
X255349Y227849D01*
X202849Y280349D01*
X201282Y281551D01*
X199458Y282307D01*
X197500Y282565D01*
X161600D01*
X161127Y283449D01*
X160729Y284565D01*
X160765Y284750D01*
X148735D01*
X148771Y284565D01*
X148373Y283449D01*
X147900Y282565D01*
X114173D01*
X113104Y284565D01*
X113425Y285046D01*
X113515Y285500D01*
X101485D01*
X101575Y285046D01*
X101896Y284565D01*
X100827Y282565D01*
X47902D01*
X46709Y282596D01*
X45180Y282731D01*
X43895Y282944D01*
X42865Y283221D01*
X42098Y283533D01*
X41588Y283844D01*
X41294Y284116D01*
X41137Y284352D01*
X41043Y284617D01*
X41000Y285021D01*
Y291000D01*
D02*
G37*
G36*
X290921Y223000D02*
X277000D01*
Y209079D01*
X278144Y209192D01*
X281168Y210109D01*
X283955Y211599D01*
X286397Y213603D01*
X288401Y216045D01*
X289891Y218832D01*
X290808Y221856D01*
X290921Y223000D01*
D02*
G37*
G36*
X40921D02*
X27000D01*
Y209079D01*
X28144Y209192D01*
X31168Y210109D01*
X33955Y211599D01*
X36397Y213603D01*
X38401Y216045D01*
X39891Y218832D01*
X40808Y221856D01*
X40921Y223000D01*
D02*
G37*
G36*
X23000D02*
X9079D01*
X9192Y221856D01*
X10109Y218832D01*
X11599Y216045D01*
X13603Y213603D01*
X16046Y211599D01*
X18832Y210109D01*
X21856Y209192D01*
X23000Y209079D01*
Y223000D01*
D02*
G37*
G36*
X178000Y210500D02*
X173985D01*
X174075Y210046D01*
X175465Y207965D01*
X177546Y206575D01*
X178000Y206485D01*
Y210500D01*
D02*
G37*
G36*
X91000Y193515D02*
Y189500D01*
X95015D01*
X94925Y189954D01*
X93535Y192035D01*
X91454Y193425D01*
X91000Y193515D01*
D02*
G37*
G36*
X95015Y185500D02*
X91000D01*
Y181485D01*
X91454Y181575D01*
X93535Y182965D01*
X94925Y185046D01*
X95015Y185500D01*
D02*
G37*
G36*
X37500Y182790D02*
X32460D01*
Y177000D01*
X37500D01*
Y182790D01*
D02*
G37*
G36*
X122500Y177790D02*
X117460D01*
Y172000D01*
X122500D01*
Y177790D01*
D02*
G37*
G36*
X37500Y173000D02*
X32460D01*
Y167210D01*
X37500D01*
Y173000D01*
D02*
G37*
G36*
X122500Y168000D02*
X117460D01*
Y162210D01*
X122500D01*
Y168000D01*
D02*
G37*
G36*
X32000Y136015D02*
Y132000D01*
X36015D01*
X35925Y132454D01*
X34535Y134535D01*
X32454Y135925D01*
X32000Y136015D01*
D02*
G37*
G36*
X28000D02*
X27546Y135925D01*
X25465Y134535D01*
X24075Y132454D01*
X23985Y132000D01*
X28000D01*
Y136015D01*
D02*
G37*
G36*
X264500Y133515D02*
Y129500D01*
X268515D01*
X268425Y129954D01*
X267035Y132035D01*
X264954Y133425D01*
X264500Y133515D01*
D02*
G37*
G36*
X260500D02*
X260046Y133425D01*
X257965Y132035D01*
X256575Y129954D01*
X256485Y129500D01*
X260500D01*
Y133515D01*
D02*
G37*
G36*
X28000Y128000D02*
X23985D01*
X24075Y127546D01*
X25465Y125465D01*
X27546Y124075D01*
X28000Y123985D01*
Y128000D01*
D02*
G37*
G36*
X37377D02*
X32000D01*
Y122414D01*
X32460Y122037D01*
Y122000D01*
X37500D01*
Y127851D01*
X37377Y128000D01*
D02*
G37*
G36*
X268515Y125500D02*
X264500D01*
Y121485D01*
X264954Y121575D01*
X267035Y122965D01*
X268425Y125046D01*
X268515Y125500D01*
D02*
G37*
G36*
X260500D02*
X256485D01*
X256575Y125046D01*
X257965Y122965D01*
X260046Y121575D01*
X260500Y121485D01*
Y125500D01*
D02*
G37*
G36*
X37500Y118000D02*
X32460D01*
Y112210D01*
X37500D01*
Y118000D01*
D02*
G37*
G36*
X247540Y90290D02*
X242500D01*
Y84500D01*
X247540D01*
Y90290D01*
D02*
G37*
G36*
X277500Y90921D02*
Y77000D01*
X291421D01*
X291308Y78144D01*
X290391Y81168D01*
X288901Y83954D01*
X286897Y86397D01*
X284454Y88401D01*
X281668Y89891D01*
X278644Y90808D01*
X277500Y90921D01*
D02*
G37*
G36*
X273500D02*
X272356Y90808D01*
X269332Y89891D01*
X266546Y88401D01*
X264103Y86397D01*
X262099Y83954D01*
X260609Y81168D01*
X259692Y78144D01*
X259579Y77000D01*
X273500D01*
Y90921D01*
D02*
G37*
G36*
X247540Y80500D02*
X242500D01*
Y74710D01*
X247540D01*
Y80500D01*
D02*
G37*
G36*
X273500Y73000D02*
X259579D01*
X259692Y71856D01*
X260609Y68832D01*
X262099Y66045D01*
X264103Y63603D01*
X266546Y61599D01*
X269332Y60109D01*
X272356Y59192D01*
X273500Y59079D01*
Y73000D01*
D02*
G37*
G36*
X291421D02*
X277500D01*
Y59079D01*
X278644Y59192D01*
X281668Y60109D01*
X284454Y61599D01*
X286897Y63603D01*
X288901Y66045D01*
X290391Y68832D01*
X291308Y71856D01*
X291421Y73000D01*
D02*
G37*
G36*
X131015Y53000D02*
X127000D01*
Y48985D01*
X127454Y49075D01*
X129535Y50465D01*
X130925Y52546D01*
X131015Y53000D01*
D02*
G37*
G36*
X123000D02*
X118985D01*
X119075Y52546D01*
X120465Y50465D01*
X122546Y49075D01*
X123000Y48985D01*
Y53000D01*
D02*
G37*
G36*
X212000Y21015D02*
Y17000D01*
X216015D01*
X215925Y17454D01*
X214535Y19535D01*
X212454Y20925D01*
X212000Y21015D01*
D02*
G37*
G36*
X208000D02*
X207546Y20925D01*
X205465Y19535D01*
X204075Y17454D01*
X203985Y17000D01*
X208000D01*
Y21015D01*
D02*
G37*
G36*
X87000D02*
Y17000D01*
X91015D01*
X90925Y17454D01*
X89535Y19535D01*
X87454Y20925D01*
X87000Y21015D01*
D02*
G37*
G36*
X83000D02*
X82546Y20925D01*
X80465Y19535D01*
X79075Y17454D01*
X78985Y17000D01*
X83000D01*
Y21015D01*
D02*
G37*
G36*
X291500Y41000D02*
X259500D01*
Y9000D01*
X291500D01*
Y41000D01*
D02*
G37*
G36*
X216015Y13000D02*
X212000D01*
Y8985D01*
X212454Y9075D01*
X214535Y10465D01*
X215925Y12546D01*
X216015Y13000D01*
D02*
G37*
G36*
X208000D02*
X203985D01*
X204075Y12546D01*
X205465Y10465D01*
X207546Y9075D01*
X208000Y8985D01*
Y13000D01*
D02*
G37*
G36*
X91015D02*
X87000D01*
Y8985D01*
X87454Y9075D01*
X89535Y10465D01*
X90925Y12546D01*
X91015Y13000D01*
D02*
G37*
G36*
X83000D02*
X78985D01*
X79075Y12546D01*
X80465Y10465D01*
X82546Y9075D01*
X83000Y8985D01*
Y13000D01*
D02*
G37*
%LPD*%
G36*
X38539Y284050D02*
X38840Y283200D01*
X39342Y282450D01*
X40044Y281800D01*
X40947Y281250D01*
X42050Y280800D01*
X43354Y280450D01*
X44859Y280200D01*
X46564Y280050D01*
X48470Y280000D01*
Y270000D01*
X46564Y269950D01*
X44859Y269800D01*
X43354Y269550D01*
X42050Y269200D01*
X40947Y268750D01*
X40044Y268200D01*
X39342Y267550D01*
X38840Y266800D01*
X38539Y265950D01*
X38439Y265000D01*
Y285000D01*
X38539Y284050D01*
D02*
G37*
G36*
X188053Y230703D02*
X188123Y230481D01*
X188210Y230259D01*
X188314Y230038D01*
X188436Y229817D01*
X188576Y229597D01*
X188732Y229377D01*
X189098Y228939D01*
X189307Y228721D01*
X187941Y226552D01*
X187718Y226761D01*
X187495Y226943D01*
X187270Y227098D01*
X187046Y227226D01*
X186821Y227327D01*
X186595Y227400D01*
X186369Y227446D01*
X186142Y227465D01*
X185915Y227457D01*
X185687Y227421D01*
X188001Y230926D01*
X188053Y230703D01*
D02*
G37*
G36*
X83952Y224775D02*
X83991Y224769D01*
X84057Y224765D01*
X85001Y224750D01*
X85250Y224750D01*
Y222250D01*
X83939Y222220D01*
Y224781D01*
X83952Y224775D01*
D02*
G37*
G36*
X82813Y221750D02*
X82728Y221845D01*
X82616Y221930D01*
X82477Y222005D01*
X82311Y222070D01*
X82118Y222125D01*
X81898Y222170D01*
X81651Y222205D01*
X81077Y222245D01*
X80750Y222250D01*
Y224750D01*
X81077Y224755D01*
X81651Y224795D01*
X81898Y224830D01*
X82118Y224875D01*
X82311Y224930D01*
X82477Y224995D01*
X82616Y225070D01*
X82728Y225155D01*
X82813Y225250D01*
Y221750D01*
D02*
G37*
G36*
X196239Y220843D02*
X196271Y220450D01*
X196324Y220103D01*
X196399Y219802D01*
X196495Y219548D01*
X196611Y219340D01*
X196749Y219178D01*
X196909Y219062D01*
X197090Y218993D01*
X197291Y218969D01*
X193030D01*
X193163Y218993D01*
X193282Y219062D01*
X193387Y219178D01*
X193477Y219340D01*
X193554Y219548D01*
X193617Y219802D01*
X193666Y220103D01*
X193701Y220450D01*
X193729Y221282D01*
X196229D01*
X196239Y220843D01*
D02*
G37*
G36*
X151762Y216739D02*
X151800Y216309D01*
X151862Y215929D01*
X151950Y215600D01*
X152062Y215322D01*
X152200Y215094D01*
X152362Y214917D01*
X152550Y214790D01*
X152762Y214714D01*
X153000Y214689D01*
X148000D01*
X148237Y214714D01*
X148450Y214790D01*
X148637Y214917D01*
X148800Y215094D01*
X148937Y215322D01*
X149050Y215600D01*
X149137Y215929D01*
X149200Y216309D01*
X149237Y216739D01*
X149250Y217220D01*
X151750D01*
X151762Y216739D01*
D02*
G37*
G36*
X133561Y207500D02*
X133536Y207738D01*
X133460Y207950D01*
X133333Y208137D01*
X133156Y208300D01*
X132928Y208438D01*
X132650Y208550D01*
X132321Y208638D01*
X131941Y208700D01*
X131511Y208738D01*
X131031Y208750D01*
Y211250D01*
X131511Y211262D01*
X131941Y211300D01*
X132321Y211362D01*
X132650Y211450D01*
X132928Y211562D01*
X133156Y211700D01*
X133333Y211863D01*
X133460Y212050D01*
X133536Y212262D01*
X133561Y212500D01*
Y207500D01*
D02*
G37*
G36*
X127494Y212262D02*
X127570Y212050D01*
X127695Y211863D01*
X127870Y211700D01*
X128095Y211562D01*
X128370Y211450D01*
X128694Y211362D01*
X129069Y211300D01*
X129494Y211262D01*
X129970Y211250D01*
Y208750D01*
X129494Y208738D01*
X129069Y208700D01*
X128694Y208638D01*
X128370Y208550D01*
X128095Y208438D01*
X127870Y208300D01*
X127695Y208137D01*
X127570Y207950D01*
X127494Y207738D01*
X127470Y207500D01*
Y212500D01*
X127494Y212262D01*
D02*
G37*
G36*
X110215Y204781D02*
X109960Y204690D01*
X109735Y204538D01*
X109540Y204326D01*
X109375Y204053D01*
X109240Y203720D01*
X109135Y203326D01*
X109110Y203175D01*
X109150Y203000D01*
X109216Y202786D01*
X109294Y202593D01*
X109384Y202421D01*
X109486Y202271D01*
X109600Y202142D01*
X109009D01*
X109000Y201780D01*
X106000D01*
X105990Y202142D01*
X105400D01*
X105514Y202271D01*
X105616Y202421D01*
X105706Y202593D01*
X105784Y202786D01*
X105850Y203000D01*
X105890Y203175D01*
X105865Y203326D01*
X105760Y203720D01*
X105625Y204053D01*
X105460Y204326D01*
X105265Y204538D01*
X105040Y204690D01*
X104785Y204781D01*
X104500Y204811D01*
X110500D01*
X110215Y204781D01*
D02*
G37*
G36*
X208762Y198995D02*
X208800Y198570D01*
X208862Y198195D01*
X208950Y197869D01*
X209062Y197595D01*
X209200Y197369D01*
X209363Y197194D01*
X209550Y197069D01*
X209762Y196994D01*
X210000Y196970D01*
X208934D01*
X209128Y196828D01*
X209358Y196757D01*
X209623D01*
X209924Y196828D01*
X210260Y196970D01*
X210631Y197182D01*
X211038Y197465D01*
X211480Y197818D01*
X212470Y198737D01*
X214237Y196970D01*
X213742Y196457D01*
X212964Y195538D01*
X212682Y195131D01*
X212470Y194760D01*
X212328Y194424D01*
X212257Y194123D01*
Y193858D01*
X212328Y193628D01*
X212470Y193434D01*
X208934Y196970D01*
X205000D01*
X205238Y196994D01*
X205450Y197069D01*
X205637Y197194D01*
X205800Y197369D01*
X205938Y197595D01*
X206050Y197869D01*
X206138Y198195D01*
X206200Y198570D01*
X206238Y198995D01*
X206250Y199470D01*
X208750D01*
X208762Y198995D01*
D02*
G37*
G36*
X222736Y193732D02*
X222686Y193526D01*
X222643Y193281D01*
X222573Y192674D01*
X222526Y191911D01*
X222500Y190473D01*
X220000Y190200D01*
X219990Y190510D01*
X219959Y190795D01*
X219909Y191055D01*
X219837Y191290D01*
X219746Y191500D01*
X219634Y191685D01*
X219502Y191846D01*
X219350Y191981D01*
X219177Y192092D01*
X218984Y192177D01*
X222791Y193900D01*
X222736Y193732D01*
D02*
G37*
G36*
X227696Y177137D02*
X227721Y176848D01*
X227764Y176574D01*
X227823Y176313D01*
X227900Y176068D01*
X227993Y175837D01*
X228104Y175620D01*
X228231Y175417D01*
X228376Y175229D01*
X228537Y175055D01*
X224337D01*
X224499Y175229D01*
X224643Y175417D01*
X224771Y175620D01*
X224881Y175837D01*
X224975Y176068D01*
X225051Y176313D01*
X225111Y176574D01*
X225153Y176848D01*
X225179Y177137D01*
X225187Y177440D01*
X227687D01*
X227696Y177137D01*
D02*
G37*
G36*
X219206Y174218D02*
X216647Y174626D01*
X216661Y174642D01*
X216674Y174681D01*
X216686Y174743D01*
X216696Y174828D01*
X216716Y175222D01*
X216723Y175823D01*
X219223D01*
X219206Y174218D01*
D02*
G37*
G36*
X152470Y172000D02*
X152233Y171991D01*
X151997Y171960D01*
X151764Y171907D01*
X151532Y171832D01*
X151303Y171735D01*
X151075Y171615D01*
X150849Y171473D01*
X150625Y171309D01*
X150403Y171123D01*
X150182Y170915D01*
X148415Y172682D01*
X148623Y172903D01*
X148809Y173125D01*
X148973Y173349D01*
X149115Y173575D01*
X149235Y173803D01*
X149332Y174032D01*
X149407Y174264D01*
X149460Y174497D01*
X149491Y174732D01*
X149500Y174970D01*
X152470Y172000D01*
D02*
G37*
G36*
X60069Y180178D02*
X60370Y180140D01*
X60869Y180107D01*
X69970Y180000D01*
Y170000D01*
X59970Y169780D01*
Y180219D01*
X60069Y180178D01*
D02*
G37*
G36*
X144964Y172263D02*
X145040Y172050D01*
X145167Y171863D01*
X145344Y171700D01*
X145572Y171563D01*
X145850Y171450D01*
X146179Y171363D01*
X146559Y171300D01*
X146989Y171263D01*
X147470Y171250D01*
Y168750D01*
X146989Y168738D01*
X146559Y168700D01*
X146179Y168638D01*
X145850Y168550D01*
X145572Y168438D01*
X145344Y168300D01*
X145167Y168138D01*
X145040Y167950D01*
X144964Y167738D01*
X144939Y167500D01*
Y172500D01*
X144964Y172263D01*
D02*
G37*
G36*
X166410Y168790D02*
X166449Y168555D01*
X166509Y168323D01*
X166590Y168092D01*
X166693Y167863D01*
X166817Y167635D01*
X166961Y167410D01*
X167127Y167187D01*
X167314Y166965D01*
X167523Y166745D01*
X165833Y164899D01*
X165612Y165107D01*
X165390Y165292D01*
X165165Y165455D01*
X164939Y165593D01*
X164711Y165709D01*
X164481Y165802D01*
X164250Y165871D01*
X164016Y165917D01*
X163781Y165940D01*
X163545Y165939D01*
X166392Y169026D01*
X166410Y168790D01*
D02*
G37*
G36*
X168762Y163489D02*
X168800Y163058D01*
X168862Y162679D01*
X168950Y162350D01*
X169062Y162072D01*
X169200Y161844D01*
X169363Y161667D01*
X169550Y161540D01*
X169762Y161464D01*
X170000Y161439D01*
X165000D01*
X165238Y161464D01*
X165450Y161540D01*
X165637Y161667D01*
X165800Y161844D01*
X165938Y162072D01*
X166050Y162350D01*
X166138Y162679D01*
X166200Y163058D01*
X166238Y163489D01*
X166250Y163969D01*
X168750D01*
X168762Y163489D01*
D02*
G37*
G36*
X143151Y157239D02*
X143188Y156809D01*
X143251Y156429D01*
X143318Y156174D01*
X143988D01*
X143827Y156000D01*
X143682Y155812D01*
X143567Y155629D01*
X143588Y155594D01*
X143750Y155417D01*
X143938Y155290D01*
X144150Y155215D01*
X144388Y155189D01*
X143362D01*
X143350Y155161D01*
X143274Y154916D01*
X143215Y154655D01*
X143172Y154381D01*
X143146Y154092D01*
X143138Y153789D01*
X140638D01*
X140630Y154092D01*
X140604Y154381D01*
X140562Y154655D01*
X140502Y154916D01*
X140426Y155161D01*
X140414Y155189D01*
X139388D01*
X139626Y155215D01*
X139838Y155290D01*
X140026Y155417D01*
X140188Y155594D01*
X140209Y155629D01*
X140094Y155812D01*
X139950Y156000D01*
X139788Y156174D01*
X140458D01*
X140526Y156429D01*
X140588Y156809D01*
X140625Y157239D01*
X140638Y157720D01*
X143138D01*
X143151Y157239D01*
D02*
G37*
G36*
X199791Y163469D02*
X198447Y162097D01*
X195265Y158485D01*
X194487Y157449D01*
X193851Y156497D01*
X193356Y155629D01*
X193002Y154846D01*
X192790Y154146D01*
X192720Y153530D01*
X182281Y162469D01*
X182801Y162540D01*
X183416Y162752D01*
X184125Y163106D01*
X184928Y163601D01*
X185824Y164237D01*
X187900Y165934D01*
X190352Y168197D01*
X191720Y169540D01*
X199791Y163469D01*
D02*
G37*
G36*
X208365Y156757D02*
X209828Y155635D01*
X211530Y154930D01*
X213358Y154690D01*
X229417D01*
X231244Y154930D01*
X232947Y155635D01*
X234409Y156757D01*
X240435Y162783D01*
X242435Y161955D01*
Y157500D01*
X242693Y155542D01*
X242933Y154963D01*
X242523Y154214D01*
X241560Y153051D01*
X239975Y152736D01*
X238321Y151631D01*
X237216Y149977D01*
X236828Y148026D01*
X237216Y146075D01*
X238321Y144421D01*
X238536Y144278D01*
X238604Y144196D01*
X238679Y144091D01*
X238738Y143992D01*
X238784Y143898D01*
X238820Y143806D01*
X238848Y143714D01*
X238867Y143621D01*
Y120450D01*
X220848Y102431D01*
X219000Y103196D01*
Y114500D01*
X204428D01*
X203316Y116217D01*
X212012Y124913D01*
X212869Y124864D01*
X214177Y124544D01*
X214305Y124452D01*
X215465Y122715D01*
X217546Y121325D01*
X218000Y121235D01*
Y127250D01*
Y133265D01*
X217546Y133175D01*
X215823Y132024D01*
X214515Y132436D01*
X213823Y132910D01*
Y140807D01*
X213832Y140859D01*
X213849Y140935D01*
X213857Y140963D01*
X213965Y141035D01*
X215181Y142854D01*
X215608Y145000D01*
X215181Y147146D01*
X213965Y148965D01*
X212146Y150181D01*
X210000Y150608D01*
X207854Y150181D01*
X206035Y148965D01*
X204819Y147146D01*
X204392Y145000D01*
X204819Y142854D01*
X206035Y141035D01*
X206143Y140963D01*
X206151Y140935D01*
X206168Y140859D01*
X206177Y140807D01*
Y129891D01*
X197609Y121323D01*
X193965D01*
X192501Y121032D01*
X191261Y120204D01*
X189796Y118739D01*
X189790Y118729D01*
X188648Y118793D01*
X187595Y119044D01*
X186503Y120677D01*
X184671Y121902D01*
X184435Y121948D01*
X183756Y124123D01*
X184527Y124919D01*
X187498D01*
X187551Y124911D01*
X187626Y124894D01*
X187654Y124885D01*
X187726Y124777D01*
X189545Y123562D01*
X191691Y123135D01*
X193838Y123562D01*
X195657Y124777D01*
X196872Y126597D01*
X197299Y128743D01*
X196872Y130889D01*
X195657Y132708D01*
X195280Y132960D01*
X195290Y134960D01*
X195290Y134960D01*
Y140000D01*
X187500D01*
Y142000D01*
X185500D01*
Y149040D01*
X184414D01*
X184139Y149500D01*
X185272Y151500D01*
X187291D01*
X187750Y151439D01*
X188209Y151500D01*
X192750D01*
X192855Y151500D01*
X192877Y151497D01*
X194750Y151500D01*
Y151661D01*
D01*
X194786Y153647D01*
X194795Y153730D01*
X194916Y154127D01*
X195175Y154703D01*
X195586Y155424D01*
X196152Y156270D01*
X196848Y157197D01*
X199925Y160690D01*
X202179Y162944D01*
X208365Y156757D01*
D02*
G37*
G36*
X103315Y150754D02*
X103103Y150528D01*
X102923Y150305D01*
X102775Y150086D01*
X102661Y149872D01*
X102579Y149661D01*
X102530Y149455D01*
X102514Y149253D01*
X102530Y149054D01*
X102579Y148861D01*
X102660Y148671D01*
X98735Y150005D01*
X98851Y150065D01*
X98981Y150144D01*
X99123Y150242D01*
X99445Y150494D01*
X99818Y150820D01*
X100474Y151449D01*
X103315Y150754D01*
D02*
G37*
G36*
X243817Y145665D02*
X243630Y145439D01*
X243465Y145207D01*
X243322Y144968D01*
X243201Y144723D01*
X243102Y144471D01*
X243025Y144213D01*
X242970Y143948D01*
X242937Y143676D01*
X242926Y143398D01*
X240926D01*
X240915Y143676D01*
X240882Y143948D01*
X240827Y144213D01*
X240750Y144471D01*
X240651Y144723D01*
X240530Y144968D01*
X240387Y145207D01*
X240222Y145439D01*
X240035Y145665D01*
X239826Y145884D01*
X244026D01*
X243817Y145665D01*
D02*
G37*
G36*
X111594Y146323D02*
X111491Y146117D01*
X111400Y145898D01*
X111321Y145667D01*
X111255Y145425D01*
X111200Y145170D01*
X111158Y144904D01*
X111110Y144335D01*
X111103Y144032D01*
X108603Y143395D01*
X108594Y143701D01*
X108564Y143988D01*
X108514Y144255D01*
X108445Y144503D01*
X108356Y144731D01*
X108248Y144940D01*
X108119Y145129D01*
X107971Y145299D01*
X107803Y145450D01*
X107615Y145581D01*
X111709Y146518D01*
X111594Y146323D01*
D02*
G37*
G36*
X211938Y142684D02*
X211794Y142496D01*
X211667Y142293D01*
X211556Y142076D01*
X211462Y141845D01*
X211386Y141599D01*
X211327Y141339D01*
X211284Y141065D01*
X211259Y140776D01*
X211250Y140473D01*
X208750D01*
X208741Y140776D01*
X208716Y141065D01*
X208673Y141339D01*
X208614Y141599D01*
X208538Y141845D01*
X208444Y142076D01*
X208333Y142293D01*
X208206Y142496D01*
X208062Y142684D01*
X207900Y142858D01*
X212100D01*
X211938Y142684D01*
D02*
G37*
G36*
X142794Y131938D02*
X143015Y131750D01*
X143238Y131582D01*
X143462Y131434D01*
X143688Y131306D01*
X143916Y131197D01*
X144145Y131109D01*
X144376Y131041D01*
X144609Y130993D01*
X144843Y130965D01*
X141629Y128262D01*
X141640Y128497D01*
X141626Y128731D01*
X141588Y128964D01*
X141525Y129195D01*
X141439Y129424D01*
X141327Y129652D01*
X141192Y129878D01*
X141032Y130103D01*
X140848Y130326D01*
X140639Y130547D01*
X142575Y132147D01*
X142794Y131938D01*
D02*
G37*
G36*
X189549Y126643D02*
X189375Y126804D01*
X189187Y126949D01*
X188985Y127076D01*
X188768Y127187D01*
X188536Y127280D01*
X188291Y127357D01*
X188031Y127416D01*
X187756Y127459D01*
X187467Y127484D01*
X187164Y127493D01*
Y129993D01*
X187467Y130001D01*
X187756Y130027D01*
X188031Y130069D01*
X188291Y130129D01*
X188536Y130205D01*
X188768Y130299D01*
X188985Y130409D01*
X189187Y130537D01*
X189375Y130681D01*
X189549Y130843D01*
Y126643D01*
D02*
G37*
G36*
X60069Y125178D02*
X60370Y125140D01*
X60869Y125107D01*
X69970Y125000D01*
Y115000D01*
X59970Y114780D01*
Y125219D01*
X60069Y125178D01*
D02*
G37*
G36*
X193762Y113989D02*
X193800Y113559D01*
X193862Y113179D01*
X193950Y112850D01*
X194062Y112572D01*
X194200Y112344D01*
X194363Y112167D01*
X194550Y112040D01*
X194762Y111964D01*
X195000Y111939D01*
X190000D01*
X190238Y111964D01*
X190450Y112040D01*
X190637Y112167D01*
X190800Y112344D01*
X190938Y112572D01*
X191050Y112850D01*
X191138Y113179D01*
X191200Y113559D01*
X191238Y113989D01*
X191250Y114469D01*
X193750D01*
X193762Y113989D01*
D02*
G37*
G36*
X184509Y109894D02*
X185000Y109491D01*
Y95500D01*
X191103D01*
X191932Y93500D01*
X188990Y90559D01*
X179774D01*
X179681Y90578D01*
X179589Y90606D01*
X179497Y90642D01*
X179403Y90688D01*
X179304Y90747D01*
X179199Y90822D01*
X179117Y90890D01*
X178973Y91105D01*
X177319Y92210D01*
X175368Y92598D01*
X173417Y92210D01*
X172250Y91430D01*
X170598Y92037D01*
X170341Y92242D01*
X170250Y92339D01*
Y94000D01*
X157250D01*
Y80819D01*
X154790D01*
Y84750D01*
X147750D01*
Y86750D01*
X145750D01*
Y94540D01*
X140710D01*
Y91658D01*
X139750Y90962D01*
Y84750D01*
X137750D01*
Y82750D01*
X132468D01*
X132314Y82169D01*
X131593Y80819D01*
X111241D01*
X111022Y81086D01*
X110595Y83231D01*
X109379Y85051D01*
X107560Y86266D01*
X105414Y86693D01*
X104500Y86511D01*
X102500Y87976D01*
Y92750D01*
X88500D01*
Y79391D01*
X87500Y78805D01*
X86500Y79391D01*
Y92750D01*
X75061D01*
Y112940D01*
X84422D01*
X84619Y110940D01*
X84546Y110925D01*
X82465Y109535D01*
X81075Y107454D01*
X80985Y107000D01*
X93016D01*
X92925Y107454D01*
X91535Y109535D01*
X89454Y110925D01*
X89382Y110940D01*
X89579Y112940D01*
X114576D01*
X127508Y100007D01*
X128970Y98885D01*
X130673Y98180D01*
X132500Y97940D01*
X163150D01*
X164977Y98180D01*
X166680Y98885D01*
X168142Y100007D01*
X177493Y109358D01*
X178615Y110820D01*
X178671Y110956D01*
X180347Y111464D01*
X180509Y111432D01*
Y116683D01*
X184509D01*
Y109894D01*
D02*
G37*
G36*
X197466Y102262D02*
X197543Y102050D01*
X197670Y101862D01*
X197848Y101700D01*
X198076Y101562D01*
X198354Y101450D01*
X198682Y101362D01*
X199061Y101300D01*
X199490Y101262D01*
X199970Y101250D01*
Y98750D01*
X199494Y98743D01*
X198694Y98685D01*
X198370Y98635D01*
X198095Y98570D01*
X197869Y98491D01*
X197694Y98397D01*
X197570Y98289D01*
X197495Y98167D01*
X197470Y98031D01*
X197439Y102500D01*
X197466Y102262D01*
D02*
G37*
G36*
X143280Y86750D02*
X143255Y86987D01*
X143180Y87200D01*
X143055Y87388D01*
X142880Y87550D01*
X142655Y87688D01*
X142380Y87800D01*
X142055Y87887D01*
X141680Y87950D01*
X141255Y87987D01*
X140780Y88000D01*
Y90500D01*
X141255Y90513D01*
X141680Y90550D01*
X142055Y90612D01*
X142380Y90700D01*
X142655Y90813D01*
X142880Y90950D01*
X143055Y91112D01*
X143180Y91300D01*
X143255Y91512D01*
X143280Y91750D01*
Y86750D01*
D02*
G37*
G36*
X168209Y89310D02*
X168270Y89140D01*
X168372Y88990D01*
X168514Y88860D01*
X168696Y88750D01*
X168920Y88660D01*
X169184Y88590D01*
X169488Y88540D01*
X169833Y88510D01*
X170219Y88500D01*
Y86500D01*
X169833Y86490D01*
X169488Y86460D01*
X169184Y86410D01*
X168920Y86340D01*
X168696Y86250D01*
X168514Y86140D01*
X168372Y86010D01*
X168270Y85860D01*
X168209Y85690D01*
X168189Y85500D01*
Y89500D01*
X168209Y89310D01*
D02*
G37*
G36*
X177730Y89391D02*
X177955Y89204D01*
X178188Y89039D01*
X178426Y88896D01*
X178671Y88775D01*
X178923Y88676D01*
X179182Y88599D01*
X179447Y88544D01*
X179719Y88511D01*
X179997Y88500D01*
Y86500D01*
X179719Y86489D01*
X179447Y86456D01*
X179182Y86401D01*
X178923Y86324D01*
X178671Y86225D01*
X178426Y86104D01*
X178188Y85961D01*
X177955Y85796D01*
X177730Y85609D01*
X177511Y85400D01*
Y89600D01*
X177730Y89391D01*
D02*
G37*
G36*
X173226Y85400D02*
X173007Y85609D01*
X172782Y85796D01*
X172549Y85961D01*
X172311Y86104D01*
X172065Y86225D01*
X171814Y86324D01*
X171555Y86401D01*
X171290Y86456D01*
X171018Y86489D01*
X170740Y86500D01*
Y88500D01*
X171018Y88511D01*
X171290Y88544D01*
X171555Y88599D01*
X171814Y88676D01*
X172065Y88775D01*
X172311Y88896D01*
X172549Y89039D01*
X172782Y89204D01*
X173007Y89391D01*
X173226Y89600D01*
Y85400D01*
D02*
G37*
G36*
X99890Y83170D02*
X99860Y82960D01*
X99879Y82729D01*
X99946Y82477D01*
X100063Y82205D01*
X100229Y81911D01*
X100444Y81597D01*
X100709Y81263D01*
X101022Y80907D01*
X101384Y80531D01*
X100720Y78366D01*
X100276Y78796D01*
X99495Y79464D01*
X99159Y79701D01*
X98858Y79874D01*
X98593Y79984D01*
X98364Y80029D01*
X98171Y80010D01*
X98013Y79928D01*
X97891Y79781D01*
X99970Y83359D01*
X99890Y83170D01*
D02*
G37*
G36*
X197031Y76031D02*
X197010Y76072D01*
X196950Y76109D01*
X196850Y76142D01*
X196710Y76171D01*
X196530Y76195D01*
X196050Y76230D01*
X195030Y76250D01*
Y78250D01*
X195415Y78260D01*
X195758Y78290D01*
X196062Y78340D01*
X196325Y78410D01*
X196549Y78500D01*
X196732Y78610D01*
X196874Y78740D01*
X196977Y78890D01*
X197039Y79060D01*
X197061Y79250D01*
X197031Y76031D01*
D02*
G37*
G36*
X228969Y77281D02*
X228354Y77210D01*
X227654Y76998D01*
X226870Y76644D01*
X226003Y76149D01*
X225051Y75513D01*
X224015Y74735D01*
X221691Y72755D01*
X219030Y70210D01*
X212959Y78281D01*
X214303Y79648D01*
X218263Y84176D01*
X218899Y85073D01*
X219394Y85876D01*
X219748Y86584D01*
X219960Y87199D01*
X220030Y87720D01*
X228969Y77281D01*
D02*
G37*
%LPC*%
G36*
X195290Y149040D02*
X189500D01*
Y144000D01*
X195290D01*
Y149040D01*
D02*
G37*
G36*
X222000Y133265D02*
Y129250D01*
X226015D01*
X225925Y129704D01*
X224535Y131785D01*
X222454Y133175D01*
X222000Y133265D01*
D02*
G37*
G36*
X226015Y125250D02*
X222000D01*
Y121235D01*
X222454Y121325D01*
X224535Y122715D01*
X225925Y124796D01*
X226015Y125250D01*
D02*
G37*
G36*
X93016Y103000D02*
X89000D01*
Y98985D01*
X89454Y99075D01*
X91535Y100465D01*
X92925Y102546D01*
X93016Y103000D01*
D02*
G37*
G36*
X85000D02*
X80985D01*
X81075Y102546D01*
X82465Y100465D01*
X84546Y99075D01*
X85000Y98985D01*
Y103000D01*
D02*
G37*
G36*
X154790Y94540D02*
X149750D01*
Y88750D01*
X154790D01*
Y94540D01*
D02*
G37*
G36*
X135750Y90001D02*
X135588Y89969D01*
X133756Y88744D01*
X132531Y86912D01*
X132499Y86750D01*
X135750D01*
Y90001D01*
D02*
G37*
%LPD*%
D10*
X177500Y146850D02*
X178582D01*
X176831D02*
X177500D01*
X184000Y145500D02*
X187500Y142000D01*
X179932Y145500D02*
X184000D01*
X178582Y146850D02*
X179932Y145500D01*
X167500Y144500D02*
X174481D01*
X176831Y146850D01*
X175368Y87500D02*
X190257D01*
X214993Y92250D02*
X241926Y119183D01*
X195757Y93000D02*
X208243D01*
X208993Y92250D02*
X214993D01*
X208243Y93000D02*
X208993Y92250D01*
X190257Y87500D02*
X195757Y93000D01*
X164500Y87500D02*
X174692D01*
X163750Y86750D02*
X164500Y87500D01*
X103250Y77250D02*
X197750D01*
X95500Y85000D02*
X103250Y77250D01*
X197750D02*
X202000Y81500D01*
X241926Y119183D02*
Y148026D01*
X202000Y81500D02*
Y83000D01*
D11*
X171350Y127500D02*
X180858D01*
X149947Y148903D02*
Y160803D01*
X162100Y136750D02*
X171350Y127500D01*
X149947Y148903D02*
X159000Y139850D01*
Y138947D02*
Y139850D01*
Y138947D02*
X161197Y136750D01*
X162100D01*
X145250Y89250D02*
X147750Y86750D01*
X128250Y89250D02*
X145250D01*
X191447Y201250D02*
X206035D01*
X207500Y192000D02*
Y199785D01*
X206035Y201250D02*
X207500Y199785D01*
X189250Y203447D02*
X191447Y201250D01*
X189250Y203447D02*
Y215447D01*
X181447Y223250D02*
X189250Y215447D01*
X140250Y215250D02*
X154301Y229301D01*
X184387Y229685D02*
X185056Y230354D01*
X181842Y229301D02*
X182225Y229685D01*
X184387D01*
X154301Y229301D02*
X181842D01*
X150500Y210000D02*
Y218429D01*
X155321Y223250D02*
X181447D01*
X150500Y218429D02*
X155321Y223250D01*
X182101Y128743D02*
X191691D01*
X180858Y127500D02*
X182101Y128743D01*
X163394Y168935D02*
X163565D01*
X167500Y165000D01*
X133719Y141728D02*
X134447Y141000D01*
X116250Y143197D02*
X118447Y141000D01*
X130553D02*
X131282Y141728D01*
X134447Y141000D02*
X141500D01*
X144254Y138396D02*
X145978Y136672D01*
X112187Y155388D02*
X116250Y151325D01*
X141500Y141000D02*
X144104Y138396D01*
X109184Y148138D02*
X109853Y147468D01*
Y142522D02*
X116626Y135750D01*
X116250Y143197D02*
Y151325D01*
X144104Y138396D02*
X144254D01*
X116626Y135750D02*
X137204D01*
X109853Y142522D02*
Y147468D01*
X118447Y141000D02*
X130553D01*
X131282Y141728D02*
X133719D01*
X137204Y135750D02*
X144379Y128575D01*
X196250Y100000D02*
X200000D01*
X174692Y87500D02*
X175368D01*
X210000Y128308D02*
Y145000D01*
X79250Y225000D02*
X80750Y223500D01*
X85250D01*
X217973Y172223D02*
Y175823D01*
X217500Y171750D02*
X217973Y172223D01*
Y175823D02*
X221250Y179100D01*
X145308Y165442D02*
X149947Y160803D01*
X140500Y169250D02*
X143750Y166000D01*
X144656D02*
X145215Y165442D01*
X143750Y166000D02*
X144656D01*
X145215Y165442D02*
X145308D01*
X141888Y151388D02*
Y158316D01*
X140500Y150000D02*
X141888Y151388D01*
X222589Y201250D02*
X226437Y197401D01*
Y172913D02*
Y197401D01*
X144379Y128210D02*
X144615Y127974D01*
X145978Y136672D02*
X146925D01*
X144379Y128210D02*
Y128575D01*
X216750Y201250D02*
X222589D01*
X207500Y192000D02*
X216750Y201250D01*
X220000Y194324D02*
Y195000D01*
Y194324D02*
X221250Y193074D01*
Y179100D02*
Y193074D01*
X100000Y149207D02*
X106181Y155388D01*
X100000Y147284D02*
Y149207D01*
X106181Y155388D02*
X112187D01*
X147500Y170000D02*
X152500Y175000D01*
X140500Y170000D02*
X147500D01*
X199192Y117500D02*
X210000Y128308D01*
X193965Y117500D02*
X199192D01*
X192500Y116035D02*
X193965Y117500D01*
X192500Y103750D02*
X196250Y100000D01*
X166750Y144500D02*
X167500D01*
Y157500D02*
Y165000D01*
X192500Y103750D02*
Y105000D01*
Y116035D01*
X207500Y190000D02*
Y192000D01*
X140500Y169250D02*
Y170000D01*
X185473Y230788D02*
X194979Y221282D01*
X184842Y230158D02*
X185473Y230788D01*
X194979Y215021D02*
X198000Y212000D01*
X194979Y215021D02*
Y221282D01*
X140250Y212750D02*
Y215250D01*
X137500Y210000D02*
X140250Y212750D01*
X123000Y210000D02*
X137500D01*
D32*
X95500Y85000D02*
D03*
X79500D02*
D03*
X39500Y175000D02*
D03*
X55500D02*
D03*
X224500Y82500D02*
D03*
X240500D02*
D03*
X163750Y86750D02*
D03*
X147750D02*
D03*
X140500Y150000D02*
D03*
X124500D02*
D03*
X55500Y120000D02*
D03*
X39500D02*
D03*
X107000Y210000D02*
D03*
X123000D02*
D03*
X124500Y170000D02*
D03*
X140500D02*
D03*
D39*
X137500Y210000D02*
D03*
X150500D02*
D03*
D43*
X172500Y114351D02*
Y115000D01*
X163150Y105000D02*
X172500Y114351D01*
X75851Y69000D02*
X210750D01*
X117500Y120000D02*
X132500Y105000D01*
X70000Y120000D02*
X117500D01*
X197500Y245000D02*
X236437Y206063D01*
Y168771D02*
Y206063D01*
X229417Y161750D02*
X236437Y168771D01*
X213358Y161750D02*
X229417D01*
X198088Y177020D02*
X213358Y161750D01*
X198088Y177020D02*
Y177512D01*
X55500Y120000D02*
X70000D01*
X68000Y118000D02*
X70000Y120000D01*
X68000Y76851D02*
Y118000D01*
Y76851D02*
X75851Y69000D01*
X210750D02*
X224250Y82500D01*
X198088Y177512D02*
Y177565D01*
X250000Y157500D02*
Y222500D01*
X224250Y82500D02*
X224500D01*
X132500Y105000D02*
X163150D01*
X25000Y275000D02*
X197500D01*
X250000Y222500D01*
X122351Y245000D02*
X197500D01*
X75000Y197649D02*
X122351Y245000D01*
X55500Y175000D02*
X75000D01*
X198088Y168838D02*
Y177512D01*
X55500Y120000D02*
X55500Y120000D01*
X187750Y158500D02*
X198088Y168838D01*
X75000Y175000D02*
Y197649D01*
D44*
X107500Y200000D02*
Y209500D01*
X79500Y84000D02*
X80000Y84500D01*
X79500Y85000D02*
X80000Y84500D01*
X107000Y210000D02*
X107500Y209500D01*
D47*
X275000Y275000D02*
D03*
X275500Y25000D02*
D03*
X25000Y275000D02*
D03*
D48*
X275000Y225000D02*
D03*
X275500Y75000D02*
D03*
X25000Y225000D02*
D03*
D49*
X87000Y105000D02*
D03*
X172500Y115000D02*
D03*
X137500Y117500D02*
D03*
X220000Y127250D02*
D03*
X30000Y130000D02*
D03*
X70000Y120000D02*
D03*
X198088Y177565D02*
D03*
X250000Y157500D02*
D03*
X107500Y287500D02*
D03*
X180000Y212500D02*
D03*
X132500Y227500D02*
D03*
X125000Y55000D02*
D03*
X154750Y286750D02*
D03*
X210000Y15000D02*
D03*
X215000Y285000D02*
D03*
X85000Y15000D02*
D03*
X89000Y187500D02*
D03*
X262500Y127500D02*
D03*
X75000Y175000D02*
D03*
D50*
X137750Y84750D02*
D03*
X175368Y87500D02*
D03*
X191691Y128743D02*
D03*
X182509Y116683D02*
D03*
X177500Y146850D02*
D03*
X163394Y168935D02*
D03*
X109184Y148138D02*
D03*
X200000Y100000D02*
D03*
X210000Y145000D02*
D03*
X85250Y223500D02*
D03*
X217500Y171750D02*
D03*
X141888Y158316D02*
D03*
X226437Y172913D02*
D03*
X185056Y230354D02*
D03*
X146925Y136672D02*
D03*
X144615Y127974D02*
D03*
X107500Y200000D02*
D03*
X220000Y195000D02*
D03*
X79500Y84000D02*
D03*
X105414Y81086D02*
D03*
X100000Y147284D02*
D03*
X152500Y175000D02*
D03*
X241926Y148026D02*
D03*
D51*
X79250Y225000D02*
D03*
Y238000D02*
D03*
X167500Y157500D02*
D03*
Y144500D02*
D03*
D52*
X192500Y105000D02*
D03*
X211500D02*
D03*
X202000Y83000D02*
D03*
X207500Y190000D02*
D03*
X188500D02*
D03*
X198000Y212000D02*
D03*
D53*
X187500Y158000D02*
D03*
Y142000D02*
D03*
M02*
