G04*
G04 #@! TF.GenerationSoftware,Altium Limited,Altium Designer,20.0.12 (288)*
G04*
G04 Layer_Color=8388736*
%FSLAX44Y44*%
%MOMM*%
G71*
G01*
G75*
%ADD16R,1.6032X1.7032*%
%ADD17R,1.1032X1.2532*%
%ADD18R,1.1732X0.8732*%
G04:AMPARAMS|DCode=19|XSize=1.0632mm|YSize=0.4732mm|CornerRadius=0.1354mm|HoleSize=0mm|Usage=FLASHONLY|Rotation=0.000|XOffset=0mm|YOffset=0mm|HoleType=Round|Shape=RoundedRectangle|*
%AMROUNDEDRECTD19*
21,1,1.0632,0.2025,0,0,0.0*
21,1,0.7925,0.4732,0,0,0.0*
1,1,0.2707,0.3963,-0.1013*
1,1,0.2707,-0.3963,-0.1013*
1,1,0.2707,-0.3963,0.1013*
1,1,0.2707,0.3963,0.1013*
%
%ADD19ROUNDEDRECTD19*%
%ADD20R,2.6532X2.6532*%
G04:AMPARAMS|DCode=21|XSize=1.0632mm|YSize=0.4732mm|CornerRadius=0.1354mm|HoleSize=0mm|Usage=FLASHONLY|Rotation=90.000|XOffset=0mm|YOffset=0mm|HoleType=Round|Shape=RoundedRectangle|*
%AMROUNDEDRECTD21*
21,1,1.0632,0.2025,0,0,90.0*
21,1,0.7925,0.4732,0,0,90.0*
1,1,0.2707,0.1013,0.3963*
1,1,0.2707,0.1013,-0.3963*
1,1,0.2707,-0.1013,-0.3963*
1,1,0.2707,-0.1013,0.3963*
%
%ADD21ROUNDEDRECTD21*%
%ADD22R,1.6532X0.8032*%
%ADD23O,1.6532X0.8032*%
%ADD24R,1.0032X1.1532*%
%ADD25R,2.4532X2.3032*%
%ADD26R,1.9532X1.4532*%
%ADD27R,2.9032X2.9032*%
%ADD28C,2.9032*%
%ADD29C,0.9532*%
%ADD30C,0.8032*%
D16*
X72500Y210000D02*
D03*
X92500D02*
D03*
D17*
X235000Y15000D02*
D03*
X219000D02*
D03*
X240000Y285000D02*
D03*
X224000D02*
D03*
D18*
X270000Y195000D02*
D03*
Y181100D02*
D03*
X235000Y195000D02*
D03*
Y181100D02*
D03*
X232500Y113900D02*
D03*
Y100000D02*
D03*
X250000Y113900D02*
D03*
Y100000D02*
D03*
X252500Y181100D02*
D03*
Y195000D02*
D03*
X267500Y113900D02*
D03*
Y100000D02*
D03*
X285000Y113900D02*
D03*
Y100000D02*
D03*
X287500Y181100D02*
D03*
Y195000D02*
D03*
D19*
X158150Y156850D02*
D03*
Y151850D02*
D03*
Y146850D02*
D03*
Y141850D02*
D03*
Y136850D02*
D03*
X196850D02*
D03*
Y141850D02*
D03*
Y146850D02*
D03*
Y151850D02*
D03*
Y156850D02*
D03*
D20*
X177500Y146850D02*
D03*
D21*
X167500Y127500D02*
D03*
X172500D02*
D03*
X177500D02*
D03*
X182500D02*
D03*
X187500D02*
D03*
Y166200D02*
D03*
X182500D02*
D03*
X177500D02*
D03*
X172500D02*
D03*
X167500D02*
D03*
D22*
X172545Y269015D02*
D03*
X154750Y230950D02*
D03*
X162750Y65600D02*
D03*
X144750Y27500D02*
D03*
D23*
X172545Y256315D02*
D03*
Y243615D02*
D03*
Y230915D02*
D03*
X227046Y269015D02*
D03*
Y256315D02*
D03*
Y243615D02*
D03*
Y230915D02*
D03*
X154750Y243650D02*
D03*
Y256350D02*
D03*
Y269050D02*
D03*
X100250Y230950D02*
D03*
Y243650D02*
D03*
Y256350D02*
D03*
Y269050D02*
D03*
X162750Y52900D02*
D03*
Y40200D02*
D03*
Y27500D02*
D03*
X217250Y65600D02*
D03*
Y52900D02*
D03*
Y40200D02*
D03*
Y27500D02*
D03*
X90250Y65600D02*
D03*
Y52900D02*
D03*
Y40200D02*
D03*
Y27500D02*
D03*
X144750Y65600D02*
D03*
Y52900D02*
D03*
Y40200D02*
D03*
D24*
X175000Y105000D02*
D03*
X162000D02*
D03*
X125652Y79858D02*
D03*
X112651D02*
D03*
X132000Y105000D02*
D03*
X145000D02*
D03*
X161000Y190000D02*
D03*
X174000D02*
D03*
X129500D02*
D03*
X142500D02*
D03*
X97500Y187500D02*
D03*
X110500D02*
D03*
X112500Y105000D02*
D03*
X99500D02*
D03*
D25*
X64500Y102500D02*
D03*
X30000D02*
D03*
X64500Y155000D02*
D03*
X30000D02*
D03*
D26*
X64250Y285000D02*
D03*
X90750D02*
D03*
X71500Y15000D02*
D03*
X45000D02*
D03*
D27*
X275000Y275000D02*
D03*
X275500Y25000D02*
D03*
X25000Y275000D02*
D03*
D28*
X275000Y225000D02*
D03*
X275500Y75000D02*
D03*
X25000Y225000D02*
D03*
D29*
X87000Y105000D02*
D03*
X172500Y115000D02*
D03*
X137500Y117500D02*
D03*
X220000Y127250D02*
D03*
X30000Y130000D02*
D03*
X70000Y120000D02*
D03*
X198088Y177565D02*
D03*
X250000Y157500D02*
D03*
X107500Y287500D02*
D03*
X180000Y212500D02*
D03*
X132500Y227500D02*
D03*
X125000Y55000D02*
D03*
X154750Y286750D02*
D03*
X210000Y15000D02*
D03*
X215000Y285000D02*
D03*
X85000Y15000D02*
D03*
X89000Y187500D02*
D03*
X262500Y127500D02*
D03*
X75000Y175000D02*
D03*
D30*
X137750Y84750D02*
D03*
X175368Y87500D02*
D03*
X191691Y128743D02*
D03*
X182509Y116683D02*
D03*
X177500Y146850D02*
D03*
X163394Y168935D02*
D03*
X109184Y148138D02*
D03*
X200000Y100000D02*
D03*
X210000Y145000D02*
D03*
X85250Y223500D02*
D03*
X217500Y171750D02*
D03*
X141888Y158316D02*
D03*
X226437Y172913D02*
D03*
X185056Y230354D02*
D03*
X146925Y136672D02*
D03*
X144615Y127974D02*
D03*
X107500Y200000D02*
D03*
X220000Y195000D02*
D03*
X79500Y84000D02*
D03*
X105414Y81086D02*
D03*
X100000Y147284D02*
D03*
X152500Y175000D02*
D03*
X241926Y148026D02*
D03*
M02*
